<svg xmlns="http://www.w3.org/2000/svg" xmlns:xlink="http://www.w3.org/1999/xlink" width="1080" zoomAndPan="magnify" viewBox="0 0 810 1012.49997" height="1350" preserveAspectRatio="xMidYMid meet" version="1.0"><defs><clipPath id="f21d941e07"><path d="M 81.160156 202.398438 L 728.839844 202.398438 L 728.839844 809.601562 L 81.160156 809.601562 Z M 81.160156 202.398438 " clip-rule="nonzero"/></clipPath></defs><g clip-path="url(#f21d941e07)"><path fill="#e6eaf2" d="M 685.617188 809.527344 L 124.382812 809.527344 C 100.496094 809.527344 81.160156 790.191406 81.160156 766.308594 L 81.160156 245.691406 C 81.160156 221.808594 100.496094 202.472656 124.382812 202.472656 L 685.617188 202.472656 C 709.503906 202.472656 728.839844 221.808594 728.839844 245.691406 L 728.839844 766.308594 C 728.839844 790.191406 709.503906 809.527344 685.617188 809.527344 Z M 124.382812 221.96875 C 111.21875 221.96875 100.660156 232.695312 100.660156 245.691406 L 100.660156 766.308594 C 100.660156 779.46875 111.382812 790.03125 124.382812 790.03125 L 685.617188 790.03125 C 698.78125 790.03125 709.339844 779.304688 709.339844 766.308594 L 709.339844 245.691406 C 709.339844 232.53125 698.617188 221.96875 685.617188 221.96875 Z M 124.382812 221.96875 " fill-opacity="1" fill-rule="nonzero"/></g><path fill="#e6eaf2" d="M 664.007812 752.984375 L 135.59375 752.984375 C 130.230469 752.984375 125.84375 748.597656 125.84375 743.234375 C 125.84375 737.871094 130.230469 733.484375 135.59375 733.484375 L 664.007812 733.484375 C 669.371094 733.484375 673.757812 737.871094 673.757812 743.234375 C 673.757812 748.597656 669.371094 752.984375 664.007812 752.984375 Z M 664.007812 752.984375 " fill-opacity="1" fill-rule="nonzero"/><path fill="#e6eaf2" d="M 407.601562 706.511719 L 139.492188 706.511719 C 134.132812 706.511719 129.742188 702.125 129.742188 696.761719 C 129.742188 691.398438 134.132812 687.011719 139.492188 687.011719 L 407.601562 687.011719 C 412.960938 687.011719 417.347656 691.398438 417.347656 696.761719 C 417.347656 702.125 412.960938 706.511719 407.601562 706.511719 Z M 407.601562 706.511719 " fill-opacity="1" fill-rule="nonzero"/><path fill="#e6eaf2" d="M 432.625 661.175781 L 135.59375 661.175781 C 130.230469 661.175781 125.84375 656.789062 125.84375 651.425781 C 125.84375 646.066406 130.230469 641.679688 135.59375 641.679688 L 432.625 641.679688 C 437.984375 641.679688 442.371094 646.066406 442.371094 651.425781 C 442.371094 656.789062 437.984375 661.175781 432.625 661.175781 Z M 432.625 661.175781 " fill-opacity="1" fill-rule="nonzero"/><path fill="#e6eaf2" d="M 443.835938 613.894531 L 138.195312 613.894531 C 132.832031 613.894531 128.445312 609.503906 128.445312 604.144531 C 128.445312 598.78125 132.832031 594.394531 138.195312 594.394531 L 443.835938 594.394531 C 449.195312 594.394531 453.585938 598.78125 453.585938 604.144531 C 453.585938 609.503906 449.195312 613.894531 443.835938 613.894531 Z M 443.835938 613.894531 " fill-opacity="1" fill-rule="nonzero"/><path fill="#e6eaf2" d="M 337.566406 564.007812 L 163.378906 564.007812 C 142.582031 564.007812 125.683594 547.109375 125.683594 526.3125 L 125.683594 381.046875 C 125.683594 360.246094 142.582031 343.347656 163.378906 343.347656 L 337.566406 343.347656 C 358.367188 343.347656 375.265625 360.246094 375.265625 381.046875 L 375.265625 526.3125 C 375.265625 547.109375 358.367188 564.007812 337.566406 564.007812 Z M 163.378906 362.847656 C 153.304688 362.847656 145.179688 370.972656 145.179688 381.046875 L 145.179688 526.3125 C 145.179688 536.386719 153.304688 544.511719 163.378906 544.511719 L 337.566406 544.511719 C 347.640625 544.511719 355.765625 536.386719 355.765625 526.3125 L 355.765625 381.046875 C 355.765625 370.972656 347.640625 362.847656 337.566406 362.847656 Z M 163.378906 362.847656 " fill-opacity="1" fill-rule="nonzero"/><path fill="#e6eaf2" d="M 303.769531 529.722656 C 301.167969 529.722656 298.570312 528.75 296.621094 526.636719 L 218.789062 443.929688 L 146.316406 517.535156 C 142.582031 521.4375 136.40625 521.4375 132.507812 517.699219 C 128.605469 513.960938 128.605469 507.789062 132.34375 503.886719 L 211.800781 422.96875 C 213.589844 421.019531 216.1875 420.042969 218.789062 420.042969 C 221.386719 420.042969 223.988281 421.179688 225.773438 423.128906 L 310.59375 513.148438 C 314.332031 517.050781 314.167969 523.222656 310.105469 526.960938 C 308.644531 528.910156 306.207031 529.722656 303.769531 529.722656 Z M 303.769531 529.722656 " fill-opacity="1" fill-rule="nonzero"/><path fill="#e6eaf2" d="M 355.765625 541.585938 C 353.003906 541.585938 350.242188 540.449219 348.453125 538.171875 L 304.257812 487.476562 L 292.558594 500.3125 C 288.984375 504.375 282.808594 504.539062 278.746094 500.964844 C 274.683594 497.386719 274.523438 491.214844 278.097656 487.152344 L 297.109375 466.191406 C 299.058594 464.078125 301.65625 462.941406 304.417969 462.941406 C 307.183594 462.941406 309.78125 464.242188 311.730469 466.351562 L 363.078125 525.5 C 366.652344 529.5625 366.164062 535.734375 362.101562 539.308594 C 360.316406 540.773438 358.039062 541.585938 355.765625 541.585938 Z M 355.765625 541.585938 " fill-opacity="1" fill-rule="nonzero"/><path fill="#e6eaf2" d="M 299.871094 447.015625 C 281.832031 447.015625 267.046875 432.394531 267.046875 414.195312 C 267.046875 396.15625 281.671875 381.371094 299.871094 381.371094 C 318.070312 381.371094 332.691406 395.996094 332.691406 414.195312 C 332.53125 432.230469 317.90625 447.015625 299.871094 447.015625 Z M 299.871094 400.871094 C 292.558594 400.871094 286.546875 406.882812 286.546875 414.195312 C 286.546875 421.507812 292.558594 427.519531 299.871094 427.519531 C 307.183594 427.519531 313.195312 421.507812 313.195312 414.195312 C 313.195312 406.882812 307.183594 400.871094 299.871094 400.871094 Z M 299.871094 400.871094 " fill-opacity="1" fill-rule="nonzero"/><path fill="#e6eaf2" d="M 706.742188 316.214844 L 97.410156 316.214844 C 92.046875 316.214844 87.660156 311.824219 87.660156 306.464844 C 87.660156 301.101562 92.046875 296.714844 97.410156 296.714844 L 706.742188 296.714844 C 712.105469 296.714844 716.492188 301.101562 716.492188 306.464844 C 716.492188 311.824219 712.105469 316.214844 706.742188 316.214844 Z M 706.742188 316.214844 " fill-opacity="1" fill-rule="nonzero"/><path fill="#e6eaf2" d="M 645.644531 372.109375 L 410.199219 372.109375 C 404.835938 372.109375 400.449219 367.722656 400.449219 362.359375 C 400.449219 356.996094 404.835938 352.609375 410.199219 352.609375 L 645.484375 352.609375 C 650.84375 352.609375 655.234375 356.996094 655.234375 362.359375 C 655.234375 367.722656 651.007812 372.109375 645.644531 372.109375 Z M 645.644531 372.109375 " fill-opacity="1" fill-rule="nonzero"/><path fill="#e6eaf2" d="M 654.09375 418.09375 L 406.949219 418.09375 C 401.585938 418.09375 397.199219 413.707031 397.199219 408.34375 C 397.199219 402.980469 401.585938 398.59375 406.949219 398.59375 L 654.09375 398.59375 C 659.457031 398.59375 663.84375 402.980469 663.84375 408.34375 C 663.84375 413.707031 659.457031 418.09375 654.09375 418.09375 Z M 654.09375 418.09375 " fill-opacity="1" fill-rule="nonzero"/><path fill="#e6eaf2" d="M 580.488281 464.726562 L 409.550781 464.726562 C 404.1875 464.726562 399.800781 460.339844 399.800781 454.980469 C 399.800781 449.617188 404.1875 445.230469 409.550781 445.230469 L 580.488281 445.230469 C 585.851562 445.230469 590.238281 449.617188 590.238281 454.980469 C 590.238281 460.339844 585.851562 464.726562 580.488281 464.726562 Z M 580.488281 464.726562 " fill-opacity="1" fill-rule="nonzero"/><path fill="#e6eaf2" d="M 548.316406 512.664062 L 414.910156 512.664062 C 409.550781 512.664062 405.164062 508.273438 405.164062 502.914062 C 405.164062 497.550781 409.550781 493.164062 414.910156 493.164062 L 548.316406 493.164062 C 553.675781 493.164062 558.0625 497.550781 558.0625 502.914062 C 558.0625 508.273438 553.675781 512.664062 548.316406 512.664062 Z M 548.316406 512.664062 " fill-opacity="1" fill-rule="nonzero"/><path fill="#e6eaf2" d="M 577.5625 647.039062 C 575.125 647.039062 572.851562 646.226562 570.902344 644.441406 L 519.230469 596.507812 C 515.328125 592.769531 515.003906 586.59375 518.742188 582.695312 C 522.480469 578.796875 528.652344 578.46875 532.554688 582.207031 L 584.226562 630.140625 C 588.125 633.878906 588.449219 640.054688 584.710938 643.953125 C 582.761719 646.066406 580.164062 647.039062 577.5625 647.039062 Z M 577.5625 647.039062 " fill-opacity="1" fill-rule="nonzero"/><path fill="#e6eaf2" d="M 456.347656 719.996094 C 453.746094 719.996094 451.148438 718.859375 449.195312 716.910156 C 446.433594 713.824219 445.785156 709.4375 447.570312 705.859375 C 447.734375 705.375 469.996094 661.664062 468.53125 629.652344 C 468.371094 624.78125 471.78125 620.390625 476.65625 619.578125 C 502.167969 615.191406 518.417969 603.65625 523.941406 599.105469 C 522.804688 595.695312 523.617188 591.632812 526.378906 589.03125 L 652.308594 467.976562 C 655.882812 464.566406 661.570312 464.402344 665.46875 467.652344 L 703.328125 500.152344 C 705.441406 501.9375 706.578125 504.539062 706.742188 507.300781 C 706.902344 510.0625 705.765625 512.664062 703.816406 514.613281 C 659.945312 556.695312 588.289062 626.40625 582.925781 633.878906 C 582.273438 634.855469 581.460938 636.316406 580.324219 637.777344 C 572.851562 648.988281 557.414062 672.550781 553.839844 688.636719 C 552.703125 693.347656 548.316406 696.597656 543.441406 696.273438 C 523.128906 694.324219 476.65625 712.199219 460.570312 719.183594 C 458.945312 719.835938 457.644531 719.996094 456.347656 719.996094 Z M 488.03125 637.128906 C 487.21875 656.464844 480.71875 677.261719 474.707031 692.539062 C 492.90625 685.875 518.09375 677.75 536.617188 676.9375 C 542.953125 658.738281 556.601562 637.941406 563.75 627.214844 C 564.726562 625.753906 565.703125 624.292969 566.351562 623.316406 C 571.875 614.707031 648.734375 540.449219 682.367188 508.113281 L 659.457031 488.125 L 542.140625 600.894531 C 543.277344 604.304688 542.628906 608.207031 539.867188 610.96875 C 538.890625 611.78125 521.179688 629.167969 488.03125 637.128906 Z M 488.03125 637.128906 " fill-opacity="1" fill-rule="nonzero"/><path fill="#e6eaf2" d="M 477.957031 700.988281 C 475.519531 700.988281 473.246094 700.175781 471.296875 698.386719 C 467.394531 694.648438 467.070312 688.476562 470.808594 684.574219 L 498.105469 655.328125 C 501.84375 651.425781 508.019531 651.101562 511.917969 654.839844 C 515.816406 658.578125 516.140625 664.75 512.40625 668.652344 L 485.105469 697.898438 C 483.15625 700.011719 480.558594 700.988281 477.957031 700.988281 Z M 477.957031 700.988281 " fill-opacity="1" fill-rule="nonzero"/><path fill="#e6eaf2" d="M 524.429688 653.703125 C 524.429688 654.511719 524.351562 655.316406 524.191406 656.113281 C 524.035156 656.90625 523.800781 657.679688 523.488281 658.429688 C 523.179688 659.175781 522.796875 659.890625 522.347656 660.5625 C 521.898438 661.238281 521.386719 661.859375 520.8125 662.433594 C 520.238281 663.007812 519.613281 663.519531 518.941406 663.96875 C 518.265625 664.421875 517.554688 664.800781 516.804688 665.113281 C 516.058594 665.421875 515.285156 665.65625 514.488281 665.8125 C 513.695312 665.972656 512.890625 666.050781 512.078125 666.050781 C 511.269531 666.050781 510.464844 665.972656 509.671875 665.8125 C 508.875 665.65625 508.101562 665.421875 507.355469 665.113281 C 506.605469 664.800781 505.894531 664.421875 505.21875 663.96875 C 504.542969 663.519531 503.921875 663.007812 503.347656 662.433594 C 502.773438 661.859375 502.261719 661.238281 501.8125 660.5625 C 501.363281 659.890625 500.980469 659.175781 500.671875 658.429688 C 500.359375 657.679688 500.125 656.90625 499.96875 656.113281 C 499.808594 655.316406 499.730469 654.511719 499.730469 653.703125 C 499.730469 652.890625 499.808594 652.089844 499.96875 651.292969 C 500.125 650.496094 500.359375 649.726562 500.671875 648.976562 C 500.980469 648.226562 501.363281 647.515625 501.8125 646.839844 C 502.261719 646.167969 502.773438 645.542969 503.347656 644.96875 C 503.921875 644.398438 504.542969 643.886719 505.21875 643.433594 C 505.894531 642.984375 506.605469 642.601562 507.355469 642.292969 C 508.101562 641.984375 508.875 641.75 509.671875 641.589844 C 510.464844 641.433594 511.269531 641.351562 512.078125 641.351562 C 512.890625 641.351562 513.695312 641.433594 514.488281 641.589844 C 515.285156 641.75 516.058594 641.984375 516.804688 642.292969 C 517.554688 642.601562 518.265625 642.984375 518.941406 643.433594 C 519.613281 643.886719 520.238281 644.398438 520.8125 644.96875 C 521.386719 645.542969 521.898438 646.167969 522.347656 646.839844 C 522.796875 647.515625 523.179688 648.226562 523.488281 648.976562 C 523.800781 649.726562 524.035156 650.496094 524.191406 651.292969 C 524.351562 652.089844 524.429688 652.890625 524.429688 653.703125 Z M 524.429688 653.703125 " fill-opacity="1" fill-rule="nonzero"/><path fill="#e6eaf2" d="M 156.390625 259.503906 C 156.390625 260.390625 156.304688 261.265625 156.132812 262.136719 C 155.960938 263.003906 155.703125 263.847656 155.367188 264.664062 C 155.027344 265.484375 154.609375 266.261719 154.121094 266.996094 C 153.628906 267.734375 153.066406 268.414062 152.441406 269.042969 C 151.816406 269.667969 151.132812 270.226562 150.398438 270.71875 C 149.660156 271.210938 148.886719 271.625 148.066406 271.964844 C 147.25 272.304688 146.40625 272.558594 145.535156 272.730469 C 144.667969 272.90625 143.792969 272.992188 142.90625 272.992188 C 142.019531 272.992188 141.144531 272.90625 140.273438 272.730469 C 139.40625 272.558594 138.5625 272.304688 137.746094 271.964844 C 136.925781 271.625 136.148438 271.210938 135.414062 270.71875 C 134.675781 270.226562 133.996094 269.667969 133.371094 269.042969 C 132.742188 268.414062 132.183594 267.734375 131.691406 266.996094 C 131.199219 266.261719 130.785156 265.484375 130.445312 264.664062 C 130.105469 263.847656 129.851562 263.003906 129.679688 262.136719 C 129.503906 261.265625 129.417969 260.390625 129.417969 259.503906 C 129.417969 258.617188 129.503906 257.742188 129.679688 256.875 C 129.851562 256.003906 130.105469 255.160156 130.445312 254.34375 C 130.785156 253.527344 131.199219 252.75 131.691406 252.011719 C 132.183594 251.277344 132.742188 250.59375 133.371094 249.96875 C 133.996094 249.34375 134.675781 248.78125 135.414062 248.289062 C 136.148438 247.800781 136.925781 247.382812 137.746094 247.042969 C 138.5625 246.707031 139.40625 246.449219 140.273438 246.277344 C 141.144531 246.105469 142.019531 246.019531 142.90625 246.019531 C 143.792969 246.019531 144.667969 246.105469 145.535156 246.277344 C 146.40625 246.449219 147.25 246.707031 148.066406 247.042969 C 148.886719 247.382812 149.660156 247.800781 150.398438 248.289062 C 151.132812 248.78125 151.816406 249.34375 152.441406 249.96875 C 153.066406 250.59375 153.628906 251.277344 154.121094 252.011719 C 154.609375 252.75 155.027344 253.527344 155.367188 254.34375 C 155.703125 255.160156 155.960938 256.003906 156.132812 256.875 C 156.304688 257.742188 156.390625 258.617188 156.390625 259.503906 Z M 156.390625 259.503906 " fill-opacity="1" fill-rule="nonzero"/><path fill="#e6eaf2" d="M 209.6875 259.503906 C 209.6875 260.390625 209.601562 261.265625 209.429688 262.136719 C 209.257812 263.003906 209 263.847656 208.660156 264.664062 C 208.324219 265.484375 207.90625 266.261719 207.414062 266.996094 C 206.921875 267.734375 206.363281 268.414062 205.738281 269.042969 C 205.113281 269.667969 204.429688 270.226562 203.695312 270.71875 C 202.957031 271.210938 202.179688 271.625 201.363281 271.964844 C 200.542969 272.304688 199.703125 272.558594 198.832031 272.730469 C 197.964844 272.90625 197.085938 272.992188 196.203125 272.992188 C 195.316406 272.992188 194.4375 272.90625 193.570312 272.730469 C 192.703125 272.558594 191.859375 272.304688 191.039062 271.964844 C 190.222656 271.625 189.445312 271.210938 188.710938 270.71875 C 187.972656 270.226562 187.292969 269.667969 186.664062 269.042969 C 186.039062 268.414062 185.480469 267.734375 184.988281 266.996094 C 184.496094 266.261719 184.082031 265.484375 183.742188 264.664062 C 183.402344 263.847656 183.148438 263.003906 182.972656 262.136719 C 182.800781 261.265625 182.714844 260.390625 182.714844 259.503906 C 182.714844 258.617188 182.800781 257.742188 182.972656 256.875 C 183.148438 256.003906 183.402344 255.160156 183.742188 254.34375 C 184.082031 253.527344 184.496094 252.75 184.988281 252.011719 C 185.480469 251.277344 186.039062 250.59375 186.664062 249.96875 C 187.292969 249.34375 187.972656 248.78125 188.710938 248.289062 C 189.445312 247.800781 190.222656 247.382812 191.039062 247.042969 C 191.859375 246.707031 192.703125 246.449219 193.570312 246.277344 C 194.4375 246.105469 195.316406 246.019531 196.203125 246.019531 C 197.085938 246.019531 197.964844 246.105469 198.832031 246.277344 C 199.703125 246.449219 200.542969 246.707031 201.363281 247.042969 C 202.179688 247.382812 202.957031 247.800781 203.695312 248.289062 C 204.429688 248.78125 205.113281 249.34375 205.738281 249.96875 C 206.363281 250.59375 206.921875 251.277344 207.414062 252.011719 C 207.90625 252.75 208.324219 253.527344 208.660156 254.34375 C 209 255.160156 209.257812 256.003906 209.429688 256.875 C 209.601562 257.742188 209.6875 258.617188 209.6875 259.503906 Z M 209.6875 259.503906 " fill-opacity="1" fill-rule="nonzero"/><path fill="#e6eaf2" d="M 262.984375 259.503906 C 262.984375 260.390625 262.898438 261.265625 262.726562 262.136719 C 262.554688 263.003906 262.296875 263.847656 261.957031 264.664062 C 261.621094 265.484375 261.203125 266.261719 260.710938 266.996094 C 260.21875 267.734375 259.660156 268.414062 259.035156 269.042969 C 258.410156 269.667969 257.726562 270.226562 256.992188 270.71875 C 256.253906 271.210938 255.476562 271.625 254.660156 271.964844 C 253.839844 272.304688 252.996094 272.558594 252.128906 272.730469 C 251.261719 272.90625 250.382812 272.992188 249.5 272.992188 C 248.613281 272.992188 247.734375 272.90625 246.867188 272.730469 C 246 272.558594 245.15625 272.304688 244.335938 271.964844 C 243.519531 271.625 242.742188 271.210938 242.003906 270.71875 C 241.269531 270.226562 240.589844 269.667969 239.960938 269.042969 C 239.335938 268.414062 238.777344 267.734375 238.285156 266.996094 C 237.792969 266.261719 237.378906 265.484375 237.039062 264.664062 C 236.699219 263.847656 236.445312 263.003906 236.269531 262.136719 C 236.097656 261.265625 236.011719 260.390625 236.011719 259.503906 C 236.011719 258.617188 236.097656 257.742188 236.269531 256.875 C 236.445312 256.003906 236.699219 255.160156 237.039062 254.34375 C 237.378906 253.527344 237.792969 252.75 238.285156 252.011719 C 238.777344 251.277344 239.335938 250.59375 239.960938 249.96875 C 240.589844 249.34375 241.269531 248.78125 242.003906 248.289062 C 242.742188 247.800781 243.519531 247.382812 244.335938 247.042969 C 245.15625 246.707031 246 246.449219 246.867188 246.277344 C 247.734375 246.105469 248.613281 246.019531 249.5 246.019531 C 250.382812 246.019531 251.261719 246.105469 252.128906 246.277344 C 252.996094 246.449219 253.839844 246.707031 254.660156 247.042969 C 255.476562 247.382812 256.253906 247.800781 256.992188 248.289062 C 257.726562 248.78125 258.410156 249.34375 259.035156 249.96875 C 259.660156 250.59375 260.21875 251.277344 260.710938 252.011719 C 261.203125 252.75 261.621094 253.527344 261.957031 254.34375 C 262.296875 255.160156 262.554688 256.003906 262.726562 256.875 C 262.898438 257.742188 262.984375 258.617188 262.984375 259.503906 Z M 262.984375 259.503906 " fill-opacity="1" fill-rule="nonzero"/></svg>