<svg xmlns="http://www.w3.org/2000/svg" xmlns:xlink="http://www.w3.org/1999/xlink" width="500" zoomAndPan="magnify" viewBox="0 0 375 374.999991" height="500" preserveAspectRatio="xMidYMid meet" version="1.0"><defs><g/><clipPath id="aad18c9c43"><path d="M 247 94 L 287.75 94 L 287.75 121 L 247 121 Z M 247 94 " clip-rule="nonzero"/></clipPath><clipPath id="72d4fb6045"><path d="M 237 74.339844 L 256 74.339844 L 256 110 L 237 110 Z M 237 74.339844 " clip-rule="nonzero"/></clipPath><clipPath id="5a89e66fd2"><path d="M 87.5 94 L 128 94 L 128 121 L 87.5 121 Z M 87.5 94 " clip-rule="nonzero"/></clipPath><clipPath id="50bf8f8e45"><path d="M 119 74.339844 L 138 74.339844 L 138 110 L 119 110 Z M 119 74.339844 " clip-rule="nonzero"/></clipPath></defs><path fill="#000000" d="M 199.050781 227.097656 C 196.535156 229.609375 192.445312 229.613281 189.921875 227.105469 C 189.921875 227.105469 189.917969 227.101562 189.914062 227.097656 L 186.203125 223.386719 L 188.441406 221.148438 C 191.796875 217.796875 191.796875 212.351562 188.441406 209 C 186.816406 207.382812 184.65625 206.484375 182.363281 206.484375 L 182.359375 206.484375 C 182.035156 206.484375 181.71875 206.511719 181.398438 206.542969 C 182.316406 205.019531 182.722656 203.277344 182.609375 201.554688 L 199.09375 218.015625 C 201.570312 220.535156 201.558594 224.597656 199.050781 227.097656 Z M 199.050781 227.097656 " fill-opacity="1" fill-rule="nonzero"/><path fill="#000000" d="M 186.933594 219.636719 L 183.929688 222.632812 L 180.933594 225.628906 C 178.414062 228.144531 174.316406 228.144531 171.796875 225.628906 C 170.578125 224.410156 169.90625 222.792969 169.90625 221.066406 C 169.90625 219.34375 170.578125 217.722656 171.796875 216.503906 L 174.792969 213.507812 C 174.792969 213.507812 174.792969 213.507812 174.796875 213.507812 L 177.121094 211.183594 L 177.246094 211.0625 L 177.796875 210.511719 C 179.015625 209.296875 180.636719 208.621094 182.359375 208.621094 L 182.363281 208.621094 C 184.089844 208.621094 185.710938 209.289062 186.933594 210.511719 C 189.449219 213.03125 189.449219 217.121094 186.933594 219.636719 Z M 186.933594 219.636719 " fill-opacity="1" fill-rule="nonzero"/><path fill="#000000" d="M 178.609375 206.675781 L 176.28125 209 L 173.285156 211.996094 C 173.285156 211.996094 173.285156 211.996094 173.285156 212 L 170.285156 214.996094 C 167.765625 217.511719 163.667969 217.511719 161.148438 214.996094 C 158.632812 212.484375 158.628906 208.394531 161.140625 205.878906 C 161.144531 205.875 161.144531 205.875 161.148438 205.871094 L 168.304688 198.722656 C 168.308594 198.71875 168.308594 198.71875 168.308594 198.71875 L 169.484375 197.542969 C 171.996094 195.042969 176.078125 195.042969 178.597656 197.539062 C 178.601562 197.546875 178.605469 197.550781 178.609375 197.554688 L 178.65625 197.601562 C 181.125 200.125 181.113281 204.175781 178.609375 206.675781 Z M 178.609375 206.675781 " fill-opacity="1" fill-rule="nonzero"/><path fill="#000000" d="M 169.796875 194.210938 L 167.972656 196.035156 C 167.972656 196.039062 167.96875 196.039062 167.964844 196.042969 L 162.640625 201.359375 C 162.636719 201.363281 162.636719 201.363281 162.636719 201.363281 L 159.632812 204.367188 C 157.113281 206.875 153.019531 206.875 150.503906 204.363281 C 147.984375 201.84375 147.984375 197.753906 150.503906 195.238281 L 157.660156 188.085938 L 157.664062 188.085938 L 160.660156 185.085938 C 163.179688 182.570312 167.277344 182.570312 169.796875 185.085938 C 172.316406 187.601562 172.316406 191.695312 169.796875 194.210938 Z M 169.796875 194.210938 " fill-opacity="1" fill-rule="nonzero"/><path fill="#000000" d="M 161.042969 179.015625 C 161.042969 180.734375 160.371094 182.355469 159.152344 183.578125 L 148.988281 193.722656 C 146.46875 196.242188 142.371094 196.242188 139.851562 193.722656 C 137.335938 191.210938 137.335938 187.113281 139.851562 184.601562 L 142.84375 181.617188 C 142.847656 181.613281 142.851562 181.613281 142.855469 181.609375 C 142.859375 181.605469 142.859375 181.597656 142.863281 181.589844 L 150.015625 174.453125 C 151.234375 173.234375 152.855469 172.5625 154.582031 172.558594 C 155.445312 172.558594 156.28125 172.730469 157.054688 173.050781 C 157.832031 173.371094 158.539062 173.839844 159.152344 174.453125 C 160.371094 175.667969 161.042969 177.289062 161.042969 179.015625 Z M 161.042969 179.015625 " fill-opacity="1" fill-rule="nonzero"/><path fill="#000000" d="M 263.542969 143.648438 C 263.542969 145.042969 263.003906 146.355469 262.027344 147.332031 L 256.988281 152.359375 C 256.007812 153.339844 254.699219 153.878906 253.300781 153.878906 C 251.902344 153.878906 250.59375 153.339844 249.613281 152.359375 L 228.839844 131.613281 L 215.476562 118.265625 C 215.472656 118.261719 215.46875 118.257812 215.464844 118.25 L 210.40625 113.207031 C 208.375 111.171875 208.375 107.871094 210.40625 105.835938 L 215.445312 100.808594 C 216.425781 99.832031 217.734375 99.292969 219.132812 99.292969 C 220.53125 99.292969 221.839844 99.832031 222.820312 100.808594 L 262.027344 139.964844 C 263.007812 140.945312 263.542969 142.253906 263.542969 143.648438 Z M 263.542969 143.648438 " fill-opacity="1" fill-rule="nonzero"/><path fill="#000000" d="M 165.074219 112.453125 L 160.007812 117.519531 C 159.964844 117.558594 159.9375 117.585938 159.925781 117.597656 L 131.5625 145.925781 L 125.875 151.613281 C 124.894531 152.589844 123.582031 153.128906 122.183594 153.128906 C 120.785156 153.128906 119.476562 152.589844 118.496094 151.613281 L 113.460938 146.582031 C 111.425781 144.550781 111.425781 141.246094 113.460938 139.210938 L 152.664062 100.058594 C 153.644531 99.078125 154.957031 98.539062 156.351562 98.539062 C 157.75 98.539062 159.058594 99.078125 160.042969 100.058594 L 165.074219 105.089844 C 167.109375 107.117188 167.109375 110.425781 165.074219 112.453125 Z M 165.074219 112.453125 " fill-opacity="1" fill-rule="nonzero"/><path fill="#000000" d="M 232.867188 197.050781 C 230.347656 199.5625 226.25 199.566406 223.730469 197.050781 C 223.730469 197.046875 223.726562 197.046875 223.726562 197.046875 L 199.21875 172.566406 C 198.804688 172.152344 198.125 172.152344 197.707031 172.566406 C 197.289062 172.984375 197.289062 173.660156 197.707031 174.078125 L 225.675781 202.015625 C 228.195312 204.53125 228.195312 208.625 225.675781 211.140625 C 224.457031 212.363281 222.832031 213.035156 221.109375 213.035156 C 219.382812 213.035156 217.761719 212.363281 216.539062 211.140625 L 188.570312 183.207031 C 188.152344 182.789062 187.476562 182.789062 187.058594 183.207031 C 186.636719 183.625 186.636719 184.300781 187.058594 184.71875 L 212.351562 209.984375 C 212.359375 209.988281 212.363281 209.992188 212.367188 209.996094 C 213.585938 211.214844 214.257812 212.832031 214.257812 214.558594 C 214.257812 216.28125 213.585938 217.902344 212.367188 219.121094 C 209.84375 221.636719 205.746094 221.636719 203.226562 219.125 L 200.605469 216.503906 C 200.589844 216.488281 200.578125 216.476562 200.566406 216.460938 C 200.554688 216.457031 200.546875 216.445312 200.539062 216.441406 L 180.171875 196.09375 C 180.152344 196.078125 180.140625 196.058594 180.125 196.042969 C 178.144531 194.066406 175.429688 193.265625 172.851562 193.625 C 174.542969 190.386719 174.027344 186.289062 171.3125 183.578125 C 169.019531 181.285156 165.75 180.566406 162.839844 181.402344 C 163.0625 180.636719 163.179688 179.835938 163.179688 179.015625 C 163.179688 176.71875 162.285156 174.5625 160.660156 172.9375 C 159.035156 171.320312 156.878906 170.421875 154.582031 170.421875 C 154.582031 170.421875 154.582031 170.421875 154.578125 170.421875 C 152.285156 170.425781 150.125 171.320312 148.5 172.9375 L 142.128906 179.308594 C 127.851562 164.199219 128.300781 153.796875 128.507812 152 L 144.199219 136.328125 L 161.46875 119.074219 C 161.792969 118.761719 166.878906 114.007812 178.660156 113.59375 C 182.742188 113.453125 186.808594 113.4375 190.417969 113.484375 C 183.261719 116.578125 178.242188 121.988281 177.792969 122.484375 L 152.695312 147.546875 C 151.070312 149.167969 150.175781 151.324219 150.175781 153.621094 C 150.175781 155.914062 151.070312 158.066406 152.695312 159.691406 C 156.050781 163.039062 161.507812 163.042969 164.859375 159.695312 C 164.867188 159.6875 164.871094 159.683594 164.878906 159.671875 L 180.160156 144.410156 C 182.679688 141.894531 186.777344 141.894531 189.300781 144.410156 L 232.867188 187.921875 C 235.386719 190.4375 235.386719 194.535156 232.867188 197.050781 Z M 232.867188 197.050781 " fill-opacity="1" fill-rule="nonzero"/><path fill="#000000" d="M 229.996094 182.035156 L 190.8125 142.898438 C 189.136719 141.222656 186.933594 140.386719 184.734375 140.386719 C 182.53125 140.386719 180.328125 141.222656 178.652344 142.898438 L 163.347656 158.183594 C 163.34375 158.1875 163.339844 158.191406 163.335938 158.195312 C 160.816406 160.699219 156.726562 160.695312 154.210938 158.179688 C 152.988281 156.960938 152.316406 155.34375 152.316406 153.621094 C 152.316406 151.894531 152.988281 150.277344 154.210938 149.058594 L 179.320312 123.976562 C 179.335938 123.964844 179.351562 123.945312 179.359375 123.933594 C 179.449219 123.839844 187.539062 114.992188 197.5625 113.652344 C 200.800781 113.757812 203.125 113.886719 203.894531 113.933594 L 204.011719 113.9375 C 207.550781 114.761719 210.882812 116.707031 213.949219 119.761719 L 233.746094 139.535156 L 247.40625 153.179688 C 247.636719 154.269531 248.320312 161.851562 229.996094 182.035156 Z M 229.996094 182.035156 " fill-opacity="1" fill-rule="nonzero"/><path fill="#000000" d="M 282.648438 123.0625 C 282.648438 125.558594 280.617188 127.589844 278.113281 127.589844 C 275.609375 127.589844 273.574219 125.558594 273.574219 123.0625 C 273.574219 122.195312 273.824219 121.386719 274.246094 120.699219 L 271.402344 117.859375 L 265.441406 111.902344 L 254.03125 123.292969 C 254.03125 123.296875 254.027344 123.296875 254.023438 123.300781 C 254.019531 123.300781 254.019531 123.304688 254.019531 123.304688 L 253.433594 123.890625 C 253.222656 124.101562 252.949219 124.203125 252.675781 124.203125 C 252.402344 124.203125 252.128906 124.101562 251.917969 123.890625 C 251.503906 123.472656 251.503906 122.796875 251.917969 122.382812 L 252.515625 121.785156 C 252.527344 121.777344 252.53125 121.773438 252.539062 121.761719 L 264.675781 109.640625 C 264.886719 109.429688 265.160156 109.324219 265.433594 109.324219 C 265.707031 109.324219 265.988281 109.429688 266.195312 109.640625 L 272.066406 115.5 L 275.765625 119.191406 C 276.449219 118.773438 277.253906 118.53125 278.113281 118.53125 C 280.617188 118.53125 282.648438 120.5625 282.648438 123.0625 Z M 282.648438 123.0625 " fill-opacity="1" fill-rule="nonzero"/><path fill="#000000" d="M 241.921875 98.351562 L 235.496094 104.773438 C 235.496094 104.777344 235.488281 104.777344 235.488281 104.777344 L 234.886719 105.375 C 234.675781 105.582031 234.40625 105.683594 234.132812 105.683594 C 233.859375 105.683594 233.585938 105.582031 233.375 105.367188 C 232.957031 104.949219 232.960938 104.273438 233.378906 103.859375 L 233.933594 103.3125 C 233.945312 103.296875 233.960938 103.277344 233.984375 103.257812 L 239.65625 97.597656 L 237.121094 95.0625 L 232.351562 90.300781 C 231.644531 90.730469 230.835938 90.964844 229.992188 90.964844 C 228.777344 90.964844 227.640625 90.496094 226.785156 89.640625 C 225.015625 87.871094 225.015625 84.996094 226.78125 83.234375 C 227.640625 82.378906 228.777344 81.910156 229.988281 81.910156 C 231.203125 81.910156 232.339844 82.378906 233.195312 83.234375 C 234.703125 84.738281 234.921875 87.042969 233.859375 88.785156 L 238.132812 93.050781 L 241.921875 96.835938 C 242.023438 96.9375 242.101562 97.058594 242.152344 97.1875 C 242.210938 97.3125 242.238281 97.453125 242.238281 97.597656 C 242.238281 97.878906 242.125 98.152344 241.921875 98.351562 Z M 241.921875 98.351562 " fill-opacity="1" fill-rule="nonzero"/><g clip-path="url(#aad18c9c43)"><path fill="#000000" d="M 287.554688 99.386719 C 287.554688 101.886719 285.515625 103.917969 283.015625 103.917969 C 280.835938 103.917969 279.015625 102.375 278.578125 100.332031 L 269.339844 100.324219 L 249.597656 120.050781 C 249.386719 120.265625 249.113281 120.367188 248.835938 120.367188 C 248.566406 120.367188 248.292969 120.265625 248.082031 120.058594 C 247.664062 119.640625 247.664062 118.964844 248.078125 118.546875 L 248.675781 117.945312 L 268.144531 98.507812 C 268.339844 98.304688 268.613281 98.191406 268.894531 98.191406 L 278.644531 98.195312 C 279.167969 96.277344 280.925781 94.859375 283.015625 94.859375 C 285.519531 94.859375 287.554688 96.890625 287.554688 99.386719 Z M 287.554688 99.386719 " fill-opacity="1" fill-rule="nonzero"/></g><g clip-path="url(#72d4fb6045)"><path fill="#000000" d="M 252.109375 96.164062 L 238.898438 109.367188 C 238.6875 109.578125 238.414062 109.683594 238.136719 109.683594 C 237.867188 109.683594 237.59375 109.578125 237.382812 109.375 C 236.964844 108.957031 236.964844 108.28125 237.378906 107.863281 L 237.976562 107.257812 L 250.285156 94.96875 L 250.277344 83.320312 C 248.210938 82.894531 246.648438 81.066406 246.648438 78.878906 C 246.648438 76.378906 248.683594 74.347656 251.183594 74.347656 C 253.6875 74.347656 255.722656 76.378906 255.722656 78.878906 C 255.722656 80.953125 254.316406 82.695312 252.414062 83.234375 L 252.425781 95.410156 C 252.421875 95.695312 252.3125 95.964844 252.109375 96.164062 Z M 252.109375 96.164062 " fill-opacity="1" fill-rule="nonzero"/></g><path fill="#000000" d="M 250.253906 108.339844 L 244.660156 113.929688 C 244.652344 113.9375 244.644531 113.941406 244.640625 113.945312 C 244.632812 113.949219 244.625 113.957031 244.621094 113.960938 L 244.058594 114.527344 C 243.847656 114.734375 243.574219 114.839844 243.300781 114.839844 C 243.027344 114.839844 242.753906 114.734375 242.542969 114.527344 C 242.128906 114.109375 242.128906 113.433594 242.542969 113.015625 L 243.125 112.4375 C 243.132812 112.429688 243.140625 112.421875 243.144531 112.410156 L 248.914062 106.65625 C 248.496094 105.96875 248.25 105.167969 248.25 104.304688 C 248.25 101.808594 250.285156 99.773438 252.78125 99.773438 C 255.285156 99.773438 257.320312 101.808594 257.320312 104.304688 C 257.320312 106.800781 255.285156 108.835938 252.78125 108.835938 C 251.917969 108.835938 251.113281 108.589844 250.425781 108.167969 Z M 250.253906 108.339844 " fill-opacity="1" fill-rule="nonzero"/><path fill="#000000" d="M 132.449219 112.761719 C 132.867188 113.175781 132.867188 113.855469 132.449219 114.269531 C 132.238281 114.480469 131.964844 114.582031 131.691406 114.582031 C 131.417969 114.582031 131.144531 114.480469 130.933594 114.269531 L 130.605469 113.9375 C 130.601562 113.933594 130.597656 113.933594 130.59375 113.929688 L 124.828125 108.167969 C 124.136719 108.589844 123.332031 108.835938 122.46875 108.835938 C 119.96875 108.835938 117.929688 106.800781 117.929688 104.304688 C 117.929688 101.808594 119.96875 99.773438 122.46875 99.773438 C 124.96875 99.773438 127.003906 101.808594 127.003906 104.304688 C 127.003906 105.167969 126.753906 105.96875 126.335938 106.65625 L 132.105469 112.410156 C 132.128906 112.433594 132.144531 112.453125 132.160156 112.476562 Z M 132.449219 112.761719 " fill-opacity="1" fill-rule="nonzero"/><path fill="#000000" d="M 148.46875 89.640625 C 147.613281 90.496094 146.46875 90.964844 145.257812 90.964844 C 144.414062 90.964844 143.605469 90.730469 142.902344 90.300781 L 135.601562 97.589844 L 141.324219 103.3125 L 141.609375 103.59375 C 142.03125 104.007812 142.035156 104.6875 141.617188 105.105469 C 141.410156 105.316406 141.136719 105.421875 140.859375 105.421875 C 140.589844 105.421875 140.316406 105.320312 140.109375 105.113281 L 139.777344 104.785156 C 139.765625 104.78125 139.761719 104.777344 139.757812 104.773438 L 133.324219 98.351562 C 133.128906 98.152344 133.011719 97.878906 133.011719 97.597656 C 133.011719 97.3125 133.128906 97.039062 133.324219 96.839844 L 141.386719 88.792969 C 140.960938 88.085938 140.726562 87.277344 140.726562 86.4375 C 140.726562 85.226562 141.195312 84.085938 142.054688 83.234375 C 142.910156 82.378906 144.046875 81.910156 145.261719 81.910156 C 146.472656 81.910156 147.613281 82.378906 148.46875 83.234375 C 150.238281 84.996094 150.238281 87.871094 148.46875 89.640625 Z M 148.46875 89.640625 " fill-opacity="1" fill-rule="nonzero"/><g clip-path="url(#5a89e66fd2)"><path fill="#000000" d="M 126.914062 119.792969 C 126.703125 120.003906 126.429688 120.105469 126.15625 120.105469 C 125.882812 120.105469 125.609375 120.003906 125.398438 119.792969 L 105.917969 100.324219 L 96.667969 100.332031 C 96.238281 102.375 94.414062 103.917969 92.238281 103.917969 C 89.734375 103.917969 87.699219 101.886719 87.699219 99.386719 C 87.699219 96.890625 89.734375 94.859375 92.238281 94.859375 C 94.324219 94.859375 96.078125 96.277344 96.605469 98.195312 L 106.355469 98.191406 C 106.644531 98.191406 106.914062 98.304688 107.113281 98.507812 L 126.914062 118.285156 C 127.332031 118.699219 127.332031 119.375 126.914062 119.792969 Z M 126.914062 119.792969 " fill-opacity="1" fill-rule="nonzero"/></g><g clip-path="url(#50bf8f8e45)"><path fill="#000000" d="M 137.609375 107.601562 C 138.03125 108.015625 138.03125 108.691406 137.609375 109.109375 C 137.402344 109.320312 137.128906 109.421875 136.855469 109.421875 C 136.582031 109.421875 136.304688 109.320312 136.097656 109.109375 L 123.136719 96.164062 C 122.9375 95.964844 122.824219 95.691406 122.824219 95.410156 L 122.835938 83.234375 C 120.933594 82.699219 119.53125 80.953125 119.53125 78.878906 C 119.53125 76.378906 121.566406 74.347656 124.066406 74.347656 C 126.566406 74.347656 128.601562 76.378906 128.601562 78.878906 C 128.601562 81.066406 127.042969 82.894531 124.976562 83.320312 L 124.964844 94.96875 Z M 137.609375 107.601562 " fill-opacity="1" fill-rule="nonzero"/></g><path fill="#000000" d="M 123.074219 122.125 C 123.492188 122.542969 123.492188 123.214844 123.074219 123.632812 C 122.863281 123.84375 122.589844 123.945312 122.316406 123.945312 C 122.042969 123.945312 121.769531 123.84375 121.558594 123.632812 L 121.21875 123.292969 L 109.8125 111.902344 L 101.003906 120.699219 C 101.425781 121.386719 101.671875 122.195312 101.671875 123.0625 C 101.671875 125.558594 99.640625 127.589844 97.140625 127.589844 C 94.636719 127.589844 92.605469 125.558594 92.605469 123.0625 C 92.605469 120.5625 94.636719 118.53125 97.140625 118.53125 C 98 118.53125 98.804688 118.777344 99.488281 119.191406 L 109.054688 109.640625 C 109.109375 109.582031 109.167969 109.539062 109.226562 109.5 C 109.285156 109.460938 109.347656 109.429688 109.410156 109.402344 C 109.726562 109.277344 110.089844 109.304688 110.386719 109.488281 C 110.390625 109.492188 110.394531 109.5 110.402344 109.5 C 110.40625 109.507812 110.414062 109.511719 110.421875 109.515625 C 110.472656 109.554688 110.523438 109.59375 110.570312 109.636719 L 122.730469 121.78125 C 122.746094 121.796875 122.769531 121.816406 122.785156 121.835938 Z M 123.074219 122.125 " fill-opacity="1" fill-rule="nonzero"/><g fill="#000000" fill-opacity="1"><g transform="translate(61.733518, 263.243772)"><g><path d="M 9.828125 -19.953125 C 11.296875 -19.953125 12.644531 -19.703125 13.875 -19.203125 C 15.113281 -18.710938 16.179688 -18.019531 17.078125 -17.125 C 17.984375 -16.226562 18.6875 -15.175781 19.1875 -13.96875 C 19.695312 -12.769531 19.953125 -11.445312 19.953125 -10 C 19.953125 -8.5625 19.695312 -7.234375 19.1875 -6.015625 C 18.6875 -4.796875 17.984375 -3.734375 17.078125 -2.828125 C 16.179688 -1.929688 15.113281 -1.234375 13.875 -0.734375 C 12.644531 -0.242188 11.296875 0 9.828125 0 L 2.28125 0 L 2.28125 -19.953125 Z M 9.71875 -4.015625 C 10.851562 -4.015625 11.859375 -4.269531 12.734375 -4.78125 C 13.609375 -5.300781 14.289062 -6.007812 14.78125 -6.90625 C 15.28125 -7.8125 15.53125 -8.84375 15.53125 -10 C 15.53125 -11.15625 15.28125 -12.179688 14.78125 -13.078125 C 14.289062 -13.972656 13.609375 -14.671875 12.734375 -15.171875 C 11.859375 -15.679688 10.851562 -15.9375 9.71875 -15.9375 L 6.609375 -15.9375 L 6.609375 -4.015625 Z M 9.71875 -4.015625 "/></g></g></g><g fill="#000000" fill-opacity="1"><g transform="translate(82.843334, 263.243772)"><g><path d="M 2 -17.4375 L 2 -21.3125 L 6.15625 -21.3125 L 6.15625 -17.4375 Z M 2 0 L 2 -15.390625 L 6.15625 -15.390625 L 6.15625 0 Z M 2 0 "/></g></g></g><g fill="#000000" fill-opacity="1"><g transform="translate(90.990977, 263.243772)"><g><path d="M 14.421875 -15.390625 L 17.125 -15.390625 L 17.125 -1.796875 C 17.125 -0.179688 16.804688 1.203125 16.171875 2.359375 C 15.535156 3.523438 14.628906 4.421875 13.453125 5.046875 C 12.273438 5.671875 10.878906 5.984375 9.265625 5.984375 C 7.171875 5.984375 5.425781 5.476562 4.03125 4.46875 C 2.632812 3.46875 1.765625 2.09375 1.421875 0.34375 L 5.5625 0.34375 C 5.789062 1.03125 6.257812 1.546875 6.96875 1.890625 C 7.675781 2.242188 8.410156 2.421875 9.171875 2.421875 C 10.234375 2.421875 11.140625 2.101562 11.890625 1.46875 C 12.648438 0.832031 13.03125 -0.0546875 13.03125 -1.203125 L 13.03125 -1.765625 C 12.414062 -1.328125 11.738281 -0.988281 11 -0.75 C 10.257812 -0.519531 9.472656 -0.40625 8.640625 -0.40625 C 7.210938 -0.40625 5.914062 -0.742188 4.75 -1.421875 C 3.59375 -2.109375 2.675781 -3.03125 2 -4.1875 C 1.332031 -5.34375 1 -6.644531 1 -8.09375 C 1 -9.539062 1.332031 -10.847656 2 -12.015625 C 2.675781 -13.179688 3.59375 -14.101562 4.75 -14.78125 C 5.914062 -15.46875 7.210938 -15.8125 8.640625 -15.8125 C 9.640625 -15.8125 10.578125 -15.640625 11.453125 -15.296875 C 12.328125 -14.960938 13.097656 -14.476562 13.765625 -13.84375 Z M 9.125 -4.109375 C 10.257812 -4.109375 11.195312 -4.484375 11.9375 -5.234375 C 12.675781 -5.984375 13.046875 -6.9375 13.046875 -8.09375 C 13.046875 -9.226562 12.679688 -10.171875 11.953125 -10.921875 C 11.222656 -11.679688 10.28125 -12.0625 9.125 -12.0625 C 8 -12.0625 7.066406 -11.679688 6.328125 -10.921875 C 5.585938 -10.171875 5.21875 -9.226562 5.21875 -8.09375 C 5.21875 -6.9375 5.582031 -5.984375 6.3125 -5.234375 C 7.039062 -4.484375 7.976562 -4.109375 9.125 -4.109375 Z M 9.125 -4.109375 "/></g></g></g><g fill="#000000" fill-opacity="1"><g transform="translate(110.106615, 263.243772)"><g><path d="M 2 -17.4375 L 2 -21.3125 L 6.15625 -21.3125 L 6.15625 -17.4375 Z M 2 0 L 2 -15.390625 L 6.15625 -15.390625 L 6.15625 0 Z M 2 0 "/></g></g></g><g fill="#000000" fill-opacity="1"><g transform="translate(118.254258, 263.243772)"><g><path d="M 9.515625 -3.703125 L 11.40625 -3.703125 L 11.40625 0 L 8.46875 0 C 6.769531 0 5.429688 -0.488281 4.453125 -1.46875 C 3.484375 -2.445312 3 -3.789062 3 -5.5 L 3 -12.0625 L 0.203125 -12.0625 L 0.203125 -12.9375 L 6.296875 -19.40625 L 7.0625 -19.40625 L 7.0625 -15.390625 L 11.3125 -15.390625 L 11.3125 -12.0625 L 7.15625 -12.0625 L 7.15625 -6.046875 C 7.15625 -5.304688 7.359375 -4.726562 7.765625 -4.3125 C 8.171875 -3.90625 8.753906 -3.703125 9.515625 -3.703125 Z M 9.515625 -3.703125 "/></g></g></g><g fill="#000000" fill-opacity="1"><g transform="translate(130.504219, 263.243772)"><g><path d="M 14.5625 -15.421875 L 17.671875 -15.421875 L 17.671875 -0.03125 L 14.390625 -0.03125 L 14.046875 -1.390625 C 13.378906 -0.828125 12.625 -0.382812 11.78125 -0.0625 C 10.9375 0.257812 10.03125 0.421875 9.0625 0.421875 C 7.519531 0.421875 6.140625 0.0664062 4.921875 -0.640625 C 3.710938 -1.347656 2.753906 -2.316406 2.046875 -3.546875 C 1.347656 -4.773438 1 -6.164062 1 -7.71875 C 1 -9.257812 1.347656 -10.640625 2.046875 -11.859375 C 2.753906 -13.085938 3.710938 -14.050781 4.921875 -14.75 C 6.140625 -15.457031 7.519531 -15.8125 9.0625 -15.8125 C 10.050781 -15.8125 10.972656 -15.644531 11.828125 -15.3125 C 12.679688 -14.976562 13.441406 -14.519531 14.109375 -13.9375 Z M 9.40625 -3.5 C 10.207031 -3.5 10.925781 -3.679688 11.5625 -4.046875 C 12.195312 -4.410156 12.691406 -4.910156 13.046875 -5.546875 C 13.410156 -6.179688 13.59375 -6.90625 13.59375 -7.71875 C 13.59375 -8.519531 13.410156 -9.238281 13.046875 -9.875 C 12.691406 -10.507812 12.195312 -11.007812 11.5625 -11.375 C 10.925781 -11.75 10.207031 -11.9375 9.40625 -11.9375 C 8.582031 -11.9375 7.859375 -11.75 7.234375 -11.375 C 6.609375 -11.007812 6.113281 -10.507812 5.75 -9.875 C 5.394531 -9.238281 5.21875 -8.519531 5.21875 -7.71875 C 5.21875 -6.90625 5.394531 -6.179688 5.75 -5.546875 C 6.113281 -4.921875 6.609375 -4.421875 7.234375 -4.046875 C 7.859375 -3.679688 8.582031 -3.5 9.40625 -3.5 Z M 9.40625 -3.5 "/></g></g></g><g fill="#000000" fill-opacity="1"><g transform="translate(150.161128, 263.243772)"><g><path d="M 2 0 L 2 -20.953125 L 6.15625 -20.953125 L 6.15625 0 Z M 2 0 "/></g></g></g><g fill="#000000" fill-opacity="1"><g transform="translate(158.308771, 263.243772)"><g/></g></g><g fill="#000000" fill-opacity="1"><g transform="translate(165.117468, 263.243772)"><g><path d="M 13.25 0 L 9.375 -6.8125 L 6.609375 -6.8125 L 6.609375 0 L 2.28125 0 L 2.28125 -19.953125 L 10.34375 -19.953125 C 11.675781 -19.953125 12.863281 -19.664062 13.90625 -19.09375 C 14.945312 -18.519531 15.769531 -17.738281 16.375 -16.75 C 16.988281 -15.769531 17.296875 -14.632812 17.296875 -13.34375 C 17.296875 -12.050781 16.96875 -10.894531 16.3125 -9.875 C 15.65625 -8.851562 14.78125 -8.078125 13.6875 -7.546875 L 18.09375 0 Z M 6.609375 -15.953125 L 6.609375 -10.796875 L 10.0625 -10.796875 C 10.957031 -10.796875 11.660156 -11.035156 12.171875 -11.515625 C 12.679688 -12.003906 12.9375 -12.617188 12.9375 -13.359375 C 12.9375 -14.117188 12.679688 -14.738281 12.171875 -15.21875 C 11.660156 -15.707031 10.957031 -15.953125 10.0625 -15.953125 Z M 6.609375 -15.953125 "/></g></g></g><g fill="#000000" fill-opacity="1"><g transform="translate(183.948216, 263.243772)"><g><path d="M 9.3125 0.421875 C 7.71875 0.421875 6.289062 0.0664062 5.03125 -0.640625 C 3.78125 -1.347656 2.796875 -2.316406 2.078125 -3.546875 C 1.359375 -4.773438 1 -6.15625 1 -7.6875 C 1 -9.25 1.359375 -10.640625 2.078125 -11.859375 C 2.796875 -13.085938 3.78125 -14.050781 5.03125 -14.75 C 6.289062 -15.457031 7.71875 -15.8125 9.3125 -15.8125 C 10.894531 -15.8125 12.3125 -15.457031 13.5625 -14.75 C 14.820312 -14.050781 15.8125 -13.085938 16.53125 -11.859375 C 17.25 -10.640625 17.609375 -9.25 17.609375 -7.6875 C 17.609375 -6.15625 17.25 -4.773438 16.53125 -3.546875 C 15.8125 -2.316406 14.820312 -1.347656 13.5625 -0.640625 C 12.3125 0.0664062 10.894531 0.421875 9.3125 0.421875 Z M 9.3125 -3.484375 C 10.507812 -3.484375 11.488281 -3.867188 12.25 -4.640625 C 13.007812 -5.421875 13.390625 -6.4375 13.390625 -7.6875 C 13.390625 -8.945312 13.007812 -9.960938 12.25 -10.734375 C 11.488281 -11.515625 10.507812 -11.90625 9.3125 -11.90625 C 8.101562 -11.90625 7.117188 -11.515625 6.359375 -10.734375 C 5.597656 -9.960938 5.21875 -8.945312 5.21875 -7.6875 C 5.21875 -6.4375 5.597656 -5.421875 6.359375 -4.640625 C 7.117188 -3.867188 8.101562 -3.484375 9.3125 -3.484375 Z M 9.3125 -3.484375 "/></g></g></g><g fill="#000000" fill-opacity="1"><g transform="translate(202.551055, 263.243772)"><g><path d="M 19.5 -15.765625 C 20.5625 -15.765625 21.5 -15.5 22.3125 -14.96875 C 23.132812 -14.445312 23.773438 -13.726562 24.234375 -12.8125 C 24.703125 -11.90625 24.9375 -10.851562 24.9375 -9.65625 L 24.9375 0 L 20.78125 0 L 20.78125 -8.984375 C 20.78125 -11.066406 20 -12.109375 18.4375 -12.109375 C 17.53125 -12.109375 16.8125 -11.773438 16.28125 -11.109375 C 15.757812 -10.453125 15.5 -9.523438 15.5 -8.328125 L 15.5 0 L 11.421875 0 L 11.421875 -8.984375 C 11.421875 -11.066406 10.671875 -12.109375 9.171875 -12.109375 C 8.222656 -12.109375 7.484375 -11.773438 6.953125 -11.109375 C 6.421875 -10.453125 6.15625 -9.523438 6.15625 -8.328125 L 6.15625 0 L 2 0 L 2 -15.390625 L 4.90625 -15.390625 L 5.671875 -13.484375 C 6.222656 -14.160156 6.898438 -14.707031 7.703125 -15.125 C 8.515625 -15.550781 9.375 -15.765625 10.28125 -15.765625 C 11.25 -15.765625 12.125 -15.546875 12.90625 -15.109375 C 13.6875 -14.671875 14.296875 -14.0625 14.734375 -13.28125 C 15.265625 -14.039062 15.945312 -14.644531 16.78125 -15.09375 C 17.625 -15.539062 18.53125 -15.765625 19.5 -15.765625 Z M 19.5 -15.765625 "/></g></g></g><g fill="#000000" fill-opacity="1"><g transform="translate(229.273053, 263.243772)"><g><path d="M 14.5625 -15.421875 L 17.671875 -15.421875 L 17.671875 -0.03125 L 14.390625 -0.03125 L 14.046875 -1.390625 C 13.378906 -0.828125 12.625 -0.382812 11.78125 -0.0625 C 10.9375 0.257812 10.03125 0.421875 9.0625 0.421875 C 7.519531 0.421875 6.140625 0.0664062 4.921875 -0.640625 C 3.710938 -1.347656 2.753906 -2.316406 2.046875 -3.546875 C 1.347656 -4.773438 1 -6.164062 1 -7.71875 C 1 -9.257812 1.347656 -10.640625 2.046875 -11.859375 C 2.753906 -13.085938 3.710938 -14.050781 4.921875 -14.75 C 6.140625 -15.457031 7.519531 -15.8125 9.0625 -15.8125 C 10.050781 -15.8125 10.972656 -15.644531 11.828125 -15.3125 C 12.679688 -14.976562 13.441406 -14.519531 14.109375 -13.9375 Z M 9.40625 -3.5 C 10.207031 -3.5 10.925781 -3.679688 11.5625 -4.046875 C 12.195312 -4.410156 12.691406 -4.910156 13.046875 -5.546875 C 13.410156 -6.179688 13.59375 -6.90625 13.59375 -7.71875 C 13.59375 -8.519531 13.410156 -9.238281 13.046875 -9.875 C 12.691406 -10.507812 12.195312 -11.007812 11.5625 -11.375 C 10.925781 -11.75 10.207031 -11.9375 9.40625 -11.9375 C 8.582031 -11.9375 7.859375 -11.75 7.234375 -11.375 C 6.609375 -11.007812 6.113281 -10.507812 5.75 -9.875 C 5.394531 -9.238281 5.21875 -8.519531 5.21875 -7.71875 C 5.21875 -6.90625 5.394531 -6.179688 5.75 -5.546875 C 6.113281 -4.921875 6.609375 -4.421875 7.234375 -4.046875 C 7.859375 -3.679688 8.582031 -3.5 9.40625 -3.5 Z M 9.40625 -3.5 "/></g></g></g><g fill="#000000" fill-opacity="1"><g transform="translate(248.929961, 263.243772)"><g><path d="M 10.765625 -15.765625 C 12.515625 -15.765625 13.894531 -15.175781 14.90625 -14 C 15.925781 -12.832031 16.4375 -11.269531 16.4375 -9.3125 L 16.4375 0 L 12.28125 0 L 12.28125 -8.65625 C 12.28125 -10.957031 11.390625 -12.109375 9.609375 -12.109375 C 8.546875 -12.109375 7.703125 -11.75 7.078125 -11.03125 C 6.460938 -10.3125 6.15625 -9.332031 6.15625 -8.09375 L 6.15625 0 L 2 0 L 2 -15.390625 L 4.84375 -15.390625 L 5.671875 -13.484375 C 6.242188 -14.179688 6.972656 -14.734375 7.859375 -15.140625 C 8.753906 -15.554688 9.722656 -15.765625 10.765625 -15.765625 Z M 10.765625 -15.765625 "/></g></g></g><g fill="#000000" fill-opacity="1"><g transform="translate(267.190931, 263.243772)"><g><path d="M 2 -17.4375 L 2 -21.3125 L 6.15625 -21.3125 L 6.15625 -17.4375 Z M 2 0 L 2 -15.390625 L 6.15625 -15.390625 L 6.15625 0 Z M 2 0 "/></g></g></g><g fill="#000000" fill-opacity="1"><g transform="translate(275.338574, 263.243772)"><g><path d="M 14.5625 -15.421875 L 17.671875 -15.421875 L 17.671875 -0.03125 L 14.390625 -0.03125 L 14.046875 -1.390625 C 13.378906 -0.828125 12.625 -0.382812 11.78125 -0.0625 C 10.9375 0.257812 10.03125 0.421875 9.0625 0.421875 C 7.519531 0.421875 6.140625 0.0664062 4.921875 -0.640625 C 3.710938 -1.347656 2.753906 -2.316406 2.046875 -3.546875 C 1.347656 -4.773438 1 -6.164062 1 -7.71875 C 1 -9.257812 1.347656 -10.640625 2.046875 -11.859375 C 2.753906 -13.085938 3.710938 -14.050781 4.921875 -14.75 C 6.140625 -15.457031 7.519531 -15.8125 9.0625 -15.8125 C 10.050781 -15.8125 10.972656 -15.644531 11.828125 -15.3125 C 12.679688 -14.976562 13.441406 -14.519531 14.109375 -13.9375 Z M 9.40625 -3.5 C 10.207031 -3.5 10.925781 -3.679688 11.5625 -4.046875 C 12.195312 -4.410156 12.691406 -4.910156 13.046875 -5.546875 C 13.410156 -6.179688 13.59375 -6.90625 13.59375 -7.71875 C 13.59375 -8.519531 13.410156 -9.238281 13.046875 -9.875 C 12.691406 -10.507812 12.195312 -11.007812 11.5625 -11.375 C 10.925781 -11.75 10.207031 -11.9375 9.40625 -11.9375 C 8.582031 -11.9375 7.859375 -11.75 7.234375 -11.375 C 6.609375 -11.007812 6.113281 -10.507812 5.75 -9.875 C 5.394531 -9.238281 5.21875 -8.519531 5.21875 -7.71875 C 5.21875 -6.90625 5.394531 -6.179688 5.75 -5.546875 C 6.113281 -4.921875 6.609375 -4.421875 7.234375 -4.046875 C 7.859375 -3.679688 8.582031 -3.5 9.40625 -3.5 Z M 9.40625 -3.5 "/></g></g></g><g fill="#000000" fill-opacity="1"><g transform="translate(294.995495, 263.243772)"><g><path d="M 10.765625 -15.765625 C 12.515625 -15.765625 13.894531 -15.175781 14.90625 -14 C 15.925781 -12.832031 16.4375 -11.269531 16.4375 -9.3125 L 16.4375 0 L 12.28125 0 L 12.28125 -8.65625 C 12.28125 -10.957031 11.390625 -12.109375 9.609375 -12.109375 C 8.546875 -12.109375 7.703125 -11.75 7.078125 -11.03125 C 6.460938 -10.3125 6.15625 -9.332031 6.15625 -8.09375 L 6.15625 0 L 2 0 L 2 -15.390625 L 4.84375 -15.390625 L 5.671875 -13.484375 C 6.242188 -14.179688 6.972656 -14.734375 7.859375 -15.140625 C 8.753906 -15.554688 9.722656 -15.765625 10.765625 -15.765625 Z M 10.765625 -15.765625 "/></g></g></g><g fill="#000000" fill-opacity="1"><g transform="translate(65.504609, 280.344181)"><g><path d="M 4.203125 0.15625 C 3.671875 0.15625 3.171875 0.0625 2.703125 -0.125 C 2.242188 -0.320312 1.84375 -0.59375 1.5 -0.9375 C 1.15625 -1.28125 0.890625 -1.6875 0.703125 -2.15625 C 0.515625 -2.625 0.421875 -3.128906 0.421875 -3.671875 C 0.421875 -4.210938 0.515625 -4.71875 0.703125 -5.1875 C 0.890625 -5.65625 1.15625 -6.0625 1.5 -6.40625 C 1.84375 -6.757812 2.242188 -7.03125 2.703125 -7.21875 C 3.171875 -7.40625 3.671875 -7.5 4.203125 -7.5 C 4.804688 -7.5 5.351562 -7.375 5.84375 -7.125 C 6.34375 -6.882812 6.757812 -6.546875 7.09375 -6.109375 C 7.4375 -5.671875 7.660156 -5.160156 7.765625 -4.578125 L 6.171875 -4.578125 C 6.023438 -5.015625 5.773438 -5.359375 5.421875 -5.609375 C 5.078125 -5.867188 4.671875 -6 4.203125 -6 C 3.796875 -6 3.425781 -5.894531 3.09375 -5.6875 C 2.769531 -5.476562 2.507812 -5.195312 2.3125 -4.84375 C 2.125 -4.5 2.03125 -4.109375 2.03125 -3.671875 C 2.03125 -3.222656 2.125 -2.828125 2.3125 -2.484375 C 2.507812 -2.140625 2.769531 -1.863281 3.09375 -1.65625 C 3.425781 -1.457031 3.796875 -1.359375 4.203125 -1.359375 C 4.691406 -1.359375 5.109375 -1.492188 5.453125 -1.765625 C 5.804688 -2.035156 6.050781 -2.40625 6.1875 -2.875 L 7.796875 -2.875 C 7.679688 -2.269531 7.457031 -1.738281 7.125 -1.28125 C 6.789062 -0.820312 6.375 -0.46875 5.875 -0.21875 C 5.375 0.03125 4.816406 0.15625 4.203125 0.15625 Z M 4.203125 0.15625 "/></g></g></g><g fill="#000000" fill-opacity="1"><g transform="translate(74.650074, 280.344181)"><g><path d="M 3.4375 0.15625 C 2.84375 0.15625 2.316406 0.0234375 1.859375 -0.234375 C 1.398438 -0.492188 1.035156 -0.847656 0.765625 -1.296875 C 0.503906 -1.753906 0.375 -2.265625 0.375 -2.828125 C 0.375 -3.410156 0.503906 -3.925781 0.765625 -4.375 C 1.035156 -4.820312 1.398438 -5.175781 1.859375 -5.4375 C 2.316406 -5.695312 2.84375 -5.828125 3.4375 -5.828125 C 4.019531 -5.828125 4.539062 -5.695312 5 -5.4375 C 5.457031 -5.175781 5.816406 -4.820312 6.078125 -4.375 C 6.347656 -3.925781 6.484375 -3.410156 6.484375 -2.828125 C 6.484375 -2.265625 6.347656 -1.753906 6.078125 -1.296875 C 5.816406 -0.847656 5.457031 -0.492188 5 -0.234375 C 4.539062 0.0234375 4.019531 0.15625 3.4375 0.15625 Z M 3.4375 -1.28125 C 3.875 -1.28125 4.234375 -1.421875 4.515625 -1.703125 C 4.796875 -1.992188 4.9375 -2.367188 4.9375 -2.828125 C 4.9375 -3.296875 4.796875 -3.671875 4.515625 -3.953125 C 4.234375 -4.242188 3.875 -4.390625 3.4375 -4.390625 C 2.988281 -4.390625 2.625 -4.242188 2.34375 -3.953125 C 2.0625 -3.671875 1.921875 -3.296875 1.921875 -2.828125 C 1.921875 -2.367188 2.0625 -1.992188 2.34375 -1.703125 C 2.625 -1.421875 2.988281 -1.28125 3.4375 -1.28125 Z M 3.4375 -1.28125 "/></g></g></g><g fill="#000000" fill-opacity="1"><g transform="translate(82.556545, 280.344181)"><g><path d="M 3.96875 -5.8125 C 4.613281 -5.8125 5.125 -5.59375 5.5 -5.15625 C 5.875 -4.726562 6.0625 -4.15625 6.0625 -3.4375 L 6.0625 0 L 4.53125 0 L 4.53125 -3.1875 C 4.53125 -4.039062 4.195312 -4.46875 3.53125 -4.46875 C 3.144531 -4.46875 2.835938 -4.332031 2.609375 -4.0625 C 2.378906 -3.800781 2.265625 -3.441406 2.265625 -2.984375 L 2.265625 0 L 0.734375 0 L 0.734375 -5.671875 L 1.78125 -5.671875 L 2.09375 -4.96875 C 2.300781 -5.226562 2.566406 -5.429688 2.890625 -5.578125 C 3.222656 -5.734375 3.582031 -5.8125 3.96875 -5.8125 Z M 3.96875 -5.8125 "/></g></g></g><g fill="#000000" fill-opacity="1"><g transform="translate(90.337016, 280.344181)"><g><path d="M 2.75 0.15625 C 2.269531 0.15625 1.851562 0.0703125 1.5 -0.09375 C 1.144531 -0.257812 0.867188 -0.492188 0.671875 -0.796875 C 0.472656 -1.109375 0.375 -1.46875 0.375 -1.875 L 1.859375 -1.875 C 1.867188 -1.613281 1.957031 -1.421875 2.125 -1.296875 C 2.300781 -1.171875 2.523438 -1.109375 2.796875 -1.109375 C 3.015625 -1.109375 3.203125 -1.15625 3.359375 -1.25 C 3.523438 -1.34375 3.609375 -1.488281 3.609375 -1.6875 C 3.609375 -1.875 3.5 -2.007812 3.28125 -2.09375 C 3.070312 -2.175781 2.816406 -2.238281 2.515625 -2.28125 C 2.296875 -2.320312 2.0625 -2.375 1.8125 -2.4375 C 1.570312 -2.5 1.347656 -2.585938 1.140625 -2.703125 C 0.941406 -2.828125 0.78125 -2.992188 0.65625 -3.203125 C 0.53125 -3.410156 0.46875 -3.679688 0.46875 -4.015625 C 0.46875 -4.378906 0.5625 -4.695312 0.75 -4.96875 C 0.945312 -5.238281 1.210938 -5.445312 1.546875 -5.59375 C 1.890625 -5.75 2.289062 -5.828125 2.75 -5.828125 C 3.207031 -5.828125 3.601562 -5.75 3.9375 -5.59375 C 4.28125 -5.4375 4.546875 -5.210938 4.734375 -4.921875 C 4.921875 -4.640625 5.015625 -4.3125 5.015625 -3.9375 L 3.5625 -3.9375 C 3.5625 -4.164062 3.484375 -4.332031 3.328125 -4.4375 C 3.179688 -4.550781 2.972656 -4.609375 2.703125 -4.609375 C 2.472656 -4.609375 2.289062 -4.554688 2.15625 -4.453125 C 2.019531 -4.359375 1.953125 -4.226562 1.953125 -4.0625 C 1.953125 -3.875 2.054688 -3.742188 2.265625 -3.671875 C 2.472656 -3.597656 2.726562 -3.539062 3.03125 -3.5 C 3.257812 -3.457031 3.492188 -3.40625 3.734375 -3.34375 C 3.984375 -3.28125 4.210938 -3.1875 4.421875 -3.0625 C 4.628906 -2.945312 4.796875 -2.785156 4.921875 -2.578125 C 5.054688 -2.367188 5.125 -2.09375 5.125 -1.75 C 5.125 -1.363281 5.023438 -1.023438 4.828125 -0.734375 C 4.628906 -0.453125 4.351562 -0.234375 4 -0.078125 C 3.644531 0.078125 3.226562 0.15625 2.75 0.15625 Z M 2.75 0.15625 "/></g></g></g><g fill="#000000" fill-opacity="1"><g transform="translate(96.899493, 280.344181)"><g><path d="M 3.328125 0.15625 C 2.796875 0.15625 2.328125 0.0507812 1.921875 -0.15625 C 1.523438 -0.375 1.210938 -0.671875 0.984375 -1.046875 C 0.765625 -1.429688 0.65625 -1.878906 0.65625 -2.390625 L 0.65625 -5.671875 L 2.1875 -5.671875 L 2.1875 -2.578125 C 2.1875 -2.171875 2.285156 -1.851562 2.484375 -1.625 C 2.691406 -1.394531 2.972656 -1.28125 3.328125 -1.28125 C 3.679688 -1.28125 3.957031 -1.394531 4.15625 -1.625 C 4.351562 -1.851562 4.453125 -2.171875 4.453125 -2.578125 L 4.453125 -5.671875 L 5.984375 -5.671875 L 5.984375 -2.390625 C 5.984375 -1.878906 5.875 -1.429688 5.65625 -1.046875 C 5.4375 -0.671875 5.125 -0.375 4.71875 -0.15625 C 4.320312 0.0507812 3.859375 0.15625 3.328125 0.15625 Z M 3.328125 0.15625 "/></g></g></g><g fill="#000000" fill-opacity="1"><g transform="translate(104.595965, 280.344181)"><g><path d="M 0.734375 0 L 0.734375 -7.71875 L 2.265625 -7.71875 L 2.265625 0 Z M 0.734375 0 "/></g></g></g><g fill="#000000" fill-opacity="1"><g transform="translate(108.648947, 280.344181)"><g><path d="M 3.5 -1.359375 L 4.203125 -1.359375 L 4.203125 0 L 3.125 0 C 2.5 0 2.003906 -0.175781 1.640625 -0.53125 C 1.285156 -0.894531 1.109375 -1.394531 1.109375 -2.03125 L 1.109375 -4.4375 L 0.078125 -4.4375 L 0.078125 -4.765625 L 2.328125 -7.15625 L 2.609375 -7.15625 L 2.609375 -5.671875 L 4.171875 -5.671875 L 4.171875 -4.4375 L 2.640625 -4.4375 L 2.640625 -2.21875 C 2.640625 -1.945312 2.710938 -1.734375 2.859375 -1.578125 C 3.015625 -1.429688 3.226562 -1.359375 3.5 -1.359375 Z M 3.5 -1.359375 "/></g></g></g><g fill="#000000" fill-opacity="1"><g transform="translate(114.213922, 280.344181)"><g><path d="M 5.359375 -5.6875 L 6.515625 -5.6875 L 6.515625 -0.015625 L 5.296875 -0.015625 L 5.171875 -0.515625 C 4.929688 -0.304688 4.65625 -0.140625 4.34375 -0.015625 C 4.03125 0.0976562 3.695312 0.15625 3.34375 0.15625 C 2.769531 0.15625 2.257812 0.0234375 1.8125 -0.234375 C 1.363281 -0.492188 1.007812 -0.847656 0.75 -1.296875 C 0.5 -1.753906 0.375 -2.269531 0.375 -2.84375 C 0.375 -3.414062 0.5 -3.925781 0.75 -4.375 C 1.007812 -4.820312 1.363281 -5.175781 1.8125 -5.4375 C 2.257812 -5.695312 2.769531 -5.828125 3.34375 -5.828125 C 3.707031 -5.828125 4.046875 -5.765625 4.359375 -5.640625 C 4.671875 -5.515625 4.953125 -5.347656 5.203125 -5.140625 Z M 3.46875 -1.296875 C 3.757812 -1.296875 4.019531 -1.359375 4.25 -1.484375 C 4.488281 -1.617188 4.675781 -1.800781 4.8125 -2.03125 C 4.945312 -2.269531 5.015625 -2.539062 5.015625 -2.84375 C 5.015625 -3.132812 4.945312 -3.394531 4.8125 -3.625 C 4.675781 -3.863281 4.488281 -4.050781 4.25 -4.1875 C 4.019531 -4.332031 3.757812 -4.40625 3.46875 -4.40625 C 3.164062 -4.40625 2.898438 -4.332031 2.671875 -4.1875 C 2.441406 -4.050781 2.257812 -3.863281 2.125 -3.625 C 1.988281 -3.394531 1.921875 -3.132812 1.921875 -2.84375 C 1.921875 -2.539062 1.988281 -2.273438 2.125 -2.046875 C 2.257812 -1.816406 2.441406 -1.632812 2.671875 -1.5 C 2.898438 -1.363281 3.164062 -1.296875 3.46875 -1.296875 Z M 3.46875 -1.296875 "/></g></g></g><g fill="#000000" fill-opacity="1"><g transform="translate(122.508886, 280.344181)"><g><path d="M 3.96875 -5.8125 C 4.613281 -5.8125 5.125 -5.59375 5.5 -5.15625 C 5.875 -4.726562 6.0625 -4.15625 6.0625 -3.4375 L 6.0625 0 L 4.53125 0 L 4.53125 -3.1875 C 4.53125 -4.039062 4.195312 -4.46875 3.53125 -4.46875 C 3.144531 -4.46875 2.835938 -4.332031 2.609375 -4.0625 C 2.378906 -3.800781 2.265625 -3.441406 2.265625 -2.984375 L 2.265625 0 L 0.734375 0 L 0.734375 -5.671875 L 1.78125 -5.671875 L 2.09375 -4.96875 C 2.300781 -5.226562 2.566406 -5.429688 2.890625 -5.578125 C 3.222656 -5.734375 3.582031 -5.8125 3.96875 -5.8125 Z M 3.96875 -5.8125 "/></g></g></g><g fill="#000000" fill-opacity="1"><g transform="translate(130.289357, 280.344181)"><g><path d="M 3.375 0.15625 C 2.800781 0.15625 2.285156 0.0234375 1.828125 -0.234375 C 1.378906 -0.503906 1.023438 -0.863281 0.765625 -1.3125 C 0.503906 -1.769531 0.375 -2.285156 0.375 -2.859375 C 0.375 -3.421875 0.503906 -3.925781 0.765625 -4.375 C 1.023438 -4.820312 1.378906 -5.175781 1.828125 -5.4375 C 2.285156 -5.695312 2.800781 -5.828125 3.375 -5.828125 C 3.863281 -5.828125 4.3125 -5.726562 4.71875 -5.53125 C 5.125 -5.34375 5.457031 -5.070312 5.71875 -4.71875 C 5.988281 -4.375 6.171875 -3.96875 6.265625 -3.5 L 4.75 -3.5 C 4.625 -3.78125 4.4375 -4 4.1875 -4.15625 C 3.945312 -4.3125 3.675781 -4.390625 3.375 -4.390625 C 3.101562 -4.390625 2.851562 -4.320312 2.625 -4.1875 C 2.40625 -4.050781 2.234375 -3.863281 2.109375 -3.625 C 1.984375 -3.394531 1.921875 -3.132812 1.921875 -2.84375 C 1.921875 -2.550781 1.984375 -2.285156 2.109375 -2.046875 C 2.234375 -1.816406 2.40625 -1.628906 2.625 -1.484375 C 2.851562 -1.347656 3.101562 -1.28125 3.375 -1.28125 C 3.6875 -1.28125 3.957031 -1.363281 4.1875 -1.53125 C 4.425781 -1.695312 4.613281 -1.929688 4.75 -2.234375 L 6.296875 -2.234375 C 6.203125 -1.753906 6.015625 -1.332031 5.734375 -0.96875 C 5.460938 -0.613281 5.125 -0.335938 4.71875 -0.140625 C 4.3125 0.0546875 3.863281 0.15625 3.375 0.15625 Z M 3.375 0.15625 "/></g></g></g><g fill="#000000" fill-opacity="1"><g transform="translate(137.901829, 280.344181)"><g><path d="M 4.65625 -5.671875 L 6.296875 -5.671875 L 3.8125 -0.078125 C 3.582031 0.429688 3.351562 0.84375 3.125 1.15625 C 2.894531 1.46875 2.632812 1.691406 2.34375 1.828125 C 2.050781 1.972656 1.691406 2.046875 1.265625 2.046875 L 0.625 2.046875 L 0.625 0.65625 L 1.171875 0.65625 C 1.410156 0.65625 1.601562 0.628906 1.75 0.578125 C 1.894531 0.523438 2.015625 0.421875 2.109375 0.265625 C 2.210938 0.117188 2.328125 -0.0976562 2.453125 -0.390625 L 2.46875 -0.4375 L 0.0625 -5.671875 L 1.734375 -5.671875 L 3.25 -2.1875 Z M 4.65625 -5.671875 "/></g></g></g><g fill="#000000" fill-opacity="1"><g transform="translate(145.272796, 280.344181)"><g><path d="M 0.703125 1.65625 L 0.703125 0.90625 C 0.992188 0.863281 1.203125 0.753906 1.328125 0.578125 C 1.453125 0.410156 1.515625 0.21875 1.515625 0 L 0.625 0 L 0.625 -1.640625 L 2.28125 -1.640625 L 2.28125 -0.125 C 2.28125 0.40625 2.132812 0.820312 1.84375 1.125 C 1.550781 1.425781 1.171875 1.601562 0.703125 1.65625 Z M 0.703125 1.65625 "/></g></g></g><g fill="#000000" fill-opacity="1"><g transform="translate(149.231285, 280.344181)"><g/></g></g><g fill="#000000" fill-opacity="1"><g transform="translate(152.790774, 280.344181)"><g><path d="M 3.625 -7.34375 C 4.164062 -7.34375 4.660156 -7.25 5.109375 -7.0625 C 5.566406 -6.882812 5.960938 -6.628906 6.296875 -6.296875 C 6.628906 -5.972656 6.882812 -5.585938 7.0625 -5.140625 C 7.25 -4.703125 7.34375 -4.21875 7.34375 -3.6875 C 7.34375 -3.15625 7.25 -2.664062 7.0625 -2.21875 C 6.882812 -1.769531 6.628906 -1.378906 6.296875 -1.046875 C 5.960938 -0.710938 5.566406 -0.453125 5.109375 -0.265625 C 4.660156 -0.0859375 4.164062 0 3.625 0 L 0.84375 0 L 0.84375 -7.34375 Z M 3.578125 -1.484375 C 3.992188 -1.484375 4.363281 -1.578125 4.6875 -1.765625 C 5.007812 -1.953125 5.257812 -2.210938 5.4375 -2.546875 C 5.625 -2.878906 5.71875 -3.257812 5.71875 -3.6875 C 5.71875 -4.113281 5.625 -4.488281 5.4375 -4.8125 C 5.257812 -5.144531 5.007812 -5.40625 4.6875 -5.59375 C 4.363281 -5.78125 3.992188 -5.875 3.578125 -5.875 L 2.4375 -5.875 L 2.4375 -1.484375 Z M 3.578125 -1.484375 "/></g></g></g><g fill="#000000" fill-opacity="1"><g transform="translate(161.621241, 280.344181)"><g><path d="M 6.234375 -2.859375 C 6.234375 -2.710938 6.222656 -2.5625 6.203125 -2.40625 L 1.921875 -2.40625 C 1.984375 -2.019531 2.132812 -1.722656 2.375 -1.515625 C 2.625 -1.304688 2.9375 -1.203125 3.3125 -1.203125 C 3.570312 -1.203125 3.804688 -1.257812 4.015625 -1.375 C 4.234375 -1.488281 4.394531 -1.648438 4.5 -1.859375 L 6.125 -1.859375 C 5.914062 -1.242188 5.554688 -0.753906 5.046875 -0.390625 C 4.546875 -0.0234375 3.96875 0.15625 3.3125 0.15625 C 2.75 0.15625 2.242188 0.0234375 1.796875 -0.234375 C 1.359375 -0.492188 1.007812 -0.847656 0.75 -1.296875 C 0.5 -1.753906 0.375 -2.265625 0.375 -2.828125 C 0.375 -3.398438 0.5 -3.910156 0.75 -4.359375 C 1.007812 -4.816406 1.359375 -5.175781 1.796875 -5.4375 C 2.242188 -5.695312 2.75 -5.828125 3.3125 -5.828125 C 3.882812 -5.828125 4.390625 -5.691406 4.828125 -5.421875 C 5.273438 -5.148438 5.617188 -4.789062 5.859375 -4.34375 C 6.109375 -3.894531 6.234375 -3.398438 6.234375 -2.859375 Z M 3.3125 -4.53125 C 2.96875 -4.53125 2.675781 -4.429688 2.4375 -4.234375 C 2.207031 -4.046875 2.050781 -3.785156 1.96875 -3.453125 L 4.703125 -3.453125 C 4.484375 -4.171875 4.019531 -4.53125 3.3125 -4.53125 Z M 3.3125 -4.53125 "/></g></g></g><g fill="#000000" fill-opacity="1"><g transform="translate(169.265207, 280.344181)"><g><path d="M 4.453125 -5.671875 L 6.046875 -5.671875 L 3.796875 0 L 2.375 0 L 0.078125 -5.671875 L 1.703125 -5.671875 L 3.09375 -1.875 Z M 4.453125 -5.671875 "/></g></g></g><g fill="#000000" fill-opacity="1"><g transform="translate(176.447176, 280.344181)"><g><path d="M 6.234375 -2.859375 C 6.234375 -2.710938 6.222656 -2.5625 6.203125 -2.40625 L 1.921875 -2.40625 C 1.984375 -2.019531 2.132812 -1.722656 2.375 -1.515625 C 2.625 -1.304688 2.9375 -1.203125 3.3125 -1.203125 C 3.570312 -1.203125 3.804688 -1.257812 4.015625 -1.375 C 4.234375 -1.488281 4.394531 -1.648438 4.5 -1.859375 L 6.125 -1.859375 C 5.914062 -1.242188 5.554688 -0.753906 5.046875 -0.390625 C 4.546875 -0.0234375 3.96875 0.15625 3.3125 0.15625 C 2.75 0.15625 2.242188 0.0234375 1.796875 -0.234375 C 1.359375 -0.492188 1.007812 -0.847656 0.75 -1.296875 C 0.5 -1.753906 0.375 -2.265625 0.375 -2.828125 C 0.375 -3.398438 0.5 -3.910156 0.75 -4.359375 C 1.007812 -4.816406 1.359375 -5.175781 1.796875 -5.4375 C 2.242188 -5.695312 2.75 -5.828125 3.3125 -5.828125 C 3.882812 -5.828125 4.390625 -5.691406 4.828125 -5.421875 C 5.273438 -5.148438 5.617188 -4.789062 5.859375 -4.34375 C 6.109375 -3.894531 6.234375 -3.398438 6.234375 -2.859375 Z M 3.3125 -4.53125 C 2.96875 -4.53125 2.675781 -4.429688 2.4375 -4.234375 C 2.207031 -4.046875 2.050781 -3.785156 1.96875 -3.453125 L 4.703125 -3.453125 C 4.484375 -4.171875 4.019531 -4.53125 3.3125 -4.53125 Z M 3.3125 -4.53125 "/></g></g></g><g fill="#000000" fill-opacity="1"><g transform="translate(184.091142, 280.344181)"><g><path d="M 0.734375 0 L 0.734375 -7.71875 L 2.265625 -7.71875 L 2.265625 0 Z M 0.734375 0 "/></g></g></g><g fill="#000000" fill-opacity="1"><g transform="translate(188.144124, 280.344181)"><g><path d="M 3.4375 0.15625 C 2.84375 0.15625 2.316406 0.0234375 1.859375 -0.234375 C 1.398438 -0.492188 1.035156 -0.847656 0.765625 -1.296875 C 0.503906 -1.753906 0.375 -2.265625 0.375 -2.828125 C 0.375 -3.410156 0.503906 -3.925781 0.765625 -4.375 C 1.035156 -4.820312 1.398438 -5.175781 1.859375 -5.4375 C 2.316406 -5.695312 2.84375 -5.828125 3.4375 -5.828125 C 4.019531 -5.828125 4.539062 -5.695312 5 -5.4375 C 5.457031 -5.175781 5.816406 -4.820312 6.078125 -4.375 C 6.347656 -3.925781 6.484375 -3.410156 6.484375 -2.828125 C 6.484375 -2.265625 6.347656 -1.753906 6.078125 -1.296875 C 5.816406 -0.847656 5.457031 -0.492188 5 -0.234375 C 4.539062 0.0234375 4.019531 0.15625 3.4375 0.15625 Z M 3.4375 -1.28125 C 3.875 -1.28125 4.234375 -1.421875 4.515625 -1.703125 C 4.796875 -1.992188 4.9375 -2.367188 4.9375 -2.828125 C 4.9375 -3.296875 4.796875 -3.671875 4.515625 -3.953125 C 4.234375 -4.242188 3.875 -4.390625 3.4375 -4.390625 C 2.988281 -4.390625 2.625 -4.242188 2.34375 -3.953125 C 2.0625 -3.671875 1.921875 -3.296875 1.921875 -2.828125 C 1.921875 -2.367188 2.0625 -1.992188 2.34375 -1.703125 C 2.625 -1.421875 2.988281 -1.28125 3.4375 -1.28125 Z M 3.4375 -1.28125 "/></g></g></g><g fill="#000000" fill-opacity="1"><g transform="translate(196.050595, 280.344181)"><g><path d="M 3.828125 -5.828125 C 4.398438 -5.828125 4.910156 -5.695312 5.359375 -5.4375 C 5.804688 -5.175781 6.15625 -4.820312 6.40625 -4.375 C 6.664062 -3.925781 6.796875 -3.410156 6.796875 -2.828125 C 6.796875 -2.253906 6.664062 -1.742188 6.40625 -1.296875 C 6.15625 -0.847656 5.804688 -0.488281 5.359375 -0.21875 C 4.910156 0.0390625 4.398438 0.171875 3.828125 0.171875 C 3.535156 0.171875 3.253906 0.128906 2.984375 0.046875 C 2.722656 -0.0351562 2.484375 -0.148438 2.265625 -0.296875 L 2.265625 2.046875 L 0.734375 2.046875 L 0.734375 -5.671875 L 1.75 -5.671875 L 2.015625 -5.15625 C 2.253906 -5.363281 2.523438 -5.523438 2.828125 -5.640625 C 3.140625 -5.765625 3.472656 -5.828125 3.828125 -5.828125 Z M 3.703125 -1.28125 C 3.992188 -1.28125 4.253906 -1.347656 4.484375 -1.484375 C 4.722656 -1.617188 4.910156 -1.800781 5.046875 -2.03125 C 5.179688 -2.269531 5.25 -2.535156 5.25 -2.828125 C 5.25 -3.128906 5.179688 -3.394531 5.046875 -3.625 C 4.910156 -3.863281 4.722656 -4.050781 4.484375 -4.1875 C 4.253906 -4.320312 3.992188 -4.390625 3.703125 -4.390625 C 3.398438 -4.390625 3.132812 -4.320312 2.90625 -4.1875 C 2.675781 -4.050781 2.492188 -3.863281 2.359375 -3.625 C 2.222656 -3.394531 2.15625 -3.128906 2.15625 -2.828125 C 2.15625 -2.535156 2.222656 -2.269531 2.359375 -2.03125 C 2.492188 -1.800781 2.675781 -1.617188 2.90625 -1.484375 C 3.132812 -1.347656 3.398438 -1.28125 3.703125 -1.28125 Z M 3.703125 -1.28125 "/></g></g></g><g fill="#000000" fill-opacity="1"><g transform="translate(204.261558, 280.344181)"><g><path d="M 7.1875 -5.8125 C 7.570312 -5.8125 7.914062 -5.710938 8.21875 -5.515625 C 8.519531 -5.328125 8.753906 -5.0625 8.921875 -4.71875 C 9.097656 -4.382812 9.1875 -4 9.1875 -3.5625 L 9.1875 0 L 7.65625 0 L 7.65625 -3.3125 C 7.65625 -4.082031 7.367188 -4.46875 6.796875 -4.46875 C 6.460938 -4.46875 6.195312 -4.34375 6 -4.09375 C 5.8125 -3.851562 5.71875 -3.507812 5.71875 -3.0625 L 5.71875 0 L 4.203125 0 L 4.203125 -3.3125 C 4.203125 -4.082031 3.925781 -4.46875 3.375 -4.46875 C 3.03125 -4.46875 2.757812 -4.34375 2.5625 -4.09375 C 2.363281 -3.851562 2.265625 -3.507812 2.265625 -3.0625 L 2.265625 0 L 0.734375 0 L 0.734375 -5.671875 L 1.8125 -5.671875 L 2.09375 -4.96875 C 2.289062 -5.21875 2.535156 -5.421875 2.828125 -5.578125 C 3.128906 -5.734375 3.453125 -5.8125 3.796875 -5.8125 C 4.148438 -5.8125 4.46875 -5.726562 4.75 -5.5625 C 5.039062 -5.40625 5.265625 -5.179688 5.421875 -4.890625 C 5.617188 -5.171875 5.867188 -5.394531 6.171875 -5.5625 C 6.484375 -5.726562 6.820312 -5.8125 7.1875 -5.8125 Z M 7.1875 -5.8125 "/></g></g></g><g fill="#000000" fill-opacity="1"><g transform="translate(215.16051, 280.344181)"><g><path d="M 6.234375 -2.859375 C 6.234375 -2.710938 6.222656 -2.5625 6.203125 -2.40625 L 1.921875 -2.40625 C 1.984375 -2.019531 2.132812 -1.722656 2.375 -1.515625 C 2.625 -1.304688 2.9375 -1.203125 3.3125 -1.203125 C 3.570312 -1.203125 3.804688 -1.257812 4.015625 -1.375 C 4.234375 -1.488281 4.394531 -1.648438 4.5 -1.859375 L 6.125 -1.859375 C 5.914062 -1.242188 5.554688 -0.753906 5.046875 -0.390625 C 4.546875 -0.0234375 3.96875 0.15625 3.3125 0.15625 C 2.75 0.15625 2.242188 0.0234375 1.796875 -0.234375 C 1.359375 -0.492188 1.007812 -0.847656 0.75 -1.296875 C 0.5 -1.753906 0.375 -2.265625 0.375 -2.828125 C 0.375 -3.398438 0.5 -3.910156 0.75 -4.359375 C 1.007812 -4.816406 1.359375 -5.175781 1.796875 -5.4375 C 2.242188 -5.695312 2.75 -5.828125 3.3125 -5.828125 C 3.882812 -5.828125 4.390625 -5.691406 4.828125 -5.421875 C 5.273438 -5.148438 5.617188 -4.789062 5.859375 -4.34375 C 6.109375 -3.894531 6.234375 -3.398438 6.234375 -2.859375 Z M 3.3125 -4.53125 C 2.96875 -4.53125 2.675781 -4.429688 2.4375 -4.234375 C 2.207031 -4.046875 2.050781 -3.785156 1.96875 -3.453125 L 4.703125 -3.453125 C 4.484375 -4.171875 4.019531 -4.53125 3.3125 -4.53125 Z M 3.3125 -4.53125 "/></g></g></g><g fill="#000000" fill-opacity="1"><g transform="translate(222.804476, 280.344181)"><g><path d="M 3.96875 -5.8125 C 4.613281 -5.8125 5.125 -5.59375 5.5 -5.15625 C 5.875 -4.726562 6.0625 -4.15625 6.0625 -3.4375 L 6.0625 0 L 4.53125 0 L 4.53125 -3.1875 C 4.53125 -4.039062 4.195312 -4.46875 3.53125 -4.46875 C 3.144531 -4.46875 2.835938 -4.332031 2.609375 -4.0625 C 2.378906 -3.800781 2.265625 -3.441406 2.265625 -2.984375 L 2.265625 0 L 0.734375 0 L 0.734375 -5.671875 L 1.78125 -5.671875 L 2.09375 -4.96875 C 2.300781 -5.226562 2.566406 -5.429688 2.890625 -5.578125 C 3.222656 -5.734375 3.582031 -5.8125 3.96875 -5.8125 Z M 3.96875 -5.8125 "/></g></g></g><g fill="#000000" fill-opacity="1"><g transform="translate(230.584947, 280.344181)"><g><path d="M 3.5 -1.359375 L 4.203125 -1.359375 L 4.203125 0 L 3.125 0 C 2.5 0 2.003906 -0.175781 1.640625 -0.53125 C 1.285156 -0.894531 1.109375 -1.394531 1.109375 -2.03125 L 1.109375 -4.4375 L 0.078125 -4.4375 L 0.078125 -4.765625 L 2.328125 -7.15625 L 2.609375 -7.15625 L 2.609375 -5.671875 L 4.171875 -5.671875 L 4.171875 -4.4375 L 2.640625 -4.4375 L 2.640625 -2.21875 C 2.640625 -1.945312 2.710938 -1.734375 2.859375 -1.578125 C 3.015625 -1.429688 3.226562 -1.359375 3.5 -1.359375 Z M 3.5 -1.359375 "/></g></g></g><g fill="#000000" fill-opacity="1"><g transform="translate(236.149923, 280.344181)"><g/></g></g><g fill="#000000" fill-opacity="1"><g transform="translate(239.709413, 280.344181)"><g><path d="M 5.359375 -5.6875 L 6.515625 -5.6875 L 6.515625 -0.015625 L 5.296875 -0.015625 L 5.171875 -0.515625 C 4.929688 -0.304688 4.65625 -0.140625 4.34375 -0.015625 C 4.03125 0.0976562 3.695312 0.15625 3.34375 0.15625 C 2.769531 0.15625 2.257812 0.0234375 1.8125 -0.234375 C 1.363281 -0.492188 1.007812 -0.847656 0.75 -1.296875 C 0.5 -1.753906 0.375 -2.269531 0.375 -2.84375 C 0.375 -3.414062 0.5 -3.925781 0.75 -4.375 C 1.007812 -4.820312 1.363281 -5.175781 1.8125 -5.4375 C 2.257812 -5.695312 2.769531 -5.828125 3.34375 -5.828125 C 3.707031 -5.828125 4.046875 -5.765625 4.359375 -5.640625 C 4.671875 -5.515625 4.953125 -5.347656 5.203125 -5.140625 Z M 3.46875 -1.296875 C 3.757812 -1.296875 4.019531 -1.359375 4.25 -1.484375 C 4.488281 -1.617188 4.675781 -1.800781 4.8125 -2.03125 C 4.945312 -2.269531 5.015625 -2.539062 5.015625 -2.84375 C 5.015625 -3.132812 4.945312 -3.394531 4.8125 -3.625 C 4.675781 -3.863281 4.488281 -4.050781 4.25 -4.1875 C 4.019531 -4.332031 3.757812 -4.40625 3.46875 -4.40625 C 3.164062 -4.40625 2.898438 -4.332031 2.671875 -4.1875 C 2.441406 -4.050781 2.257812 -3.863281 2.125 -3.625 C 1.988281 -3.394531 1.921875 -3.132812 1.921875 -2.84375 C 1.921875 -2.539062 1.988281 -2.273438 2.125 -2.046875 C 2.257812 -1.816406 2.441406 -1.632812 2.671875 -1.5 C 2.898438 -1.363281 3.164062 -1.296875 3.46875 -1.296875 Z M 3.46875 -1.296875 "/></g></g></g><g fill="#000000" fill-opacity="1"><g transform="translate(248.004376, 280.344181)"><g><path d="M 3.96875 -5.8125 C 4.613281 -5.8125 5.125 -5.59375 5.5 -5.15625 C 5.875 -4.726562 6.0625 -4.15625 6.0625 -3.4375 L 6.0625 0 L 4.53125 0 L 4.53125 -3.1875 C 4.53125 -4.039062 4.195312 -4.46875 3.53125 -4.46875 C 3.144531 -4.46875 2.835938 -4.332031 2.609375 -4.0625 C 2.378906 -3.800781 2.265625 -3.441406 2.265625 -2.984375 L 2.265625 0 L 0.734375 0 L 0.734375 -5.671875 L 1.78125 -5.671875 L 2.09375 -4.96875 C 2.300781 -5.226562 2.566406 -5.429688 2.890625 -5.578125 C 3.222656 -5.734375 3.582031 -5.8125 3.96875 -5.8125 Z M 3.96875 -5.8125 "/></g></g></g><g fill="#000000" fill-opacity="1"><g transform="translate(255.784847, 280.344181)"><g><path d="M 4.90625 -7.71875 L 6.4375 -7.71875 L 6.4375 0 L 5.296875 0 L 5.125 -0.46875 C 4.882812 -0.269531 4.613281 -0.113281 4.3125 0 C 4.007812 0.113281 3.6875 0.171875 3.34375 0.171875 C 2.769531 0.171875 2.257812 0.0390625 1.8125 -0.21875 C 1.363281 -0.488281 1.007812 -0.847656 0.75 -1.296875 C 0.5 -1.742188 0.375 -2.253906 0.375 -2.828125 C 0.375 -3.410156 0.5 -3.925781 0.75 -4.375 C 1.007812 -4.820312 1.363281 -5.175781 1.8125 -5.4375 C 2.257812 -5.695312 2.769531 -5.828125 3.34375 -5.828125 C 3.632812 -5.828125 3.910156 -5.785156 4.171875 -5.703125 C 4.429688 -5.628906 4.675781 -5.515625 4.90625 -5.359375 Z M 3.46875 -1.28125 C 3.769531 -1.28125 4.035156 -1.347656 4.265625 -1.484375 C 4.492188 -1.617188 4.675781 -1.800781 4.8125 -2.03125 C 4.945312 -2.269531 5.015625 -2.535156 5.015625 -2.828125 C 5.015625 -3.128906 4.945312 -3.394531 4.8125 -3.625 C 4.675781 -3.863281 4.492188 -4.050781 4.265625 -4.1875 C 4.035156 -4.320312 3.769531 -4.390625 3.46875 -4.390625 C 3.175781 -4.390625 2.910156 -4.320312 2.671875 -4.1875 C 2.441406 -4.050781 2.257812 -3.863281 2.125 -3.625 C 1.988281 -3.394531 1.921875 -3.128906 1.921875 -2.828125 C 1.921875 -2.535156 1.988281 -2.269531 2.125 -2.03125 C 2.257812 -1.800781 2.441406 -1.617188 2.671875 -1.484375 C 2.910156 -1.347656 3.175781 -1.28125 3.46875 -1.28125 Z M 3.46875 -1.28125 "/></g></g></g><g fill="#000000" fill-opacity="1"><g transform="translate(264.006305, 280.344181)"><g/></g></g><g fill="#000000" fill-opacity="1"><g transform="translate(267.565807, 280.344181)"><g><path d="M 3.625 -7.34375 C 4.164062 -7.34375 4.660156 -7.25 5.109375 -7.0625 C 5.566406 -6.882812 5.960938 -6.628906 6.296875 -6.296875 C 6.628906 -5.972656 6.882812 -5.585938 7.0625 -5.140625 C 7.25 -4.703125 7.34375 -4.21875 7.34375 -3.6875 C 7.34375 -3.15625 7.25 -2.664062 7.0625 -2.21875 C 6.882812 -1.769531 6.628906 -1.378906 6.296875 -1.046875 C 5.960938 -0.710938 5.566406 -0.453125 5.109375 -0.265625 C 4.660156 -0.0859375 4.164062 0 3.625 0 L 0.84375 0 L 0.84375 -7.34375 Z M 3.578125 -1.484375 C 3.992188 -1.484375 4.363281 -1.578125 4.6875 -1.765625 C 5.007812 -1.953125 5.257812 -2.210938 5.4375 -2.546875 C 5.625 -2.878906 5.71875 -3.257812 5.71875 -3.6875 C 5.71875 -4.113281 5.625 -4.488281 5.4375 -4.8125 C 5.257812 -5.144531 5.007812 -5.40625 4.6875 -5.59375 C 4.363281 -5.78125 3.992188 -5.875 3.578125 -5.875 L 2.4375 -5.875 L 2.4375 -1.484375 Z M 3.578125 -1.484375 "/></g></g></g><g fill="#000000" fill-opacity="1"><g transform="translate(276.396273, 280.344181)"><g><path d="M 6.234375 -2.859375 C 6.234375 -2.710938 6.222656 -2.5625 6.203125 -2.40625 L 1.921875 -2.40625 C 1.984375 -2.019531 2.132812 -1.722656 2.375 -1.515625 C 2.625 -1.304688 2.9375 -1.203125 3.3125 -1.203125 C 3.570312 -1.203125 3.804688 -1.257812 4.015625 -1.375 C 4.234375 -1.488281 4.394531 -1.648438 4.5 -1.859375 L 6.125 -1.859375 C 5.914062 -1.242188 5.554688 -0.753906 5.046875 -0.390625 C 4.546875 -0.0234375 3.96875 0.15625 3.3125 0.15625 C 2.75 0.15625 2.242188 0.0234375 1.796875 -0.234375 C 1.359375 -0.492188 1.007812 -0.847656 0.75 -1.296875 C 0.5 -1.753906 0.375 -2.265625 0.375 -2.828125 C 0.375 -3.398438 0.5 -3.910156 0.75 -4.359375 C 1.007812 -4.816406 1.359375 -5.175781 1.796875 -5.4375 C 2.242188 -5.695312 2.75 -5.828125 3.3125 -5.828125 C 3.882812 -5.828125 4.390625 -5.691406 4.828125 -5.421875 C 5.273438 -5.148438 5.617188 -4.789062 5.859375 -4.34375 C 6.109375 -3.894531 6.234375 -3.398438 6.234375 -2.859375 Z M 3.3125 -4.53125 C 2.96875 -4.53125 2.675781 -4.429688 2.4375 -4.234375 C 2.207031 -4.046875 2.050781 -3.785156 1.96875 -3.453125 L 4.703125 -3.453125 C 4.484375 -4.171875 4.019531 -4.53125 3.3125 -4.53125 Z M 3.3125 -4.53125 "/></g></g></g><g fill="#000000" fill-opacity="1"><g transform="translate(284.04024, 280.344181)"><g><path d="M 2.75 0.15625 C 2.269531 0.15625 1.851562 0.0703125 1.5 -0.09375 C 1.144531 -0.257812 0.867188 -0.492188 0.671875 -0.796875 C 0.472656 -1.109375 0.375 -1.46875 0.375 -1.875 L 1.859375 -1.875 C 1.867188 -1.613281 1.957031 -1.421875 2.125 -1.296875 C 2.300781 -1.171875 2.523438 -1.109375 2.796875 -1.109375 C 3.015625 -1.109375 3.203125 -1.15625 3.359375 -1.25 C 3.523438 -1.34375 3.609375 -1.488281 3.609375 -1.6875 C 3.609375 -1.875 3.5 -2.007812 3.28125 -2.09375 C 3.070312 -2.175781 2.816406 -2.238281 2.515625 -2.28125 C 2.296875 -2.320312 2.0625 -2.375 1.8125 -2.4375 C 1.570312 -2.5 1.347656 -2.585938 1.140625 -2.703125 C 0.941406 -2.828125 0.78125 -2.992188 0.65625 -3.203125 C 0.53125 -3.410156 0.46875 -3.679688 0.46875 -4.015625 C 0.46875 -4.378906 0.5625 -4.695312 0.75 -4.96875 C 0.945312 -5.238281 1.210938 -5.445312 1.546875 -5.59375 C 1.890625 -5.75 2.289062 -5.828125 2.75 -5.828125 C 3.207031 -5.828125 3.601562 -5.75 3.9375 -5.59375 C 4.28125 -5.4375 4.546875 -5.210938 4.734375 -4.921875 C 4.921875 -4.640625 5.015625 -4.3125 5.015625 -3.9375 L 3.5625 -3.9375 C 3.5625 -4.164062 3.484375 -4.332031 3.328125 -4.4375 C 3.179688 -4.550781 2.972656 -4.609375 2.703125 -4.609375 C 2.472656 -4.609375 2.289062 -4.554688 2.15625 -4.453125 C 2.019531 -4.359375 1.953125 -4.226562 1.953125 -4.0625 C 1.953125 -3.875 2.054688 -3.742188 2.265625 -3.671875 C 2.472656 -3.597656 2.726562 -3.539062 3.03125 -3.5 C 3.257812 -3.457031 3.492188 -3.40625 3.734375 -3.34375 C 3.984375 -3.28125 4.210938 -3.1875 4.421875 -3.0625 C 4.628906 -2.945312 4.796875 -2.785156 4.921875 -2.578125 C 5.054688 -2.367188 5.125 -2.09375 5.125 -1.75 C 5.125 -1.363281 5.023438 -1.023438 4.828125 -0.734375 C 4.628906 -0.453125 4.351562 -0.234375 4 -0.078125 C 3.644531 0.078125 3.226562 0.15625 2.75 0.15625 Z M 2.75 0.15625 "/></g></g></g><g fill="#000000" fill-opacity="1"><g transform="translate(290.602716, 280.344181)"><g><path d="M 0.734375 -6.421875 L 0.734375 -7.859375 L 2.265625 -7.859375 L 2.265625 -6.421875 Z M 0.734375 0 L 0.734375 -5.671875 L 2.265625 -5.671875 L 2.265625 0 Z M 0.734375 0 "/></g></g></g><g fill="#000000" fill-opacity="1"><g transform="translate(294.655687, 280.344181)"><g><path d="M 5.3125 -5.671875 L 6.3125 -5.671875 L 6.3125 -0.65625 C 6.3125 -0.0625 6.191406 0.445312 5.953125 0.875 C 5.722656 1.300781 5.390625 1.628906 4.953125 1.859375 C 4.523438 2.085938 4.007812 2.203125 3.40625 2.203125 C 2.632812 2.203125 1.992188 2.015625 1.484375 1.640625 C 0.972656 1.273438 0.65625 0.769531 0.53125 0.125 L 2.046875 0.125 C 2.128906 0.375 2.300781 0.5625 2.5625 0.6875 C 2.832031 0.820312 3.101562 0.890625 3.375 0.890625 C 3.769531 0.890625 4.101562 0.769531 4.375 0.53125 C 4.65625 0.300781 4.796875 -0.0195312 4.796875 -0.4375 L 4.796875 -0.65625 C 4.578125 -0.488281 4.328125 -0.359375 4.046875 -0.265625 C 3.773438 -0.179688 3.488281 -0.140625 3.1875 -0.140625 C 2.65625 -0.140625 2.175781 -0.265625 1.75 -0.515625 C 1.320312 -0.773438 0.984375 -1.117188 0.734375 -1.546875 C 0.492188 -1.972656 0.375 -2.453125 0.375 -2.984375 C 0.375 -3.515625 0.492188 -3.992188 0.734375 -4.421875 C 0.984375 -4.859375 1.320312 -5.203125 1.75 -5.453125 C 2.175781 -5.703125 2.65625 -5.828125 3.1875 -5.828125 C 3.550781 -5.828125 3.894531 -5.765625 4.21875 -5.640625 C 4.539062 -5.515625 4.828125 -5.335938 5.078125 -5.109375 Z M 3.359375 -1.515625 C 3.773438 -1.515625 4.117188 -1.648438 4.390625 -1.921875 C 4.671875 -2.203125 4.8125 -2.554688 4.8125 -2.984375 C 4.8125 -3.398438 4.675781 -3.742188 4.40625 -4.015625 C 4.132812 -4.296875 3.785156 -4.4375 3.359375 -4.4375 C 2.941406 -4.4375 2.597656 -4.296875 2.328125 -4.015625 C 2.054688 -3.742188 1.921875 -3.398438 1.921875 -2.984375 C 1.921875 -2.554688 2.054688 -2.203125 2.328125 -1.921875 C 2.597656 -1.648438 2.941406 -1.515625 3.359375 -1.515625 Z M 3.359375 -1.515625 "/></g></g></g><g fill="#000000" fill-opacity="1"><g transform="translate(302.751168, 280.344181)"><g><path d="M 3.96875 -5.8125 C 4.613281 -5.8125 5.125 -5.59375 5.5 -5.15625 C 5.875 -4.726562 6.0625 -4.15625 6.0625 -3.4375 L 6.0625 0 L 4.53125 0 L 4.53125 -3.1875 C 4.53125 -4.039062 4.195312 -4.46875 3.53125 -4.46875 C 3.144531 -4.46875 2.835938 -4.332031 2.609375 -4.0625 C 2.378906 -3.800781 2.265625 -3.441406 2.265625 -2.984375 L 2.265625 0 L 0.734375 0 L 0.734375 -5.671875 L 1.78125 -5.671875 L 2.09375 -4.96875 C 2.300781 -5.226562 2.566406 -5.429688 2.890625 -5.578125 C 3.222656 -5.734375 3.582031 -5.8125 3.96875 -5.8125 Z M 3.96875 -5.8125 "/></g></g></g></svg>