<svg xmlns="http://www.w3.org/2000/svg" xmlns:xlink="http://www.w3.org/1999/xlink" width="300" zoomAndPan="magnify" viewBox="0 0 224.87999 225" height="300" preserveAspectRatio="xMidYMid meet" version="1.0"><defs><g/><clipPath id="e1c4c356cd"><path d="M 0 43 L 224.761719 43 L 224.761719 185 L 0 185 Z M 0 43 " clip-rule="nonzero"/></clipPath><clipPath id="cfedbaa781"><path d="M 2 0.238281 L 221 0.238281 L 221 110 L 2 110 Z M 2 0.238281 " clip-rule="nonzero"/></clipPath><clipPath id="ad17dd3dca"><rect x="0" width="225" y="0" height="142"/></clipPath></defs><g clip-path="url(#e1c4c356cd)"><g transform="matrix(1, 0, 0, 1, 0, 43)"><g clip-path="url(#ad17dd3dca)"><g clip-path="url(#cfedbaa781)"><path fill="#e9c46a" d="M 165.695312 0.527344 C 163.722656 0.515625 161.753906 0.609375 159.789062 0.8125 C 157.824219 1.011719 155.878906 1.320312 153.949219 1.734375 C 152.019531 2.148438 150.117188 2.664062 148.242188 3.285156 C 146.367188 3.902344 144.535156 4.625 142.738281 5.445312 C 140.941406 6.265625 139.195312 7.179688 137.5 8.1875 C 135.804688 9.199219 134.167969 10.296875 132.59375 11.488281 C 131.015625 12.675781 129.507812 13.945312 128.070312 15.296875 C 126.632812 16.648438 125.273438 18.074219 123.992188 19.574219 L 115.914062 28.878906 L 133.941406 49.695312 L 144.570312 37.429688 C 145.875 35.90625 147.328125 34.542969 148.929688 33.335938 C 150.53125 32.128906 152.246094 31.109375 154.070312 30.277344 C 155.894531 29.445312 157.785156 28.820312 159.746094 28.398438 C 161.707031 27.980469 163.691406 27.773438 165.695312 27.789062 C 166.589844 27.773438 167.484375 27.808594 168.378906 27.882812 C 169.273438 27.960938 170.160156 28.082031 171.039062 28.246094 C 171.921875 28.410156 172.789062 28.617188 173.652344 28.867188 C 174.511719 29.117188 175.355469 29.410156 176.1875 29.746094 C 177.019531 30.078125 177.832031 30.453125 178.628906 30.867188 C 179.421875 31.285156 180.191406 31.738281 180.941406 32.230469 C 181.691406 32.71875 182.414062 33.246094 183.113281 33.808594 C 183.808594 34.375 184.476562 34.96875 185.113281 35.597656 C 185.753906 36.226562 186.355469 36.886719 186.929688 37.578125 C 187.503906 38.265625 188.039062 38.980469 188.542969 39.726562 C 189.042969 40.46875 189.507812 41.234375 189.933594 42.019531 C 190.359375 42.808594 190.742188 43.617188 191.089844 44.445312 C 191.433594 45.269531 191.738281 46.113281 192 46.96875 C 192.265625 47.824219 192.484375 48.695312 192.660156 49.570312 C 192.835938 50.449219 192.96875 51.335938 193.058594 52.226562 C 193.144531 53.121094 193.191406 54.011719 193.191406 54.910156 C 193.191406 55.804688 193.144531 56.699219 193.058594 57.589844 C 192.96875 58.484375 192.835938 59.367188 192.660156 60.246094 C 192.484375 61.125 192.265625 61.992188 192 62.847656 C 191.738281 63.707031 191.433594 64.546875 191.089844 65.375 C 190.742188 66.203125 190.359375 67.007812 189.933594 67.796875 C 189.507812 68.585938 189.042969 69.351562 188.542969 70.09375 C 188.039062 70.835938 187.503906 71.550781 186.929688 72.242188 C 186.355469 72.929688 185.753906 73.589844 185.113281 74.21875 C 184.476562 74.847656 183.808594 75.445312 183.113281 76.007812 C 182.414062 76.570312 181.691406 77.097656 180.941406 77.589844 C 180.191406 78.082031 179.421875 78.535156 178.628906 78.949219 C 177.832031 79.363281 177.019531 79.738281 176.1875 80.074219 C 175.355469 80.410156 174.511719 80.699219 173.652344 80.953125 C 172.789062 81.203125 171.921875 81.410156 171.039062 81.574219 C 170.160156 81.738281 169.273438 81.859375 168.378906 81.933594 C 167.484375 82.011719 166.589844 82.042969 165.695312 82.03125 C 163.695312 82.042969 161.71875 81.84375 159.765625 81.425781 C 157.8125 81.003906 155.925781 80.382812 154.105469 79.550781 C 152.289062 78.722656 150.582031 77.707031 148.984375 76.503906 C 147.386719 75.300781 145.9375 73.941406 144.640625 72.421875 C 105.164062 26.839844 123.917969 48.554688 98.84375 19.542969 C 97.5625 18.042969 96.199219 16.621094 94.757812 15.269531 C 93.320312 13.921875 91.8125 12.652344 90.234375 11.46875 C 88.660156 10.28125 87.023438 9.183594 85.328125 8.175781 C 83.628906 7.167969 81.882812 6.253906 80.089844 5.4375 C 78.292969 4.617188 76.460938 3.898438 74.585938 3.28125 C 72.710938 2.660156 70.8125 2.144531 68.882812 1.730469 C 66.953125 1.320312 65.007812 1.011719 63.042969 0.8125 C 61.082031 0.609375 59.113281 0.515625 57.140625 0.527344 C 55.351562 0.515625 53.566406 0.59375 51.785156 0.757812 C 50.003906 0.921875 48.234375 1.171875 46.476562 1.511719 C 44.722656 1.847656 42.984375 2.273438 41.273438 2.78125 C 39.558594 3.292969 37.871094 3.886719 36.214844 4.5625 C 34.558594 5.238281 32.941406 5.992188 31.359375 6.828125 C 29.777344 7.664062 28.242188 8.578125 26.75 9.566406 C 25.257812 10.550781 23.820312 11.609375 22.429688 12.738281 C 21.042969 13.871094 19.714844 15.066406 18.445312 16.324219 C 17.179688 17.585938 15.972656 18.90625 14.835938 20.285156 C 13.695312 21.664062 12.628906 23.097656 11.628906 24.582031 C 10.632812 26.066406 9.710938 27.597656 8.863281 29.171875 C 8.015625 30.746094 7.25 32.363281 6.5625 34.011719 C 5.875 35.664062 5.269531 37.34375 4.75 39.058594 C 4.226562 40.769531 3.792969 42.5 3.441406 44.253906 C 3.089844 46.007812 2.828125 47.777344 2.652344 49.554688 C 2.476562 51.335938 2.386719 53.121094 2.386719 54.910156 C 2.386719 56.699219 2.476562 58.484375 2.652344 60.261719 C 2.828125 62.042969 3.089844 63.808594 3.441406 65.5625 C 3.792969 67.316406 4.226562 69.050781 4.75 70.761719 C 5.269531 72.472656 5.875 74.152344 6.5625 75.804688 C 7.25 77.457031 8.015625 79.070312 8.863281 80.648438 C 9.710938 82.222656 10.632812 83.753906 11.628906 85.238281 C 12.628906 86.722656 13.695312 88.15625 14.835938 89.535156 C 15.972656 90.914062 17.179688 92.234375 18.445312 93.492188 C 19.714844 94.753906 21.042969 95.949219 22.429688 97.078125 C 23.820312 98.207031 25.257812 99.265625 26.75 100.253906 C 28.242188 101.242188 29.777344 102.152344 31.359375 102.988281 C 32.941406 103.824219 34.558594 104.582031 36.214844 105.257812 C 37.871094 105.933594 39.558594 106.527344 41.273438 107.035156 C 42.984375 107.546875 44.722656 107.96875 46.476562 108.308594 C 48.234375 108.648438 50.003906 108.898438 51.785156 109.0625 C 53.566406 109.226562 55.351562 109.300781 57.140625 109.289062 C 59.113281 109.300781 61.082031 109.207031 63.046875 109.007812 C 65.011719 108.804688 66.957031 108.5 68.886719 108.085938 C 70.816406 107.671875 72.71875 107.15625 74.59375 106.535156 C 76.46875 105.914062 78.300781 105.195312 80.097656 104.375 C 81.894531 103.554688 83.636719 102.640625 85.335938 101.628906 C 87.03125 100.621094 88.667969 99.519531 90.242188 98.332031 C 91.820312 97.144531 93.324219 95.875 94.765625 94.523438 C 96.203125 93.167969 97.5625 91.742188 98.84375 90.242188 L 106.921875 80.941406 L 88.894531 60.121094 L 78.265625 72.386719 C 76.960938 73.910156 75.507812 75.277344 73.90625 76.480469 C 72.304688 77.6875 70.589844 78.707031 68.765625 79.539062 C 66.941406 80.375 65.050781 81 63.089844 81.417969 C 61.128906 81.839844 59.144531 82.042969 57.140625 82.03125 C 56.242188 82.042969 55.347656 82.011719 54.457031 81.933594 C 53.5625 81.859375 52.675781 81.738281 51.796875 81.574219 C 50.914062 81.410156 50.042969 81.203125 49.183594 80.953125 C 48.324219 80.699219 47.476562 80.40625 46.648438 80.074219 C 45.816406 79.738281 45.003906 79.363281 44.207031 78.949219 C 43.414062 78.535156 42.644531 78.082031 41.894531 77.589844 C 41.144531 77.097656 40.421875 76.570312 39.722656 76.007812 C 39.027344 75.445312 38.359375 74.847656 37.722656 74.21875 C 37.082031 73.589844 36.476562 72.929688 35.90625 72.242188 C 35.332031 71.550781 34.796875 70.835938 34.292969 70.09375 C 33.792969 69.351562 33.328125 68.585938 32.902344 67.796875 C 32.476562 67.007812 32.09375 66.203125 31.746094 65.375 C 31.402344 64.546875 31.097656 63.707031 30.835938 62.847656 C 30.570312 61.992188 30.351562 61.125 30.175781 60.246094 C 30 59.367188 29.867188 58.484375 29.777344 57.589844 C 29.691406 56.699219 29.644531 55.804688 29.644531 54.910156 C 29.644531 54.011719 29.691406 53.121094 29.777344 52.226562 C 29.867188 51.335938 30 50.449219 30.175781 49.574219 C 30.351562 48.695312 30.570312 47.824219 30.835938 46.96875 C 31.097656 46.113281 31.402344 45.269531 31.746094 44.445312 C 32.09375 43.617188 32.476562 42.808594 32.902344 42.019531 C 33.328125 41.234375 33.792969 40.46875 34.292969 39.726562 C 34.796875 38.980469 35.332031 38.265625 35.90625 37.578125 C 36.476562 36.886719 37.082031 36.226562 37.722656 35.597656 C 38.359375 34.96875 39.027344 34.375 39.722656 33.8125 C 40.421875 33.246094 41.144531 32.71875 41.894531 32.230469 C 42.644531 31.738281 43.414062 31.285156 44.207031 30.867188 C 45.003906 30.453125 45.816406 30.078125 46.648438 29.746094 C 47.476562 29.410156 48.324219 29.117188 49.183594 28.867188 C 50.042969 28.617188 50.914062 28.410156 51.796875 28.246094 C 52.675781 28.082031 53.5625 27.960938 54.457031 27.882812 C 55.347656 27.808594 56.242188 27.773438 57.140625 27.789062 C 59.140625 27.773438 61.117188 27.976562 63.070312 28.394531 C 65.023438 28.8125 66.910156 29.4375 68.730469 30.265625 C 70.546875 31.097656 72.253906 32.113281 73.851562 33.316406 C 75.449219 34.515625 76.898438 35.878906 78.195312 37.394531 C 117.671875 82.980469 98.917969 61.261719 123.992188 90.277344 C 124.726562 91.152344 125.488281 92.003906 126.277344 92.832031 C 127.0625 93.660156 127.878906 94.460938 128.714844 95.238281 C 129.554688 96.015625 130.417969 96.761719 131.304688 97.484375 C 132.1875 98.207031 133.097656 98.902344 134.027344 99.566406 C 134.957031 100.234375 135.90625 100.867188 136.875 101.476562 C 137.84375 102.082031 138.832031 102.65625 139.835938 103.199219 C 140.839844 103.742188 141.863281 104.253906 142.902344 104.734375 C 143.9375 105.214844 144.988281 105.660156 146.054688 106.074219 C 147.121094 106.488281 148.199219 106.867188 149.289062 107.214844 C 150.378906 107.5625 151.476562 107.871094 152.585938 108.148438 C 153.695312 108.425781 154.8125 108.667969 155.933594 108.875 C 157.058594 109.082031 158.1875 109.253906 159.324219 109.390625 C 160.457031 109.527344 161.597656 109.625 162.738281 109.691406 C 163.878906 109.753906 165.019531 109.785156 166.164062 109.777344 C 167.308594 109.769531 168.449219 109.726562 169.589844 109.648438 C 170.730469 109.570312 171.867188 109.457031 173 109.304688 C 174.132812 109.15625 175.261719 108.96875 176.382812 108.75 C 177.503906 108.527344 178.617188 108.273438 179.722656 107.980469 C 180.828125 107.691406 181.921875 107.367188 183.007812 107.007812 C 184.09375 106.648438 185.164062 106.253906 186.226562 105.828125 C 187.285156 105.398438 188.332031 104.941406 189.363281 104.449219 C 190.394531 103.953125 191.410156 103.429688 192.410156 102.875 C 193.40625 102.316406 194.386719 101.730469 195.347656 101.113281 C 196.3125 100.496094 197.253906 99.847656 198.171875 99.171875 C 199.09375 98.496094 199.992188 97.789062 200.871094 97.054688 C 201.746094 96.324219 202.601562 95.5625 203.429688 94.777344 C 204.257812 93.988281 205.0625 93.175781 205.839844 92.339844 C 206.617188 91.503906 207.371094 90.640625 208.09375 89.757812 C 208.816406 88.871094 209.511719 87.964844 210.179688 87.039062 C 210.847656 86.109375 211.484375 85.160156 212.09375 84.195312 C 212.699219 83.226562 213.277344 82.238281 213.824219 81.234375 C 214.367188 80.230469 214.882812 79.210938 215.363281 78.171875 C 215.84375 77.136719 216.292969 76.085938 216.710938 75.019531 C 217.125 73.957031 217.507812 72.878906 217.855469 71.792969 C 218.203125 70.703125 218.519531 69.605469 218.796875 68.496094 C 219.074219 67.386719 219.320312 66.269531 219.527344 65.148438 C 219.738281 64.023438 219.910156 62.894531 220.050781 61.757812 C 220.1875 60.625 220.289062 59.488281 220.359375 58.347656 C 220.425781 57.203125 220.457031 56.0625 220.449219 54.917969 C 220.445312 53.777344 220.40625 52.636719 220.328125 51.496094 C 220.25 50.355469 220.140625 49.21875 219.992188 48.082031 C 219.84375 46.949219 219.660156 45.824219 219.441406 44.699219 C 219.222656 43.578125 218.96875 42.464844 218.679688 41.359375 C 218.390625 40.253906 218.070312 39.15625 217.710938 38.070312 C 217.355469 36.984375 216.960938 35.910156 216.539062 34.851562 C 216.113281 33.789062 215.65625 32.742188 215.164062 31.710938 C 214.675781 30.679688 214.152344 29.660156 213.597656 28.660156 C 213.042969 27.664062 212.457031 26.679688 211.839844 25.71875 C 211.226562 24.753906 210.582031 23.8125 209.90625 22.890625 C 209.230469 21.96875 208.527344 21.066406 207.796875 20.191406 C 207.0625 19.3125 206.304688 18.457031 205.519531 17.625 C 204.734375 16.796875 203.921875 15.992188 203.085938 15.210938 C 202.253906 14.429688 201.394531 13.679688 200.507812 12.953125 C 199.625 12.226562 198.722656 11.53125 197.792969 10.859375 C 196.867188 10.191406 195.921875 9.550781 194.953125 8.941406 C 193.988281 8.332031 193 7.753906 192 7.207031 C 190.996094 6.660156 189.976562 6.144531 188.941406 5.660156 C 187.902344 5.175781 186.855469 4.726562 185.789062 4.308594 C 184.726562 3.890625 183.648438 3.507812 182.5625 3.15625 C 181.472656 2.804688 180.375 2.488281 179.269531 2.207031 C 178.160156 1.925781 177.042969 1.679688 175.921875 1.46875 C 174.796875 1.257812 173.667969 1.082031 172.535156 0.941406 C 171.398438 0.800781 170.261719 0.699219 169.121094 0.628906 C 167.980469 0.558594 166.839844 0.527344 165.695312 0.527344 Z M 165.695312 0.527344 " fill-opacity="1" fill-rule="nonzero"/></g><g fill="#e9c46a" fill-opacity="1"><g transform="translate(0.0419177, 134.113434)"><g><path d="M 3.734375 -9.40625 L 3.734375 -2.984375 C 3.734375 -2.453125 3.847656 -2.078125 4.078125 -1.859375 C 4.304688 -1.640625 4.695312 -1.53125 5.25 -1.53125 L 6.578125 -1.53125 L 6.578125 0 L 4.953125 0 C 3.941406 0 3.179688 -0.226562 2.671875 -0.6875 C 2.171875 -1.15625 1.921875 -1.921875 1.921875 -2.984375 L 1.921875 -9.40625 L 0.515625 -9.40625 L 0.515625 -10.90625 L 1.921875 -10.90625 L 1.921875 -13.640625 L 3.734375 -13.640625 L 3.734375 -10.90625 L 6.578125 -10.90625 L 6.578125 -9.40625 Z M 3.734375 -9.40625 "/></g></g></g><g fill="#e9c46a" fill-opacity="1"><g transform="translate(7.277286, 134.113434)"><g><path d="M 6.28125 0.171875 C 5.257812 0.171875 4.332031 -0.0546875 3.5 -0.515625 C 2.675781 -0.984375 2.03125 -1.644531 1.5625 -2.5 C 1.09375 -3.351562 0.859375 -4.34375 0.859375 -5.46875 C 0.859375 -6.582031 1.097656 -7.566406 1.578125 -8.421875 C 2.066406 -9.273438 2.726562 -9.929688 3.5625 -10.390625 C 4.394531 -10.847656 5.328125 -11.078125 6.359375 -11.078125 C 7.398438 -11.078125 8.335938 -10.847656 9.171875 -10.390625 C 10.003906 -9.929688 10.660156 -9.273438 11.140625 -8.421875 C 11.628906 -7.578125 11.875 -6.59375 11.875 -5.46875 C 11.875 -4.34375 11.625 -3.351562 11.125 -2.5 C 10.632812 -1.644531 9.960938 -0.984375 9.109375 -0.515625 C 8.265625 -0.0546875 7.320312 0.171875 6.28125 0.171875 Z M 6.28125 -1.40625 C 6.9375 -1.40625 7.546875 -1.554688 8.109375 -1.859375 C 8.679688 -2.171875 9.144531 -2.628906 9.5 -3.234375 C 9.851562 -3.847656 10.03125 -4.59375 10.03125 -5.46875 C 10.03125 -6.34375 9.851562 -7.082031 9.5 -7.6875 C 9.15625 -8.300781 8.703125 -8.753906 8.140625 -9.046875 C 7.585938 -9.347656 6.988281 -9.5 6.34375 -9.5 C 5.675781 -9.5 5.066406 -9.347656 4.515625 -9.046875 C 3.972656 -8.753906 3.535156 -8.300781 3.203125 -7.6875 C 2.867188 -7.082031 2.703125 -6.34375 2.703125 -5.46875 C 2.703125 -4.582031 2.863281 -3.832031 3.1875 -3.21875 C 3.519531 -2.613281 3.957031 -2.160156 4.5 -1.859375 C 5.039062 -1.554688 5.632812 -1.40625 6.28125 -1.40625 Z M 6.28125 -1.40625 "/></g></g></g><g fill="#e9c46a" fill-opacity="1"><g transform="translate(19.998811, 134.113434)"><g><path d="M 3.734375 -9.40625 L 3.734375 -2.984375 C 3.734375 -2.453125 3.847656 -2.078125 4.078125 -1.859375 C 4.304688 -1.640625 4.695312 -1.53125 5.25 -1.53125 L 6.578125 -1.53125 L 6.578125 0 L 4.953125 0 C 3.941406 0 3.179688 -0.226562 2.671875 -0.6875 C 2.171875 -1.15625 1.921875 -1.921875 1.921875 -2.984375 L 1.921875 -9.40625 L 0.515625 -9.40625 L 0.515625 -10.90625 L 1.921875 -10.90625 L 1.921875 -13.640625 L 3.734375 -13.640625 L 3.734375 -10.90625 L 6.578125 -10.90625 L 6.578125 -9.40625 Z M 3.734375 -9.40625 "/></g></g></g><g fill="#e9c46a" fill-opacity="1"><g transform="translate(27.234179, 134.113434)"><g><path d="M 11.203125 -10.90625 L 11.203125 0 L 9.390625 0 L 9.390625 -1.609375 C 9.046875 -1.054688 8.5625 -0.625 7.9375 -0.3125 C 7.320312 0 6.644531 0.15625 5.90625 0.15625 C 5.0625 0.15625 4.300781 -0.015625 3.625 -0.359375 C 2.945312 -0.710938 2.410156 -1.238281 2.015625 -1.9375 C 1.628906 -2.644531 1.4375 -3.503906 1.4375 -4.515625 L 1.4375 -10.90625 L 3.21875 -10.90625 L 3.21875 -4.75 C 3.21875 -3.675781 3.488281 -2.847656 4.03125 -2.265625 C 4.582031 -1.691406 5.328125 -1.40625 6.265625 -1.40625 C 7.234375 -1.40625 7.992188 -1.703125 8.546875 -2.296875 C 9.109375 -2.898438 9.390625 -3.769531 9.390625 -4.90625 L 9.390625 -10.90625 Z M 11.203125 -10.90625 "/></g></g></g><g fill="#e9c46a" fill-opacity="1"><g transform="translate(39.955704, 134.113434)"><g><path d="M 3.34375 -14.71875 L 3.34375 0 L 1.53125 0 L 1.53125 -14.71875 Z M 3.34375 -14.71875 "/></g></g></g><g fill="#e9c46a" fill-opacity="1"><g transform="translate(44.845541, 134.113434)"><g/></g></g><g fill="#e9c46a" fill-opacity="1"><g transform="translate(50.152802, 134.113434)"><g><path d="M 3.34375 -10.90625 L 3.34375 0 L 1.53125 0 L 1.53125 -10.90625 Z M 2.453125 -13.5625 L -0.3125 -11.875 L -0.3125 -13.3125 L 2.453125 -14.953125 L 5.1875 -13.3125 L 5.1875 -11.875 Z M 2.453125 -13.5625 "/></g></g></g><g fill="#e9c46a" fill-opacity="1"><g transform="translate(55.042639, 134.113434)"><g><path d="M 6.84375 -11.09375 C 8.164062 -11.09375 9.238281 -10.691406 10.0625 -9.890625 C 10.882812 -9.085938 11.296875 -7.929688 11.296875 -6.421875 L 11.296875 0 L 9.5 0 L 9.5 -6.171875 C 9.5 -7.253906 9.226562 -8.082031 8.6875 -8.65625 C 8.144531 -9.238281 7.40625 -9.53125 6.46875 -9.53125 C 5.507812 -9.53125 4.75 -9.226562 4.1875 -8.625 C 3.625 -8.03125 3.34375 -7.164062 3.34375 -6.03125 L 3.34375 0 L 1.53125 0 L 1.53125 -10.90625 L 3.34375 -10.90625 L 3.34375 -9.34375 C 3.695312 -9.90625 4.179688 -10.335938 4.796875 -10.640625 C 5.421875 -10.941406 6.101562 -11.09375 6.84375 -11.09375 Z M 6.84375 -11.09375 "/></g></g></g><g fill="#e9c46a" fill-opacity="1"><g transform="translate(67.764164, 134.113434)"><g><path d="M 3.734375 -9.40625 L 3.734375 -2.984375 C 3.734375 -2.453125 3.847656 -2.078125 4.078125 -1.859375 C 4.304688 -1.640625 4.695312 -1.53125 5.25 -1.53125 L 6.578125 -1.53125 L 6.578125 0 L 4.953125 0 C 3.941406 0 3.179688 -0.226562 2.671875 -0.6875 C 2.171875 -1.15625 1.921875 -1.921875 1.921875 -2.984375 L 1.921875 -9.40625 L 0.515625 -9.40625 L 0.515625 -10.90625 L 1.921875 -10.90625 L 1.921875 -13.640625 L 3.734375 -13.640625 L 3.734375 -10.90625 L 6.578125 -10.90625 L 6.578125 -9.40625 Z M 3.734375 -9.40625 "/></g></g></g><g fill="#e9c46a" fill-opacity="1"><g transform="translate(74.999532, 134.113434)"><g><path d="M 3.34375 -9.125 C 3.65625 -9.75 4.109375 -10.234375 4.703125 -10.578125 C 5.296875 -10.921875 6.015625 -11.09375 6.859375 -11.09375 L 6.859375 -9.234375 L 6.390625 -9.234375 C 4.359375 -9.234375 3.34375 -8.128906 3.34375 -5.921875 L 3.34375 0 L 1.53125 0 L 1.53125 -10.90625 L 3.34375 -10.90625 Z M 3.34375 -9.125 "/></g></g></g><g fill="#e9c46a" fill-opacity="1"><g transform="translate(82.413796, 134.113434)"><g><path d="M 9.09375 -8.0625 L 9.09375 -6.53125 L 1.15625 -6.53125 L 1.15625 -8.0625 Z M 9.09375 -8.0625 "/></g></g></g><g fill="#e9c46a" fill-opacity="1"><g transform="translate(93.366231, 134.113434)"><g><path d="M 11.203125 -10.90625 L 11.203125 0 L 9.390625 0 L 9.390625 -1.609375 C 9.046875 -1.054688 8.5625 -0.625 7.9375 -0.3125 C 7.320312 0 6.644531 0.15625 5.90625 0.15625 C 5.0625 0.15625 4.300781 -0.015625 3.625 -0.359375 C 2.945312 -0.710938 2.410156 -1.238281 2.015625 -1.9375 C 1.628906 -2.644531 1.4375 -3.503906 1.4375 -4.515625 L 1.4375 -10.90625 L 3.21875 -10.90625 L 3.21875 -4.75 C 3.21875 -3.675781 3.488281 -2.847656 4.03125 -2.265625 C 4.582031 -1.691406 5.328125 -1.40625 6.265625 -1.40625 C 7.234375 -1.40625 7.992188 -1.703125 8.546875 -2.296875 C 9.109375 -2.898438 9.390625 -3.769531 9.390625 -4.90625 L 9.390625 -10.90625 Z M 11.203125 -10.90625 "/></g></g></g><g fill="#e9c46a" fill-opacity="1"><g transform="translate(106.087756, 134.113434)"><g><path d="M 6.84375 -11.09375 C 8.164062 -11.09375 9.238281 -10.691406 10.0625 -9.890625 C 10.882812 -9.085938 11.296875 -7.929688 11.296875 -6.421875 L 11.296875 0 L 9.5 0 L 9.5 -6.171875 C 9.5 -7.253906 9.226562 -8.082031 8.6875 -8.65625 C 8.144531 -9.238281 7.40625 -9.53125 6.46875 -9.53125 C 5.507812 -9.53125 4.75 -9.226562 4.1875 -8.625 C 3.625 -8.03125 3.34375 -7.164062 3.34375 -6.03125 L 3.34375 0 L 1.53125 0 L 1.53125 -10.90625 L 3.34375 -10.90625 L 3.34375 -9.34375 C 3.695312 -9.90625 4.179688 -10.335938 4.796875 -10.640625 C 5.421875 -10.941406 6.101562 -11.09375 6.84375 -11.09375 Z M 6.84375 -11.09375 "/></g></g></g><g fill="#e9c46a" fill-opacity="1"><g transform="translate(118.809281, 134.113434)"><g/></g></g><g fill="#e9c46a" fill-opacity="1"><g transform="translate(124.116542, 134.113434)"><g><path d="M 5.390625 0.171875 C 4.554688 0.171875 3.804688 0.03125 3.140625 -0.25 C 2.472656 -0.53125 1.945312 -0.925781 1.5625 -1.4375 C 1.1875 -1.945312 0.976562 -2.535156 0.9375 -3.203125 L 2.796875 -3.203125 C 2.859375 -2.660156 3.113281 -2.21875 3.5625 -1.875 C 4.019531 -1.53125 4.625 -1.359375 5.375 -1.359375 C 6.0625 -1.359375 6.601562 -1.507812 7 -1.8125 C 7.394531 -2.113281 7.59375 -2.5 7.59375 -2.96875 C 7.59375 -3.445312 7.378906 -3.800781 6.953125 -4.03125 C 6.535156 -4.257812 5.882812 -4.488281 5 -4.71875 C 4.1875 -4.925781 3.523438 -5.140625 3.015625 -5.359375 C 2.503906 -5.578125 2.066406 -5.898438 1.703125 -6.328125 C 1.335938 -6.765625 1.15625 -7.332031 1.15625 -8.03125 C 1.15625 -8.59375 1.316406 -9.101562 1.640625 -9.5625 C 1.972656 -10.03125 2.445312 -10.398438 3.0625 -10.671875 C 3.675781 -10.941406 4.375 -11.078125 5.15625 -11.078125 C 6.363281 -11.078125 7.335938 -10.769531 8.078125 -10.15625 C 8.816406 -9.550781 9.210938 -8.71875 9.265625 -7.65625 L 7.453125 -7.65625 C 7.421875 -8.226562 7.191406 -8.6875 6.765625 -9.03125 C 6.347656 -9.375 5.789062 -9.546875 5.09375 -9.546875 C 4.445312 -9.546875 3.929688 -9.40625 3.546875 -9.125 C 3.160156 -8.851562 2.96875 -8.488281 2.96875 -8.03125 C 2.96875 -7.675781 3.082031 -7.378906 3.3125 -7.140625 C 3.539062 -6.910156 3.832031 -6.726562 4.1875 -6.59375 C 4.539062 -6.457031 5.03125 -6.300781 5.65625 -6.125 C 6.4375 -5.914062 7.070312 -5.707031 7.5625 -5.5 C 8.050781 -5.289062 8.46875 -4.976562 8.8125 -4.5625 C 9.164062 -4.15625 9.351562 -3.625 9.375 -2.96875 C 9.375 -2.363281 9.207031 -1.820312 8.875 -1.34375 C 8.539062 -0.875 8.070312 -0.503906 7.46875 -0.234375 C 6.863281 0.0351562 6.171875 0.171875 5.390625 0.171875 Z M 5.390625 0.171875 "/></g></g></g><g fill="#e9c46a" fill-opacity="1"><g transform="translate(134.492535, 134.113434)"><g><path d="M 2.46875 -12.671875 C 2.125 -12.671875 1.832031 -12.789062 1.59375 -13.03125 C 1.351562 -13.269531 1.234375 -13.5625 1.234375 -13.90625 C 1.234375 -14.25 1.351562 -14.539062 1.59375 -14.78125 C 1.832031 -15.019531 2.125 -15.140625 2.46875 -15.140625 C 2.800781 -15.140625 3.082031 -15.019531 3.3125 -14.78125 C 3.539062 -14.539062 3.65625 -14.25 3.65625 -13.90625 C 3.65625 -13.5625 3.539062 -13.269531 3.3125 -13.03125 C 3.082031 -12.789062 2.800781 -12.671875 2.46875 -12.671875 Z M 3.34375 -10.90625 L 3.34375 0 L 1.53125 0 L 1.53125 -10.90625 Z M 3.34375 -10.90625 "/></g></g></g><g fill="#e9c46a" fill-opacity="1"><g transform="translate(139.38238, 134.113434)"><g><path d="M 6.84375 -11.09375 C 8.164062 -11.09375 9.238281 -10.691406 10.0625 -9.890625 C 10.882812 -9.085938 11.296875 -7.929688 11.296875 -6.421875 L 11.296875 0 L 9.5 0 L 9.5 -6.171875 C 9.5 -7.253906 9.226562 -8.082031 8.6875 -8.65625 C 8.144531 -9.238281 7.40625 -9.53125 6.46875 -9.53125 C 5.507812 -9.53125 4.75 -9.226562 4.1875 -8.625 C 3.625 -8.03125 3.34375 -7.164062 3.34375 -6.03125 L 3.34375 0 L 1.53125 0 L 1.53125 -10.90625 L 3.34375 -10.90625 L 3.34375 -9.34375 C 3.695312 -9.90625 4.179688 -10.335938 4.796875 -10.640625 C 5.421875 -10.941406 6.101562 -11.09375 6.84375 -11.09375 Z M 6.84375 -11.09375 "/></g></g></g><g fill="#e9c46a" fill-opacity="1"><g transform="translate(152.103905, 134.113434)"><g><path d="M 6.03125 -11.078125 C 6.96875 -11.078125 7.789062 -10.867188 8.5 -10.453125 C 9.207031 -10.046875 9.734375 -9.53125 10.078125 -8.90625 L 10.078125 -10.90625 L 11.921875 -10.90625 L 11.921875 0.234375 C 11.921875 1.234375 11.707031 2.117188 11.28125 2.890625 C 10.851562 3.671875 10.242188 4.28125 9.453125 4.71875 C 8.671875 5.15625 7.753906 5.375 6.703125 5.375 C 5.273438 5.375 4.082031 5.035156 3.125 4.359375 C 2.164062 3.679688 1.601562 2.757812 1.4375 1.59375 L 3.21875 1.59375 C 3.414062 2.25 3.828125 2.78125 4.453125 3.1875 C 5.078125 3.59375 5.828125 3.796875 6.703125 3.796875 C 7.691406 3.796875 8.5 3.484375 9.125 2.859375 C 9.757812 2.234375 10.078125 1.359375 10.078125 0.234375 L 10.078125 -2.046875 C 9.722656 -1.410156 9.191406 -0.878906 8.484375 -0.453125 C 7.785156 -0.0351562 6.96875 0.171875 6.03125 0.171875 C 5.0625 0.171875 4.179688 -0.0625 3.390625 -0.53125 C 2.597656 -1.007812 1.976562 -1.679688 1.53125 -2.546875 C 1.082031 -3.410156 0.859375 -4.390625 0.859375 -5.484375 C 0.859375 -6.597656 1.082031 -7.578125 1.53125 -8.421875 C 1.976562 -9.265625 2.597656 -9.914062 3.390625 -10.375 C 4.179688 -10.84375 5.0625 -11.078125 6.03125 -11.078125 Z M 10.078125 -5.46875 C 10.078125 -6.289062 9.910156 -7.003906 9.578125 -7.609375 C 9.253906 -8.222656 8.8125 -8.691406 8.25 -9.015625 C 7.6875 -9.335938 7.066406 -9.5 6.390625 -9.5 C 5.710938 -9.5 5.09375 -9.335938 4.53125 -9.015625 C 3.976562 -8.703125 3.535156 -8.238281 3.203125 -7.625 C 2.867188 -7.019531 2.703125 -6.304688 2.703125 -5.484375 C 2.703125 -4.648438 2.867188 -3.925781 3.203125 -3.3125 C 3.535156 -2.695312 3.976562 -2.222656 4.53125 -1.890625 C 5.09375 -1.566406 5.710938 -1.40625 6.390625 -1.40625 C 7.066406 -1.40625 7.6875 -1.566406 8.25 -1.890625 C 8.8125 -2.222656 9.253906 -2.695312 9.578125 -3.3125 C 9.910156 -3.925781 10.078125 -4.644531 10.078125 -5.46875 Z M 10.078125 -5.46875 "/></g></g></g><g fill="#e9c46a" fill-opacity="1"><g transform="translate(165.541011, 134.113434)"><g><path d="M 11.203125 -10.90625 L 11.203125 0 L 9.390625 0 L 9.390625 -1.609375 C 9.046875 -1.054688 8.5625 -0.625 7.9375 -0.3125 C 7.320312 0 6.644531 0.15625 5.90625 0.15625 C 5.0625 0.15625 4.300781 -0.015625 3.625 -0.359375 C 2.945312 -0.710938 2.410156 -1.238281 2.015625 -1.9375 C 1.628906 -2.644531 1.4375 -3.503906 1.4375 -4.515625 L 1.4375 -10.90625 L 3.21875 -10.90625 L 3.21875 -4.75 C 3.21875 -3.675781 3.488281 -2.847656 4.03125 -2.265625 C 4.582031 -1.691406 5.328125 -1.40625 6.265625 -1.40625 C 7.234375 -1.40625 7.992188 -1.703125 8.546875 -2.296875 C 9.109375 -2.898438 9.390625 -3.769531 9.390625 -4.90625 L 9.390625 -10.90625 Z M 11.203125 -10.90625 "/></g></g></g><g fill="#e9c46a" fill-opacity="1"><g transform="translate(178.262536, 134.113434)"><g><path d="M 3.34375 -9.125 C 3.65625 -9.75 4.109375 -10.234375 4.703125 -10.578125 C 5.296875 -10.921875 6.015625 -11.09375 6.859375 -11.09375 L 6.859375 -9.234375 L 6.390625 -9.234375 C 4.359375 -9.234375 3.34375 -8.128906 3.34375 -5.921875 L 3.34375 0 L 1.53125 0 L 1.53125 -10.90625 L 3.34375 -10.90625 Z M 3.34375 -9.125 "/></g></g></g><g fill="#e9c46a" fill-opacity="1"><g transform="translate(185.676791, 134.113434)"><g/></g></g><g fill="#e9c46a" fill-opacity="1"><g transform="translate(190.984061, 134.113434)"><g><path d="M 3.34375 -14.71875 L 3.34375 0 L 1.53125 0 L 1.53125 -14.71875 Z M 3.34375 -14.71875 "/></g></g></g><g fill="#e9c46a" fill-opacity="1"><g transform="translate(195.873889, 134.113434)"><g><path d="M 6.28125 0.171875 C 5.257812 0.171875 4.332031 -0.0546875 3.5 -0.515625 C 2.675781 -0.984375 2.03125 -1.644531 1.5625 -2.5 C 1.09375 -3.351562 0.859375 -4.34375 0.859375 -5.46875 C 0.859375 -6.582031 1.097656 -7.566406 1.578125 -8.421875 C 2.066406 -9.273438 2.726562 -9.929688 3.5625 -10.390625 C 4.394531 -10.847656 5.328125 -11.078125 6.359375 -11.078125 C 7.398438 -11.078125 8.335938 -10.847656 9.171875 -10.390625 C 10.003906 -9.929688 10.660156 -9.273438 11.140625 -8.421875 C 11.628906 -7.578125 11.875 -6.59375 11.875 -5.46875 C 11.875 -4.34375 11.625 -3.351562 11.125 -2.5 C 10.632812 -1.644531 9.960938 -0.984375 9.109375 -0.515625 C 8.265625 -0.0546875 7.320312 0.171875 6.28125 0.171875 Z M 6.28125 -1.40625 C 6.9375 -1.40625 7.546875 -1.554688 8.109375 -1.859375 C 8.679688 -2.171875 9.144531 -2.628906 9.5 -3.234375 C 9.851562 -3.847656 10.03125 -4.59375 10.03125 -5.46875 C 10.03125 -6.34375 9.851562 -7.082031 9.5 -7.6875 C 9.15625 -8.300781 8.703125 -8.753906 8.140625 -9.046875 C 7.585938 -9.347656 6.988281 -9.5 6.34375 -9.5 C 5.675781 -9.5 5.066406 -9.347656 4.515625 -9.046875 C 3.972656 -8.753906 3.535156 -8.300781 3.203125 -7.6875 C 2.867188 -7.082031 2.703125 -6.34375 2.703125 -5.46875 C 2.703125 -4.582031 2.863281 -3.832031 3.1875 -3.21875 C 3.519531 -2.613281 3.957031 -2.160156 4.5 -1.859375 C 5.039062 -1.554688 5.632812 -1.40625 6.28125 -1.40625 Z M 6.28125 -1.40625 "/></g></g></g><g fill="#e9c46a" fill-opacity="1"><g transform="translate(208.595414, 134.113434)"><g><path d="M 0.859375 -5.46875 C 0.859375 -6.59375 1.082031 -7.578125 1.53125 -8.421875 C 1.976562 -9.265625 2.601562 -9.914062 3.40625 -10.375 C 4.207031 -10.84375 5.128906 -11.078125 6.171875 -11.078125 C 7.503906 -11.078125 8.601562 -10.75 9.46875 -10.09375 C 10.34375 -9.445312 10.921875 -8.550781 11.203125 -7.40625 L 9.25 -7.40625 C 9.0625 -8.0625 8.695312 -8.582031 8.15625 -8.96875 C 7.625 -9.351562 6.960938 -9.546875 6.171875 -9.546875 C 5.128906 -9.546875 4.289062 -9.191406 3.65625 -8.484375 C 3.019531 -7.773438 2.703125 -6.769531 2.703125 -5.46875 C 2.703125 -4.15625 3.019531 -3.140625 3.65625 -2.421875 C 4.289062 -1.710938 5.128906 -1.359375 6.171875 -1.359375 C 6.960938 -1.359375 7.625 -1.539062 8.15625 -1.90625 C 8.6875 -2.28125 9.050781 -2.8125 9.25 -3.5 L 11.203125 -3.5 C 10.910156 -2.382812 10.328125 -1.492188 9.453125 -0.828125 C 8.578125 -0.160156 7.484375 0.171875 6.171875 0.171875 C 5.128906 0.171875 4.207031 -0.0546875 3.40625 -0.515625 C 2.601562 -0.984375 1.976562 -1.640625 1.53125 -2.484375 C 1.082031 -3.335938 0.859375 -4.332031 0.859375 -5.46875 Z M 0.859375 -5.46875 "/></g></g></g><g fill="#e9c46a" fill-opacity="1"><g transform="translate(220.660993, 134.113434)"><g><path d="M 2.109375 0.125 C 1.765625 0.125 1.472656 0.00390625 1.234375 -0.234375 C 0.992188 -0.472656 0.875 -0.765625 0.875 -1.109375 C 0.875 -1.453125 0.992188 -1.742188 1.234375 -1.984375 C 1.472656 -2.222656 1.765625 -2.34375 2.109375 -2.34375 C 2.441406 -2.34375 2.722656 -2.222656 2.953125 -1.984375 C 3.179688 -1.742188 3.296875 -1.453125 3.296875 -1.109375 C 3.296875 -0.765625 3.179688 -0.472656 2.953125 -0.234375 C 2.722656 0.00390625 2.441406 0.125 2.109375 0.125 Z M 2.109375 0.125 "/></g></g></g></g></g></g></svg>