<svg xmlns="http://www.w3.org/2000/svg" xmlns:xlink="http://www.w3.org/1999/xlink" width="300" zoomAndPan="magnify" viewBox="0 0 224.87999 225" height="300" preserveAspectRatio="xMidYMid meet" version="1.0"><defs><g/><clipPath id="144856e905"><path d="M 3 133 L 211 133 L 211 221.707031 L 3 221.707031 Z M 3 133 " clip-rule="nonzero"/></clipPath><clipPath id="a37fb11893"><path d="M 46 1.058594 L 167 1.058594 L 167 82 L 46 82 Z M 46 1.058594 " clip-rule="nonzero"/></clipPath><clipPath id="a077483af7"><rect x="0" width="213" y="0" height="223"/></clipPath></defs><g transform="matrix(1, 0, 0, 1, 6, 1)"><g clip-path="url(#a077483af7)"><path fill="#fff2c2" d="M 57.859375 87.386719 C 62.351562 110.492188 82.328125 127.851562 106.554688 127.851562 C 130.792969 127.851562 150.785156 110.492188 155.28125 87.386719 C 152.296875 87.820312 148.585938 88.253906 143.820312 88.730469 C 134.460938 89.65625 121.84375 90.46875 106.542969 90.46875 C 91.242188 90.46875 78.605469 89.65625 69.261719 88.730469 C 64.527344 88.253906 60.832031 87.820312 57.859375 87.386719 Z M 57.859375 87.386719 " fill-opacity="1" fill-rule="evenodd"/><path fill="#000000" d="M 62.546875 87.363281 C 63.160156 87.976562 66.230469 89.816406 66.84375 91.65625 C 67.460938 93.496094 68.691406 105.257812 72.375 108.324219 C 76.175781 111.484375 90.511719 110.304688 93.257812 108.941406 C 99.398438 105.878906 100.152344 95.984375 101.238281 91.65625 C 101.851562 89.203125 105.535156 89.203125 105.535156 89.203125 C 105.535156 89.203125 109.222656 89.203125 109.835938 91.652344 C 110.921875 95.984375 111.683594 105.90625 117.820312 108.964844 C 120.566406 110.335938 134.902344 111.511719 138.710938 108.351562 C 142.390625 105.285156 143.617188 93.492188 144.230469 91.652344 C 144.84375 89.8125 147.917969 87.972656 148.53125 87.363281 C 149.148438 86.75 149.148438 84.296875 148.53125 83.683594 C 147.300781 82.457031 132.808594 81.363281 117.207031 83.070312 C 114.089844 83.410156 112.90625 84.292969 105.535156 84.292969 C 98.167969 84.292969 96.976562 83.40625 93.867188 83.070312 C 78.273438 81.367188 63.777344 82.460938 62.546875 83.683594 C 61.933594 84.296875 61.933594 86.75 62.546875 87.363281 Z M 62.546875 87.363281 " fill-opacity="1" fill-rule="evenodd"/><g clip-path="url(#144856e905)"><path fill="#053564" d="M 46.269531 186.953125 L 166.855469 186.953125 L 166.855469 208.332031 C 149.367188 210.535156 122.21875 212.304688 106.570312 212.304688 C 90.90625 212.304688 63.769531 210.535156 46.269531 208.332031 Z M 137.34375 133.832031 L 109.613281 155.015625 C 107.773438 156.433594 105.308594 156.433594 103.453125 155.015625 L 75.753906 133.863281 L 63.84375 138.644531 L 63.84375 175.824219 L 46.269531 175.824219 L 46.269531 145.699219 L 26.929688 153.449219 C 18.671875 156.753906 15.640625 161.160156 13.351562 168.023438 L 3.570312 197.332031 C 1.527344 206.117188 5.832031 209.417969 9.769531 210.621094 C 26.535156 214.390625 74.042969 221.90625 106.570312 221.90625 C 139.082031 221.90625 186.589844 214.386719 203.367188 210.621094 C 207.292969 209.417969 211.597656 206.117188 209.554688 197.332031 L 199.773438 168.023438 C 197.484375 161.160156 194.457031 156.753906 186.195312 153.449219 L 166.859375 145.699219 L 166.859375 175.820312 L 149.296875 175.820312 L 149.296875 138.644531 Z M 137.34375 133.832031 " fill-opacity="1" fill-rule="nonzero"/></g><g clip-path="url(#a37fb11893)"><path fill="#9cb2c6" d="M 106.570312 1.117188 C 96.425781 1.117188 88.285156 7.667969 88.285156 15.796875 L 88.285156 30.097656 C 88.285156 35.023438 83.082031 35.253906 81.722656 30.339844 L 78.953125 20.386719 C 66.699219 28.761719 58.902344 42.25 57.761719 57.070312 C 51.285156 56.882812 46.71875 61.449219 46.71875 67.140625 C 46.71875 72.3125 49.167969 76.050781 53.511719 77.210938 C 57.277344 78.226562 76.605469 81.328125 106.570312 81.328125 C 136.53125 81.328125 155.859375 78.226562 159.625 77.210938 C 163.957031 76.050781 166.421875 72.3125 166.421875 67.140625 C 166.421875 61.449219 161.855469 56.882812 155.378906 57.070312 C 154.234375 42.25 146.4375 28.761719 134.167969 20.386719 L 131.414062 30.339844 C 130.039062 35.253906 124.839844 35.023438 124.839844 30.097656 L 124.839844 15.796875 C 124.839844 7.667969 116.699219 1.117188 106.570312 1.117188 Z M 106.570312 1.117188 " fill-opacity="1" fill-rule="evenodd"/></g><g fill="#053564" fill-opacity="1"><g transform="translate(69.207934, 203.965499)"><g><path d="M 3.359375 0.109375 C 2.859375 0.109375 2.398438 0.046875 1.984375 -0.078125 C 1.578125 -0.203125 1.148438 -0.394531 0.703125 -0.65625 C 0.785156 -1.125 0.828125 -1.742188 0.828125 -2.515625 C 1.066406 -2.578125 1.367188 -2.609375 1.734375 -2.609375 C 1.773438 -1.910156 1.925781 -1.398438 2.1875 -1.078125 C 2.445312 -0.753906 2.875 -0.59375 3.46875 -0.59375 C 3.96875 -0.59375 4.335938 -0.703125 4.578125 -0.921875 C 4.816406 -1.140625 4.9375 -1.414062 4.9375 -1.75 C 4.9375 -2.019531 4.859375 -2.253906 4.703125 -2.453125 C 4.554688 -2.648438 4.367188 -2.816406 4.140625 -2.953125 C 3.910156 -3.085938 3.601562 -3.25 3.21875 -3.4375 C 2.707031 -3.664062 2.296875 -3.878906 1.984375 -4.078125 C 1.671875 -4.285156 1.40625 -4.554688 1.1875 -4.890625 C 0.96875 -5.234375 0.859375 -5.65625 0.859375 -6.15625 C 0.859375 -6.882812 1.097656 -7.453125 1.578125 -7.859375 C 2.054688 -8.265625 2.695312 -8.46875 3.5 -8.46875 C 3.914062 -8.46875 4.328125 -8.414062 4.734375 -8.3125 C 5.140625 -8.207031 5.460938 -8.078125 5.703125 -7.921875 C 5.703125 -7.128906 5.722656 -6.566406 5.765625 -6.234375 C 5.566406 -6.117188 5.269531 -6.0625 4.875 -6.0625 C 4.757812 -6.726562 4.585938 -7.179688 4.359375 -7.421875 C 4.140625 -7.671875 3.832031 -7.796875 3.4375 -7.796875 C 3.039062 -7.796875 2.726562 -7.703125 2.5 -7.515625 C 2.269531 -7.328125 2.15625 -7.0625 2.15625 -6.71875 C 2.15625 -6.425781 2.234375 -6.175781 2.390625 -5.96875 C 2.554688 -5.757812 2.757812 -5.582031 3 -5.4375 C 3.238281 -5.300781 3.566406 -5.132812 3.984375 -4.9375 C 4.484375 -4.695312 4.890625 -4.476562 5.203125 -4.28125 C 5.515625 -4.082031 5.78125 -3.820312 6 -3.5 C 6.21875 -3.175781 6.328125 -2.78125 6.328125 -2.3125 C 6.328125 -1.851562 6.21875 -1.441406 6 -1.078125 C 5.78125 -0.710938 5.445312 -0.421875 5 -0.203125 C 4.5625 0.00390625 4.015625 0.109375 3.359375 0.109375 Z M 3.359375 0.109375 "/></g></g></g><g fill="#053564" fill-opacity="1"><g transform="translate(75.82136, 203.965499)"><g><path d="M 7.25 -8.390625 C 7.21875 -7.804688 7.257812 -7.113281 7.375 -6.3125 C 7.144531 -6.21875 6.878906 -6.175781 6.578125 -6.1875 C 6.535156 -6.695312 6.40625 -7.078125 6.1875 -7.328125 C 5.96875 -7.578125 5.628906 -7.703125 5.171875 -7.703125 L 4.640625 -7.703125 L 4.640625 -1.78125 C 4.640625 -1.46875 4.664062 -1.234375 4.71875 -1.078125 C 4.769531 -0.921875 4.863281 -0.804688 5 -0.734375 C 5.144531 -0.671875 5.363281 -0.632812 5.65625 -0.625 C 5.71875 -0.46875 5.75 -0.25 5.75 0.03125 C 5.226562 0.0078125 4.613281 0 3.90625 0 C 3.082031 0 2.425781 0.0078125 1.9375 0.03125 C 1.9375 -0.25 1.96875 -0.46875 2.03125 -0.625 C 2.320312 -0.632812 2.539062 -0.671875 2.6875 -0.734375 C 2.84375 -0.804688 2.953125 -0.921875 3.015625 -1.078125 C 3.078125 -1.234375 3.109375 -1.46875 3.109375 -1.78125 L 3.109375 -7.703125 L 2.640625 -7.703125 C 2.285156 -7.703125 2.007812 -7.644531 1.8125 -7.53125 C 1.613281 -7.414062 1.460938 -7.25 1.359375 -7.03125 C 1.265625 -6.820312 1.175781 -6.539062 1.09375 -6.1875 C 0.738281 -6.1875 0.476562 -6.222656 0.3125 -6.296875 C 0.46875 -7.097656 0.546875 -7.796875 0.546875 -8.390625 C 1.066406 -8.367188 2.179688 -8.359375 3.890625 -8.359375 C 5.609375 -8.359375 6.726562 -8.367188 7.25 -8.390625 Z M 7.25 -8.390625 "/></g></g></g><g fill="#053564" fill-opacity="1"><g transform="translate(83.263023, 203.965499)"><g><path d="M 6.421875 -2.25 C 6.742188 -2.1875 6.992188 -2.078125 7.171875 -1.921875 C 6.984375 -1.359375 6.851562 -0.707031 6.78125 0.03125 C 6.039062 0.0078125 5.109375 0 3.984375 0 C 2.335938 0 1.210938 0.0078125 0.609375 0.03125 C 0.609375 -0.269531 0.632812 -0.488281 0.6875 -0.625 C 0.914062 -0.632812 1.085938 -0.671875 1.203125 -0.734375 C 1.316406 -0.804688 1.394531 -0.925781 1.4375 -1.09375 C 1.488281 -1.269531 1.515625 -1.53125 1.515625 -1.875 L 1.515625 -6.59375 C 1.515625 -6.894531 1.488281 -7.125 1.4375 -7.28125 C 1.394531 -7.4375 1.3125 -7.546875 1.1875 -7.609375 C 1.070312 -7.679688 0.898438 -7.722656 0.671875 -7.734375 C 0.628906 -7.878906 0.609375 -8.097656 0.609375 -8.390625 C 1.171875 -8.367188 1.976562 -8.359375 3.03125 -8.359375 C 4.351562 -8.359375 5.5 -8.367188 6.46875 -8.390625 C 6.550781 -7.460938 6.632812 -6.785156 6.71875 -6.359375 C 6.539062 -6.253906 6.296875 -6.203125 5.984375 -6.203125 C 5.929688 -6.671875 5.765625 -7.039062 5.484375 -7.3125 C 5.203125 -7.59375 4.722656 -7.734375 4.046875 -7.734375 L 3.046875 -7.734375 L 3.046875 -4.515625 L 3.609375 -4.515625 C 4.085938 -4.515625 4.414062 -4.582031 4.59375 -4.71875 C 4.78125 -4.851562 4.875 -5.109375 4.875 -5.484375 C 5.070312 -5.554688 5.316406 -5.59375 5.609375 -5.59375 C 5.585938 -5.1875 5.578125 -4.726562 5.578125 -4.21875 C 5.578125 -3.664062 5.585938 -3.179688 5.609375 -2.765625 C 5.304688 -2.765625 5.070312 -2.789062 4.90625 -2.84375 C 4.875 -3.25 4.765625 -3.519531 4.578125 -3.65625 C 4.398438 -3.800781 4.078125 -3.875 3.609375 -3.875 L 3.046875 -3.875 L 3.046875 -1.890625 C 3.046875 -1.554688 3.070312 -1.300781 3.125 -1.125 C 3.1875 -0.945312 3.296875 -0.820312 3.453125 -0.75 C 3.609375 -0.6875 3.832031 -0.65625 4.125 -0.65625 L 4.234375 -0.65625 C 4.722656 -0.65625 5.101562 -0.710938 5.375 -0.828125 C 5.65625 -0.941406 5.867188 -1.101562 6.015625 -1.3125 C 6.160156 -1.53125 6.296875 -1.84375 6.421875 -2.25 Z M 6.421875 -2.25 "/></g></g></g><g fill="#053564" fill-opacity="1"><g transform="translate(90.605792, 203.965499)"><g><path d="M 3.046875 -7.734375 L 3.046875 -4.21875 L 3.765625 -4.21875 C 4.242188 -4.21875 4.570312 -4.285156 4.75 -4.421875 C 4.925781 -4.554688 5.019531 -4.804688 5.03125 -5.171875 C 5.226562 -5.253906 5.472656 -5.296875 5.765625 -5.296875 C 5.742188 -5.015625 5.734375 -4.554688 5.734375 -3.921875 C 5.734375 -3.222656 5.742188 -2.738281 5.765625 -2.46875 C 5.472656 -2.46875 5.238281 -2.492188 5.0625 -2.546875 C 5.019531 -2.953125 4.910156 -3.222656 4.734375 -3.359375 C 4.554688 -3.503906 4.234375 -3.578125 3.765625 -3.578125 L 3.046875 -3.578125 L 3.046875 -1.984375 C 3.046875 -1.628906 3.082031 -1.351562 3.15625 -1.15625 C 3.238281 -0.96875 3.359375 -0.832031 3.515625 -0.75 C 3.679688 -0.675781 3.914062 -0.632812 4.21875 -0.625 C 4.257812 -0.476562 4.28125 -0.257812 4.28125 0.03125 C 3.882812 0.0078125 3.296875 0 2.515625 0 C 1.628906 0 0.992188 0.0078125 0.609375 0.03125 C 0.609375 -0.269531 0.628906 -0.488281 0.671875 -0.625 C 0.898438 -0.632812 1.070312 -0.671875 1.1875 -0.734375 C 1.3125 -0.804688 1.394531 -0.921875 1.4375 -1.078125 C 1.488281 -1.234375 1.515625 -1.46875 1.515625 -1.78125 L 1.515625 -6.59375 C 1.515625 -6.894531 1.488281 -7.125 1.4375 -7.28125 C 1.394531 -7.4375 1.316406 -7.546875 1.203125 -7.609375 C 1.085938 -7.679688 0.914062 -7.722656 0.6875 -7.734375 C 0.632812 -7.910156 0.609375 -8.128906 0.609375 -8.390625 C 1.210938 -8.367188 2.015625 -8.359375 3.015625 -8.359375 C 4.347656 -8.359375 5.5 -8.367188 6.46875 -8.390625 C 6.519531 -7.515625 6.601562 -6.835938 6.71875 -6.359375 C 6.539062 -6.253906 6.296875 -6.203125 5.984375 -6.203125 C 5.921875 -6.679688 5.75 -7.054688 5.46875 -7.328125 C 5.195312 -7.597656 4.722656 -7.734375 4.046875 -7.734375 Z M 3.046875 -7.734375 "/></g></g></g><g fill="#053564" fill-opacity="1"><g transform="translate(97.491174, 203.965499)"><g><path d="M 1.515625 -6.59375 C 1.515625 -6.894531 1.488281 -7.125 1.4375 -7.28125 C 1.394531 -7.4375 1.316406 -7.546875 1.203125 -7.609375 C 1.085938 -7.679688 0.914062 -7.722656 0.6875 -7.734375 C 0.632812 -7.910156 0.609375 -8.128906 0.609375 -8.390625 C 1.046875 -8.367188 1.609375 -8.359375 2.296875 -8.359375 C 2.910156 -8.359375 3.460938 -8.367188 3.953125 -8.390625 C 3.953125 -8.265625 3.945312 -8.144531 3.9375 -8.03125 C 3.9375 -7.914062 3.914062 -7.816406 3.875 -7.734375 C 3.644531 -7.722656 3.472656 -7.679688 3.359375 -7.609375 C 3.242188 -7.546875 3.160156 -7.4375 3.109375 -7.28125 C 3.066406 -7.125 3.046875 -6.894531 3.046875 -6.59375 L 3.046875 -1.78125 C 3.046875 -1.46875 3.066406 -1.234375 3.109375 -1.078125 C 3.160156 -0.921875 3.242188 -0.804688 3.359375 -0.734375 C 3.472656 -0.671875 3.644531 -0.632812 3.875 -0.625 C 3.925781 -0.488281 3.953125 -0.269531 3.953125 0.03125 C 3.503906 0.0078125 2.960938 0 2.328125 0 C 1.640625 0 1.066406 0.0078125 0.609375 0.03125 C 0.609375 -0.25 0.632812 -0.46875 0.6875 -0.625 C 0.914062 -0.632812 1.085938 -0.671875 1.203125 -0.734375 C 1.316406 -0.804688 1.394531 -0.921875 1.4375 -1.078125 C 1.488281 -1.234375 1.515625 -1.46875 1.515625 -1.78125 Z M 1.515625 -6.59375 "/></g></g></g><g fill="#053564" fill-opacity="1"><g transform="translate(101.805317, 203.965499)"><g/></g></g><g fill="#053564" fill-opacity="1"><g transform="translate(104.030324, 203.965499)"><g><path d="M 4.453125 0.109375 C 3.671875 0.109375 2.972656 -0.0703125 2.359375 -0.4375 C 1.753906 -0.800781 1.28125 -1.3125 0.9375 -1.96875 C 0.601562 -2.632812 0.4375 -3.390625 0.4375 -4.234375 C 0.4375 -5.140625 0.628906 -5.910156 1.015625 -6.546875 C 1.398438 -7.179688 1.910156 -7.660156 2.546875 -7.984375 C 3.179688 -8.304688 3.863281 -8.46875 4.59375 -8.46875 C 5.082031 -8.46875 5.546875 -8.410156 5.984375 -8.296875 C 6.429688 -8.191406 6.878906 -8.035156 7.328125 -7.828125 C 7.234375 -7.359375 7.1875 -6.71875 7.1875 -5.90625 C 7.019531 -5.820312 6.75 -5.78125 6.375 -5.78125 C 6.363281 -6.550781 6.210938 -7.082031 5.921875 -7.375 C 5.640625 -7.675781 5.226562 -7.828125 4.6875 -7.828125 C 3.800781 -7.828125 3.144531 -7.515625 2.71875 -6.890625 C 2.289062 -6.265625 2.078125 -5.488281 2.078125 -4.5625 C 2.078125 -3.832031 2.191406 -3.179688 2.421875 -2.609375 C 2.648438 -2.035156 2.988281 -1.582031 3.4375 -1.25 C 3.882812 -0.914062 4.414062 -0.75 5.03125 -0.75 C 5.394531 -0.75 5.765625 -0.804688 6.140625 -0.921875 C 6.523438 -1.035156 6.890625 -1.203125 7.234375 -1.421875 C 7.285156 -1.367188 7.335938 -1.296875 7.390625 -1.203125 C 7.441406 -1.117188 7.472656 -1.039062 7.484375 -0.96875 C 7.035156 -0.601562 6.570312 -0.332031 6.09375 -0.15625 C 5.613281 0.0195312 5.066406 0.109375 4.453125 0.109375 Z M 4.453125 0.109375 "/></g></g></g><g fill="#053564" fill-opacity="1"><g transform="translate(111.793388, 203.965499)"><g><path d="M 4.234375 -0.65625 C 4.640625 -0.65625 4.96875 -0.707031 5.21875 -0.8125 C 5.46875 -0.914062 5.664062 -1.078125 5.8125 -1.296875 C 5.96875 -1.515625 6.109375 -1.832031 6.234375 -2.25 C 6.566406 -2.1875 6.816406 -2.078125 6.984375 -1.921875 C 6.816406 -1.421875 6.6875 -0.769531 6.59375 0.03125 C 5.875 0.0078125 5.003906 0 3.984375 0 C 2.335938 0 1.210938 0.0078125 0.609375 0.03125 C 0.609375 -0.269531 0.632812 -0.488281 0.6875 -0.625 C 0.914062 -0.632812 1.085938 -0.671875 1.203125 -0.734375 C 1.328125 -0.804688 1.410156 -0.929688 1.453125 -1.109375 C 1.503906 -1.285156 1.53125 -1.539062 1.53125 -1.875 L 1.53125 -6.59375 C 1.53125 -6.894531 1.503906 -7.125 1.453125 -7.28125 C 1.410156 -7.4375 1.328125 -7.546875 1.203125 -7.609375 C 1.085938 -7.679688 0.914062 -7.722656 0.6875 -7.734375 C 0.644531 -7.878906 0.625 -8.097656 0.625 -8.390625 C 1.175781 -8.367188 1.726562 -8.359375 2.28125 -8.359375 C 2.90625 -8.359375 3.46875 -8.367188 3.96875 -8.390625 C 3.96875 -8.097656 3.941406 -7.878906 3.890625 -7.734375 C 3.660156 -7.722656 3.488281 -7.679688 3.375 -7.609375 C 3.257812 -7.546875 3.175781 -7.429688 3.125 -7.265625 C 3.070312 -7.109375 3.046875 -6.875 3.046875 -6.5625 L 3.046875 -1.890625 C 3.046875 -1.554688 3.070312 -1.300781 3.125 -1.125 C 3.1875 -0.945312 3.296875 -0.820312 3.453125 -0.75 C 3.609375 -0.6875 3.832031 -0.65625 4.125 -0.65625 Z M 4.234375 -0.65625 "/></g></g></g><g fill="#053564" fill-opacity="1"><g transform="translate(118.75294, 203.965499)"><g><path d="M 6.421875 -2.25 C 6.742188 -2.1875 6.992188 -2.078125 7.171875 -1.921875 C 6.984375 -1.359375 6.851562 -0.707031 6.78125 0.03125 C 6.039062 0.0078125 5.109375 0 3.984375 0 C 2.335938 0 1.210938 0.0078125 0.609375 0.03125 C 0.609375 -0.269531 0.632812 -0.488281 0.6875 -0.625 C 0.914062 -0.632812 1.085938 -0.671875 1.203125 -0.734375 C 1.316406 -0.804688 1.394531 -0.925781 1.4375 -1.09375 C 1.488281 -1.269531 1.515625 -1.53125 1.515625 -1.875 L 1.515625 -6.59375 C 1.515625 -6.894531 1.488281 -7.125 1.4375 -7.28125 C 1.394531 -7.4375 1.3125 -7.546875 1.1875 -7.609375 C 1.070312 -7.679688 0.898438 -7.722656 0.671875 -7.734375 C 0.628906 -7.878906 0.609375 -8.097656 0.609375 -8.390625 C 1.171875 -8.367188 1.976562 -8.359375 3.03125 -8.359375 C 4.351562 -8.359375 5.5 -8.367188 6.46875 -8.390625 C 6.550781 -7.460938 6.632812 -6.785156 6.71875 -6.359375 C 6.539062 -6.253906 6.296875 -6.203125 5.984375 -6.203125 C 5.929688 -6.671875 5.765625 -7.039062 5.484375 -7.3125 C 5.203125 -7.59375 4.722656 -7.734375 4.046875 -7.734375 L 3.046875 -7.734375 L 3.046875 -4.515625 L 3.609375 -4.515625 C 4.085938 -4.515625 4.414062 -4.582031 4.59375 -4.71875 C 4.78125 -4.851562 4.875 -5.109375 4.875 -5.484375 C 5.070312 -5.554688 5.316406 -5.59375 5.609375 -5.59375 C 5.585938 -5.1875 5.578125 -4.726562 5.578125 -4.21875 C 5.578125 -3.664062 5.585938 -3.179688 5.609375 -2.765625 C 5.304688 -2.765625 5.070312 -2.789062 4.90625 -2.84375 C 4.875 -3.25 4.765625 -3.519531 4.578125 -3.65625 C 4.398438 -3.800781 4.078125 -3.875 3.609375 -3.875 L 3.046875 -3.875 L 3.046875 -1.890625 C 3.046875 -1.554688 3.070312 -1.300781 3.125 -1.125 C 3.1875 -0.945312 3.296875 -0.820312 3.453125 -0.75 C 3.609375 -0.6875 3.832031 -0.65625 4.125 -0.65625 L 4.234375 -0.65625 C 4.722656 -0.65625 5.101562 -0.710938 5.375 -0.828125 C 5.65625 -0.941406 5.867188 -1.101562 6.015625 -1.3125 C 6.160156 -1.53125 6.296875 -1.84375 6.421875 -2.25 Z M 6.421875 -2.25 "/></g></g></g><g fill="#053564" fill-opacity="1"><g transform="translate(126.095709, 203.965499)"><g><path d="M 8.40625 -0.625 C 8.457031 -0.425781 8.484375 -0.207031 8.484375 0.03125 C 8.171875 0.0078125 7.65625 0 6.9375 0 C 6.164062 0 5.625 0.0078125 5.3125 0.03125 C 5.3125 -0.25 5.34375 -0.46875 5.40625 -0.625 C 5.613281 -0.644531 5.765625 -0.679688 5.859375 -0.734375 C 5.953125 -0.796875 6 -0.882812 6 -1 C 6 -1.125 5.941406 -1.3125 5.828125 -1.5625 L 5.421875 -2.53125 C 4.148438 -2.53125 3.101562 -2.507812 2.28125 -2.46875 L 2.046875 -1.828125 C 1.929688 -1.554688 1.875 -1.332031 1.875 -1.15625 C 1.875 -0.988281 1.921875 -0.859375 2.015625 -0.765625 C 2.117188 -0.679688 2.273438 -0.632812 2.484375 -0.625 C 2.546875 -0.425781 2.578125 -0.207031 2.578125 0.03125 C 2.296875 0.0078125 1.878906 0 1.328125 0 C 1.085938 0 0.734375 0.0078125 0.265625 0.03125 C 0.265625 -0.21875 0.296875 -0.429688 0.359375 -0.609375 C 0.578125 -0.648438 0.742188 -0.753906 0.859375 -0.921875 C 0.972656 -1.085938 1.132812 -1.421875 1.34375 -1.921875 L 3.921875 -8.375 C 4.085938 -8.40625 4.289062 -8.421875 4.53125 -8.421875 L 7.421875 -1.875 C 7.578125 -1.53125 7.703125 -1.273438 7.796875 -1.109375 C 7.898438 -0.941406 7.992188 -0.820312 8.078125 -0.75 C 8.160156 -0.675781 8.269531 -0.632812 8.40625 -0.625 Z M 5.15625 -3.15625 L 4.34375 -5.046875 C 4.125 -5.535156 3.9375 -6.023438 3.78125 -6.515625 C 3.632812 -6.035156 3.46875 -5.546875 3.28125 -5.046875 L 2.5625 -3.15625 Z M 5.15625 -3.15625 "/></g></g></g><g fill="#053564" fill-opacity="1"><g transform="translate(134.600478, 203.965499)"><g><path d="M 7.375 -8.359375 C 7.863281 -8.359375 8.269531 -8.367188 8.59375 -8.390625 C 8.59375 -8.097656 8.570312 -7.878906 8.53125 -7.734375 C 8.332031 -7.722656 8.179688 -7.664062 8.078125 -7.5625 C 7.972656 -7.46875 7.894531 -7.296875 7.84375 -7.046875 C 7.800781 -6.796875 7.78125 -6.441406 7.78125 -5.984375 L 7.78125 0 C 7.601562 0.0625 7.367188 0.09375 7.078125 0.09375 L 2.21875 -6.328125 L 2.21875 -2.421875 C 2.21875 -1.941406 2.242188 -1.578125 2.296875 -1.328125 C 2.347656 -1.078125 2.4375 -0.894531 2.5625 -0.78125 C 2.6875 -0.675781 2.867188 -0.625 3.109375 -0.625 C 3.160156 -0.46875 3.1875 -0.25 3.1875 0.03125 C 2.8125 0.0078125 2.378906 0 1.890625 0 C 1.296875 0 0.851562 0.0078125 0.5625 0.03125 C 0.5625 -0.25 0.582031 -0.46875 0.625 -0.625 C 0.851562 -0.625 1.03125 -0.675781 1.15625 -0.78125 C 1.289062 -0.894531 1.382812 -1.078125 1.4375 -1.328125 C 1.488281 -1.578125 1.515625 -1.941406 1.515625 -2.421875 L 1.515625 -7.25 L 1.4375 -7.359375 C 1.320312 -7.492188 1.210938 -7.585938 1.109375 -7.640625 C 1.015625 -7.691406 0.851562 -7.722656 0.625 -7.734375 C 0.582031 -7.910156 0.5625 -8.128906 0.5625 -8.390625 C 0.820312 -8.367188 1.191406 -8.359375 1.671875 -8.359375 C 2.078125 -8.359375 2.40625 -8.367188 2.65625 -8.390625 L 7.0625 -2.484375 L 7.0625 -5.984375 C 7.0625 -6.453125 7.035156 -6.804688 6.984375 -7.046875 C 6.941406 -7.296875 6.851562 -7.46875 6.71875 -7.5625 C 6.59375 -7.664062 6.410156 -7.722656 6.171875 -7.734375 C 6.117188 -7.960938 6.09375 -8.179688 6.09375 -8.390625 C 6.457031 -8.367188 6.882812 -8.359375 7.375 -8.359375 Z M 7.375 -8.359375 "/></g></g></g></g></g></svg>