<svg xmlns="http://www.w3.org/2000/svg" xmlns:xlink="http://www.w3.org/1999/xlink" width="300" zoomAndPan="magnify" viewBox="0 0 224.87999 225" height="300" preserveAspectRatio="xMidYMid meet" version="1.0"><defs><clipPath id="b8f80e06c5"><path d="M 104 85.253906 L 120.421875 85.253906 L 120.421875 101.800781 L 104 101.800781 Z M 104 85.253906 " clip-rule="nonzero"/></clipPath><clipPath id="96e95ffd35"><path d="M 120.125 93.445312 C 120.152344 97.726562 116.578125 101.300781 112.296875 101.359375 C 107.957031 101.390625 104.382812 97.929688 104.324219 93.617188 C 104.238281 89.222656 107.84375 85.53125 112.210938 85.53125 C 116.433594 85.53125 120.097656 89.222656 120.125 93.445312 " clip-rule="nonzero"/></clipPath><clipPath id="a62b72d0ea"><path d="M 0.105469 0.453125 L 16.175781 0.453125 L 16.175781 16.527344 L 0.105469 16.527344 Z M 0.105469 0.453125 " clip-rule="nonzero"/></clipPath><clipPath id="4f09e12f64"><path d="M 16.125 8.445312 C 16.152344 12.726562 12.578125 16.300781 8.296875 16.359375 C 3.957031 16.390625 0.382812 12.929688 0.324219 8.617188 C 0.238281 4.222656 3.84375 0.53125 8.210938 0.53125 C 12.433594 0.53125 16.097656 4.222656 16.125 8.445312 " clip-rule="nonzero"/></clipPath><clipPath id="12efe546d3"><rect x="0" width="17" y="0" height="17"/></clipPath><clipPath id="07f2398bad"><path d="M 66.328125 38.15625 L 158.609375 38.15625 L 158.609375 130 L 66.328125 130 Z M 66.328125 38.15625 " clip-rule="nonzero"/></clipPath><clipPath id="efc0f7d38d"><path d="M 128.601562 99.226562 C 128.542969 99.398438 127.980469 99.515625 127.691406 99.457031 C 127.1875 99.371094 126.699219 99.167969 126.25 98.921875 C 125.542969 98.605469 125.140625 98.835938 124.839844 99.484375 C 124.664062 99.902344 124.464844 100.277344 124.21875 100.652344 C 123.816406 101.359375 123.023438 102.066406 123.050781 102.699219 C 123.109375 103.320312 124.015625 103.867188 124.550781 104.460938 C 124.664062 104.574219 124.839844 104.660156 124.839844 104.777344 C 124.894531 106.1875 123.585938 106.5625 122.820312 107.328125 C 122.375 107.730469 121.824219 108.324219 121.175781 107.441406 C 120.671875 106.738281 120.183594 105.800781 119.503906 105.597656 C 118.886719 105.425781 118.0625 106.1875 117.300781 106.507812 C 117.039062 106.648438 116.765625 106.738281 116.476562 106.792969 C 115.484375 106.996094 115.28125 107.585938 115.453125 108.582031 C 115.828125 110.570312 115.800781 110.601562 113.839844 110.84375 C 113.492188 110.902344 113.105469 110.902344 112.757812 110.933594 C 111.761719 111.046875 111.289062 110.730469 111.289062 109.605469 C 111.289062 107.558594 111.230469 107.558594 109.242188 107.140625 C 108.953125 107.082031 108.648438 107.054688 108.363281 106.96875 C 106.601562 106.507812 106.601562 106.507812 105.808594 108.046875 C 105.074219 109.488281 105.074219 109.488281 103.707031 108.726562 C 103.289062 108.523438 102.941406 108.28125 102.566406 108.019531 C 101.398438 107.253906 100.953125 107.082031 102.164062 105.726562 C 103.246094 104.503906 103.15625 104.402344 101.988281 103.089844 C 101.816406 102.859375 101.617188 102.644531 101.429688 102.414062 C 100.042969 100.738281 100.015625 100.683594 98.171875 101.734375 C 97.234375 102.269531 96.84375 101.9375 96.496094 101.144531 C 96.324219 100.738281 96.121094 100.320312 95.964844 99.917969 C 95.113281 97.625 95.316406 97.871094 97.191406 97.425781 C 98.328125 97.164062 98.71875 96.6875 98.328125 95.609375 C 98.242188 95.261719 98.214844 94.875 98.183594 94.527344 C 98.097656 93.792969 98.269531 92.855469 97.894531 92.421875 C 97.550781 91.976562 96.585938 92.003906 95.878906 91.859375 C 95.171875 91.746094 94.855469 91.355469 94.96875 90.664062 C 95.054688 90.128906 95.144531 89.640625 95.285156 89.136719 C 95.792969 87.203125 95.820312 87.144531 97.722656 87.867188 C 98.777344 88.269531 99.394531 88.15625 99.742188 87.046875 C 99.800781 86.785156 99.972656 86.511719 100.144531 86.28125 C 100.589844 85.574219 101.414062 84.898438 101.339844 84.261719 C 101.3125 83.644531 100.375 83.097656 99.84375 82.503906 C 99.785156 82.445312 99.699219 82.417969 99.667969 82.332031 C 98.992188 80.804688 100.578125 80.601562 101.226562 79.867188 C 101.644531 79.390625 102.308594 78.425781 103.15625 79.550781 C 103.386719 79.835938 103.605469 80.140625 103.777344 80.457031 C 104.222656 81.335938 104.773438 81.625 105.679688 81.019531 C 106.128906 80.730469 106.617188 80.574219 107.121094 80.398438 C 108.96875 79.664062 109.023438 79.664062 108.679688 77.675781 C 108.503906 76.652344 108.765625 76.117188 109.847656 76.117188 C 110.292969 76.117188 110.726562 76.0625 111.042969 76.03125 C 113.003906 76.003906 113.0625 76.003906 113.03125 77.964844 C 112.972656 79.101562 113.347656 79.636719 114.503906 79.636719 C 114.703125 79.636719 114.949219 79.664062 115.152344 79.722656 C 116 79.925781 116.9375 80.457031 117.644531 80.210938 C 118.207031 80.039062 118.4375 78.929688 118.8125 78.222656 C 119.492188 76.925781 120.28125 77.90625 120.773438 78.28125 C 121.539062 78.84375 123.527344 79.304688 122.589844 80.328125 C 120.773438 82.347656 121.855469 83.382812 123.152344 84.753906 C 124.421875 86.078125 124.347656 86.222656 126.078125 85.230469 C 127.042969 84.636719 127.519531 84.8125 127.867188 85.820312 C 128.039062 86.296875 128.328125 86.726562 128.484375 87.234375 C 128.945312 88.730469 129.480469 88.992188 127.375 89.4375 C 126.207031 89.667969 125.730469 90.261719 125.992188 91.429688 C 126.078125 91.773438 126.078125 92.164062 126.105469 92.507812 C 126.28125 94.65625 126.28125 94.628906 128.484375 95.117188 C 128.832031 95.203125 129.394531 95.59375 129.394531 95.796875 C 129.21875 96.933594 128.917969 98.085938 128.570312 99.199219 M 156.925781 101.460938 L 120.46875 42.964844 C 116.664062 36.835938 107.742188 36.835938 103.964844 42.964844 L 67.4375 101.488281 C 65.359375 104.804688 66.355469 109.171875 69.613281 111.277344 L 95.460938 127.914062 C 97.390625 129.152344 99.625 129.816406 101.902344 129.816406 L 122.660156 129.816406 C 124.953125 129.816406 127.203125 129.136719 129.105469 127.882812 L 154.765625 111.292969 C 158.050781 109.171875 159.015625 104.804688 156.925781 101.503906 " clip-rule="nonzero"/></clipPath><clipPath id="b9181d1d10"><path d="M 0.328125 0.15625 L 92.609375 0.15625 L 92.609375 91.832031 L 0.328125 91.832031 Z M 0.328125 0.15625 " clip-rule="nonzero"/></clipPath><clipPath id="f5d1e703bc"><path d="M 62.601562 61.226562 C 62.542969 61.398438 61.980469 61.515625 61.691406 61.457031 C 61.1875 61.371094 60.699219 61.167969 60.25 60.921875 C 59.542969 60.605469 59.140625 60.835938 58.839844 61.484375 C 58.664062 61.902344 58.464844 62.277344 58.21875 62.652344 C 57.816406 63.359375 57.023438 64.066406 57.050781 64.699219 C 57.109375 65.320312 58.015625 65.867188 58.550781 66.460938 C 58.664062 66.574219 58.839844 66.660156 58.839844 66.777344 C 58.894531 68.1875 57.585938 68.5625 56.820312 69.328125 C 56.375 69.730469 55.824219 70.324219 55.175781 69.441406 C 54.671875 68.738281 54.183594 67.800781 53.503906 67.597656 C 52.886719 67.425781 52.0625 68.1875 51.300781 68.507812 C 51.039062 68.648438 50.765625 68.738281 50.476562 68.792969 C 49.484375 68.996094 49.28125 69.585938 49.453125 70.582031 C 49.828125 72.570312 49.800781 72.601562 47.839844 72.84375 C 47.492188 72.902344 47.105469 72.902344 46.757812 72.933594 C 45.761719 73.046875 45.289062 72.730469 45.289062 71.605469 C 45.289062 69.558594 45.230469 69.558594 43.242188 69.140625 C 42.953125 69.082031 42.648438 69.054688 42.363281 68.96875 C 40.601562 68.507812 40.601562 68.507812 39.808594 70.046875 C 39.074219 71.488281 39.074219 71.488281 37.707031 70.726562 C 37.289062 70.523438 36.941406 70.28125 36.566406 70.019531 C 35.398438 69.253906 34.953125 69.082031 36.164062 67.726562 C 37.246094 66.503906 37.15625 66.402344 35.988281 65.089844 C 35.816406 64.859375 35.617188 64.644531 35.429688 64.414062 C 34.042969 62.738281 34.015625 62.683594 32.171875 63.734375 C 31.234375 64.269531 30.84375 63.9375 30.496094 63.144531 C 30.324219 62.738281 30.121094 62.320312 29.964844 61.917969 C 29.113281 59.625 29.316406 59.871094 31.191406 59.425781 C 32.328125 59.164062 32.71875 58.6875 32.328125 57.609375 C 32.242188 57.261719 32.214844 56.875 32.183594 56.527344 C 32.097656 55.792969 32.269531 54.855469 31.894531 54.421875 C 31.550781 53.976562 30.585938 54.003906 29.878906 53.859375 C 29.171875 53.746094 28.855469 53.355469 28.96875 52.664062 C 29.054688 52.128906 29.144531 51.640625 29.285156 51.136719 C 29.792969 49.203125 29.820312 49.144531 31.722656 49.867188 C 32.777344 50.269531 33.394531 50.15625 33.742188 49.046875 C 33.800781 48.785156 33.972656 48.511719 34.144531 48.28125 C 34.589844 47.574219 35.414062 46.898438 35.339844 46.261719 C 35.3125 45.644531 34.375 45.097656 33.84375 44.503906 C 33.785156 44.445312 33.699219 44.417969 33.667969 44.332031 C 32.992188 42.804688 34.578125 42.601562 35.226562 41.867188 C 35.644531 41.390625 36.308594 40.425781 37.15625 41.550781 C 37.386719 41.835938 37.605469 42.140625 37.777344 42.457031 C 38.222656 43.335938 38.773438 43.625 39.679688 43.019531 C 40.128906 42.730469 40.617188 42.574219 41.121094 42.398438 C 42.96875 41.664062 43.023438 41.664062 42.679688 39.675781 C 42.503906 38.652344 42.765625 38.117188 43.847656 38.117188 C 44.292969 38.117188 44.726562 38.0625 45.042969 38.03125 C 47.003906 38.003906 47.0625 38.003906 47.03125 39.964844 C 46.972656 41.101562 47.347656 41.636719 48.503906 41.636719 C 48.703125 41.636719 48.949219 41.664062 49.152344 41.722656 C 50 41.925781 50.9375 42.457031 51.644531 42.210938 C 52.207031 42.039062 52.4375 40.929688 52.8125 40.222656 C 53.492188 38.925781 54.28125 39.90625 54.773438 40.28125 C 55.539062 40.84375 57.527344 41.304688 56.589844 42.328125 C 54.773438 44.347656 55.855469 45.382812 57.152344 46.753906 C 58.421875 48.078125 58.347656 48.222656 60.078125 47.230469 C 61.042969 46.636719 61.519531 46.8125 61.867188 47.820312 C 62.039062 48.296875 62.328125 48.726562 62.484375 49.234375 C 62.945312 50.730469 63.480469 50.992188 61.375 51.4375 C 60.207031 51.667969 59.730469 52.261719 59.992188 53.429688 C 60.078125 53.773438 60.078125 54.164062 60.105469 54.507812 C 60.28125 56.65625 60.28125 56.628906 62.484375 57.117188 C 62.832031 57.203125 63.394531 57.59375 63.394531 57.796875 C 63.21875 58.933594 62.917969 60.085938 62.570312 61.199219 M 90.925781 63.460938 L 54.46875 4.964844 C 50.664062 -1.164062 41.742188 -1.164062 37.964844 4.964844 L 1.4375 63.488281 C -0.640625 66.804688 0.355469 71.171875 3.613281 73.277344 L 29.460938 89.914062 C 31.390625 91.152344 33.625 91.816406 35.902344 91.816406 L 56.660156 91.816406 C 58.953125 91.816406 61.203125 91.136719 63.105469 89.882812 L 88.765625 73.292969 C 92.050781 71.171875 93.015625 66.804688 90.925781 63.503906 " clip-rule="nonzero"/></clipPath><clipPath id="7df19c5e30"><rect x="0" width="93" y="0" height="92"/></clipPath><clipPath id="9d2ace071a"><path d="M 156.699219 149.53125 L 168.15625 149.53125 L 168.15625 160.988281 L 156.699219 160.988281 Z M 156.699219 149.53125 " clip-rule="nonzero"/></clipPath><clipPath id="c97ced3835"><path d="M 162.578125 159.222656 C 160.414062 159.222656 158.640625 157.464844 158.640625 155.257812 C 158.640625 153.023438 160.316406 151.324219 162.550781 151.324219 C 164.738281 151.324219 166.511719 153.054688 166.511719 155.257812 C 166.511719 157.390625 164.726562 159.222656 162.578125 159.222656 M 162.578125 149.722656 C 159.492188 149.722656 156.96875 152.21875 156.96875 155.289062 C 156.96875 158.257812 159.492188 160.765625 162.476562 160.835938 C 165.5625 160.867188 168.070312 158.34375 168.097656 155.289062 C 168.128906 152.230469 165.632812 149.722656 162.5625 149.722656 " clip-rule="nonzero"/></clipPath><clipPath id="0f96a071e5"><path d="M 0.875 0.53125 L 12.148438 0.53125 L 12.148438 11.988281 L 0.875 11.988281 Z M 0.875 0.53125 " clip-rule="nonzero"/></clipPath><clipPath id="73ebd5897a"><path d="M 6.578125 10.222656 C 4.414062 10.222656 2.640625 8.464844 2.640625 6.257812 C 2.640625 4.023438 4.316406 2.324219 6.550781 2.324219 C 8.738281 2.324219 10.511719 4.054688 10.511719 6.257812 C 10.511719 8.390625 8.726562 10.222656 6.578125 10.222656 M 6.578125 0.722656 C 3.492188 0.722656 0.96875 3.21875 0.96875 6.289062 C 0.96875 9.257812 3.492188 11.765625 6.476562 11.835938 C 9.5625 11.867188 12.070312 9.34375 12.097656 6.289062 C 12.128906 3.230469 9.632812 0.722656 6.5625 0.722656 " clip-rule="nonzero"/></clipPath><clipPath id="d580653bb6"><rect x="0" width="13" y="0" height="12"/></clipPath><clipPath id="cd7bc462ae"><path d="M 128.058594 117.074219 L 202.519531 117.074219 L 202.519531 187 L 128.058594 187 Z M 128.058594 117.074219 " clip-rule="nonzero"/></clipPath><clipPath id="892b40f556"><path d="M 176.71875 149.433594 C 176.71875 149.96875 176.574219 150.226562 176.011719 150.171875 C 175.507812 150.140625 175.019531 150.199219 174.515625 150.140625 C 174.339844 150.140625 174.066406 149.96875 174.050781 149.824219 C 173.996094 149.421875 173.734375 149.347656 173.402344 149.347656 C 172.871094 149.378906 172.324219 149.40625 171.761719 149.433594 C 171.933594 149.910156 172.148438 150.371094 172.351562 150.820312 C 174.050781 154.898438 173.621094 158.734375 170.824219 162.105469 C 168.011719 165.480469 164.277344 166.703125 159.996094 165.679688 C 155.6875 164.628906 152.992188 161.746094 152.054688 157.40625 C 150.714844 151.28125 155.054688 145.296875 161.265625 144.648438 C 163.527344 144.417969 165.777344 144.449219 168.070312 144.359375 L 168.070312 144.449219 L 173.203125 144.449219 C 173.621094 144.449219 174.082031 144.503906 174.050781 143.828125 C 174.050781 143.710938 174.28125 143.566406 174.425781 143.480469 C 174.484375 143.453125 174.601562 143.480469 174.6875 143.480469 C 176.703125 143.394531 176.703125 143.394531 176.703125 145.382812 C 176.703125 146.738281 176.675781 148.078125 176.703125 149.433594 M 153.410156 165.910156 L 150.527344 165.910156 C 150.179688 165.941406 149.792969 165.910156 149.820312 166.472656 C 149.820312 166.820312 149.589844 166.921875 149.285156 166.921875 C 148.722656 166.921875 148.175781 166.890625 147.613281 166.921875 C 147.210938 166.921875 147.050781 166.71875 147.050781 166.300781 L 147.050781 160.78125 C 147.050781 160.363281 147.195312 160.1875 147.644531 160.21875 L 149.128906 160.21875 C 149.503906 160.21875 149.835938 160.1875 149.863281 160.75 C 149.863281 160.835938 150.238281 161.039062 150.398438 161.011719 C 151.839844 160.695312 152.558594 161.515625 153.292969 162.597656 C 154.261719 164.066406 155.585938 165.175781 157.316406 165.796875 C 155.988281 165.824219 154.707031 165.882812 153.410156 165.910156 M 200.851562 171.777344 L 169.09375 120.894531 C 167.160156 117.75 163.167969 116.640625 159.882812 118.253906 L 131.035156 132.367188 C 128.875 133.59375 127.460938 135.972656 128.429688 138.96875 C 132.851562 152.460938 142.207031 181.957031 142.207031 181.957031 C 144.285156 186.640625 149.328125 186.886719 153.035156 186.886719 L 192.589844 186.65625 C 200.246094 186.65625 204.902344 178.265625 200.863281 171.792969 " clip-rule="nonzero"/></clipPath><clipPath id="0db26730e6"><path d="M 0.0585938 0.0742188 L 74.519531 0.0742188 L 74.519531 69.921875 L 0.0585938 69.921875 Z M 0.0585938 0.0742188 " clip-rule="nonzero"/></clipPath><clipPath id="e4d5c52cd3"><path d="M 48.71875 32.433594 C 48.71875 32.96875 48.574219 33.226562 48.011719 33.171875 C 47.507812 33.140625 47.019531 33.199219 46.515625 33.140625 C 46.339844 33.140625 46.066406 32.96875 46.050781 32.824219 C 45.996094 32.421875 45.734375 32.347656 45.402344 32.347656 C 44.871094 32.378906 44.324219 32.40625 43.761719 32.433594 C 43.933594 32.910156 44.148438 33.371094 44.351562 33.820312 C 46.050781 37.898438 45.621094 41.734375 42.824219 45.105469 C 40.011719 48.480469 36.277344 49.703125 31.996094 48.679688 C 27.6875 47.628906 24.992188 44.746094 24.054688 40.40625 C 22.714844 34.28125 27.054688 28.296875 33.265625 27.648438 C 35.527344 27.417969 37.777344 27.449219 40.070312 27.359375 L 40.070312 27.449219 L 45.203125 27.449219 C 45.621094 27.449219 46.082031 27.503906 46.050781 26.828125 C 46.050781 26.710938 46.28125 26.566406 46.425781 26.480469 C 46.484375 26.453125 46.601562 26.480469 46.6875 26.480469 C 48.703125 26.394531 48.703125 26.394531 48.703125 28.382812 C 48.703125 29.738281 48.675781 31.078125 48.703125 32.433594 M 25.410156 48.910156 L 22.527344 48.910156 C 22.179688 48.941406 21.792969 48.910156 21.820312 49.472656 C 21.820312 49.820312 21.589844 49.921875 21.285156 49.921875 C 20.722656 49.921875 20.175781 49.890625 19.613281 49.921875 C 19.210938 49.921875 19.050781 49.71875 19.050781 49.300781 L 19.050781 43.78125 C 19.050781 43.363281 19.195312 43.1875 19.644531 43.21875 L 21.128906 43.21875 C 21.503906 43.21875 21.835938 43.1875 21.863281 43.75 C 21.863281 43.835938 22.238281 44.039062 22.398438 44.011719 C 23.839844 43.695312 24.558594 44.515625 25.292969 45.597656 C 26.261719 47.066406 27.585938 48.175781 29.316406 48.796875 C 27.988281 48.824219 26.707031 48.882812 25.410156 48.910156 M 72.851562 54.777344 L 41.09375 3.894531 C 39.160156 0.75 35.167969 -0.359375 31.882812 1.253906 L 3.035156 15.367188 C 0.875 16.59375 -0.539062 18.972656 0.429688 21.96875 C 4.851562 35.460938 14.207031 64.957031 14.207031 64.957031 C 16.285156 69.640625 21.328125 69.886719 25.035156 69.886719 L 64.589844 69.65625 C 72.246094 69.65625 76.902344 61.265625 72.863281 54.792969 " clip-rule="nonzero"/></clipPath><clipPath id="be7861eae2"><rect x="0" width="75" y="0" height="70"/></clipPath><clipPath id="33083ff487"><path d="M 21.777344 117.074219 L 96.238281 117.074219 L 96.238281 187 L 21.777344 187 Z M 21.777344 117.074219 " clip-rule="nonzero"/></clipPath><clipPath id="a0208357fe"><path d="M 75.4375 142.355469 C 75.121094 142.703125 74.789062 143.0625 74.472656 143.4375 C 74.242188 143.726562 73.996094 143.886719 73.648438 143.554688 C 73.359375 143.292969 73.058594 143.019531 73.476562 142.644531 C 73.980469 142.199219 73.851562 141.882812 73.359375 141.535156 C 72.988281 141.246094 72.65625 140.886719 72.28125 140.597656 C 71.875 140.28125 71.875 140.007812 72.222656 139.605469 C 72.566406 139.15625 72.8125 139.375 73.101562 139.632812 C 73.835938 140.28125 74.570312 140.902344 75.265625 141.535156 C 75.40625 141.652344 75.523438 141.796875 75.667969 141.980469 C 75.582031 142.125 75.523438 142.242188 75.4375 142.355469 M 74.585938 145.933594 C 72.65625 148.714844 70.707031 151.539062 68.804688 154.351562 C 68.488281 154.882812 68.214844 154.855469 67.78125 154.464844 C 65.578125 152.535156 63.414062 150.589844 61.179688 148.683594 C 60.734375 148.3125 60.835938 148.09375 61.238281 147.75 C 63.703125 145.484375 66.140625 143.238281 68.5625 140.972656 C 69.007812 140.570312 69.296875 140.511719 69.757812 140.945312 C 71.285156 142.328125 72.84375 143.640625 74.382812 145.023438 C 74.527344 145.140625 74.671875 145.3125 74.800781 145.484375 C 74.714844 145.660156 74.660156 145.800781 74.570312 145.933594 M 68.949219 157.421875 C 67.898438 158.617188 66.832031 159.828125 65.777344 161.054688 C 65.492188 161.398438 65.214844 161.5 64.871094 161.113281 C 64.726562 160.9375 64.554688 160.824219 64.367188 160.636719 C 63.960938 160.1875 63.601562 160.289062 63.285156 160.75 C 63.199219 160.867188 63.082031 160.953125 62.996094 161.066406 C 62.707031 161.542969 62.40625 161.472656 62 161.125 C 59.796875 159.164062 57.578125 157.21875 55.34375 155.289062 C 54.996094 154.96875 54.894531 154.695312 55.285156 154.378906 C 55.398438 154.265625 55.484375 154.148438 55.574219 154.0625 C 56.105469 153.414062 56.105469 153.414062 55.542969 152.894531 C 54.605469 152.015625 54.605469 152.015625 55.484375 151.050781 C 56.335938 150.082031 57.214844 149.089844 58.066406 148.09375 C 58.628906 147.503906 58.628906 147.476562 59.207031 148.007812 C 62.375 150.761719 65.535156 153.585938 68.734375 156.367188 C 68.90625 156.511719 69.179688 156.65625 69.382812 156.816406 C 69.152344 157.132812 69.066406 157.292969 68.9375 157.4375 M 61.023438 162.625 C 60.574219 162.394531 60.054688 162.179688 59.695312 161.890625 C 58.082031 160.507812 56.523438 159.109375 54.953125 157.753906 C 54.390625 157.277344 54.074219 156.730469 54.160156 156.023438 C 54.1875 155.707031 55.414062 156.023438 56.035156 156.585938 C 57.621094 157.96875 59.207031 159.339844 60.71875 160.75 C 61.066406 161.097656 61.308594 161.601562 61.511719 162.0625 C 61.683594 162.453125 61.484375 162.625 61.007812 162.625 M 60.128906 164.09375 C 59.925781 164.355469 58.832031 164.039062 58.28125 163.5625 C 56.695312 162.148438 55.054688 160.78125 53.496094 159.339844 C 53.121094 158.992188 52.90625 158.429688 52.675781 157.925781 C 52.644531 157.839844 52.789062 157.636719 52.90625 157.363281 C 53.527344 157.652344 54.074219 157.808594 54.492188 158.15625 C 56.105469 159.511719 57.691406 160.9375 59.304688 162.351562 C 59.8125 162.796875 60.273438 163.851562 60.128906 164.082031 M 58.195312 165.867188 C 57.75 165.667969 57.257812 165.523438 56.925781 165.21875 C 55.226562 163.777344 53.613281 162.324219 51.941406 160.882812 C 51.433594 160.433594 51.203125 159.914062 51.261719 159.296875 C 51.292969 159.007812 52.429688 159.207031 52.964844 159.671875 C 54.636719 161.140625 56.308594 162.566406 57.921875 164.039062 C 58.238281 164.355469 58.457031 164.832031 58.628906 165.261719 C 58.800781 165.636719 58.65625 165.824219 58.195312 165.855469 M 56.726562 167.46875 C 56.320312 167.265625 55.816406 167.121094 55.457031 166.820312 C 53.8125 165.40625 52.199219 163.980469 50.554688 162.539062 C 50.050781 162.0625 49.648438 161.097656 49.851562 160.867188 C 50.050781 160.636719 51.046875 160.867188 51.578125 161.34375 C 53.222656 162.753906 54.867188 164.183594 56.480469 165.652344 C 56.796875 165.941406 57.015625 166.445312 57.214844 166.847656 C 57.390625 167.265625 57.1875 167.410156 56.710938 167.46875 M 55.269531 169.140625 C 54.808594 168.882812 54.304688 168.664062 53.886719 168.320312 C 52.300781 167.007812 50.773438 165.652344 49.257812 164.269531 C 48.882812 163.894531 48.640625 163.359375 48.410156 162.882812 C 48.207031 162.4375 48.496094 162.292969 48.8125 162.421875 C 49.289062 162.539062 49.777344 162.683594 50.136719 162.984375 C 51.78125 164.371094 53.425781 165.796875 55.011719 167.265625 C 55.355469 167.585938 55.574219 168.117188 55.773438 168.550781 C 55.976562 168.980469 55.773438 169.113281 55.269531 169.140625 M 54.363281 170.582031 C 54.160156 170.8125 53.0625 170.523438 52.515625 170.019531 C 50.929688 168.609375 49.316406 167.238281 47.730469 165.796875 C 47.382812 165.480469 47.167969 165.003906 46.996094 164.601562 C 46.824219 164.195312 46.9375 163.921875 47.527344 163.953125 C 47.933594 164.183594 48.410156 164.324219 48.753906 164.65625 C 50.367188 166.042969 51.984375 167.441406 53.570312 168.851562 C 54.132812 169.355469 54.5625 170.351562 54.363281 170.582031 M 51.636719 171.347656 C 51.464844 171.460938 51.320312 171.664062 51.160156 171.820312 C 50.929688 172.140625 50.699219 172.140625 50.425781 171.878906 C 50.28125 171.734375 50.136719 171.621094 49.980469 171.503906 C 49.691406 171.273438 49.417969 170.914062 49.101562 170.855469 C 48.898438 170.828125 48.625 171.261719 48.363281 171.503906 C 48.277344 171.589844 48.132812 171.648438 47.988281 171.765625 C 47.542969 171.359375 47.109375 171 46.765625 170.566406 C 46.707031 170.480469 46.910156 170.09375 47.054688 169.949219 C 47.5 169.5 47.429688 169.183594 46.964844 168.839844 C 46.824219 168.75 46.707031 168.609375 46.546875 168.492188 C 45.785156 167.785156 45.785156 167.785156 46.492188 167.023438 C 47.054688 166.429688 47.054688 166.402344 47.714844 166.992188 C 48.984375 168.074219 50.238281 169.199219 51.523438 170.308594 C 51.941406 170.65625 52.085938 170.957031 51.609375 171.359375 M 93.296875 132.367188 L 64.4375 118.253906 C 61.152344 116.640625 57.171875 117.75 55.226562 120.894531 L 23.46875 171.777344 C 19.417969 178.25 24.089844 186.640625 31.742188 186.640625 L 71.300781 186.871094 C 74.988281 186.871094 80.0625 186.640625 82.125 181.941406 C 82.125 181.941406 91.480469 152.449219 95.90625 138.957031 C 96.871094 135.957031 95.460938 133.59375 93.296875 132.351562 " clip-rule="nonzero"/></clipPath><clipPath id="af23d11219"><path d="M 0.777344 0.0742188 L 75.238281 0.0742188 L 75.238281 69.921875 L 0.777344 69.921875 Z M 0.777344 0.0742188 " clip-rule="nonzero"/></clipPath><clipPath id="dcf6255986"><path d="M 54.4375 25.355469 C 54.121094 25.703125 53.789062 26.0625 53.472656 26.4375 C 53.242188 26.726562 52.996094 26.886719 52.648438 26.554688 C 52.359375 26.292969 52.058594 26.019531 52.476562 25.644531 C 52.980469 25.199219 52.851562 24.882812 52.359375 24.535156 C 51.988281 24.246094 51.65625 23.886719 51.28125 23.597656 C 50.875 23.28125 50.875 23.007812 51.222656 22.605469 C 51.566406 22.15625 51.8125 22.375 52.101562 22.632812 C 52.835938 23.28125 53.570312 23.902344 54.265625 24.535156 C 54.40625 24.652344 54.523438 24.796875 54.667969 24.980469 C 54.582031 25.125 54.523438 25.242188 54.4375 25.355469 M 53.585938 28.933594 C 51.65625 31.714844 49.707031 34.539062 47.804688 37.351562 C 47.488281 37.882812 47.214844 37.855469 46.78125 37.464844 C 44.578125 35.535156 42.414062 33.589844 40.179688 31.683594 C 39.734375 31.3125 39.835938 31.09375 40.238281 30.75 C 42.703125 28.484375 45.140625 26.238281 47.5625 23.972656 C 48.007812 23.570312 48.296875 23.511719 48.757812 23.945312 C 50.285156 25.328125 51.84375 26.640625 53.382812 28.023438 C 53.527344 28.140625 53.671875 28.3125 53.800781 28.484375 C 53.714844 28.660156 53.660156 28.800781 53.570312 28.933594 M 47.949219 40.421875 C 46.898438 41.617188 45.832031 42.828125 44.777344 44.054688 C 44.492188 44.398438 44.214844 44.5 43.871094 44.113281 C 43.726562 43.9375 43.554688 43.824219 43.367188 43.636719 C 42.960938 43.1875 42.601562 43.289062 42.285156 43.75 C 42.199219 43.867188 42.082031 43.953125 41.996094 44.066406 C 41.707031 44.542969 41.40625 44.472656 41 44.125 C 38.796875 42.164062 36.578125 40.21875 34.34375 38.289062 C 33.996094 37.96875 33.894531 37.695312 34.285156 37.378906 C 34.398438 37.265625 34.484375 37.148438 34.574219 37.0625 C 35.105469 36.414062 35.105469 36.414062 34.542969 35.894531 C 33.605469 35.015625 33.605469 35.015625 34.484375 34.050781 C 35.335938 33.082031 36.214844 32.089844 37.066406 31.09375 C 37.628906 30.503906 37.628906 30.476562 38.207031 31.007812 C 41.375 33.761719 44.535156 36.585938 47.734375 39.367188 C 47.90625 39.511719 48.179688 39.65625 48.382812 39.816406 C 48.152344 40.132812 48.066406 40.292969 47.9375 40.4375 M 40.023438 45.625 C 39.574219 45.394531 39.054688 45.179688 38.695312 44.890625 C 37.082031 43.507812 35.523438 42.109375 33.953125 40.753906 C 33.390625 40.277344 33.074219 39.730469 33.160156 39.023438 C 33.1875 38.707031 34.414062 39.023438 35.035156 39.585938 C 36.621094 40.96875 38.207031 42.339844 39.71875 43.75 C 40.066406 44.097656 40.308594 44.601562 40.511719 45.0625 C 40.683594 45.453125 40.484375 45.625 40.007812 45.625 M 39.128906 47.09375 C 38.925781 47.355469 37.832031 47.039062 37.28125 46.5625 C 35.695312 45.148438 34.054688 43.78125 32.496094 42.339844 C 32.121094 41.992188 31.90625 41.429688 31.675781 40.925781 C 31.644531 40.839844 31.789062 40.636719 31.90625 40.363281 C 32.527344 40.652344 33.074219 40.808594 33.492188 41.15625 C 35.105469 42.511719 36.691406 43.9375 38.304688 45.351562 C 38.8125 45.796875 39.273438 46.851562 39.128906 47.082031 M 37.195312 48.867188 C 36.75 48.667969 36.257812 48.523438 35.925781 48.21875 C 34.226562 46.777344 32.613281 45.324219 30.941406 43.882812 C 30.433594 43.433594 30.203125 42.914062 30.261719 42.296875 C 30.292969 42.007812 31.429688 42.207031 31.964844 42.671875 C 33.636719 44.140625 35.308594 45.566406 36.921875 47.039062 C 37.238281 47.355469 37.457031 47.832031 37.628906 48.261719 C 37.800781 48.636719 37.65625 48.824219 37.195312 48.855469 M 35.726562 50.46875 C 35.320312 50.265625 34.816406 50.121094 34.457031 49.820312 C 32.8125 48.40625 31.199219 46.980469 29.554688 45.539062 C 29.050781 45.0625 28.648438 44.097656 28.851562 43.867188 C 29.050781 43.636719 30.046875 43.867188 30.578125 44.34375 C 32.222656 45.753906 33.867188 47.183594 35.480469 48.652344 C 35.796875 48.941406 36.015625 49.445312 36.214844 49.847656 C 36.390625 50.265625 36.1875 50.410156 35.710938 50.46875 M 34.269531 52.140625 C 33.808594 51.882812 33.304688 51.664062 32.886719 51.320312 C 31.300781 50.007812 29.773438 48.652344 28.257812 47.269531 C 27.882812 46.894531 27.640625 46.359375 27.410156 45.882812 C 27.207031 45.4375 27.496094 45.292969 27.8125 45.421875 C 28.289062 45.539062 28.777344 45.683594 29.136719 45.984375 C 30.78125 47.371094 32.425781 48.796875 34.011719 50.265625 C 34.355469 50.585938 34.574219 51.117188 34.773438 51.550781 C 34.976562 51.980469 34.773438 52.113281 34.269531 52.140625 M 33.363281 53.582031 C 33.160156 53.8125 32.0625 53.523438 31.515625 53.019531 C 29.929688 51.609375 28.316406 50.238281 26.730469 48.796875 C 26.382812 48.480469 26.167969 48.003906 25.996094 47.601562 C 25.824219 47.195312 25.9375 46.921875 26.527344 46.953125 C 26.933594 47.183594 27.410156 47.324219 27.753906 47.65625 C 29.367188 49.042969 30.984375 50.441406 32.570312 51.851562 C 33.132812 52.355469 33.5625 53.351562 33.363281 53.582031 M 30.636719 54.347656 C 30.464844 54.460938 30.320312 54.664062 30.160156 54.820312 C 29.929688 55.140625 29.699219 55.140625 29.425781 54.878906 C 29.28125 54.734375 29.136719 54.621094 28.980469 54.503906 C 28.691406 54.273438 28.417969 53.914062 28.101562 53.855469 C 27.898438 53.828125 27.625 54.261719 27.363281 54.503906 C 27.277344 54.589844 27.132812 54.648438 26.988281 54.765625 C 26.542969 54.359375 26.109375 54 25.765625 53.566406 C 25.707031 53.480469 25.910156 53.09375 26.054688 52.949219 C 26.5 52.5 26.429688 52.183594 25.964844 51.839844 C 25.824219 51.75 25.707031 51.609375 25.546875 51.492188 C 24.785156 50.785156 24.785156 50.785156 25.492188 50.023438 C 26.054688 49.429688 26.054688 49.402344 26.714844 49.992188 C 27.984375 51.074219 29.238281 52.199219 30.523438 53.308594 C 30.941406 53.65625 31.085938 53.957031 30.609375 54.359375 M 72.296875 15.367188 L 43.4375 1.253906 C 40.152344 -0.359375 36.171875 0.75 34.226562 3.894531 L 2.46875 54.777344 C -1.582031 61.25 3.089844 69.640625 10.742188 69.640625 L 50.300781 69.871094 C 53.988281 69.871094 59.0625 69.640625 61.125 64.941406 C 61.125 64.941406 70.480469 35.449219 74.90625 21.957031 C 75.871094 18.957031 74.460938 16.59375 72.296875 15.351562 " clip-rule="nonzero"/></clipPath><clipPath id="7cb5f5226e"><rect x="0" width="76" y="0" height="70"/></clipPath></defs><g clip-path="url(#b8f80e06c5)"><g clip-path="url(#96e95ffd35)"><g transform="matrix(1, 0, 0, 1, 104, 85)"><g clip-path="url(#12efe546d3)"><g clip-path="url(#a62b72d0ea)"><g clip-path="url(#4f09e12f64)"><rect x="-153.473598" width="323.827186" fill="#ffffff" height="324" y="-134.5" fill-opacity="1"/></g></g></g></g></g></g><g clip-path="url(#07f2398bad)"><g clip-path="url(#efc0f7d38d)"><g transform="matrix(1, 0, 0, 1, 66, 38)"><g clip-path="url(#7df19c5e30)"><g clip-path="url(#b9181d1d10)"><g clip-path="url(#f5d1e703bc)"><rect x="-115.473598" width="323.827186" fill="#ffffff" height="324" y="-87.5" fill-opacity="1"/></g></g></g></g></g></g><g clip-path="url(#9d2ace071a)"><g clip-path="url(#c97ced3835)"><g transform="matrix(1, 0, 0, 1, 156, 149)"><g clip-path="url(#d580653bb6)"><g clip-path="url(#0f96a071e5)"><g clip-path="url(#73ebd5897a)"><rect x="-205.473598" width="323.827186" fill="#ffffff" height="324" y="-198.5" fill-opacity="1"/></g></g></g></g></g></g><g clip-path="url(#cd7bc462ae)"><g clip-path="url(#892b40f556)"><g transform="matrix(1, 0, 0, 1, 128, 117)"><g clip-path="url(#be7861eae2)"><g clip-path="url(#0db26730e6)"><g clip-path="url(#e4d5c52cd3)"><rect x="-177.473598" width="323.827186" fill="#ffffff" height="324" y="-166.5" fill-opacity="1"/></g></g></g></g></g></g><g clip-path="url(#33083ff487)"><g clip-path="url(#a0208357fe)"><g transform="matrix(1, 0, 0, 1, 21, 117)"><g clip-path="url(#7cb5f5226e)"><g clip-path="url(#af23d11219)"><g clip-path="url(#dcf6255986)"><rect x="-70.473598" width="323.827186" fill="#ffffff" height="324" y="-166.5" fill-opacity="1"/></g></g></g></g></g></g></svg>