<svg xmlns="http://www.w3.org/2000/svg" xmlns:xlink="http://www.w3.org/1999/xlink" width="300" zoomAndPan="magnify" viewBox="0 0 224.87999 225" height="300" preserveAspectRatio="xMidYMid meet" version="1.0"><defs><clipPath id="af100d16d8"><path d="M 12.359375 0.0585938 L 212.519531 0.0585938 L 212.519531 224.9375 L 12.359375 224.9375 Z M 12.359375 0.0585938 " clip-rule="nonzero"/></clipPath><clipPath id="15e3ab4ee7"><path d="M 108.679688 2.617188 C 110.988281 2.617188 113.300781 2.679688 115.628906 2.828125 C 94.222656 7.289062 76.667969 16.03125 63.367188 28.878906 C 62.847656 29.382812 62.832031 30.195312 63.335938 30.71875 C 63.597656 30.976562 63.9375 31.109375 64.28125 31.109375 C 64.621094 31.109375 64.929688 30.976562 65.191406 30.734375 C 79.925781 16.503906 100.082031 7.453125 125.089844 3.789062 C 126.832031 4.050781 128.558594 4.375 130.28125 4.714844 C 111.753906 22.640625 99.578125 44.179688 94.203125 68.894531 C 94.023438 69.710938 94.644531 70.476562 95.472656 70.476562 C 96.078125 70.476562 96.613281 70.050781 96.746094 69.449219 C 102.132812 44.6875 114.457031 23.148438 133.296875 5.382812 C 137.316406 6.296875 141.273438 7.386719 145.113281 8.738281 C 170.824219 46.019531 156.25 86.054688 156.527344 88.304688 C 150.097656 84.867188 143.453125 81.480469 136.617188 78.632812 C 134.207031 85.078125 132.007812 92.765625 129.957031 102.042969 C 129.8125 102.679688 129.257812 103.085938 128.671875 103.085938 C 128.574219 103.085938 128.492188 103.054688 128.394531 103.054688 C 127.695312 102.875 127.238281 102.175781 127.386719 101.492188 C 129.484375 92.03125 131.714844 84.214844 134.222656 77.671875 C 125.21875 74.074219 115.875 71.535156 106.136719 71.144531 C 105.308594 71.109375 104.527344 71.09375 103.777344 71.09375 C 100.050781 71.09375 97.394531 71.417969 96.761719 71.453125 C 85.933594 67.835938 85.363281 67.347656 75.546875 63.914062 C 75.90625 65.738281 71.964844 65.625 67.210938 83.484375 C 67.03125 84.039062 66.511719 84.429688 65.925781 84.429688 C 65.046875 84.429688 64.476562 83.582031 64.671875 82.785156 C 67.179688 73.40625 69.929688 67.152344 73.285156 63.214844 L 73.316406 63.179688 C 66.835938 61.015625 61.136719 59.421875 54.167969 58.574219 C 52.898438 58.425781 51.464844 58.265625 50.019531 58.265625 C 48.503906 58.265625 46.957031 58.445312 45.539062 59.011719 C 48.992188 51.460938 53.175781 44.554688 58.0625 38.53125 C 58.515625 37.976562 58.433594 37.148438 57.863281 36.691406 C 57.621094 36.496094 57.328125 36.398438 57.050781 36.398438 C 56.675781 36.398438 56.285156 36.5625 56.042969 36.886719 C 50.605469 43.59375 45.980469 51.328125 42.285156 59.84375 C 35.203125 56.863281 27.566406 55.285156 19.945312 55.285156 C 18.953125 55.285156 17.960938 55.316406 16.949219 55.367188 C 16.558594 55.382812 16.203125 55.464844 15.875 55.5625 C 33.410156 22.984375 69.832031 2.617188 108.679688 2.617188 Z M 149.28125 10.332031 C 150.585938 10.855469 151.886719 11.390625 153.175781 11.960938 C 178.996094 36.5625 204.230469 66.503906 197.996094 102.628906 C 196.90625 101.832031 195.699219 101.148438 194.464844 100.628906 C 191.011719 99.164062 187.445312 97.972656 183.898438 96.898438 C 184.074219 100.984375 183.34375 105.757812 181.632812 111.40625 C 181.46875 111.976562 180.949219 112.351562 180.394531 112.351562 C 180.265625 112.351562 180.121094 112.332031 179.988281 112.285156 C 179.289062 112.074219 178.914062 111.339844 179.109375 110.671875 C 180.882812 104.84375 181.585938 100.074219 181.210938 96.132812 C 174.421875 94.179688 161.101562 91.121094 159.75 90.273438 C 159.28125 89.65625 159.050781 89.65625 158.382812 89.28125 C 158.710938 89.117188 158.988281 88.871094 159.085938 88.480469 C 166.621094 58.769531 163.300781 32.523438 149.28125 10.351562 Z M 74.632812 92.113281 C 82.320312 96.703125 90.558594 100.203125 99.429688 102.664062 L 99.429688 147.972656 C 99.007812 147.988281 98.585938 148.039062 98.175781 148.121094 Z M 102.035156 103.347656 C 110.597656 105.480469 119.75 106.734375 129.519531 106.992188 C 131.292969 108.101562 133.050781 109.109375 134.808594 110.054688 L 102.019531 148.136719 L 102.019531 103.347656 Z M 37.5625 77.769531 C 42.074219 79.316406 50.390625 84.363281 66.65625 86.96875 C 68.007812 87.960938 69.425781 88.855469 70.824219 89.753906 L 95.621094 148.804688 C 90.445312 142.339844 76.296875 124.953125 37.546875 77.769531 Z M 137.171875 111.292969 C 147.378906 116.5 157.324219 119.105469 166.882812 119.105469 C 171.734375 119.105469 176.503906 118.4375 181.144531 117.089844 C 182.21875 118.164062 183.554688 118.765625 184.742188 119.222656 C 188.960938 120.914062 193.371094 121.972656 197.816406 122.429688 L 106.300781 152.417969 C 105.765625 151.34375 105.03125 150.398438 104.136719 149.667969 Z M 99.5625 150.5625 C 99.59375 150.5625 99.625 150.578125 99.660156 150.578125 C 99.722656 150.675781 99.789062 150.757812 99.871094 150.839844 C 99.609375 151.78125 100.359375 152.484375 101.140625 152.484375 C 101.480469 152.484375 101.839844 152.351562 102.117188 152.027344 L 102.457031 151.621094 C 102.996094 152.058594 103.46875 152.597656 103.828125 153.230469 L 103.808594 153.230469 C 102.34375 153.703125 102.832031 155.789062 104.167969 155.789062 C 104.316406 155.789062 104.460938 155.773438 104.625 155.707031 C 105.082031 159.433594 102.605469 162.542969 99.609375 162.542969 C 99.074219 162.542969 98.519531 162.445312 97.964844 162.234375 C 97.753906 161.957031 97.445312 161.84375 97.101562 161.796875 C 94.335938 160.003906 93.535156 155.820312 95.554688 152.839844 C 95.945312 153.328125 96.191406 153.65625 96.304688 153.800781 C 96.53125 154.207031 96.972656 154.453125 97.429688 154.453125 C 97.769531 154.453125 97.917969 154.371094 98.128906 154.226562 C 98.371094 154.386719 98.617188 154.453125 98.859375 154.453125 C 99.707031 154.453125 100.441406 153.558594 100.066406 152.644531 L 99.203125 150.609375 C 99.316406 150.59375 99.429688 150.5625 99.5625 150.5625 Z M 98.8125 165.085938 C 98.8125 165.101562 98.8125 165.117188 98.8125 165.117188 C 98.828125 165.230469 98.878906 165.3125 98.925781 165.410156 L 98.566406 165.28125 C 98.664062 165.214844 98.746094 165.164062 98.828125 165.085938 Z M 70.222656 162.902344 L 86.339844 163.71875 L 87.464844 164.109375 C 80.429688 165.964844 80.660156 165.71875 79.632812 166.242188 L 70.238281 162.886719 Z M 95.035156 166.808594 L 106.609375 170.914062 C 108.777344 172.378906 111.183594 174.023438 113.515625 175.601562 C 108.304688 175.324219 106.332031 175.78125 103.207031 174.675781 L 88.585938 169.464844 L 95.019531 166.808594 Z M 124 178.5 L 127.792969 178.597656 C 128.246094 178.90625 128.117188 179.265625 127.660156 181.527344 C 122.792969 207.058594 121.035156 210.265625 120.433594 212.640625 C 119.699219 215.117188 118.1875 220.292969 115.824219 220.488281 L 113.953125 220.652344 C 119.179688 206.390625 122.566406 192.226562 123.984375 178.5 Z M 85.804688 171.238281 C 105.714844 178.253906 101.207031 176.886719 103.84375 177.539062 L 96.042969 207.953125 C 95.863281 208.652344 96.289062 209.351562 96.988281 209.53125 C 97.101562 209.5625 97.199219 209.5625 97.3125 209.5625 C 97.898438 209.5625 98.421875 209.171875 98.566406 208.585938 L 106.429688 177.960938 C 108.644531 178.140625 112.765625 178.175781 116.996094 178.320312 C 115.988281 191.574219 112.570312 205.640625 106.59375 221.285156 L 95.066406 222.261719 L 96.90625 215.082031 C 97.085938 214.382812 96.664062 213.683594 95.960938 213.503906 C 95.847656 213.472656 95.734375 213.457031 95.636719 213.457031 C 95.050781 213.457031 94.53125 213.847656 94.382812 214.433594 L 92.429688 222.019531 C 90.671875 221.335938 82.921875 218.308594 74.75 215.117188 C 75.53125 209.890625 82.824219 179.183594 85.527344 171.777344 C 85.609375 171.546875 85.722656 171.417969 85.804688 171.238281 Z M 109.035156 0.0585938 C 70.140625 0.0585938 31.179688 19.515625 12.507812 56.230469 C 12.066406 57.09375 12.703125 58.117188 13.664062 58.117188 C 13.726562 58.117188 13.777344 58.070312 13.839844 58.070312 C 13.824219 58.816406 14.152344 59.601562 14.816406 60.316406 C 17.992188 63.769531 22.210938 65.574219 26.785156 66.941406 C 24.472656 68.636719 24.894531 71.828125 27.125 73.632812 C 29.179688 75.375 31.78125 76.140625 34.226562 76.777344 C 34.078125 77.199219 34.128906 77.671875 34.421875 78.03125 C 52.507812 100.089844 84.792969 139.457031 93.894531 150.757812 C 91.109375 154.109375 91.160156 159.15625 93.960938 162.464844 L 91.988281 162.96875 C 87.039062 161.226562 87.023438 161.160156 86.667969 161.144531 C 86.308594 161.128906 62.765625 159.921875 62.765625 159.921875 C 62.765625 159.921875 62.78125 159.921875 62.832031 159.921875 C 62.816406 159.921875 62.816406 159.921875 62.796875 159.941406 L 61.511719 159.875 C 61.480469 159.875 61.445312 159.875 61.414062 159.875 C 60.730469 159.875 60.292969 160.3125 60.160156 160.917969 C 60.160156 160.933594 60.160156 160.933594 60.160156 160.949219 C 58.207031 162.464844 57.785156 165.035156 57.199219 166.550781 C 56.96875 167.234375 57.34375 167.964844 58.011719 168.195312 C 58.140625 168.242188 58.289062 168.257812 58.417969 168.257812 C 58.957031 168.257812 59.460938 167.917969 59.65625 167.363281 C 60.273438 165.785156 60.664062 163.390625 62.015625 162.738281 L 77.597656 168.292969 C 77.46875 168.550781 77.355469 168.796875 77.273438 169.074219 C 72.8125 180.910156 69.164062 194.878906 66.101562 211.714844 C 59.054688 208.960938 53.339844 206.730469 53.226562 206.683594 C 51.761719 206.113281 51.320312 204.84375 51.53125 201.832031 C 52.25 191.703125 54.984375 181.96875 57.277344 174.609375 C 57.492188 173.925781 57.117188 173.191406 56.417969 172.980469 C 56.285156 172.949219 56.15625 172.914062 56.027344 172.914062 C 55.472656 172.914062 54.96875 173.273438 54.789062 173.828125 C 52.445312 181.316406 49.660156 191.246094 48.925781 201.636719 C 48.78125 203.574219 48.503906 207.625 52.230469 209.074219 C 52.265625 209.09375 52.28125 209.09375 91.84375 224.542969 C 92.445312 224.769531 93.097656 224.902344 93.765625 224.902344 C 93.910156 224.902344 94.058594 224.902344 94.203125 224.882812 C 94.5625 224.851562 112.097656 223.371094 112.097656 223.371094 L 116.054688 223.027344 C 120.1875 222.6875 121.914062 216.824219 122.941406 213.324219 C 123.6875 210.34375 125.203125 208.308594 130.496094 180.503906 C 130.773438 179.039062 130.804688 177.898438 129.730469 176.839844 C 129.597656 176.480469 129.371094 176.171875 128.996094 176.042969 L 115.078125 171.109375 L 103.417969 163.929688 C 106.1875 162.121094 107.800781 158.605469 107.132812 154.84375 C 209.589844 121.09375 203.613281 123.585938 204.070312 122.671875 C 205.730469 122.640625 207.375 122.558594 209.019531 122.347656 C 209.050781 122.3125 209.082031 122.3125 209.117188 122.3125 C 209.816406 122.25 210.335938 121.648438 210.304688 120.945312 C 210.238281 119.808594 210.140625 118.144531 209.199219 116.875 C 212.761719 105.96875 213.464844 93.691406 211.199219 81.300781 C 208.871094 68.570312 204.101562 56.605469 197.003906 45.710938 C 196.757812 45.320312 196.335938 45.125 195.910156 45.125 C 195.667969 45.125 195.421875 45.191406 195.195312 45.335938 C 194.59375 45.726562 194.414062 46.542969 194.820312 47.144531 C 207.617188 66.761719 214 92.617188 206.964844 115.265625 C 206.558594 115.085938 206.21875 114.972656 206.054688 114.921875 C 204.394531 114.222656 200.617188 112.660156 200.863281 110.609375 C 201.089844 109.925781 201.285156 109.355469 201.285156 108.410156 C 201.332031 106.441406 200.4375 105.171875 200.292969 104.828125 C 207.339844 69.480469 185.363281 40.144531 160.808594 15.753906 C 169.699219 20.640625 177.304688 26.355469 184.484375 33.972656 C 184.742188 34.25 185.085938 34.378906 185.425781 34.378906 C 185.753906 34.378906 186.0625 34.265625 186.324219 34.023438 C 186.84375 33.535156 186.875 32.703125 186.386719 32.183594 C 165.972656 10.496094 137.527344 0.0585938 109.035156 0.0585938 Z M 109.035156 0.0585938 " clip-rule="nonzero"/></clipPath><clipPath id="82a0ee2317"><path d="M 0.359375 0.0585938 L 200.519531 0.0585938 L 200.519531 224.9375 L 0.359375 224.9375 Z M 0.359375 0.0585938 " clip-rule="nonzero"/></clipPath><clipPath id="bdcdedad98"><path d="M 96.679688 2.617188 C 98.988281 2.617188 101.300781 2.679688 103.628906 2.828125 C 82.222656 7.289062 64.667969 16.03125 51.367188 28.878906 C 50.847656 29.382812 50.832031 30.195312 51.335938 30.71875 C 51.597656 30.976562 51.9375 31.109375 52.28125 31.109375 C 52.621094 31.109375 52.929688 30.976562 53.191406 30.734375 C 67.925781 16.503906 88.082031 7.453125 113.089844 3.789062 C 114.832031 4.050781 116.558594 4.375 118.28125 4.714844 C 99.753906 22.640625 87.578125 44.179688 82.203125 68.894531 C 82.023438 69.710938 82.644531 70.476562 83.472656 70.476562 C 84.078125 70.476562 84.613281 70.050781 84.746094 69.449219 C 90.132812 44.6875 102.457031 23.148438 121.296875 5.382812 C 125.316406 6.296875 129.273438 7.386719 133.113281 8.738281 C 158.824219 46.019531 144.25 86.054688 144.527344 88.304688 C 138.097656 84.867188 131.453125 81.480469 124.617188 78.632812 C 122.207031 85.078125 120.007812 92.765625 117.957031 102.042969 C 117.8125 102.679688 117.257812 103.085938 116.671875 103.085938 C 116.574219 103.085938 116.492188 103.054688 116.394531 103.054688 C 115.695312 102.875 115.238281 102.175781 115.386719 101.492188 C 117.484375 92.03125 119.714844 84.214844 122.222656 77.671875 C 113.21875 74.074219 103.875 71.535156 94.136719 71.144531 C 93.308594 71.109375 92.527344 71.09375 91.777344 71.09375 C 88.050781 71.09375 85.394531 71.417969 84.761719 71.453125 C 73.933594 67.835938 73.363281 67.347656 63.546875 63.914062 C 63.90625 65.738281 59.964844 65.625 55.210938 83.484375 C 55.03125 84.039062 54.511719 84.429688 53.925781 84.429688 C 53.046875 84.429688 52.476562 83.582031 52.671875 82.785156 C 55.179688 73.40625 57.929688 67.152344 61.285156 63.214844 L 61.316406 63.179688 C 54.835938 61.015625 49.136719 59.421875 42.167969 58.574219 C 40.898438 58.425781 39.464844 58.265625 38.019531 58.265625 C 36.503906 58.265625 34.957031 58.445312 33.539062 59.011719 C 36.992188 51.460938 41.175781 44.554688 46.0625 38.53125 C 46.515625 37.976562 46.433594 37.148438 45.863281 36.691406 C 45.621094 36.496094 45.328125 36.398438 45.050781 36.398438 C 44.675781 36.398438 44.285156 36.5625 44.042969 36.886719 C 38.605469 43.59375 33.980469 51.328125 30.285156 59.84375 C 23.203125 56.863281 15.566406 55.285156 7.945312 55.285156 C 6.953125 55.285156 5.960938 55.316406 4.949219 55.367188 C 4.558594 55.382812 4.203125 55.464844 3.875 55.5625 C 21.410156 22.984375 57.832031 2.617188 96.679688 2.617188 Z M 137.28125 10.332031 C 138.585938 10.855469 139.886719 11.390625 141.175781 11.960938 C 166.996094 36.5625 192.230469 66.503906 185.996094 102.628906 C 184.90625 101.832031 183.699219 101.148438 182.464844 100.628906 C 179.011719 99.164062 175.445312 97.972656 171.898438 96.898438 C 172.074219 100.984375 171.34375 105.757812 169.632812 111.40625 C 169.46875 111.976562 168.949219 112.351562 168.394531 112.351562 C 168.265625 112.351562 168.121094 112.332031 167.988281 112.285156 C 167.289062 112.074219 166.914062 111.339844 167.109375 110.671875 C 168.882812 104.84375 169.585938 100.074219 169.210938 96.132812 C 162.421875 94.179688 149.101562 91.121094 147.75 90.273438 C 147.28125 89.65625 147.050781 89.65625 146.382812 89.28125 C 146.710938 89.117188 146.988281 88.871094 147.085938 88.480469 C 154.621094 58.769531 151.300781 32.523438 137.28125 10.351562 Z M 62.632812 92.113281 C 70.320312 96.703125 78.558594 100.203125 87.429688 102.664062 L 87.429688 147.972656 C 87.007812 147.988281 86.585938 148.039062 86.175781 148.121094 Z M 90.035156 103.347656 C 98.597656 105.480469 107.75 106.734375 117.519531 106.992188 C 119.292969 108.101562 121.050781 109.109375 122.808594 110.054688 L 90.019531 148.136719 L 90.019531 103.347656 Z M 25.5625 77.769531 C 30.074219 79.316406 38.390625 84.363281 54.65625 86.96875 C 56.007812 87.960938 57.425781 88.855469 58.824219 89.753906 L 83.621094 148.804688 C 78.445312 142.339844 64.296875 124.953125 25.546875 77.769531 Z M 125.171875 111.292969 C 135.378906 116.5 145.324219 119.105469 154.882812 119.105469 C 159.734375 119.105469 164.503906 118.4375 169.144531 117.089844 C 170.21875 118.164062 171.554688 118.765625 172.742188 119.222656 C 176.960938 120.914062 181.371094 121.972656 185.816406 122.429688 L 94.300781 152.417969 C 93.765625 151.34375 93.03125 150.398438 92.136719 149.667969 Z M 87.5625 150.5625 C 87.59375 150.5625 87.625 150.578125 87.660156 150.578125 C 87.722656 150.675781 87.789062 150.757812 87.871094 150.839844 C 87.609375 151.78125 88.359375 152.484375 89.140625 152.484375 C 89.480469 152.484375 89.839844 152.351562 90.117188 152.027344 L 90.457031 151.621094 C 90.996094 152.058594 91.46875 152.597656 91.828125 153.230469 L 91.808594 153.230469 C 90.34375 153.703125 90.832031 155.789062 92.167969 155.789062 C 92.316406 155.789062 92.460938 155.773438 92.625 155.707031 C 93.082031 159.433594 90.605469 162.542969 87.609375 162.542969 C 87.074219 162.542969 86.519531 162.445312 85.964844 162.234375 C 85.753906 161.957031 85.445312 161.84375 85.101562 161.796875 C 82.335938 160.003906 81.535156 155.820312 83.554688 152.839844 C 83.945312 153.328125 84.191406 153.65625 84.304688 153.800781 C 84.53125 154.207031 84.972656 154.453125 85.429688 154.453125 C 85.769531 154.453125 85.917969 154.371094 86.128906 154.226562 C 86.371094 154.386719 86.617188 154.453125 86.859375 154.453125 C 87.707031 154.453125 88.441406 153.558594 88.066406 152.644531 L 87.203125 150.609375 C 87.316406 150.59375 87.429688 150.5625 87.5625 150.5625 Z M 86.8125 165.085938 C 86.8125 165.101562 86.8125 165.117188 86.8125 165.117188 C 86.828125 165.230469 86.878906 165.3125 86.925781 165.410156 L 86.566406 165.28125 C 86.664062 165.214844 86.746094 165.164062 86.828125 165.085938 Z M 58.222656 162.902344 L 74.339844 163.71875 L 75.464844 164.109375 C 68.429688 165.964844 68.660156 165.71875 67.632812 166.242188 L 58.238281 162.886719 Z M 83.035156 166.808594 L 94.609375 170.914062 C 96.777344 172.378906 99.183594 174.023438 101.515625 175.601562 C 96.304688 175.324219 94.332031 175.78125 91.207031 174.675781 L 76.585938 169.464844 L 83.019531 166.808594 Z M 112 178.5 L 115.792969 178.597656 C 116.246094 178.90625 116.117188 179.265625 115.660156 181.527344 C 110.792969 207.058594 109.035156 210.265625 108.433594 212.640625 C 107.699219 215.117188 106.1875 220.292969 103.824219 220.488281 L 101.953125 220.652344 C 107.179688 206.390625 110.566406 192.226562 111.984375 178.5 Z M 73.804688 171.238281 C 93.714844 178.253906 89.207031 176.886719 91.84375 177.539062 L 84.042969 207.953125 C 83.863281 208.652344 84.289062 209.351562 84.988281 209.53125 C 85.101562 209.5625 85.199219 209.5625 85.3125 209.5625 C 85.898438 209.5625 86.421875 209.171875 86.566406 208.585938 L 94.429688 177.960938 C 96.644531 178.140625 100.765625 178.175781 104.996094 178.320312 C 103.988281 191.574219 100.570312 205.640625 94.59375 221.285156 L 83.066406 222.261719 L 84.90625 215.082031 C 85.085938 214.382812 84.664062 213.683594 83.960938 213.503906 C 83.847656 213.472656 83.734375 213.457031 83.636719 213.457031 C 83.050781 213.457031 82.53125 213.847656 82.382812 214.433594 L 80.429688 222.019531 C 78.671875 221.335938 70.921875 218.308594 62.75 215.117188 C 63.53125 209.890625 70.824219 179.183594 73.527344 171.777344 C 73.609375 171.546875 73.722656 171.417969 73.804688 171.238281 Z M 97.035156 0.0585938 C 58.140625 0.0585938 19.179688 19.515625 0.507812 56.230469 C 0.0664062 57.09375 0.703125 58.117188 1.664062 58.117188 C 1.726562 58.117188 1.777344 58.070312 1.839844 58.070312 C 1.824219 58.816406 2.152344 59.601562 2.816406 60.316406 C 5.992188 63.769531 10.210938 65.574219 14.785156 66.941406 C 12.472656 68.636719 12.894531 71.828125 15.125 73.632812 C 17.179688 75.375 19.78125 76.140625 22.226562 76.777344 C 22.078125 77.199219 22.128906 77.671875 22.421875 78.03125 C 40.507812 100.089844 72.792969 139.457031 81.894531 150.757812 C 79.109375 154.109375 79.160156 159.15625 81.960938 162.464844 L 79.988281 162.96875 C 75.039062 161.226562 75.023438 161.160156 74.667969 161.144531 C 74.308594 161.128906 50.765625 159.921875 50.765625 159.921875 C 50.765625 159.921875 50.78125 159.921875 50.832031 159.921875 C 50.816406 159.921875 50.816406 159.921875 50.796875 159.941406 L 49.511719 159.875 C 49.480469 159.875 49.445312 159.875 49.414062 159.875 C 48.730469 159.875 48.292969 160.3125 48.160156 160.917969 C 48.160156 160.933594 48.160156 160.933594 48.160156 160.949219 C 46.207031 162.464844 45.785156 165.035156 45.199219 166.550781 C 44.96875 167.234375 45.34375 167.964844 46.011719 168.195312 C 46.140625 168.242188 46.289062 168.257812 46.417969 168.257812 C 46.957031 168.257812 47.460938 167.917969 47.65625 167.363281 C 48.273438 165.785156 48.664062 163.390625 50.015625 162.738281 L 65.597656 168.292969 C 65.46875 168.550781 65.355469 168.796875 65.273438 169.074219 C 60.8125 180.910156 57.164062 194.878906 54.101562 211.714844 C 47.054688 208.960938 41.339844 206.730469 41.226562 206.683594 C 39.761719 206.113281 39.320312 204.84375 39.53125 201.832031 C 40.25 191.703125 42.984375 181.96875 45.277344 174.609375 C 45.492188 173.925781 45.117188 173.191406 44.417969 172.980469 C 44.285156 172.949219 44.15625 172.914062 44.027344 172.914062 C 43.472656 172.914062 42.96875 173.273438 42.789062 173.828125 C 40.445312 181.316406 37.660156 191.246094 36.925781 201.636719 C 36.78125 203.574219 36.503906 207.625 40.230469 209.074219 C 40.265625 209.09375 40.28125 209.09375 79.84375 224.542969 C 80.445312 224.769531 81.097656 224.902344 81.765625 224.902344 C 81.910156 224.902344 82.058594 224.902344 82.203125 224.882812 C 82.5625 224.851562 100.097656 223.371094 100.097656 223.371094 L 104.054688 223.027344 C 108.1875 222.6875 109.914062 216.824219 110.941406 213.324219 C 111.6875 210.34375 113.203125 208.308594 118.496094 180.503906 C 118.773438 179.039062 118.804688 177.898438 117.730469 176.839844 C 117.597656 176.480469 117.371094 176.171875 116.996094 176.042969 L 103.078125 171.109375 L 91.417969 163.929688 C 94.1875 162.121094 95.800781 158.605469 95.132812 154.84375 C 197.589844 121.09375 191.613281 123.585938 192.070312 122.671875 C 193.730469 122.640625 195.375 122.558594 197.019531 122.347656 C 197.050781 122.3125 197.082031 122.3125 197.117188 122.3125 C 197.816406 122.25 198.335938 121.648438 198.304688 120.945312 C 198.238281 119.808594 198.140625 118.144531 197.199219 116.875 C 200.761719 105.96875 201.464844 93.691406 199.199219 81.300781 C 196.871094 68.570312 192.101562 56.605469 185.003906 45.710938 C 184.757812 45.320312 184.335938 45.125 183.910156 45.125 C 183.667969 45.125 183.421875 45.191406 183.195312 45.335938 C 182.59375 45.726562 182.414062 46.542969 182.820312 47.144531 C 195.617188 66.761719 202 92.617188 194.964844 115.265625 C 194.558594 115.085938 194.21875 114.972656 194.054688 114.921875 C 192.394531 114.222656 188.617188 112.660156 188.863281 110.609375 C 189.089844 109.925781 189.285156 109.355469 189.285156 108.410156 C 189.332031 106.441406 188.4375 105.171875 188.292969 104.828125 C 195.339844 69.480469 173.363281 40.144531 148.808594 15.753906 C 157.699219 20.640625 165.304688 26.355469 172.484375 33.972656 C 172.742188 34.25 173.085938 34.378906 173.425781 34.378906 C 173.753906 34.378906 174.0625 34.265625 174.324219 34.023438 C 174.84375 33.535156 174.875 32.703125 174.386719 32.183594 C 153.972656 10.496094 125.527344 0.0585938 97.035156 0.0585938 Z M 97.035156 0.0585938 " clip-rule="nonzero"/></clipPath><clipPath id="af4c8b2e2b"><rect x="0" width="201" y="0" height="225"/></clipPath></defs><g clip-path="url(#af100d16d8)"><g clip-path="url(#15e3ab4ee7)"><g transform="matrix(1, 0, 0, 1, 12, -0.000000000000003234)"><g clip-path="url(#af4c8b2e2b)"><g clip-path="url(#82a0ee2317)"><g clip-path="url(#bdcdedad98)"><path fill="#ffffff" d="M 0.359375 0.0585938 L 200.519531 0.0585938 L 200.519531 225.242188 L 0.359375 225.242188 Z M 0.359375 0.0585938 " fill-opacity="1" fill-rule="nonzero"/></g></g></g></g></g></g></svg>