<svg xmlns="http://www.w3.org/2000/svg" xmlns:xlink="http://www.w3.org/1999/xlink" width="1080" zoomAndPan="magnify" viewBox="0 0 810 1012.49997" height="1350" preserveAspectRatio="xMidYMid meet" version="1.0"><defs><clipPath id="53a7176df3"><path d="M 27.636719 317 L 782.515625 317 L 782.515625 883.515625 L 27.636719 883.515625 Z M 27.636719 317 " clip-rule="nonzero"/></clipPath><clipPath id="2bd9ba2ac2"><path d="M 27.636719 128.636719 L 782.515625 128.636719 L 782.515625 335 L 27.636719 335 Z M 27.636719 128.636719 " clip-rule="nonzero"/></clipPath></defs><g clip-path="url(#53a7176df3)"><path fill="#1f2937" d="M 705.683594 883.351562 L 104.304688 883.351562 C 61.761719 883.351562 27.636719 848.785156 27.636719 806.683594 L 27.636719 325.847656 C 27.636719 320.972656 31.625 317.425781 36.5 317.425781 L 773.488281 317.425781 C 778.363281 317.425781 782.351562 320.972656 782.351562 325.847656 L 782.351562 806.683594 C 782.351562 848.785156 747.785156 883.351562 705.683594 883.351562 Z M 45.363281 334.710938 L 45.363281 806.683594 C 45.363281 839.476562 71.511719 865.625 104.304688 865.625 L 705.683594 865.625 C 738.476562 865.625 764.625 839.476562 764.625 806.683594 L 764.625 334.710938 Z M 45.363281 334.710938 " fill-opacity="1" fill-rule="evenodd"/></g><g clip-path="url(#2bd9ba2ac2)"><path fill="#1f2937" d="M 773.488281 334.710938 L 36.5 334.710938 C 31.625 334.710938 27.636719 330.722656 27.636719 325.847656 L 27.636719 203.53125 C 27.636719 161.433594 61.320312 128.636719 104.304688 128.636719 L 705.683594 128.636719 C 748.671875 128.636719 782.351562 161.433594 782.351562 203.53125 L 782.351562 325.847656 C 782.351562 330.722656 778.363281 334.710938 773.488281 334.710938 Z M 45.363281 317.425781 L 764.625 317.425781 L 764.625 203.53125 C 764.625 171.183594 738.921875 146.363281 705.683594 146.363281 L 104.304688 146.363281 C 71.066406 146.363281 45.363281 171.183594 45.363281 203.53125 Z M 45.363281 317.425781 " fill-opacity="1" fill-rule="evenodd"/></g><path fill="#1f2937" d="M 143.746094 293.496094 C 109.179688 293.496094 80.375 266.019531 80.375 231.894531 C 80.375 197.328125 109.625 168.078125 143.746094 168.078125 C 178.316406 168.078125 205.789062 196.886719 205.789062 231.894531 C 205.789062 266.019531 178.316406 293.496094 143.746094 293.496094 Z M 289.992188 293.496094 C 255.867188 293.496094 227.949219 266.019531 227.949219 231.894531 C 227.949219 196.886719 255.867188 168.078125 289.992188 168.078125 C 324.117188 168.078125 352.035156 196.886719 352.035156 231.894531 C 352.035156 266.019531 324.117188 293.496094 289.992188 293.496094 Z M 435.792969 293.496094 C 401.671875 293.496094 373.75 266.019531 373.75 231.894531 C 373.75 196.886719 401.671875 168.078125 435.792969 168.078125 C 470.804688 168.078125 499.167969 196.886719 499.167969 231.894531 C 499.167969 266.460938 471.246094 293.496094 435.792969 293.496094 Z M 435.792969 293.496094 " fill-opacity="1" fill-rule="evenodd"/><path fill="#1f2937" d="M 691.058594 570.917969 C 688.84375 570.917969 686.183594 570.03125 684.855469 568.257812 L 513.792969 397.195312 C 510.246094 393.652344 510.246094 388.332031 513.792969 384.789062 C 517.335938 381.242188 522.65625 381.242188 526.199219 384.789062 L 697.261719 555.40625 C 700.808594 558.953125 700.808594 564.714844 697.261719 568.257812 C 695.488281 570.03125 693.273438 570.917969 691.058594 570.917969 Z M 691.058594 570.917969 " fill-opacity="1" fill-rule="evenodd"/><path fill="#1f2937" d="M 519.996094 570.917969 C 517.78125 570.917969 515.5625 570.03125 513.792969 568.257812 C 510.246094 564.714844 510.246094 558.953125 513.792969 555.40625 L 684.855469 384.789062 C 687.957031 381.242188 693.71875 381.242188 697.261719 384.789062 C 700.808594 387.890625 700.808594 393.652344 697.261719 397.195312 L 526.199219 568.257812 C 524.429688 570.03125 522.210938 570.917969 519.996094 570.917969 Z M 519.996094 570.917969 " fill-opacity="1" fill-rule="evenodd"/><path fill="#1f2937" d="M 691.058594 570.917969 L 519.996094 570.917969 C 515.121094 570.917969 511.132812 566.929688 511.132812 562.054688 L 511.132812 390.992188 C 511.132812 386.117188 515.121094 382.128906 519.996094 382.128906 L 691.058594 382.128906 C 695.933594 382.128906 699.921875 386.117188 699.921875 390.992188 L 699.921875 562.054688 C 699.921875 566.929688 695.933594 570.917969 691.058594 570.917969 Z M 528.859375 553.191406 L 682.195312 553.191406 L 682.195312 399.855469 L 528.859375 399.855469 Z M 528.859375 553.191406 " fill-opacity="1" fill-rule="evenodd"/><path fill="#1f2937" d="M 691.058594 815.546875 C 688.84375 815.546875 686.183594 814.660156 684.855469 812.886719 L 513.792969 641.824219 C 510.246094 638.28125 510.246094 632.960938 513.792969 629.417969 C 517.335938 625.871094 522.65625 625.871094 526.199219 629.417969 L 697.261719 800.480469 C 700.808594 803.582031 700.808594 809.34375 697.261719 812.886719 C 695.488281 814.660156 693.273438 815.546875 691.058594 815.546875 Z M 691.058594 815.546875 " fill-opacity="1" fill-rule="evenodd"/><path fill="#1f2937" d="M 519.996094 815.546875 C 517.78125 815.546875 515.5625 814.660156 513.792969 812.886719 C 510.246094 809.34375 510.246094 804.023438 513.792969 800.480469 L 684.855469 629.417969 C 687.957031 625.871094 693.71875 625.871094 697.261719 629.417969 C 700.808594 632.519531 700.808594 638.28125 697.261719 641.824219 L 526.199219 812.886719 C 524.429688 814.660156 522.210938 815.546875 519.996094 815.546875 Z M 519.996094 815.546875 " fill-opacity="1" fill-rule="evenodd"/><path fill="#1f2937" d="M 691.058594 815.546875 L 519.996094 815.546875 C 515.121094 815.546875 511.132812 811.558594 511.132812 806.683594 L 511.132812 635.621094 C 511.132812 630.746094 515.121094 626.757812 519.996094 626.757812 L 691.058594 626.757812 C 695.933594 626.757812 699.921875 630.746094 699.921875 635.621094 L 699.921875 806.683594 C 699.921875 811.558594 695.933594 815.546875 691.058594 815.546875 Z M 528.859375 797.820312 L 682.195312 797.820312 L 682.195312 644.484375 L 528.859375 644.484375 Z M 528.859375 797.820312 " fill-opacity="1" fill-rule="evenodd"/><path fill="#1f2937" d="M 430.035156 815.546875 C 428.703125 815.546875 426.929688 815.101562 425.601562 814.660156 L 114.5 643.597656 C 110.511719 640.9375 108.738281 635.621094 110.953125 631.632812 C 113.613281 627.199219 118.929688 625.429688 122.917969 628.085938 L 434.023438 799.148438 C 438.453125 801.363281 440.226562 806.683594 437.566406 811.113281 C 436.238281 813.773438 433.136719 815.546875 430.035156 815.546875 Z M 430.035156 815.546875 " fill-opacity="1" fill-rule="evenodd"/><path fill="#1f2937" d="M 118.929688 815.546875 C 115.828125 815.546875 112.726562 813.773438 110.953125 811.113281 C 108.738281 806.683594 110.511719 801.363281 114.5 799.148438 L 425.601562 628.085938 C 430.035156 625.429688 435.351562 627.199219 437.566406 631.632812 C 440.226562 635.621094 438.453125 641.382812 434.023438 643.597656 L 122.917969 814.660156 C 122.03125 815.101562 120.257812 815.546875 118.929688 815.546875 Z M 118.929688 815.546875 " fill-opacity="1" fill-rule="evenodd"/><path fill="#1f2937" d="M 430.035156 815.546875 L 118.929688 815.546875 C 114.054688 815.546875 110.066406 811.558594 110.066406 806.683594 L 110.066406 635.621094 C 110.066406 630.746094 114.054688 626.757812 118.929688 626.757812 L 430.035156 626.757812 C 434.90625 626.757812 438.898438 630.746094 438.898438 635.621094 L 438.898438 806.683594 C 438.898438 811.558594 434.90625 815.546875 430.035156 815.546875 Z M 127.792969 797.820312 L 421.167969 797.820312 L 421.167969 644.484375 L 127.792969 644.484375 Z M 127.792969 797.820312 " fill-opacity="1" fill-rule="evenodd"/><path fill="#1f2937" d="M 430.035156 418.914062 L 118.929688 418.914062 C 114.054688 418.914062 110.066406 414.921875 110.066406 410.050781 C 110.066406 405.175781 114.054688 401.183594 118.929688 401.183594 L 430.035156 401.183594 C 434.90625 401.183594 438.898438 405.175781 438.898438 410.050781 C 438.898438 414.921875 434.90625 418.914062 430.035156 418.914062 Z M 430.035156 418.914062 " fill-opacity="1" fill-rule="evenodd"/><path fill="#1f2937" d="M 430.035156 485.386719 L 118.929688 485.386719 C 114.054688 485.386719 110.066406 481.398438 110.066406 476.523438 C 110.066406 471.648438 114.054688 467.660156 118.929688 467.660156 L 430.035156 467.660156 C 434.90625 467.660156 438.898438 471.648438 438.898438 476.523438 C 438.898438 481.398438 434.90625 485.386719 430.035156 485.386719 Z M 430.035156 485.386719 " fill-opacity="1" fill-rule="evenodd"/><path fill="#1f2937" d="M 430.035156 551.417969 L 118.929688 551.417969 C 114.054688 551.417969 110.066406 547.429688 110.066406 543 C 110.066406 538.125 114.054688 534.136719 118.929688 534.136719 L 430.035156 534.136719 C 434.90625 534.136719 438.898438 538.125 438.898438 543 C 438.898438 547.429688 434.90625 551.417969 430.035156 551.417969 Z M 430.035156 551.417969 " fill-opacity="1" fill-rule="evenodd"/></svg>