<svg xmlns="http://www.w3.org/2000/svg" xmlns:xlink="http://www.w3.org/1999/xlink" width="1080" zoomAndPan="magnify" viewBox="0 0 810 1012.49997" height="1350" preserveAspectRatio="xMidYMid meet" version="1.0"><defs><clipPath id="5aeffb474b"><path d="M 27.636719 317 L 782.515625 317 L 782.515625 377.515625 L 27.636719 377.515625 Z M 27.636719 317 " clip-rule="nonzero"/></clipPath><clipPath id="64609c5056"><path d="M 27.636719 128.636719 L 782.515625 128.636719 L 782.515625 335 L 27.636719 335 Z M 27.636719 128.636719 " clip-rule="nonzero"/></clipPath><clipPath id="04846b3e8f"><path d="M 27.636719 317 L 103.351562 317 L 103.351562 883.515625 L 27.636719 883.515625 Z M 27.636719 317 " clip-rule="nonzero"/></clipPath><clipPath id="9dbbbae416"><path d="M 27.636719 128.636719 L 103.351562 128.636719 L 103.351562 335 L 27.636719 335 Z M 27.636719 128.636719 " clip-rule="nonzero"/></clipPath><clipPath id="a7a07f020d"><path d="M 80 168 L 103.351562 168 L 103.351562 294 L 80 294 Z M 80 168 " clip-rule="nonzero"/></clipPath><clipPath id="b2dc00de2d"><path d="M 708.847656 317 L 782.308594 317 L 782.308594 883.515625 L 708.847656 883.515625 Z M 708.847656 317 " clip-rule="nonzero"/></clipPath><clipPath id="99b9c5c41b"><path d="M 708.847656 128.636719 L 782.308594 128.636719 L 782.308594 335 L 708.847656 335 Z M 708.847656 128.636719 " clip-rule="nonzero"/></clipPath><clipPath id="69dcbcf0f9"><path d="M 43.738281 839.671875 L 782.121094 839.671875 L 782.121094 883.152344 L 43.738281 883.152344 Z M 43.738281 839.671875 " clip-rule="nonzero"/></clipPath><clipPath id="ae1b95f80f"><path d="M 102.128906 362.386719 L 707.828125 362.386719 L 707.828125 844.398438 L 102.128906 844.398438 Z M 102.128906 362.386719 " clip-rule="nonzero"/></clipPath></defs><g clip-path="url(#5aeffb474b)"><path fill="#1f2937" d="M 705.683594 883.351562 L 104.304688 883.351562 C 61.761719 883.351562 27.636719 848.785156 27.636719 806.683594 L 27.636719 325.847656 C 27.636719 320.972656 31.625 317.425781 36.5 317.425781 L 773.488281 317.425781 C 778.363281 317.425781 782.351562 320.972656 782.351562 325.847656 L 782.351562 806.683594 C 782.351562 848.785156 747.785156 883.351562 705.683594 883.351562 Z M 45.363281 334.710938 L 45.363281 806.683594 C 45.363281 839.476562 71.511719 865.625 104.304688 865.625 L 705.683594 865.625 C 738.476562 865.625 764.625 839.476562 764.625 806.683594 L 764.625 334.710938 Z M 45.363281 334.710938 " fill-opacity="1" fill-rule="evenodd"/></g><g clip-path="url(#64609c5056)"><path fill="#1f2937" d="M 773.488281 334.710938 L 36.5 334.710938 C 31.625 334.710938 27.636719 330.722656 27.636719 325.847656 L 27.636719 203.53125 C 27.636719 161.433594 61.320312 128.636719 104.304688 128.636719 L 705.683594 128.636719 C 748.671875 128.636719 782.351562 161.433594 782.351562 203.53125 L 782.351562 325.847656 C 782.351562 330.722656 778.363281 334.710938 773.488281 334.710938 Z M 45.363281 317.425781 L 764.625 317.425781 L 764.625 203.53125 C 764.625 171.183594 738.921875 146.363281 705.683594 146.363281 L 104.304688 146.363281 C 71.066406 146.363281 45.363281 171.183594 45.363281 203.53125 Z M 45.363281 317.425781 " fill-opacity="1" fill-rule="evenodd"/></g><path fill="#1f2937" d="M 143.746094 293.496094 C 109.179688 293.496094 80.375 266.019531 80.375 231.894531 C 80.375 197.328125 109.625 168.078125 143.746094 168.078125 C 178.316406 168.078125 205.789062 196.886719 205.789062 231.894531 C 205.789062 266.019531 178.316406 293.496094 143.746094 293.496094 Z M 289.992188 293.496094 C 255.867188 293.496094 227.949219 266.019531 227.949219 231.894531 C 227.949219 196.886719 255.867188 168.078125 289.992188 168.078125 C 324.117188 168.078125 352.035156 196.886719 352.035156 231.894531 C 352.035156 266.019531 324.117188 293.496094 289.992188 293.496094 Z M 435.792969 293.496094 C 401.671875 293.496094 373.75 266.019531 373.75 231.894531 C 373.75 196.886719 401.671875 168.078125 435.792969 168.078125 C 470.804688 168.078125 499.167969 196.886719 499.167969 231.894531 C 499.167969 266.460938 471.246094 293.496094 435.792969 293.496094 Z M 435.792969 293.496094 " fill-opacity="1" fill-rule="evenodd"/><g clip-path="url(#04846b3e8f)"><path fill="#1f2937" d="M 705.683594 883.351562 L 104.304688 883.351562 C 61.761719 883.351562 27.636719 848.785156 27.636719 806.683594 L 27.636719 325.847656 C 27.636719 320.972656 31.625 317.425781 36.5 317.425781 L 773.488281 317.425781 C 778.363281 317.425781 782.351562 320.972656 782.351562 325.847656 L 782.351562 806.683594 C 782.351562 848.785156 747.785156 883.351562 705.683594 883.351562 Z M 45.363281 334.710938 L 45.363281 806.683594 C 45.363281 839.476562 71.511719 865.625 104.304688 865.625 L 705.683594 865.625 C 738.476562 865.625 764.625 839.476562 764.625 806.683594 L 764.625 334.710938 Z M 45.363281 334.710938 " fill-opacity="1" fill-rule="evenodd"/></g><g clip-path="url(#9dbbbae416)"><path fill="#1f2937" d="M 773.488281 334.710938 L 36.5 334.710938 C 31.625 334.710938 27.636719 330.722656 27.636719 325.847656 L 27.636719 203.53125 C 27.636719 161.433594 61.320312 128.636719 104.304688 128.636719 L 705.683594 128.636719 C 748.671875 128.636719 782.351562 161.433594 782.351562 203.53125 L 782.351562 325.847656 C 782.351562 330.722656 778.363281 334.710938 773.488281 334.710938 Z M 45.363281 317.425781 L 764.625 317.425781 L 764.625 203.53125 C 764.625 171.183594 738.921875 146.363281 705.683594 146.363281 L 104.304688 146.363281 C 71.066406 146.363281 45.363281 171.183594 45.363281 203.53125 Z M 45.363281 317.425781 " fill-opacity="1" fill-rule="evenodd"/></g><g clip-path="url(#a7a07f020d)"><path fill="#1f2937" d="M 143.746094 293.496094 C 109.179688 293.496094 80.375 266.019531 80.375 231.894531 C 80.375 197.328125 109.625 168.078125 143.746094 168.078125 C 178.316406 168.078125 205.789062 196.886719 205.789062 231.894531 C 205.789062 266.019531 178.316406 293.496094 143.746094 293.496094 Z M 289.992188 293.496094 C 255.867188 293.496094 227.949219 266.019531 227.949219 231.894531 C 227.949219 196.886719 255.867188 168.078125 289.992188 168.078125 C 324.117188 168.078125 352.035156 196.886719 352.035156 231.894531 C 352.035156 266.019531 324.117188 293.496094 289.992188 293.496094 Z M 435.792969 293.496094 C 401.671875 293.496094 373.75 266.019531 373.75 231.894531 C 373.75 196.886719 401.671875 168.078125 435.792969 168.078125 C 470.804688 168.078125 499.167969 196.886719 499.167969 231.894531 C 499.167969 266.460938 471.246094 293.496094 435.792969 293.496094 Z M 435.792969 293.496094 " fill-opacity="1" fill-rule="evenodd"/></g><g clip-path="url(#b2dc00de2d)"><path fill="#1f2937" d="M 705.683594 883.351562 L 104.304688 883.351562 C 61.761719 883.351562 27.636719 848.785156 27.636719 806.683594 L 27.636719 325.847656 C 27.636719 320.972656 31.625 317.425781 36.5 317.425781 L 773.488281 317.425781 C 778.363281 317.425781 782.351562 320.972656 782.351562 325.847656 L 782.351562 806.683594 C 782.351562 848.785156 747.785156 883.351562 705.683594 883.351562 Z M 45.363281 334.710938 L 45.363281 806.683594 C 45.363281 839.476562 71.511719 865.625 104.304688 865.625 L 705.683594 865.625 C 738.476562 865.625 764.625 839.476562 764.625 806.683594 L 764.625 334.710938 Z M 45.363281 334.710938 " fill-opacity="1" fill-rule="evenodd"/></g><g clip-path="url(#99b9c5c41b)"><path fill="#1f2937" d="M 773.488281 334.710938 L 36.5 334.710938 C 31.625 334.710938 27.636719 330.722656 27.636719 325.847656 L 27.636719 203.53125 C 27.636719 161.433594 61.320312 128.636719 104.304688 128.636719 L 705.683594 128.636719 C 748.671875 128.636719 782.351562 161.433594 782.351562 203.53125 L 782.351562 325.847656 C 782.351562 330.722656 778.363281 334.710938 773.488281 334.710938 Z M 45.363281 317.425781 L 764.625 317.425781 L 764.625 203.53125 C 764.625 171.183594 738.921875 146.363281 705.683594 146.363281 L 104.304688 146.363281 C 71.066406 146.363281 45.363281 171.183594 45.363281 203.53125 Z M 45.363281 317.425781 " fill-opacity="1" fill-rule="evenodd"/></g><g clip-path="url(#69dcbcf0f9)"><path fill="#1f2937" d="M 705.683594 883.351562 L 104.304688 883.351562 C 61.761719 883.351562 27.636719 848.785156 27.636719 806.683594 L 27.636719 325.847656 C 27.636719 320.972656 31.625 317.425781 36.5 317.425781 L 773.488281 317.425781 C 778.363281 317.425781 782.351562 320.972656 782.351562 325.847656 L 782.351562 806.683594 C 782.351562 848.785156 747.785156 883.351562 705.683594 883.351562 Z M 45.363281 334.710938 L 45.363281 806.683594 C 45.363281 839.476562 71.511719 865.625 104.304688 865.625 L 705.683594 865.625 C 738.476562 865.625 764.625 839.476562 764.625 806.683594 L 764.625 334.710938 Z M 45.363281 334.710938 " fill-opacity="1" fill-rule="evenodd"/></g><g clip-path="url(#ae1b95f80f)"><path fill="#1f2937" d="M 572.671875 483.414062 C 572.667969 482.925781 572.578125 482.457031 572.390625 482.007812 C 572.203125 481.558594 571.941406 481.164062 571.59375 480.820312 C 571.25 480.476562 570.855469 480.210938 570.40625 480.023438 C 569.957031 479.839844 569.488281 479.746094 569.003906 479.746094 L 240.960938 479.746094 C 240.472656 479.746094 240.003906 479.839844 239.554688 480.023438 C 239.105469 480.210938 238.710938 480.476562 238.367188 480.820312 C 238.023438 481.164062 237.757812 481.558594 237.570312 482.007812 C 237.386719 482.457031 237.292969 482.925781 237.292969 483.414062 L 237.292969 572.53125 C 237.292969 573.019531 237.382812 573.488281 237.570312 573.941406 C 237.757812 574.390625 238.019531 574.789062 238.363281 575.136719 C 238.707031 575.480469 239.105469 575.75 239.554688 575.941406 C 240.003906 576.128906 240.472656 576.226562 240.960938 576.230469 L 569.003906 576.230469 C 569.488281 576.226562 569.957031 576.128906 570.40625 575.941406 C 570.859375 575.75 571.253906 575.480469 571.597656 575.136719 C 571.941406 574.789062 572.207031 574.390625 572.390625 573.941406 C 572.578125 573.488281 572.667969 573.019531 572.671875 572.53125 Z M 335.808594 553.796875 C 335.808594 554.289062 335.761719 554.773438 335.664062 555.253906 C 335.570312 555.734375 335.425781 556.199219 335.238281 556.652344 C 335.050781 557.105469 334.824219 557.535156 334.550781 557.941406 C 334.277344 558.347656 333.96875 558.726562 333.625 559.070312 C 333.277344 559.417969 332.902344 559.726562 332.492188 560 C 332.085938 560.269531 331.65625 560.5 331.203125 560.6875 C 330.75 560.875 330.285156 561.015625 329.804688 561.113281 C 329.324219 561.207031 328.839844 561.253906 328.351562 561.253906 L 259.632812 561.253906 C 259.140625 561.253906 258.65625 561.207031 258.175781 561.113281 C 257.695312 561.015625 257.230469 560.875 256.777344 560.6875 C 256.324219 560.5 255.894531 560.269531 255.488281 560 C 255.082031 559.726562 254.707031 559.417969 254.359375 559.070312 C 254.011719 558.726562 253.703125 558.347656 253.433594 557.941406 C 253.160156 557.535156 252.929688 557.105469 252.742188 556.652344 C 252.554688 556.199219 252.414062 555.734375 252.320312 555.253906 C 252.222656 554.773438 252.175781 554.289062 252.175781 553.796875 L 252.175781 502.117188 C 252.175781 501.625 252.222656 501.140625 252.320312 500.660156 C 252.414062 500.179688 252.554688 499.714844 252.742188 499.261719 C 252.929688 498.808594 253.160156 498.378906 253.433594 497.972656 C 253.703125 497.566406 254.011719 497.1875 254.359375 496.84375 C 254.707031 496.496094 255.082031 496.1875 255.488281 495.914062 C 255.894531 495.644531 256.324219 495.414062 256.777344 495.226562 C 257.230469 495.039062 257.695312 494.898438 258.175781 494.800781 C 258.65625 494.707031 259.140625 494.660156 259.632812 494.660156 L 328.351562 494.660156 C 328.839844 494.660156 329.324219 494.707031 329.804688 494.800781 C 330.285156 494.898438 330.753906 495.039062 331.203125 495.226562 C 331.65625 495.414062 332.085938 495.644531 332.492188 495.914062 C 332.902344 496.1875 333.277344 496.496094 333.625 496.84375 C 333.96875 497.1875 334.277344 497.566406 334.550781 497.972656 C 334.824219 498.378906 335.050781 498.808594 335.238281 499.261719 C 335.425781 499.714844 335.570312 500.179688 335.664062 500.660156 C 335.761719 501.140625 335.808594 501.625 335.808594 502.117188 Z M 557.757812 553.796875 C 557.757812 554.289062 557.707031 554.773438 557.613281 555.253906 C 557.515625 555.734375 557.375 556.199219 557.1875 556.652344 C 557 557.105469 556.769531 557.535156 556.5 557.941406 C 556.226562 558.347656 555.917969 558.726562 555.570312 559.070312 C 555.226562 559.417969 554.847656 559.726562 554.441406 560 C 554.035156 560.269531 553.605469 560.5 553.152344 560.6875 C 552.699219 560.875 552.234375 561.015625 551.753906 561.113281 C 551.273438 561.207031 550.789062 561.253906 550.300781 561.253906 L 352.8125 561.253906 C 352.324219 561.253906 351.839844 561.207031 351.359375 561.113281 C 350.878906 561.015625 350.410156 560.875 349.960938 560.6875 C 349.507812 560.5 349.078125 560.269531 348.671875 560 C 348.261719 559.726562 347.886719 559.417969 347.539062 559.070312 C 347.195312 558.726562 346.882812 558.347656 346.613281 557.941406 C 346.339844 557.535156 346.109375 557.105469 345.921875 556.652344 C 345.734375 556.199219 345.59375 555.734375 345.5 555.253906 C 345.402344 554.773438 345.355469 554.289062 345.355469 553.796875 L 345.355469 502.117188 C 345.355469 501.625 345.402344 501.140625 345.5 500.660156 C 345.59375 500.179688 345.734375 499.714844 345.921875 499.261719 C 346.109375 498.808594 346.339844 498.378906 346.613281 497.972656 C 346.886719 497.566406 347.195312 497.1875 347.539062 496.84375 C 347.886719 496.496094 348.261719 496.1875 348.671875 495.914062 C 349.078125 495.644531 349.507812 495.414062 349.960938 495.226562 C 350.410156 495.039062 350.878906 494.898438 351.359375 494.800781 C 351.839844 494.707031 352.324219 494.660156 352.8125 494.660156 L 384.1875 494.660156 C 384.675781 494.660156 385.160156 494.707031 385.640625 494.800781 C 386.121094 494.898438 386.585938 495.039062 387.039062 495.226562 C 387.492188 495.414062 387.921875 495.644531 388.328125 495.914062 C 388.738281 496.1875 389.113281 496.496094 389.460938 496.84375 C 389.804688 497.1875 390.113281 497.566406 390.386719 497.972656 C 390.660156 498.378906 390.886719 498.808594 391.074219 499.261719 C 391.261719 499.714844 391.40625 500.179688 391.5 500.660156 C 391.59375 501.140625 391.644531 501.625 391.644531 502.117188 C 391.644531 502.605469 391.59375 503.089844 391.5 503.570312 C 391.40625 504.050781 391.261719 504.515625 391.074219 504.96875 C 390.886719 505.421875 390.660156 505.851562 390.386719 506.257812 C 390.113281 506.664062 389.804688 507.042969 389.460938 507.386719 C 389.113281 507.734375 388.738281 508.042969 388.328125 508.316406 C 387.921875 508.585938 387.492188 508.816406 387.039062 509.003906 C 386.585938 509.191406 386.121094 509.332031 385.640625 509.429688 C 385.160156 509.523438 384.675781 509.574219 384.1875 509.574219 L 360.269531 509.574219 L 360.269531 546.339844 L 542.84375 546.339844 L 542.84375 509.574219 L 415.742188 509.574219 C 405.980469 509.421875 405.921875 494.808594 415.742188 494.660156 L 550.300781 494.660156 C 550.789062 494.660156 551.273438 494.707031 551.753906 494.800781 C 552.234375 494.898438 552.699219 495.039062 553.152344 495.226562 C 553.605469 495.414062 554.035156 495.644531 554.441406 495.914062 C 554.847656 496.1875 555.226562 496.496094 555.570312 496.84375 C 555.917969 497.1875 556.226562 497.566406 556.5 497.972656 C 556.773438 498.378906 557 498.808594 557.1875 499.261719 C 557.375 499.714844 557.515625 500.179688 557.613281 500.660156 C 557.707031 501.140625 557.757812 501.625 557.757812 502.117188 Z M 473.214844 630.609375 L 240.960938 630.609375 C 240.472656 630.613281 240.003906 630.710938 239.554688 630.902344 C 239.105469 631.089844 238.707031 631.359375 238.363281 631.703125 C 238.019531 632.050781 237.757812 632.449219 237.570312 632.898438 C 237.382812 633.351562 237.292969 633.820312 237.292969 634.308594 L 237.292969 723.425781 C 237.292969 723.914062 237.386719 724.382812 237.570312 724.832031 C 237.757812 725.28125 238.023438 725.675781 238.367188 726.019531 C 238.710938 726.363281 239.105469 726.628906 239.554688 726.816406 C 240.003906 727.003906 240.472656 727.09375 240.960938 727.09375 L 569.003906 727.09375 C 569.488281 727.09375 569.957031 727.003906 570.40625 726.816406 C 570.855469 726.628906 571.25 726.363281 571.59375 726.019531 C 571.941406 725.675781 572.203125 725.28125 572.390625 724.832031 C 572.578125 724.382812 572.667969 723.914062 572.671875 723.425781 L 572.671875 634.308594 C 572.488281 630.429688 568.882812 630.488281 565.878906 630.609375 L 516.53125 630.609375 C 506.679688 630.457031 506.738281 615.847656 516.53125 615.695312 L 558.421875 615.695312 L 558.421875 591.144531 L 251.539062 591.144531 L 251.539062 615.695312 L 473.214844 615.695312 C 483.003906 615.878906 483.035156 630.457031 473.214844 630.609375 Z M 335.808594 704.726562 C 335.808594 705.214844 335.761719 705.699219 335.664062 706.179688 C 335.570312 706.660156 335.425781 707.125 335.238281 707.578125 C 335.050781 708.03125 334.824219 708.460938 334.550781 708.867188 C 334.277344 709.273438 333.96875 709.652344 333.625 709.996094 C 333.277344 710.34375 332.902344 710.652344 332.492188 710.925781 C 332.085938 711.195312 331.65625 711.425781 331.203125 711.613281 C 330.75 711.800781 330.285156 711.941406 329.804688 712.039062 C 329.324219 712.132812 328.839844 712.179688 328.351562 712.179688 L 259.632812 712.179688 C 259.140625 712.179688 258.65625 712.132812 258.175781 712.039062 C 257.695312 711.941406 257.230469 711.800781 256.777344 711.613281 C 256.324219 711.425781 255.894531 711.195312 255.488281 710.925781 C 255.082031 710.652344 254.707031 710.34375 254.359375 709.996094 C 254.011719 709.652344 253.703125 709.273438 253.433594 708.867188 C 253.160156 708.460938 252.929688 708.03125 252.742188 707.578125 C 252.554688 707.125 252.414062 706.660156 252.320312 706.179688 C 252.222656 705.699219 252.175781 705.214844 252.175781 704.726562 L 252.175781 653.042969 C 252.175781 652.550781 252.222656 652.066406 252.316406 651.585938 C 252.414062 651.105469 252.554688 650.636719 252.742188 650.183594 C 252.929688 649.730469 253.160156 649.300781 253.429688 648.890625 C 253.703125 648.484375 254.011719 648.105469 254.359375 647.757812 C 254.703125 647.410156 255.078125 647.101562 255.488281 646.828125 C 255.894531 646.554688 256.324219 646.324219 256.777344 646.132812 C 257.230469 645.945312 257.695312 645.800781 258.175781 645.703125 C 258.65625 645.605469 259.140625 645.554688 259.632812 645.554688 L 328.351562 645.554688 C 328.839844 645.554688 329.328125 645.605469 329.808594 645.703125 C 330.289062 645.800781 330.753906 645.945312 331.207031 646.132812 C 331.660156 646.320312 332.089844 646.554688 332.496094 646.828125 C 332.902344 647.101562 333.277344 647.410156 333.625 647.757812 C 333.972656 648.105469 334.28125 648.484375 334.550781 648.890625 C 334.824219 649.300781 335.054688 649.730469 335.242188 650.183594 C 335.429688 650.636719 335.570312 651.105469 335.664062 651.585938 C 335.761719 652.066406 335.808594 652.550781 335.808594 653.042969 Z M 550.300781 645.554688 C 550.789062 645.554688 551.273438 645.605469 551.753906 645.703125 C 552.234375 645.800781 552.703125 645.945312 553.15625 646.132812 C 553.609375 646.320312 554.039062 646.554688 554.445312 646.828125 C 554.851562 647.101562 555.226562 647.410156 555.574219 647.757812 C 555.921875 648.105469 556.230469 648.484375 556.5 648.890625 C 556.773438 649.300781 557 649.730469 557.1875 650.183594 C 557.375 650.636719 557.519531 651.105469 557.613281 651.585938 C 557.707031 652.066406 557.757812 652.550781 557.757812 653.042969 L 557.757812 704.726562 C 557.757812 705.214844 557.707031 705.699219 557.613281 706.179688 C 557.515625 706.660156 557.375 707.125 557.1875 707.578125 C 557 708.03125 556.769531 708.460938 556.5 708.867188 C 556.226562 709.273438 555.917969 709.652344 555.570312 709.996094 C 555.226562 710.34375 554.847656 710.652344 554.441406 710.925781 C 554.035156 711.195312 553.605469 711.425781 553.152344 711.613281 C 552.699219 711.800781 552.234375 711.941406 551.753906 712.039062 C 551.273438 712.132812 550.789062 712.179688 550.300781 712.179688 L 352.8125 712.179688 C 352.324219 712.179688 351.839844 712.132812 351.359375 712.039062 C 350.878906 711.941406 350.410156 711.800781 349.960938 711.613281 C 349.507812 711.425781 349.078125 711.195312 348.671875 710.925781 C 348.261719 710.652344 347.886719 710.34375 347.539062 709.996094 C 347.195312 709.652344 346.882812 709.273438 346.613281 708.867188 C 346.339844 708.460938 346.109375 708.03125 345.921875 707.578125 C 345.734375 707.125 345.59375 706.660156 345.5 706.179688 C 345.402344 705.699219 345.355469 705.214844 345.355469 704.726562 L 345.355469 653.042969 C 345.355469 652.550781 345.402344 652.066406 345.5 651.585938 C 345.59375 651.105469 345.734375 650.636719 345.921875 650.183594 C 346.109375 649.730469 346.339844 649.300781 346.613281 648.890625 C 346.882812 648.484375 347.191406 648.105469 347.539062 647.757812 C 347.882812 647.410156 348.261719 647.101562 348.667969 646.828125 C 349.074219 646.554688 349.503906 646.320312 349.957031 646.132812 C 350.410156 645.945312 350.875 645.800781 351.355469 645.703125 C 351.835938 645.605469 352.324219 645.554688 352.8125 645.554688 Z M 267.121094 509.574219 L 320.894531 509.574219 L 320.894531 546.339844 L 267.121094 546.339844 Z M 267.121094 660.5 L 320.894531 660.5 L 320.894531 697.269531 L 267.121094 697.269531 Z M 542.84375 697.269531 L 360.269531 697.269531 L 360.269531 660.5 L 542.84375 660.5 Z M 679.792969 362.40625 C 717.199219 363.585938 717.199219 417.875 679.792969 419.058594 C 642.390625 417.875 642.359375 363.617188 679.792969 362.40625 Z M 679.792969 844.433594 C 642.390625 843.253906 642.359375 788.992188 679.792969 787.78125 C 717.199219 788.964844 717.199219 843.253906 679.792969 844.433594 Z M 679.792969 631.730469 C 642.390625 630.550781 642.359375 576.289062 679.792969 575.078125 C 717.199219 576.289062 717.199219 630.550781 679.792969 631.730469 Z M 130.167969 419.058594 C 92.761719 417.875 92.761719 363.617188 130.167969 362.40625 C 167.601562 363.585938 167.601562 417.875 130.167969 419.058594 Z M 130.167969 844.433594 C 92.761719 843.253906 92.761719 788.964844 130.167969 787.78125 C 167.601562 788.964844 167.601562 843.222656 130.167969 844.433594 Z M 130.167969 631.730469 C 92.761719 630.550781 92.761719 576.289062 130.167969 575.078125 C 167.601562 576.261719 167.601562 630.550781 130.167969 631.730469 Z M 637.234375 383.261719 C 636.320312 388.242188 636.320312 393.222656 637.234375 398.203125 L 568.546875 398.203125 L 507.863281 458.890625 C 500.921875 465.769531 490.433594 455.28125 497.3125 448.339844 L 560.210938 385.472656 C 560.90625 384.761719 561.707031 384.214844 562.625 383.832031 C 563.539062 383.445312 564.492188 383.257812 565.484375 383.261719 Z M 637.234375 808.636719 C 636.320312 813.617188 636.320312 818.597656 637.234375 823.582031 L 565.484375 823.582031 C 564.492188 823.582031 563.539062 823.394531 562.625 823.007812 C 561.707031 822.625 560.90625 822.078125 560.210938 821.367188 L 497.28125 758.46875 C 496.9375 758.121094 496.628906 757.746094 496.355469 757.339844 C 496.085938 756.929688 495.855469 756.5 495.667969 756.050781 C 495.480469 755.597656 495.339844 755.128906 495.246094 754.648438 C 495.148438 754.171875 495.101562 753.683594 495.101562 753.195312 C 495.101562 752.707031 495.148438 752.222656 495.246094 751.742188 C 495.339844 751.261719 495.484375 750.796875 495.671875 750.34375 C 495.859375 749.890625 496.085938 749.460938 496.359375 749.054688 C 496.632812 748.648438 496.941406 748.269531 497.285156 747.925781 C 497.632812 747.578125 498.007812 747.269531 498.417969 746.996094 C 498.824219 746.726562 499.253906 746.496094 499.707031 746.308594 C 500.15625 746.121094 500.625 745.980469 501.105469 745.882812 C 501.582031 745.789062 502.070312 745.738281 502.558594 745.738281 C 503.046875 745.738281 503.53125 745.785156 504.011719 745.882812 C 504.492188 745.976562 504.960938 746.117188 505.410156 746.304688 C 505.863281 746.492188 506.292969 746.722656 506.699219 746.992188 C 507.109375 747.265625 507.484375 747.574219 507.832031 747.921875 L 568.546875 808.636719 Z M 637.234375 595.964844 C 636.320312 600.933594 636.320312 605.90625 637.234375 610.878906 L 584.339844 610.878906 C 574.519531 610.695312 574.519531 596.113281 584.339844 595.964844 Z M 172.726562 398.203125 C 173.644531 393.222656 173.644531 388.242188 172.726562 383.261719 L 244.507812 383.261719 C 245.496094 383.261719 246.449219 383.453125 247.363281 383.839844 C 248.277344 384.222656 249.085938 384.765625 249.78125 385.472656 L 312.648438 448.339844 C 317.4375 452.796875 313.738281 461.316406 307.375 461.101562 C 306.382812 461.105469 305.429688 460.914062 304.511719 460.53125 C 303.597656 460.148438 302.792969 459.601562 302.101562 458.890625 L 241.414062 398.203125 Z M 312.679688 758.46875 L 249.78125 821.367188 C 249.085938 822.074219 248.277344 822.617188 247.363281 823.003906 C 246.449219 823.386719 245.496094 823.578125 244.507812 823.582031 L 172.726562 823.582031 C 173.644531 818.597656 173.644531 813.617188 172.726562 808.636719 L 241.414062 808.636719 L 302.128906 747.921875 C 309.070312 741.039062 319.53125 751.558594 312.679688 758.46875 Z M 172.726562 610.878906 C 173.644531 605.90625 173.644531 600.933594 172.726562 595.964844 L 225.195312 595.964844 C 235.019531 596.113281 235.019531 610.695312 225.195312 610.878906 Z M 172.726562 610.878906 " fill-opacity="1" fill-rule="nonzero"/></g></svg>