<svg xmlns="http://www.w3.org/2000/svg" xmlns:xlink="http://www.w3.org/1999/xlink" width="1080" zoomAndPan="magnify" viewBox="0 0 810 1012.49997" height="1350" preserveAspectRatio="xMidYMid meet" version="1.0"><defs><clipPath id="c5cea3913a"><path d="M 27.636719 317 L 782.515625 317 L 782.515625 377.515625 L 27.636719 377.515625 Z M 27.636719 317 " clip-rule="nonzero"/></clipPath><clipPath id="72af2b8840"><path d="M 27.636719 128.636719 L 782.515625 128.636719 L 782.515625 335 L 27.636719 335 Z M 27.636719 128.636719 " clip-rule="nonzero"/></clipPath><clipPath id="7afb01faa5"><path d="M 27.636719 317 L 103.351562 317 L 103.351562 883.515625 L 27.636719 883.515625 Z M 27.636719 317 " clip-rule="nonzero"/></clipPath><clipPath id="9645dc9f39"><path d="M 27.636719 128.636719 L 103.351562 128.636719 L 103.351562 335 L 27.636719 335 Z M 27.636719 128.636719 " clip-rule="nonzero"/></clipPath><clipPath id="f98fab837b"><path d="M 80 168 L 103.351562 168 L 103.351562 294 L 80 294 Z M 80 168 " clip-rule="nonzero"/></clipPath><clipPath id="5ad6dc8863"><path d="M 708.847656 317 L 782.308594 317 L 782.308594 883.515625 L 708.847656 883.515625 Z M 708.847656 317 " clip-rule="nonzero"/></clipPath><clipPath id="ffc2eb507e"><path d="M 708.847656 128.636719 L 782.308594 128.636719 L 782.308594 335 L 708.847656 335 Z M 708.847656 128.636719 " clip-rule="nonzero"/></clipPath><clipPath id="567014122a"><path d="M 43.738281 839.671875 L 782.121094 839.671875 L 782.121094 883.152344 L 43.738281 883.152344 Z M 43.738281 839.671875 " clip-rule="nonzero"/></clipPath><clipPath id="6667893aff"><path d="M 118.777344 402.160156 L 585.046875 402.160156 L 585.046875 766.480469 L 118.777344 766.480469 Z M 118.777344 402.160156 " clip-rule="nonzero"/></clipPath><clipPath id="bf6d552d97"><path d="M 507.820312 402.160156 L 622.511719 402.160156 L 622.511719 746.988281 L 507.820312 746.988281 Z M 507.820312 402.160156 " clip-rule="nonzero"/></clipPath><clipPath id="f1c5d0c93f"><path d="M 527.707031 402.160156 L 691.125 402.160156 L 691.125 731.246094 L 527.707031 731.246094 Z M 527.707031 402.160156 " clip-rule="nonzero"/></clipPath></defs><g clip-path="url(#c5cea3913a)"><path fill="#e6eaf2" d="M 705.683594 883.351562 L 104.304688 883.351562 C 61.761719 883.351562 27.636719 848.785156 27.636719 806.683594 L 27.636719 325.847656 C 27.636719 320.972656 31.625 317.425781 36.5 317.425781 L 773.488281 317.425781 C 778.363281 317.425781 782.351562 320.972656 782.351562 325.847656 L 782.351562 806.683594 C 782.351562 848.785156 747.785156 883.351562 705.683594 883.351562 Z M 45.363281 334.710938 L 45.363281 806.683594 C 45.363281 839.476562 71.511719 865.625 104.304688 865.625 L 705.683594 865.625 C 738.476562 865.625 764.625 839.476562 764.625 806.683594 L 764.625 334.710938 Z M 45.363281 334.710938 " fill-opacity="1" fill-rule="evenodd"/></g><g clip-path="url(#72af2b8840)"><path fill="#e6eaf2" d="M 773.488281 334.710938 L 36.5 334.710938 C 31.625 334.710938 27.636719 330.722656 27.636719 325.847656 L 27.636719 203.53125 C 27.636719 161.433594 61.320312 128.636719 104.304688 128.636719 L 705.683594 128.636719 C 748.671875 128.636719 782.351562 161.433594 782.351562 203.53125 L 782.351562 325.847656 C 782.351562 330.722656 778.363281 334.710938 773.488281 334.710938 Z M 45.363281 317.425781 L 764.625 317.425781 L 764.625 203.53125 C 764.625 171.183594 738.921875 146.363281 705.683594 146.363281 L 104.304688 146.363281 C 71.066406 146.363281 45.363281 171.183594 45.363281 203.53125 Z M 45.363281 317.425781 " fill-opacity="1" fill-rule="evenodd"/></g><path fill="#e6eaf2" d="M 143.746094 293.496094 C 109.179688 293.496094 80.375 266.019531 80.375 231.894531 C 80.375 197.328125 109.625 168.078125 143.746094 168.078125 C 178.316406 168.078125 205.789062 196.886719 205.789062 231.894531 C 205.789062 266.019531 178.316406 293.496094 143.746094 293.496094 Z M 289.992188 293.496094 C 255.867188 293.496094 227.949219 266.019531 227.949219 231.894531 C 227.949219 196.886719 255.867188 168.078125 289.992188 168.078125 C 324.117188 168.078125 352.035156 196.886719 352.035156 231.894531 C 352.035156 266.019531 324.117188 293.496094 289.992188 293.496094 Z M 435.792969 293.496094 C 401.671875 293.496094 373.75 266.019531 373.75 231.894531 C 373.75 196.886719 401.671875 168.078125 435.792969 168.078125 C 470.804688 168.078125 499.167969 196.886719 499.167969 231.894531 C 499.167969 266.460938 471.246094 293.496094 435.792969 293.496094 Z M 435.792969 293.496094 " fill-opacity="1" fill-rule="evenodd"/><g clip-path="url(#7afb01faa5)"><path fill="#e6eaf2" d="M 705.683594 883.351562 L 104.304688 883.351562 C 61.761719 883.351562 27.636719 848.785156 27.636719 806.683594 L 27.636719 325.847656 C 27.636719 320.972656 31.625 317.425781 36.5 317.425781 L 773.488281 317.425781 C 778.363281 317.425781 782.351562 320.972656 782.351562 325.847656 L 782.351562 806.683594 C 782.351562 848.785156 747.785156 883.351562 705.683594 883.351562 Z M 45.363281 334.710938 L 45.363281 806.683594 C 45.363281 839.476562 71.511719 865.625 104.304688 865.625 L 705.683594 865.625 C 738.476562 865.625 764.625 839.476562 764.625 806.683594 L 764.625 334.710938 Z M 45.363281 334.710938 " fill-opacity="1" fill-rule="evenodd"/></g><g clip-path="url(#9645dc9f39)"><path fill="#e6eaf2" d="M 773.488281 334.710938 L 36.5 334.710938 C 31.625 334.710938 27.636719 330.722656 27.636719 325.847656 L 27.636719 203.53125 C 27.636719 161.433594 61.320312 128.636719 104.304688 128.636719 L 705.683594 128.636719 C 748.671875 128.636719 782.351562 161.433594 782.351562 203.53125 L 782.351562 325.847656 C 782.351562 330.722656 778.363281 334.710938 773.488281 334.710938 Z M 45.363281 317.425781 L 764.625 317.425781 L 764.625 203.53125 C 764.625 171.183594 738.921875 146.363281 705.683594 146.363281 L 104.304688 146.363281 C 71.066406 146.363281 45.363281 171.183594 45.363281 203.53125 Z M 45.363281 317.425781 " fill-opacity="1" fill-rule="evenodd"/></g><g clip-path="url(#f98fab837b)"><path fill="#e6eaf2" d="M 143.746094 293.496094 C 109.179688 293.496094 80.375 266.019531 80.375 231.894531 C 80.375 197.328125 109.625 168.078125 143.746094 168.078125 C 178.316406 168.078125 205.789062 196.886719 205.789062 231.894531 C 205.789062 266.019531 178.316406 293.496094 143.746094 293.496094 Z M 289.992188 293.496094 C 255.867188 293.496094 227.949219 266.019531 227.949219 231.894531 C 227.949219 196.886719 255.867188 168.078125 289.992188 168.078125 C 324.117188 168.078125 352.035156 196.886719 352.035156 231.894531 C 352.035156 266.019531 324.117188 293.496094 289.992188 293.496094 Z M 435.792969 293.496094 C 401.671875 293.496094 373.75 266.019531 373.75 231.894531 C 373.75 196.886719 401.671875 168.078125 435.792969 168.078125 C 470.804688 168.078125 499.167969 196.886719 499.167969 231.894531 C 499.167969 266.460938 471.246094 293.496094 435.792969 293.496094 Z M 435.792969 293.496094 " fill-opacity="1" fill-rule="evenodd"/></g><g clip-path="url(#5ad6dc8863)"><path fill="#e6eaf2" d="M 705.683594 883.351562 L 104.304688 883.351562 C 61.761719 883.351562 27.636719 848.785156 27.636719 806.683594 L 27.636719 325.847656 C 27.636719 320.972656 31.625 317.425781 36.5 317.425781 L 773.488281 317.425781 C 778.363281 317.425781 782.351562 320.972656 782.351562 325.847656 L 782.351562 806.683594 C 782.351562 848.785156 747.785156 883.351562 705.683594 883.351562 Z M 45.363281 334.710938 L 45.363281 806.683594 C 45.363281 839.476562 71.511719 865.625 104.304688 865.625 L 705.683594 865.625 C 738.476562 865.625 764.625 839.476562 764.625 806.683594 L 764.625 334.710938 Z M 45.363281 334.710938 " fill-opacity="1" fill-rule="evenodd"/></g><g clip-path="url(#ffc2eb507e)"><path fill="#e6eaf2" d="M 773.488281 334.710938 L 36.5 334.710938 C 31.625 334.710938 27.636719 330.722656 27.636719 325.847656 L 27.636719 203.53125 C 27.636719 161.433594 61.320312 128.636719 104.304688 128.636719 L 705.683594 128.636719 C 748.671875 128.636719 782.351562 161.433594 782.351562 203.53125 L 782.351562 325.847656 C 782.351562 330.722656 778.363281 334.710938 773.488281 334.710938 Z M 45.363281 317.425781 L 764.625 317.425781 L 764.625 203.53125 C 764.625 171.183594 738.921875 146.363281 705.683594 146.363281 L 104.304688 146.363281 C 71.066406 146.363281 45.363281 171.183594 45.363281 203.53125 Z M 45.363281 317.425781 " fill-opacity="1" fill-rule="evenodd"/></g><g clip-path="url(#567014122a)"><path fill="#e6eaf2" d="M 705.683594 883.351562 L 104.304688 883.351562 C 61.761719 883.351562 27.636719 848.785156 27.636719 806.683594 L 27.636719 325.847656 C 27.636719 320.972656 31.625 317.425781 36.5 317.425781 L 773.488281 317.425781 C 778.363281 317.425781 782.351562 320.972656 782.351562 325.847656 L 782.351562 806.683594 C 782.351562 848.785156 747.785156 883.351562 705.683594 883.351562 Z M 45.363281 334.710938 L 45.363281 806.683594 C 45.363281 839.476562 71.511719 865.625 104.304688 865.625 L 705.683594 865.625 C 738.476562 865.625 764.625 839.476562 764.625 806.683594 L 764.625 334.710938 Z M 45.363281 334.710938 " fill-opacity="1" fill-rule="evenodd"/></g><g clip-path="url(#6667893aff)"><path fill="#e6eaf2" d="M 158.84375 359.007812 C 176.769531 359.007812 191.34375 344.417969 191.34375 326.503906 C 191.34375 308.59375 176.753906 294.003906 158.84375 294.003906 C 140.929688 294.003906 126.339844 308.59375 126.339844 326.503906 C 126.339844 344.417969 140.929688 359.007812 158.84375 359.007812 Z M 158.84375 311.101562 C 167.328125 311.101562 174.230469 318.003906 174.230469 326.492188 C 174.230469 334.976562 167.328125 341.878906 158.84375 341.878906 C 150.355469 341.878906 143.453125 334.976562 143.453125 326.492188 C 143.453125 318.003906 150.355469 311.101562 158.84375 311.101562 Z M 334.992188 359.007812 L 468.980469 359.007812 C 486.90625 359.007812 501.484375 344.417969 501.484375 326.503906 C 501.484375 308.59375 486.894531 294.003906 468.980469 294.003906 L 334.992188 294.003906 C 317.0625 294.003906 302.488281 308.59375 302.488281 326.503906 C 302.488281 344.417969 317.078125 359.007812 334.992188 359.007812 Z M 334.992188 311.101562 L 468.980469 311.101562 C 477.464844 311.101562 484.371094 318.003906 484.371094 326.492188 C 484.371094 334.976562 477.464844 341.878906 468.980469 341.878906 L 334.992188 341.878906 C 326.503906 341.878906 319.601562 334.976562 319.601562 326.492188 C 319.601562 318.003906 326.503906 311.101562 334.992188 311.101562 Z M 685.003906 689.46875 C 685.003906 682.710938 680.15625 676.433594 671.699219 672.242188 L 634.402344 653.742188 L 675.320312 633.449219 C 681.46875 630.398438 685.003906 625.320312 685.003906 619.5 C 685.003906 612.742188 680.15625 606.464844 671.699219 602.273438 L 634.402344 583.773438 L 675.320312 563.480469 C 681.46875 560.429688 684.992188 555.351562 684.992188 549.53125 C 684.992188 542.773438 680.140625 536.496094 671.683594 532.304688 L 568.628906 481.1875 C 556.320312 475.085938 539.320312 474.316406 529.082031 479.390625 L 418.765625 534.101562 C 412.617188 537.152344 409.082031 542.230469 409.082031 548.050781 C 409.082031 554.808594 413.929688 561.085938 422.386719 565.277344 L 459.683594 583.773438 L 418.765625 604.070312 C 412.617188 607.121094 409.082031 612.199219 409.082031 618.019531 C 409.082031 624.777344 413.929688 631.054688 422.386719 635.246094 L 459.683594 653.742188 L 418.765625 674.039062 C 412.617188 677.089844 409.082031 682.167969 409.082031 687.988281 C 409.082031 694.746094 413.929688 701.023438 422.386719 705.214844 L 525.457031 756.328125 C 532.316406 759.722656 540.632812 761.476562 548.417969 761.476562 C 554.609375 761.476562 560.46875 760.378906 564.992188 758.125 L 675.308594 703.417969 C 681.453125 700.367188 684.992188 695.289062 684.992188 689.46875 Z M 427.847656 548.734375 L 536.695312 494.753906 C 541.585938 492.328125 553.027344 492.585938 561.027344 496.550781 L 664.082031 547.664062 C 664.96875 548.105469 665.667969 548.519531 666.238281 548.90625 L 557.390625 602.871094 C 552.5 605.296875 541.058594 605.039062 533.058594 601.074219 L 430.003906 549.960938 C 429.117188 549.519531 428.421875 549.105469 427.847656 548.71875 Z M 427.847656 618.6875 L 478.949219 593.34375 L 525.457031 616.40625 C 532.316406 619.816406 540.632812 621.554688 548.417969 621.554688 C 554.609375 621.554688 560.46875 620.457031 564.992188 618.203125 L 615.121094 593.34375 L 664.082031 617.617188 C 664.96875 618.046875 665.667969 618.472656 666.238281 618.859375 L 557.40625 672.824219 C 552.511719 675.25 541.058594 674.992188 533.058594 671.027344 L 430.003906 619.914062 C 429.117188 619.472656 428.417969 619.058594 427.847656 618.671875 Z M 557.40625 742.792969 C 552.511719 745.21875 541.074219 744.960938 533.074219 740.996094 L 430.015625 689.882812 C 429.132812 689.441406 428.433594 689.027344 427.863281 688.640625 L 478.964844 663.300781 L 525.472656 686.359375 C 532.332031 689.769531 540.648438 691.507812 548.433594 691.507812 C 554.625 691.507812 560.484375 690.410156 565.003906 688.15625 L 615.136719 663.300781 L 664.082031 687.574219 C 664.96875 688.015625 665.667969 688.429688 666.238281 688.8125 L 557.390625 742.78125 Z M 183.984375 455.046875 C 164.488281 455.046875 148.617188 470.90625 148.617188 490.417969 C 148.617188 509.925781 164.476562 525.785156 183.984375 525.785156 C 203.496094 525.785156 219.355469 509.925781 219.355469 490.417969 C 219.355469 470.90625 203.496094 455.046875 183.984375 455.046875 Z M 183.984375 508.65625 C 173.917969 508.65625 165.730469 500.472656 165.730469 490.402344 C 165.730469 480.332031 173.917969 472.148438 183.984375 472.148438 C 194.054688 472.148438 202.242188 480.332031 202.242188 490.402344 C 202.242188 500.472656 194.054688 508.65625 183.984375 508.65625 Z M 379.542969 466.015625 L 247.695312 466.015625 C 245.539062 466.015625 243.84375 464.929688 242.929688 462.976562 C 232.289062 440.144531 209.15625 425.398438 183.972656 425.398438 C 148.132812 425.398438 118.964844 454.5625 118.964844 490.402344 C 118.964844 526.242188 148.132812 555.40625 183.972656 555.40625 C 209.144531 555.40625 232.289062 540.660156 242.914062 517.828125 C 243.828125 515.875 245.527344 514.789062 247.679688 514.789062 L 277.273438 514.789062 L 277.273438 525.085938 C 277.273438 538.535156 288.210938 549.488281 301.675781 549.488281 C 315.136719 549.488281 326.078125 538.550781 326.078125 525.085938 L 326.078125 514.789062 L 336.101562 514.789062 L 336.101562 525.085938 C 336.101562 538.535156 347.042969 549.488281 360.503906 549.488281 C 373.96875 549.488281 384.90625 538.550781 384.90625 525.085938 L 384.90625 514.207031 C 395.789062 511.765625 403.960938 502.011719 403.960938 490.402344 C 403.960938 476.953125 393.023438 466 379.558594 466 Z M 379.542969 497.691406 L 376.335938 497.691406 C 371.613281 497.691406 367.777344 501.527344 367.777344 506.246094 L 367.777344 525.101562 C 367.777344 529.125 364.511719 532.390625 360.492188 532.390625 C 356.46875 532.390625 353.203125 529.125 353.203125 525.101562 L 353.203125 506.246094 C 353.203125 501.527344 349.367188 497.691406 344.644531 497.691406 L 317.503906 497.691406 C 312.785156 497.691406 308.949219 501.527344 308.949219 506.246094 L 308.949219 525.101562 C 308.949219 529.125 305.683594 532.390625 301.660156 532.390625 C 297.636719 532.390625 294.371094 529.125 294.371094 525.101562 L 294.371094 506.246094 C 294.371094 501.527344 290.535156 497.691406 285.816406 497.691406 L 247.664062 497.691406 C 238.878906 497.691406 231.105469 502.640625 227.382812 510.613281 C 219.539062 527.425781 202.496094 538.308594 183.941406 538.308594 C 157.53125 538.308594 136.050781 516.816406 136.050781 490.417969 C 136.050781 464.019531 157.542969 442.523438 183.941406 442.523438 C 202.496094 442.523438 219.539062 453.394531 227.382812 470.222656 C 231.105469 478.195312 238.867188 483.144531 247.664062 483.144531 L 379.515625 483.144531 C 383.539062 483.144531 386.804688 486.410156 386.804688 490.429688 C 386.804688 494.453125 383.539062 497.71875 379.515625 497.71875 Z M 348.9375 703.730469 L 147.832031 703.730469 C 131.914062 703.730469 118.964844 716.679688 118.964844 732.597656 C 118.964844 748.515625 131.914062 761.464844 147.832031 761.464844 L 348.9375 761.464844 C 364.855469 761.464844 377.804688 748.515625 377.804688 732.597656 C 377.804688 716.679688 364.855469 703.730469 348.9375 703.730469 Z M 348.9375 744.347656 L 147.832031 744.347656 C 141.355469 744.347656 136.078125 739.074219 136.078125 732.597656 C 136.078125 726.121094 141.34375 720.847656 147.832031 720.847656 L 348.9375 720.847656 C 355.414062 720.847656 360.691406 726.121094 360.691406 732.597656 C 360.691406 739.074219 355.425781 744.347656 348.9375 744.347656 Z M 147.476562 584.515625 C 147.476562 579.796875 151.3125 575.960938 156.03125 575.960938 L 340.753906 575.960938 C 345.472656 575.960938 349.308594 579.796875 349.308594 584.515625 C 349.308594 589.238281 345.472656 593.074219 340.753906 593.074219 L 156.03125 593.074219 C 151.3125 593.074219 147.476562 589.238281 147.476562 584.515625 Z M 147.476562 630.738281 C 147.476562 626.019531 151.3125 622.183594 156.03125 622.183594 L 340.753906 622.183594 C 345.472656 622.183594 349.308594 626.019531 349.308594 630.738281 C 349.308594 635.460938 345.472656 639.296875 340.753906 639.296875 L 156.03125 639.296875 C 151.3125 639.296875 147.476562 635.460938 147.476562 630.738281 Z M 147.476562 676.949219 C 147.476562 672.226562 151.3125 668.390625 156.03125 668.390625 L 340.753906 668.390625 C 345.472656 668.390625 349.308594 672.226562 349.308594 676.949219 C 349.308594 681.667969 345.472656 685.503906 340.753906 685.503906 L 156.03125 685.503906 C 151.3125 685.503906 147.476562 681.667969 147.476562 676.949219 Z M 767.097656 815.757812 L 750.980469 813.304688 C 749.683594 809.425781 748.113281 805.632812 746.289062 801.980469 L 755.945312 788.847656 C 758.453125 785.4375 758.097656 780.71875 755.101562 777.722656 L 730.714844 753.335938 C 727.71875 750.339844 723 749.984375 719.589844 752.492188 L 717.007812 754.390625 L 717.007812 309.546875 C 717.007812 283.019531 695.429688 261.441406 668.902344 261.441406 L 135.054688 261.441406 C 108.527344 261.441406 86.949219 283.019531 86.949219 309.546875 L 86.949219 764.332031 C 86.949219 790.855469 108.527344 812.433594 135.054688 812.433594 L 583.261719 812.433594 C 583.160156 812.734375 583.046875 813.019531 582.949219 813.320312 L 566.832031 815.773438 C 562.652344 816.414062 559.558594 820.007812 559.558594 824.230469 L 559.558594 858.730469 C 559.558594 862.949219 562.652344 866.546875 566.832031 867.1875 L 582.949219 869.640625 C 584.246094 873.519531 585.8125 877.3125 587.640625 880.976562 L 577.984375 894.113281 C 575.472656 897.523438 575.832031 902.242188 578.824219 905.238281 L 603.214844 929.625 C 606.195312 932.621094 610.929688 932.976562 614.335938 930.464844 L 627.472656 920.8125 C 631.136719 922.636719 634.917969 924.207031 638.8125 925.503906 L 641.265625 941.621094 C 641.90625 945.796875 645.5 948.894531 649.722656 948.894531 L 684.222656 948.894531 C 688.441406 948.894531 692.035156 945.796875 692.679688 941.621094 L 695.132812 925.503906 C 699.011719 924.207031 702.804688 922.636719 706.46875 920.8125 L 719.605469 930.464844 C 723.011719 932.976562 727.734375 932.621094 730.730469 929.625 L 755.117188 905.238281 C 758.113281 902.242188 758.46875 897.523438 755.957031 894.113281 L 746.304688 880.976562 C 748.128906 877.3125 749.695312 873.535156 750.996094 869.640625 L 767.109375 867.1875 C 771.289062 866.546875 774.382812 862.949219 774.382812 858.730469 L 774.382812 824.230469 C 774.382812 820.007812 771.289062 816.398438 767.109375 815.773438 Z M 135.054688 278.554688 L 668.917969 278.554688 C 686.003906 278.554688 699.910156 292.460938 699.910156 309.546875 L 699.910156 374.4375 L 104.0625 374.4375 L 104.0625 309.546875 C 104.0625 292.460938 117.96875 278.554688 135.054688 278.554688 Z M 104.0625 764.316406 L 104.0625 391.539062 L 699.910156 391.539062 L 699.910156 759.210938 C 698.339844 758.582031 696.742188 757.984375 695.132812 757.441406 L 692.679688 741.324219 C 692.035156 737.148438 688.441406 734.050781 684.222656 734.050781 L 649.722656 734.050781 C 645.5 734.050781 641.90625 737.148438 641.265625 741.324219 L 638.8125 757.441406 C 634.933594 758.738281 631.136719 760.308594 627.472656 762.132812 L 614.335938 752.480469 C 610.929688 749.96875 606.207031 750.324219 603.214844 753.320312 L 578.824219 777.707031 C 575.832031 780.703125 575.472656 785.421875 577.984375 788.832031 L 582.746094 795.308594 L 135.054688 795.308594 C 117.96875 795.308594 104.0625 781.402344 104.0625 764.316406 Z M 757.257812 851.355469 L 743.050781 853.523438 C 739.683594 854.039062 736.933594 856.503906 736.0625 859.800781 C 734.4375 865.945312 731.984375 871.863281 728.773438 877.371094 C 727.0625 880.320312 727.261719 884 729.273438 886.738281 L 737.789062 898.320312 L 723.796875 912.3125 L 712.21875 903.796875 C 709.480469 901.773438 705.785156 901.570312 702.847656 903.296875 C 697.34375 906.507812 691.421875 908.945312 685.277344 910.585938 C 681.980469 911.457031 679.515625 914.207031 679 917.574219 L 676.832031 931.765625 L 657.039062 931.765625 L 654.871094 917.574219 C 654.355469 914.207031 651.890625 911.457031 648.59375 910.585938 C 642.449219 908.960938 636.527344 906.507812 631.023438 903.296875 C 628.070312 901.585938 624.390625 901.785156 621.652344 903.796875 L 610.074219 912.3125 L 596.082031 898.320312 L 604.597656 886.738281 C 606.621094 884 606.808594 880.308594 605.097656 877.371094 C 601.886719 871.863281 599.449219 865.960938 597.808594 859.800781 C 596.9375 856.503906 594.199219 854.039062 590.820312 853.523438 L 576.628906 851.355469 L 576.628906 831.5625 L 590.820312 829.394531 C 594.1875 828.878906 596.9375 826.410156 597.808594 823.117188 C 599.433594 816.972656 601.886719 811.050781 605.097656 805.546875 C 606.808594 802.59375 606.609375 798.914062 604.597656 796.175781 L 596.082031 784.597656 L 610.074219 770.605469 L 621.652344 779.121094 C 624.40625 781.144531 628.085938 781.332031 631.023438 779.617188 C 636.527344 776.410156 642.433594 773.972656 648.59375 772.332031 C 651.890625 771.460938 654.355469 768.707031 654.871094 765.34375 L 657.039062 751.136719 L 676.832031 751.136719 L 679 765.34375 C 679.515625 768.707031 681.980469 771.460938 685.277344 772.332031 C 691.421875 773.957031 697.328125 776.410156 702.847656 779.617188 C 705.800781 781.332031 709.480469 781.128906 712.21875 779.121094 L 723.796875 770.605469 L 737.789062 784.597656 L 729.273438 796.175781 C 727.25 798.929688 727.0625 802.609375 728.773438 805.546875 C 731.984375 811.050781 734.421875 816.957031 736.046875 823.117188 C 736.917969 826.410156 739.671875 828.878906 743.035156 829.394531 L 757.226562 831.5625 L 757.226562 851.355469 Z M 666.964844 781.53125 C 633.917969 781.53125 607.035156 808.414062 607.035156 841.457031 C 607.035156 874.503906 633.917969 901.386719 666.964844 901.386719 C 700.007812 901.386719 726.890625 874.503906 726.890625 841.457031 C 726.890625 808.414062 700.007812 781.53125 666.964844 781.53125 Z M 666.964844 884.285156 C 643.359375 884.285156 624.148438 865.074219 624.148438 841.472656 C 624.148438 817.871094 643.359375 798.660156 666.964844 798.660156 C 690.566406 798.660156 709.777344 817.871094 709.777344 841.472656 C 709.777344 865.074219 690.566406 884.285156 666.964844 884.285156 Z M 666.964844 884.285156 " fill-opacity="1" fill-rule="nonzero"/></g><g clip-path="url(#bf6d552d97)"><path fill="#e6eaf2" d="M 158.84375 359.007812 C 176.769531 359.007812 191.34375 344.417969 191.34375 326.503906 C 191.34375 308.59375 176.753906 294.003906 158.84375 294.003906 C 140.929688 294.003906 126.339844 308.59375 126.339844 326.503906 C 126.339844 344.417969 140.929688 359.007812 158.84375 359.007812 Z M 158.84375 311.101562 C 167.328125 311.101562 174.230469 318.003906 174.230469 326.492188 C 174.230469 334.976562 167.328125 341.878906 158.84375 341.878906 C 150.355469 341.878906 143.453125 334.976562 143.453125 326.492188 C 143.453125 318.003906 150.355469 311.101562 158.84375 311.101562 Z M 334.992188 359.007812 L 468.980469 359.007812 C 486.90625 359.007812 501.484375 344.417969 501.484375 326.503906 C 501.484375 308.59375 486.894531 294.003906 468.980469 294.003906 L 334.992188 294.003906 C 317.0625 294.003906 302.488281 308.59375 302.488281 326.503906 C 302.488281 344.417969 317.078125 359.007812 334.992188 359.007812 Z M 334.992188 311.101562 L 468.980469 311.101562 C 477.464844 311.101562 484.371094 318.003906 484.371094 326.492188 C 484.371094 334.976562 477.464844 341.878906 468.980469 341.878906 L 334.992188 341.878906 C 326.503906 341.878906 319.601562 334.976562 319.601562 326.492188 C 319.601562 318.003906 326.503906 311.101562 334.992188 311.101562 Z M 685.003906 689.46875 C 685.003906 682.710938 680.15625 676.433594 671.699219 672.242188 L 634.402344 653.742188 L 675.320312 633.449219 C 681.46875 630.398438 685.003906 625.320312 685.003906 619.5 C 685.003906 612.742188 680.15625 606.464844 671.699219 602.273438 L 634.402344 583.773438 L 675.320312 563.480469 C 681.46875 560.429688 684.992188 555.351562 684.992188 549.53125 C 684.992188 542.773438 680.140625 536.496094 671.683594 532.304688 L 568.628906 481.1875 C 556.320312 475.085938 539.320312 474.316406 529.082031 479.390625 L 418.765625 534.101562 C 412.617188 537.152344 409.082031 542.230469 409.082031 548.050781 C 409.082031 554.808594 413.929688 561.085938 422.386719 565.277344 L 459.683594 583.773438 L 418.765625 604.070312 C 412.617188 607.121094 409.082031 612.199219 409.082031 618.019531 C 409.082031 624.777344 413.929688 631.054688 422.386719 635.246094 L 459.683594 653.742188 L 418.765625 674.039062 C 412.617188 677.089844 409.082031 682.167969 409.082031 687.988281 C 409.082031 694.746094 413.929688 701.023438 422.386719 705.214844 L 525.457031 756.328125 C 532.316406 759.722656 540.632812 761.476562 548.417969 761.476562 C 554.609375 761.476562 560.46875 760.378906 564.992188 758.125 L 675.308594 703.417969 C 681.453125 700.367188 684.992188 695.289062 684.992188 689.46875 Z M 427.847656 548.734375 L 536.695312 494.753906 C 541.589844 492.328125 553.027344 492.585938 561.027344 496.550781 L 664.082031 547.664062 C 664.96875 548.105469 665.667969 548.519531 666.238281 548.90625 L 557.390625 602.871094 C 552.5 605.296875 541.058594 605.039062 533.058594 601.074219 L 430.003906 549.960938 C 429.117188 549.519531 428.421875 549.105469 427.847656 548.71875 Z M 427.847656 618.6875 L 478.949219 593.34375 L 525.457031 616.40625 C 532.316406 619.816406 540.632812 621.554688 548.417969 621.554688 C 554.609375 621.554688 560.46875 620.457031 564.992188 618.203125 L 615.121094 593.34375 L 664.082031 617.617188 C 664.96875 618.046875 665.667969 618.472656 666.238281 618.859375 L 557.40625 672.824219 C 552.511719 675.25 541.058594 674.992188 533.058594 671.027344 L 430.003906 619.914062 C 429.117188 619.472656 428.417969 619.058594 427.847656 618.671875 Z M 557.40625 742.792969 C 552.511719 745.21875 541.074219 744.960938 533.074219 740.996094 L 430.015625 689.882812 C 429.132812 689.441406 428.433594 689.027344 427.863281 688.640625 L 478.964844 663.300781 L 525.472656 686.359375 C 532.332031 689.769531 540.648438 691.507812 548.433594 691.507812 C 554.625 691.507812 560.484375 690.410156 565.007812 688.15625 L 615.136719 663.300781 L 664.082031 687.574219 C 664.96875 688.015625 665.667969 688.429688 666.238281 688.8125 L 557.390625 742.78125 Z M 183.984375 455.046875 C 164.488281 455.046875 148.617188 470.90625 148.617188 490.417969 C 148.617188 509.925781 164.476562 525.785156 183.984375 525.785156 C 203.496094 525.785156 219.355469 509.925781 219.355469 490.417969 C 219.355469 470.90625 203.496094 455.046875 183.984375 455.046875 Z M 183.984375 508.65625 C 173.917969 508.65625 165.730469 500.472656 165.730469 490.402344 C 165.730469 480.332031 173.917969 472.148438 183.984375 472.148438 C 194.054688 472.148438 202.242188 480.332031 202.242188 490.402344 C 202.242188 500.472656 194.054688 508.65625 183.984375 508.65625 Z M 379.542969 466.015625 L 247.695312 466.015625 C 245.539062 466.015625 243.84375 464.929688 242.929688 462.976562 C 232.289062 440.144531 209.15625 425.398438 183.972656 425.398438 C 148.132812 425.398438 118.964844 454.5625 118.964844 490.402344 C 118.964844 526.242188 148.132812 555.40625 183.972656 555.40625 C 209.144531 555.40625 232.289062 540.660156 242.914062 517.828125 C 243.828125 515.875 245.527344 514.789062 247.679688 514.789062 L 277.273438 514.789062 L 277.273438 525.085938 C 277.273438 538.535156 288.210938 549.488281 301.675781 549.488281 C 315.136719 549.488281 326.078125 538.550781 326.078125 525.085938 L 326.078125 514.789062 L 336.101562 514.789062 L 336.101562 525.085938 C 336.101562 538.535156 347.042969 549.488281 360.503906 549.488281 C 373.96875 549.488281 384.90625 538.550781 384.90625 525.085938 L 384.90625 514.207031 C 395.789062 511.765625 403.960938 502.011719 403.960938 490.402344 C 403.960938 476.953125 393.023438 466 379.558594 466 Z M 379.542969 497.691406 L 376.335938 497.691406 C 371.613281 497.691406 367.777344 501.527344 367.777344 506.246094 L 367.777344 525.101562 C 367.777344 529.125 364.511719 532.390625 360.492188 532.390625 C 356.46875 532.390625 353.203125 529.125 353.203125 525.101562 L 353.203125 506.246094 C 353.203125 501.527344 349.367188 497.691406 344.644531 497.691406 L 317.503906 497.691406 C 312.785156 497.691406 308.949219 501.527344 308.949219 506.246094 L 308.949219 525.101562 C 308.949219 529.125 305.683594 532.390625 301.660156 532.390625 C 297.636719 532.390625 294.371094 529.125 294.371094 525.101562 L 294.371094 506.246094 C 294.371094 501.527344 290.535156 497.691406 285.816406 497.691406 L 247.664062 497.691406 C 238.878906 497.691406 231.105469 502.640625 227.382812 510.613281 C 219.539062 527.425781 202.496094 538.308594 183.941406 538.308594 C 157.53125 538.308594 136.050781 516.816406 136.050781 490.417969 C 136.050781 464.019531 157.542969 442.523438 183.941406 442.523438 C 202.496094 442.523438 219.539062 453.394531 227.382812 470.222656 C 231.105469 478.195312 238.867188 483.144531 247.664062 483.144531 L 379.515625 483.144531 C 383.539062 483.144531 386.804688 486.410156 386.804688 490.429688 C 386.804688 494.453125 383.539062 497.71875 379.515625 497.71875 Z M 348.9375 703.730469 L 147.832031 703.730469 C 131.914062 703.730469 118.964844 716.679688 118.964844 732.597656 C 118.964844 748.515625 131.914062 761.464844 147.832031 761.464844 L 348.9375 761.464844 C 364.855469 761.464844 377.804688 748.515625 377.804688 732.597656 C 377.804688 716.679688 364.855469 703.730469 348.9375 703.730469 Z M 348.9375 744.347656 L 147.832031 744.347656 C 141.355469 744.347656 136.082031 739.074219 136.082031 732.597656 C 136.082031 726.121094 141.34375 720.847656 147.832031 720.847656 L 348.9375 720.847656 C 355.414062 720.847656 360.691406 726.121094 360.691406 732.597656 C 360.691406 739.074219 355.425781 744.347656 348.9375 744.347656 Z M 147.476562 584.515625 C 147.476562 579.796875 151.3125 575.960938 156.03125 575.960938 L 340.753906 575.960938 C 345.472656 575.960938 349.308594 579.796875 349.308594 584.515625 C 349.308594 589.238281 345.472656 593.074219 340.753906 593.074219 L 156.03125 593.074219 C 151.3125 593.074219 147.476562 589.238281 147.476562 584.515625 Z M 147.476562 630.738281 C 147.476562 626.019531 151.3125 622.183594 156.03125 622.183594 L 340.753906 622.183594 C 345.472656 622.183594 349.308594 626.019531 349.308594 630.738281 C 349.308594 635.460938 345.472656 639.296875 340.753906 639.296875 L 156.03125 639.296875 C 151.3125 639.296875 147.476562 635.460938 147.476562 630.738281 Z M 147.476562 676.949219 C 147.476562 672.226562 151.3125 668.390625 156.03125 668.390625 L 340.753906 668.390625 C 345.472656 668.390625 349.308594 672.226562 349.308594 676.949219 C 349.308594 681.667969 345.472656 685.503906 340.753906 685.503906 L 156.03125 685.503906 C 151.3125 685.503906 147.476562 681.667969 147.476562 676.949219 Z M 767.097656 815.757812 L 750.980469 813.304688 C 749.683594 809.425781 748.113281 805.632812 746.289062 801.980469 L 755.945312 788.847656 C 758.453125 785.4375 758.097656 780.71875 755.101562 777.722656 L 730.714844 753.335938 C 727.71875 750.339844 723 749.984375 719.589844 752.492188 L 717.007812 754.390625 L 717.007812 309.546875 C 717.007812 283.019531 695.429688 261.441406 668.902344 261.441406 L 135.054688 261.441406 C 108.527344 261.441406 86.949219 283.019531 86.949219 309.546875 L 86.949219 764.332031 C 86.949219 790.855469 108.527344 812.433594 135.054688 812.433594 L 583.261719 812.433594 C 583.160156 812.734375 583.046875 813.019531 582.949219 813.320312 L 566.832031 815.773438 C 562.652344 816.414062 559.558594 820.007812 559.558594 824.230469 L 559.558594 858.730469 C 559.558594 862.949219 562.652344 866.546875 566.832031 867.1875 L 582.949219 869.640625 C 584.246094 873.519531 585.8125 877.3125 587.640625 880.976562 L 577.984375 894.113281 C 575.472656 897.523438 575.832031 902.242188 578.824219 905.238281 L 603.214844 929.625 C 606.195312 932.621094 610.929688 932.976562 614.335938 930.464844 L 627.472656 920.8125 C 631.136719 922.636719 634.917969 924.207031 638.8125 925.503906 L 641.265625 941.621094 C 641.90625 945.796875 645.5 948.894531 649.722656 948.894531 L 684.222656 948.894531 C 688.441406 948.894531 692.035156 945.796875 692.679688 941.621094 L 695.132812 925.503906 C 699.011719 924.207031 702.804688 922.636719 706.46875 920.8125 L 719.605469 930.464844 C 723.011719 932.976562 727.734375 932.621094 730.730469 929.625 L 755.117188 905.238281 C 758.113281 902.242188 758.46875 897.523438 755.957031 894.113281 L 746.304688 880.976562 C 748.128906 877.3125 749.695312 873.535156 750.996094 869.640625 L 767.109375 867.1875 C 771.289062 866.546875 774.382812 862.949219 774.382812 858.730469 L 774.382812 824.230469 C 774.382812 820.007812 771.289062 816.398438 767.109375 815.773438 Z M 135.054688 278.554688 L 668.917969 278.554688 C 686.003906 278.554688 699.910156 292.460938 699.910156 309.546875 L 699.910156 374.4375 L 104.0625 374.4375 L 104.0625 309.546875 C 104.0625 292.460938 117.96875 278.554688 135.054688 278.554688 Z M 104.0625 764.316406 L 104.0625 391.539062 L 699.910156 391.539062 L 699.910156 759.210938 C 698.339844 758.582031 696.742188 757.984375 695.132812 757.441406 L 692.679688 741.324219 C 692.035156 737.148438 688.441406 734.050781 684.222656 734.050781 L 649.722656 734.050781 C 645.5 734.050781 641.90625 737.148438 641.265625 741.324219 L 638.8125 757.441406 C 634.933594 758.738281 631.136719 760.308594 627.472656 762.132812 L 614.335938 752.480469 C 610.929688 749.96875 606.207031 750.324219 603.214844 753.320312 L 578.824219 777.707031 C 575.832031 780.703125 575.472656 785.421875 577.984375 788.832031 L 582.746094 795.308594 L 135.054688 795.308594 C 117.96875 795.308594 104.0625 781.402344 104.0625 764.316406 Z M 757.257812 851.355469 L 743.050781 853.523438 C 739.683594 854.039062 736.933594 856.503906 736.0625 859.800781 C 734.4375 865.945312 731.984375 871.863281 728.773438 877.371094 C 727.0625 880.320312 727.261719 884 729.273438 886.738281 L 737.789062 898.320312 L 723.796875 912.3125 L 712.21875 903.796875 C 709.480469 901.773438 705.785156 901.570312 702.847656 903.296875 C 697.34375 906.507812 691.421875 908.945312 685.277344 910.585938 C 681.980469 911.457031 679.515625 914.207031 679 917.574219 L 676.832031 931.765625 L 657.039062 931.765625 L 654.871094 917.574219 C 654.355469 914.207031 651.890625 911.457031 648.59375 910.585938 C 642.449219 908.960938 636.527344 906.507812 631.023438 903.296875 C 628.070312 901.585938 624.390625 901.785156 621.652344 903.796875 L 610.074219 912.3125 L 596.082031 898.320312 L 604.597656 886.738281 C 606.621094 884 606.808594 880.308594 605.097656 877.371094 C 601.886719 871.863281 599.449219 865.960938 597.808594 859.800781 C 596.9375 856.503906 594.199219 854.039062 590.820312 853.523438 L 576.628906 851.355469 L 576.628906 831.5625 L 590.820312 829.394531 C 594.1875 828.878906 596.9375 826.410156 597.808594 823.117188 C 599.433594 816.972656 601.886719 811.050781 605.097656 805.546875 C 606.808594 802.59375 606.609375 798.914062 604.597656 796.175781 L 596.082031 784.597656 L 610.074219 770.605469 L 621.652344 779.121094 C 624.40625 781.144531 628.085938 781.332031 631.023438 779.617188 C 636.527344 776.410156 642.433594 773.972656 648.59375 772.332031 C 651.890625 771.460938 654.355469 768.707031 654.871094 765.34375 L 657.039062 751.136719 L 676.832031 751.136719 L 679 765.34375 C 679.515625 768.707031 681.980469 771.460938 685.277344 772.332031 C 691.421875 773.957031 697.328125 776.410156 702.847656 779.617188 C 705.800781 781.332031 709.480469 781.128906 712.21875 779.121094 L 723.796875 770.605469 L 737.789062 784.597656 L 729.273438 796.175781 C 727.25 798.929688 727.0625 802.609375 728.773438 805.546875 C 731.984375 811.050781 734.421875 816.957031 736.046875 823.117188 C 736.917969 826.410156 739.671875 828.878906 743.035156 829.394531 L 757.226562 831.5625 L 757.226562 851.355469 Z M 666.964844 781.53125 C 633.917969 781.53125 607.035156 808.414062 607.035156 841.457031 C 607.035156 874.503906 633.917969 901.386719 666.964844 901.386719 C 700.007812 901.386719 726.890625 874.503906 726.890625 841.457031 C 726.890625 808.414062 700.007812 781.53125 666.964844 781.53125 Z M 666.964844 884.285156 C 643.359375 884.285156 624.148438 865.074219 624.148438 841.472656 C 624.148438 817.871094 643.359375 798.660156 666.964844 798.660156 C 690.566406 798.660156 709.777344 817.871094 709.777344 841.472656 C 709.777344 865.074219 690.566406 884.285156 666.964844 884.285156 Z M 666.964844 884.285156 " fill-opacity="1" fill-rule="nonzero"/></g><g clip-path="url(#f1c5d0c93f)"><path fill="#e6eaf2" d="M 158.84375 359.007812 C 176.769531 359.007812 191.34375 344.417969 191.34375 326.503906 C 191.34375 308.59375 176.753906 294.003906 158.84375 294.003906 C 140.929688 294.003906 126.339844 308.59375 126.339844 326.503906 C 126.339844 344.417969 140.929688 359.007812 158.84375 359.007812 Z M 158.84375 311.101562 C 167.328125 311.101562 174.230469 318.003906 174.230469 326.492188 C 174.230469 334.976562 167.328125 341.878906 158.84375 341.878906 C 150.355469 341.878906 143.453125 334.976562 143.453125 326.492188 C 143.453125 318.003906 150.355469 311.101562 158.84375 311.101562 Z M 334.992188 359.007812 L 468.980469 359.007812 C 486.90625 359.007812 501.484375 344.417969 501.484375 326.503906 C 501.484375 308.59375 486.894531 294.003906 468.980469 294.003906 L 334.992188 294.003906 C 317.0625 294.003906 302.488281 308.59375 302.488281 326.503906 C 302.488281 344.417969 317.078125 359.007812 334.992188 359.007812 Z M 334.992188 311.101562 L 468.980469 311.101562 C 477.464844 311.101562 484.371094 318.003906 484.371094 326.492188 C 484.371094 334.976562 477.464844 341.878906 468.980469 341.878906 L 334.992188 341.878906 C 326.503906 341.878906 319.601562 334.976562 319.601562 326.492188 C 319.601562 318.003906 326.503906 311.101562 334.992188 311.101562 Z M 685.003906 689.46875 C 685.003906 682.710938 680.15625 676.433594 671.699219 672.242188 L 634.402344 653.742188 L 675.320312 633.449219 C 681.46875 630.398438 685.003906 625.320312 685.003906 619.5 C 685.003906 612.742188 680.15625 606.464844 671.699219 602.273438 L 634.402344 583.773438 L 675.320312 563.480469 C 681.46875 560.429688 684.992188 555.351562 684.992188 549.53125 C 684.992188 542.773438 680.140625 536.496094 671.683594 532.304688 L 568.628906 481.1875 C 556.320312 475.085938 539.320312 474.316406 529.082031 479.390625 L 418.765625 534.101562 C 412.617188 537.152344 409.082031 542.230469 409.082031 548.050781 C 409.082031 554.808594 413.929688 561.085938 422.386719 565.277344 L 459.683594 583.773438 L 418.765625 604.070312 C 412.617188 607.121094 409.082031 612.199219 409.082031 618.019531 C 409.082031 624.777344 413.929688 631.054688 422.386719 635.246094 L 459.683594 653.742188 L 418.765625 674.039062 C 412.617188 677.089844 409.082031 682.167969 409.082031 687.988281 C 409.082031 694.746094 413.929688 701.023438 422.386719 705.214844 L 525.457031 756.328125 C 532.316406 759.722656 540.632812 761.476562 548.417969 761.476562 C 554.609375 761.476562 560.46875 760.378906 564.992188 758.125 L 675.308594 703.417969 C 681.453125 700.367188 684.992188 695.289062 684.992188 689.46875 Z M 427.847656 548.734375 L 536.695312 494.753906 C 541.585938 492.328125 553.027344 492.585938 561.027344 496.550781 L 664.082031 547.664062 C 664.96875 548.105469 665.667969 548.519531 666.238281 548.90625 L 557.390625 602.871094 C 552.5 605.296875 541.058594 605.039062 533.058594 601.074219 L 430.003906 549.960938 C 429.117188 549.519531 428.421875 549.105469 427.847656 548.71875 Z M 427.847656 618.6875 L 478.949219 593.34375 L 525.457031 616.40625 C 532.316406 619.816406 540.632812 621.554688 548.417969 621.554688 C 554.609375 621.554688 560.46875 620.457031 564.992188 618.203125 L 615.121094 593.34375 L 664.082031 617.617188 C 664.96875 618.046875 665.667969 618.472656 666.238281 618.859375 L 557.402344 672.824219 C 552.511719 675.25 541.058594 674.992188 533.058594 671.027344 L 430.003906 619.914062 C 429.117188 619.472656 428.417969 619.058594 427.847656 618.671875 Z M 557.402344 742.792969 C 552.511719 745.21875 541.074219 744.960938 533.074219 740.996094 L 430.015625 689.882812 C 429.132812 689.441406 428.433594 689.027344 427.863281 688.640625 L 478.964844 663.300781 L 525.472656 686.359375 C 532.332031 689.769531 540.648438 691.507812 548.433594 691.507812 C 554.625 691.507812 560.484375 690.410156 565.003906 688.15625 L 615.136719 663.300781 L 664.082031 687.574219 C 664.96875 688.015625 665.667969 688.429688 666.238281 688.8125 L 557.390625 742.78125 Z M 183.984375 455.046875 C 164.488281 455.046875 148.617188 470.90625 148.617188 490.417969 C 148.617188 509.925781 164.476562 525.785156 183.984375 525.785156 C 203.496094 525.785156 219.355469 509.925781 219.355469 490.417969 C 219.355469 470.90625 203.496094 455.046875 183.984375 455.046875 Z M 183.984375 508.65625 C 173.917969 508.65625 165.730469 500.472656 165.730469 490.402344 C 165.730469 480.332031 173.917969 472.148438 183.984375 472.148438 C 194.054688 472.148438 202.242188 480.332031 202.242188 490.402344 C 202.242188 500.472656 194.054688 508.65625 183.984375 508.65625 Z M 379.542969 466.015625 L 247.695312 466.015625 C 245.539062 466.015625 243.84375 464.929688 242.929688 462.976562 C 232.289062 440.144531 209.15625 425.398438 183.972656 425.398438 C 148.132812 425.398438 118.964844 454.5625 118.964844 490.402344 C 118.964844 526.242188 148.132812 555.40625 183.972656 555.40625 C 209.144531 555.40625 232.289062 540.660156 242.914062 517.828125 C 243.828125 515.875 245.527344 514.789062 247.679688 514.789062 L 277.273438 514.789062 L 277.273438 525.085938 C 277.273438 538.535156 288.210938 549.488281 301.675781 549.488281 C 315.136719 549.488281 326.078125 538.550781 326.078125 525.085938 L 326.078125 514.789062 L 336.101562 514.789062 L 336.101562 525.085938 C 336.101562 538.535156 347.042969 549.488281 360.503906 549.488281 C 373.96875 549.488281 384.90625 538.550781 384.90625 525.085938 L 384.90625 514.207031 C 395.789062 511.765625 403.960938 502.011719 403.960938 490.402344 C 403.960938 476.953125 393.023438 466 379.558594 466 Z M 379.542969 497.691406 L 376.335938 497.691406 C 371.613281 497.691406 367.777344 501.527344 367.777344 506.246094 L 367.777344 525.101562 C 367.777344 529.125 364.511719 532.390625 360.492188 532.390625 C 356.46875 532.390625 353.203125 529.125 353.203125 525.101562 L 353.203125 506.246094 C 353.203125 501.527344 349.367188 497.691406 344.644531 497.691406 L 317.503906 497.691406 C 312.785156 497.691406 308.949219 501.527344 308.949219 506.246094 L 308.949219 525.101562 C 308.949219 529.125 305.683594 532.390625 301.660156 532.390625 C 297.636719 532.390625 294.371094 529.125 294.371094 525.101562 L 294.371094 506.246094 C 294.371094 501.527344 290.535156 497.691406 285.816406 497.691406 L 247.664062 497.691406 C 238.878906 497.691406 231.105469 502.640625 227.382812 510.613281 C 219.539062 527.425781 202.496094 538.308594 183.941406 538.308594 C 157.53125 538.308594 136.050781 516.816406 136.050781 490.417969 C 136.050781 464.019531 157.542969 442.523438 183.941406 442.523438 C 202.496094 442.523438 219.539062 453.394531 227.382812 470.222656 C 231.105469 478.195312 238.867188 483.144531 247.664062 483.144531 L 379.515625 483.144531 C 383.539062 483.144531 386.804688 486.410156 386.804688 490.429688 C 386.804688 494.453125 383.539062 497.71875 379.515625 497.71875 Z M 348.9375 703.730469 L 147.832031 703.730469 C 131.914062 703.730469 118.964844 716.679688 118.964844 732.597656 C 118.964844 748.515625 131.914062 761.464844 147.832031 761.464844 L 348.9375 761.464844 C 364.855469 761.464844 377.804688 748.515625 377.804688 732.597656 C 377.804688 716.679688 364.855469 703.730469 348.9375 703.730469 Z M 348.9375 744.347656 L 147.832031 744.347656 C 141.355469 744.347656 136.078125 739.074219 136.078125 732.597656 C 136.078125 726.121094 141.34375 720.847656 147.832031 720.847656 L 348.9375 720.847656 C 355.414062 720.847656 360.691406 726.121094 360.691406 732.597656 C 360.691406 739.074219 355.425781 744.347656 348.9375 744.347656 Z M 147.476562 584.515625 C 147.476562 579.796875 151.3125 575.960938 156.03125 575.960938 L 340.753906 575.960938 C 345.472656 575.960938 349.308594 579.796875 349.308594 584.515625 C 349.308594 589.238281 345.472656 593.074219 340.753906 593.074219 L 156.03125 593.074219 C 151.3125 593.074219 147.476562 589.238281 147.476562 584.515625 Z M 147.476562 630.738281 C 147.476562 626.019531 151.3125 622.183594 156.03125 622.183594 L 340.753906 622.183594 C 345.472656 622.183594 349.308594 626.019531 349.308594 630.738281 C 349.308594 635.460938 345.472656 639.296875 340.753906 639.296875 L 156.03125 639.296875 C 151.3125 639.296875 147.476562 635.460938 147.476562 630.738281 Z M 147.476562 676.949219 C 147.476562 672.226562 151.3125 668.390625 156.03125 668.390625 L 340.753906 668.390625 C 345.472656 668.390625 349.308594 672.226562 349.308594 676.949219 C 349.308594 681.667969 345.472656 685.503906 340.753906 685.503906 L 156.03125 685.503906 C 151.3125 685.503906 147.476562 681.667969 147.476562 676.949219 Z M 767.097656 815.757812 L 750.980469 813.304688 C 749.683594 809.425781 748.113281 805.632812 746.289062 801.980469 L 755.945312 788.847656 C 758.453125 785.4375 758.097656 780.71875 755.101562 777.722656 L 730.714844 753.335938 C 727.71875 750.339844 723 749.984375 719.589844 752.492188 L 717.007812 754.390625 L 717.007812 309.546875 C 717.007812 283.019531 695.429688 261.441406 668.902344 261.441406 L 135.054688 261.441406 C 108.527344 261.441406 86.949219 283.019531 86.949219 309.546875 L 86.949219 764.332031 C 86.949219 790.855469 108.527344 812.433594 135.054688 812.433594 L 583.261719 812.433594 C 583.160156 812.734375 583.046875 813.019531 582.949219 813.320312 L 566.832031 815.773438 C 562.652344 816.414062 559.558594 820.007812 559.558594 824.230469 L 559.558594 858.730469 C 559.558594 862.949219 562.652344 866.546875 566.832031 867.1875 L 582.949219 869.640625 C 584.246094 873.519531 585.8125 877.3125 587.640625 880.976562 L 577.984375 894.113281 C 575.472656 897.523438 575.832031 902.242188 578.824219 905.238281 L 603.214844 929.625 C 606.195312 932.621094 610.929688 932.976562 614.335938 930.464844 L 627.472656 920.8125 C 631.136719 922.636719 634.917969 924.207031 638.8125 925.503906 L 641.265625 941.621094 C 641.90625 945.796875 645.5 948.894531 649.722656 948.894531 L 684.222656 948.894531 C 688.441406 948.894531 692.035156 945.796875 692.679688 941.621094 L 695.132812 925.503906 C 699.011719 924.207031 702.804688 922.636719 706.46875 920.8125 L 719.605469 930.464844 C 723.011719 932.976562 727.734375 932.621094 730.730469 929.625 L 755.117188 905.238281 C 758.113281 902.242188 758.46875 897.523438 755.957031 894.113281 L 746.304688 880.976562 C 748.128906 877.3125 749.695312 873.535156 750.996094 869.640625 L 767.109375 867.1875 C 771.289062 866.546875 774.382812 862.949219 774.382812 858.730469 L 774.382812 824.230469 C 774.382812 820.007812 771.289062 816.398438 767.109375 815.773438 Z M 135.054688 278.554688 L 668.917969 278.554688 C 686.003906 278.554688 699.910156 292.460938 699.910156 309.546875 L 699.910156 374.4375 L 104.0625 374.4375 L 104.0625 309.546875 C 104.0625 292.460938 117.96875 278.554688 135.054688 278.554688 Z M 104.0625 764.316406 L 104.0625 391.539062 L 699.910156 391.539062 L 699.910156 759.210938 C 698.339844 758.582031 696.742188 757.984375 695.132812 757.441406 L 692.679688 741.324219 C 692.035156 737.148438 688.441406 734.050781 684.222656 734.050781 L 649.722656 734.050781 C 645.5 734.050781 641.90625 737.148438 641.265625 741.324219 L 638.8125 757.441406 C 634.933594 758.738281 631.136719 760.308594 627.472656 762.132812 L 614.335938 752.480469 C 610.929688 749.96875 606.207031 750.324219 603.214844 753.320312 L 578.824219 777.707031 C 575.832031 780.703125 575.472656 785.421875 577.984375 788.832031 L 582.746094 795.308594 L 135.054688 795.308594 C 117.96875 795.308594 104.0625 781.402344 104.0625 764.316406 Z M 757.257812 851.355469 L 743.050781 853.523438 C 739.683594 854.039062 736.933594 856.503906 736.0625 859.800781 C 734.4375 865.945312 731.984375 871.863281 728.773438 877.371094 C 727.0625 880.320312 727.261719 884 729.273438 886.738281 L 737.789062 898.320312 L 723.796875 912.3125 L 712.21875 903.796875 C 709.480469 901.773438 705.785156 901.570312 702.847656 903.296875 C 697.34375 906.507812 691.421875 908.945312 685.277344 910.585938 C 681.980469 911.457031 679.515625 914.207031 679 917.574219 L 676.832031 931.765625 L 657.039062 931.765625 L 654.871094 917.574219 C 654.355469 914.207031 651.890625 911.457031 648.59375 910.585938 C 642.449219 908.960938 636.527344 906.507812 631.023438 903.296875 C 628.070312 901.585938 624.390625 901.785156 621.652344 903.796875 L 610.074219 912.3125 L 596.082031 898.320312 L 604.597656 886.738281 C 606.621094 884 606.808594 880.308594 605.097656 877.371094 C 601.886719 871.863281 599.449219 865.960938 597.808594 859.800781 C 596.9375 856.503906 594.199219 854.039062 590.820312 853.523438 L 576.628906 851.355469 L 576.628906 831.5625 L 590.820312 829.394531 C 594.1875 828.878906 596.9375 826.410156 597.808594 823.117188 C 599.433594 816.972656 601.886719 811.050781 605.097656 805.546875 C 606.808594 802.59375 606.609375 798.914062 604.597656 796.175781 L 596.082031 784.597656 L 610.074219 770.605469 L 621.652344 779.121094 C 624.40625 781.144531 628.085938 781.332031 631.023438 779.617188 C 636.527344 776.410156 642.433594 773.972656 648.59375 772.332031 C 651.890625 771.460938 654.355469 768.707031 654.871094 765.34375 L 657.039062 751.136719 L 676.832031 751.136719 L 679 765.34375 C 679.515625 768.707031 681.980469 771.460938 685.277344 772.332031 C 691.421875 773.957031 697.328125 776.410156 702.847656 779.617188 C 705.800781 781.332031 709.480469 781.128906 712.21875 779.121094 L 723.796875 770.605469 L 737.789062 784.597656 L 729.273438 796.175781 C 727.25 798.929688 727.0625 802.609375 728.773438 805.546875 C 731.984375 811.050781 734.421875 816.957031 736.046875 823.117188 C 736.917969 826.410156 739.671875 828.878906 743.035156 829.394531 L 757.226562 831.5625 L 757.226562 851.355469 Z M 666.964844 781.53125 C 633.917969 781.53125 607.035156 808.414062 607.035156 841.457031 C 607.035156 874.503906 633.917969 901.386719 666.964844 901.386719 C 700.007812 901.386719 726.890625 874.503906 726.890625 841.457031 C 726.890625 808.414062 700.007812 781.53125 666.964844 781.53125 Z M 666.964844 884.285156 C 643.359375 884.285156 624.148438 865.074219 624.148438 841.472656 C 624.148438 817.871094 643.359375 798.660156 666.964844 798.660156 C 690.566406 798.660156 709.777344 817.871094 709.777344 841.472656 C 709.777344 865.074219 690.566406 884.285156 666.964844 884.285156 Z M 666.964844 884.285156 " fill-opacity="1" fill-rule="nonzero"/></g></svg>