<svg xmlns="http://www.w3.org/2000/svg" xmlns:xlink="http://www.w3.org/1999/xlink" width="1080" zoomAndPan="magnify" viewBox="0 0 810 1012.49997" height="1350" preserveAspectRatio="xMidYMid meet" version="1.0"><defs><clipPath id="dc173dee24"><path d="M 27.636719 317 L 782.515625 317 L 782.515625 377.515625 L 27.636719 377.515625 Z M 27.636719 317 " clip-rule="nonzero"/></clipPath><clipPath id="8b42f6b73b"><path d="M 27.636719 128.636719 L 782.515625 128.636719 L 782.515625 335 L 27.636719 335 Z M 27.636719 128.636719 " clip-rule="nonzero"/></clipPath><clipPath id="e24fe76018"><path d="M 27.636719 317 L 103.351562 317 L 103.351562 883.515625 L 27.636719 883.515625 Z M 27.636719 317 " clip-rule="nonzero"/></clipPath><clipPath id="0d9f4517c2"><path d="M 27.636719 128.636719 L 103.351562 128.636719 L 103.351562 335 L 27.636719 335 Z M 27.636719 128.636719 " clip-rule="nonzero"/></clipPath><clipPath id="4ae2109846"><path d="M 80 168 L 103.351562 168 L 103.351562 294 L 80 294 Z M 80 168 " clip-rule="nonzero"/></clipPath><clipPath id="337fd367e2"><path d="M 708.847656 317 L 782.308594 317 L 782.308594 883.515625 L 708.847656 883.515625 Z M 708.847656 317 " clip-rule="nonzero"/></clipPath><clipPath id="57a228d76b"><path d="M 708.847656 128.636719 L 782.308594 128.636719 L 782.308594 335 L 708.847656 335 Z M 708.847656 128.636719 " clip-rule="nonzero"/></clipPath><clipPath id="82b5c63d23"><path d="M 43.738281 839.671875 L 782.121094 839.671875 L 782.121094 883.152344 L 43.738281 883.152344 Z M 43.738281 839.671875 " clip-rule="nonzero"/></clipPath><clipPath id="a975769a78"><path d="M 118.777344 399.425781 L 585.046875 399.425781 L 585.046875 763.746094 L 118.777344 763.746094 Z M 118.777344 399.425781 " clip-rule="nonzero"/></clipPath><clipPath id="17210f5875"><path d="M 507.820312 399.425781 L 622.511719 399.425781 L 622.511719 744.253906 L 507.820312 744.253906 Z M 507.820312 399.425781 " clip-rule="nonzero"/></clipPath><clipPath id="b908eed284"><path d="M 527.707031 399.425781 L 691.125 399.425781 L 691.125 728.511719 L 527.707031 728.511719 Z M 527.707031 399.425781 " clip-rule="nonzero"/></clipPath></defs><g clip-path="url(#dc173dee24)"><path fill="#1f2937" d="M 705.683594 883.351562 L 104.304688 883.351562 C 61.761719 883.351562 27.636719 848.785156 27.636719 806.683594 L 27.636719 325.847656 C 27.636719 320.972656 31.625 317.425781 36.5 317.425781 L 773.488281 317.425781 C 778.363281 317.425781 782.351562 320.972656 782.351562 325.847656 L 782.351562 806.683594 C 782.351562 848.785156 747.785156 883.351562 705.683594 883.351562 Z M 45.363281 334.710938 L 45.363281 806.683594 C 45.363281 839.476562 71.511719 865.625 104.304688 865.625 L 705.683594 865.625 C 738.476562 865.625 764.625 839.476562 764.625 806.683594 L 764.625 334.710938 Z M 45.363281 334.710938 " fill-opacity="1" fill-rule="evenodd"/></g><g clip-path="url(#8b42f6b73b)"><path fill="#1f2937" d="M 773.488281 334.710938 L 36.5 334.710938 C 31.625 334.710938 27.636719 330.722656 27.636719 325.847656 L 27.636719 203.53125 C 27.636719 161.433594 61.320312 128.636719 104.304688 128.636719 L 705.683594 128.636719 C 748.671875 128.636719 782.351562 161.433594 782.351562 203.53125 L 782.351562 325.847656 C 782.351562 330.722656 778.363281 334.710938 773.488281 334.710938 Z M 45.363281 317.425781 L 764.625 317.425781 L 764.625 203.53125 C 764.625 171.183594 738.921875 146.363281 705.683594 146.363281 L 104.304688 146.363281 C 71.066406 146.363281 45.363281 171.183594 45.363281 203.53125 Z M 45.363281 317.425781 " fill-opacity="1" fill-rule="evenodd"/></g><path fill="#1f2937" d="M 143.746094 293.496094 C 109.179688 293.496094 80.375 266.019531 80.375 231.894531 C 80.375 197.328125 109.625 168.078125 143.746094 168.078125 C 178.316406 168.078125 205.789062 196.886719 205.789062 231.894531 C 205.789062 266.019531 178.316406 293.496094 143.746094 293.496094 Z M 289.992188 293.496094 C 255.867188 293.496094 227.949219 266.019531 227.949219 231.894531 C 227.949219 196.886719 255.867188 168.078125 289.992188 168.078125 C 324.117188 168.078125 352.035156 196.886719 352.035156 231.894531 C 352.035156 266.019531 324.117188 293.496094 289.992188 293.496094 Z M 435.792969 293.496094 C 401.671875 293.496094 373.75 266.019531 373.75 231.894531 C 373.75 196.886719 401.671875 168.078125 435.792969 168.078125 C 470.804688 168.078125 499.167969 196.886719 499.167969 231.894531 C 499.167969 266.460938 471.246094 293.496094 435.792969 293.496094 Z M 435.792969 293.496094 " fill-opacity="1" fill-rule="evenodd"/><g clip-path="url(#e24fe76018)"><path fill="#1f2937" d="M 705.683594 883.351562 L 104.304688 883.351562 C 61.761719 883.351562 27.636719 848.785156 27.636719 806.683594 L 27.636719 325.847656 C 27.636719 320.972656 31.625 317.425781 36.5 317.425781 L 773.488281 317.425781 C 778.363281 317.425781 782.351562 320.972656 782.351562 325.847656 L 782.351562 806.683594 C 782.351562 848.785156 747.785156 883.351562 705.683594 883.351562 Z M 45.363281 334.710938 L 45.363281 806.683594 C 45.363281 839.476562 71.511719 865.625 104.304688 865.625 L 705.683594 865.625 C 738.476562 865.625 764.625 839.476562 764.625 806.683594 L 764.625 334.710938 Z M 45.363281 334.710938 " fill-opacity="1" fill-rule="evenodd"/></g><g clip-path="url(#0d9f4517c2)"><path fill="#1f2937" d="M 773.488281 334.710938 L 36.5 334.710938 C 31.625 334.710938 27.636719 330.722656 27.636719 325.847656 L 27.636719 203.53125 C 27.636719 161.433594 61.320312 128.636719 104.304688 128.636719 L 705.683594 128.636719 C 748.671875 128.636719 782.351562 161.433594 782.351562 203.53125 L 782.351562 325.847656 C 782.351562 330.722656 778.363281 334.710938 773.488281 334.710938 Z M 45.363281 317.425781 L 764.625 317.425781 L 764.625 203.53125 C 764.625 171.183594 738.921875 146.363281 705.683594 146.363281 L 104.304688 146.363281 C 71.066406 146.363281 45.363281 171.183594 45.363281 203.53125 Z M 45.363281 317.425781 " fill-opacity="1" fill-rule="evenodd"/></g><g clip-path="url(#4ae2109846)"><path fill="#1f2937" d="M 143.746094 293.496094 C 109.179688 293.496094 80.375 266.019531 80.375 231.894531 C 80.375 197.328125 109.625 168.078125 143.746094 168.078125 C 178.316406 168.078125 205.789062 196.886719 205.789062 231.894531 C 205.789062 266.019531 178.316406 293.496094 143.746094 293.496094 Z M 289.992188 293.496094 C 255.867188 293.496094 227.949219 266.019531 227.949219 231.894531 C 227.949219 196.886719 255.867188 168.078125 289.992188 168.078125 C 324.117188 168.078125 352.035156 196.886719 352.035156 231.894531 C 352.035156 266.019531 324.117188 293.496094 289.992188 293.496094 Z M 435.792969 293.496094 C 401.671875 293.496094 373.75 266.019531 373.75 231.894531 C 373.75 196.886719 401.671875 168.078125 435.792969 168.078125 C 470.804688 168.078125 499.167969 196.886719 499.167969 231.894531 C 499.167969 266.460938 471.246094 293.496094 435.792969 293.496094 Z M 435.792969 293.496094 " fill-opacity="1" fill-rule="evenodd"/></g><g clip-path="url(#337fd367e2)"><path fill="#1f2937" d="M 705.683594 883.351562 L 104.304688 883.351562 C 61.761719 883.351562 27.636719 848.785156 27.636719 806.683594 L 27.636719 325.847656 C 27.636719 320.972656 31.625 317.425781 36.5 317.425781 L 773.488281 317.425781 C 778.363281 317.425781 782.351562 320.972656 782.351562 325.847656 L 782.351562 806.683594 C 782.351562 848.785156 747.785156 883.351562 705.683594 883.351562 Z M 45.363281 334.710938 L 45.363281 806.683594 C 45.363281 839.476562 71.511719 865.625 104.304688 865.625 L 705.683594 865.625 C 738.476562 865.625 764.625 839.476562 764.625 806.683594 L 764.625 334.710938 Z M 45.363281 334.710938 " fill-opacity="1" fill-rule="evenodd"/></g><g clip-path="url(#57a228d76b)"><path fill="#1f2937" d="M 773.488281 334.710938 L 36.5 334.710938 C 31.625 334.710938 27.636719 330.722656 27.636719 325.847656 L 27.636719 203.53125 C 27.636719 161.433594 61.320312 128.636719 104.304688 128.636719 L 705.683594 128.636719 C 748.671875 128.636719 782.351562 161.433594 782.351562 203.53125 L 782.351562 325.847656 C 782.351562 330.722656 778.363281 334.710938 773.488281 334.710938 Z M 45.363281 317.425781 L 764.625 317.425781 L 764.625 203.53125 C 764.625 171.183594 738.921875 146.363281 705.683594 146.363281 L 104.304688 146.363281 C 71.066406 146.363281 45.363281 171.183594 45.363281 203.53125 Z M 45.363281 317.425781 " fill-opacity="1" fill-rule="evenodd"/></g><g clip-path="url(#82b5c63d23)"><path fill="#1f2937" d="M 705.683594 883.351562 L 104.304688 883.351562 C 61.761719 883.351562 27.636719 848.785156 27.636719 806.683594 L 27.636719 325.847656 C 27.636719 320.972656 31.625 317.425781 36.5 317.425781 L 773.488281 317.425781 C 778.363281 317.425781 782.351562 320.972656 782.351562 325.847656 L 782.351562 806.683594 C 782.351562 848.785156 747.785156 883.351562 705.683594 883.351562 Z M 45.363281 334.710938 L 45.363281 806.683594 C 45.363281 839.476562 71.511719 865.625 104.304688 865.625 L 705.683594 865.625 C 738.476562 865.625 764.625 839.476562 764.625 806.683594 L 764.625 334.710938 Z M 45.363281 334.710938 " fill-opacity="1" fill-rule="evenodd"/></g><g clip-path="url(#a975769a78)"><path fill="#1f2937" d="M 158.84375 356.273438 C 176.769531 356.273438 191.34375 341.683594 191.34375 323.769531 C 191.34375 305.859375 176.753906 291.269531 158.84375 291.269531 C 140.929688 291.269531 126.339844 305.859375 126.339844 323.769531 C 126.339844 341.683594 140.929688 356.273438 158.84375 356.273438 Z M 158.84375 308.367188 C 167.328125 308.367188 174.230469 315.269531 174.230469 323.757812 C 174.230469 332.242188 167.328125 339.144531 158.84375 339.144531 C 150.355469 339.144531 143.453125 332.242188 143.453125 323.757812 C 143.453125 315.269531 150.355469 308.367188 158.84375 308.367188 Z M 334.992188 356.273438 L 468.980469 356.273438 C 486.90625 356.273438 501.484375 341.683594 501.484375 323.769531 C 501.484375 305.859375 486.894531 291.269531 468.980469 291.269531 L 334.992188 291.269531 C 317.0625 291.269531 302.488281 305.859375 302.488281 323.769531 C 302.488281 341.683594 317.078125 356.273438 334.992188 356.273438 Z M 334.992188 308.367188 L 468.980469 308.367188 C 477.464844 308.367188 484.371094 315.269531 484.371094 323.757812 C 484.371094 332.242188 477.464844 339.144531 468.980469 339.144531 L 334.992188 339.144531 C 326.503906 339.144531 319.601562 332.242188 319.601562 323.757812 C 319.601562 315.269531 326.503906 308.367188 334.992188 308.367188 Z M 685.003906 686.734375 C 685.003906 679.976562 680.15625 673.699219 671.699219 669.507812 L 634.402344 651.007812 L 675.320312 630.714844 C 681.46875 627.664062 685.003906 622.585938 685.003906 616.765625 C 685.003906 610.007812 680.15625 603.730469 671.699219 599.539062 L 634.402344 581.039062 L 675.320312 560.746094 C 681.46875 557.695312 684.992188 552.617188 684.992188 546.796875 C 684.992188 540.039062 680.140625 533.761719 671.683594 529.570312 L 568.628906 478.453125 C 556.320312 472.351562 539.320312 471.582031 529.082031 476.65625 L 418.765625 531.367188 C 412.617188 534.417969 409.082031 539.496094 409.082031 545.316406 C 409.082031 552.074219 413.929688 558.351562 422.386719 562.542969 L 459.683594 581.039062 L 418.765625 601.335938 C 412.617188 604.386719 409.082031 609.464844 409.082031 615.285156 C 409.082031 622.042969 413.929688 628.320312 422.386719 632.511719 L 459.683594 651.007812 L 418.765625 671.304688 C 412.617188 674.355469 409.082031 679.433594 409.082031 685.253906 C 409.082031 692.011719 413.929688 698.289062 422.386719 702.480469 L 525.457031 753.59375 C 532.316406 756.988281 540.632812 758.742188 548.417969 758.742188 C 554.609375 758.742188 560.46875 757.644531 564.992188 755.390625 L 675.308594 700.683594 C 681.453125 697.632812 684.992188 692.554688 684.992188 686.734375 Z M 427.847656 546 L 536.695312 492.019531 C 541.585938 489.59375 553.027344 489.851562 561.027344 493.816406 L 664.082031 544.929688 C 664.96875 545.371094 665.667969 545.785156 666.238281 546.171875 L 557.390625 600.136719 C 552.5 602.5625 541.058594 602.304688 533.058594 598.339844 L 430.003906 547.226562 C 429.117188 546.785156 428.421875 546.371094 427.847656 545.984375 Z M 427.847656 615.953125 L 478.949219 590.609375 L 525.457031 613.671875 C 532.316406 617.082031 540.632812 618.820312 548.417969 618.820312 C 554.609375 618.820312 560.46875 617.722656 564.992188 615.46875 L 615.121094 590.609375 L 664.082031 614.882812 C 664.96875 615.3125 665.667969 615.738281 666.238281 616.125 L 557.40625 670.089844 C 552.511719 672.515625 541.058594 672.257812 533.058594 668.292969 L 430.003906 617.179688 C 429.117188 616.738281 428.417969 616.324219 427.847656 615.9375 Z M 557.40625 740.058594 C 552.511719 742.484375 541.074219 742.226562 533.074219 738.261719 L 430.015625 687.148438 C 429.132812 686.707031 428.433594 686.292969 427.863281 685.90625 L 478.964844 660.566406 L 525.472656 683.625 C 532.332031 687.035156 540.648438 688.773438 548.433594 688.773438 C 554.625 688.773438 560.484375 687.675781 565.003906 685.421875 L 615.136719 660.566406 L 664.082031 684.839844 C 664.96875 685.28125 665.667969 685.695312 666.238281 686.078125 L 557.390625 740.046875 Z M 183.984375 452.3125 C 164.488281 452.3125 148.617188 468.171875 148.617188 487.683594 C 148.617188 507.191406 164.476562 523.050781 183.984375 523.050781 C 203.496094 523.050781 219.355469 507.191406 219.355469 487.683594 C 219.355469 468.171875 203.496094 452.3125 183.984375 452.3125 Z M 183.984375 505.921875 C 173.917969 505.921875 165.730469 497.738281 165.730469 487.667969 C 165.730469 477.597656 173.917969 469.414062 183.984375 469.414062 C 194.054688 469.414062 202.242188 477.597656 202.242188 487.667969 C 202.242188 497.738281 194.054688 505.921875 183.984375 505.921875 Z M 379.542969 463.28125 L 247.695312 463.28125 C 245.539062 463.28125 243.84375 462.195312 242.929688 460.242188 C 232.289062 437.410156 209.15625 422.664062 183.972656 422.664062 C 148.132812 422.664062 118.964844 451.828125 118.964844 487.667969 C 118.964844 523.507812 148.132812 552.671875 183.972656 552.671875 C 209.144531 552.671875 232.289062 537.925781 242.914062 515.09375 C 243.828125 513.140625 245.527344 512.054688 247.679688 512.054688 L 277.273438 512.054688 L 277.273438 522.351562 C 277.273438 535.800781 288.210938 546.753906 301.675781 546.753906 C 315.136719 546.753906 326.078125 535.816406 326.078125 522.351562 L 326.078125 512.054688 L 336.101562 512.054688 L 336.101562 522.351562 C 336.101562 535.800781 347.042969 546.753906 360.503906 546.753906 C 373.96875 546.753906 384.90625 535.816406 384.90625 522.351562 L 384.90625 511.472656 C 395.789062 509.03125 403.960938 499.277344 403.960938 487.667969 C 403.960938 474.21875 393.023438 463.265625 379.558594 463.265625 Z M 379.542969 494.957031 L 376.335938 494.957031 C 371.613281 494.957031 367.777344 498.792969 367.777344 503.511719 L 367.777344 522.367188 C 367.777344 526.390625 364.511719 529.65625 360.492188 529.65625 C 356.46875 529.65625 353.203125 526.390625 353.203125 522.367188 L 353.203125 503.511719 C 353.203125 498.792969 349.367188 494.957031 344.644531 494.957031 L 317.503906 494.957031 C 312.785156 494.957031 308.949219 498.792969 308.949219 503.511719 L 308.949219 522.367188 C 308.949219 526.390625 305.683594 529.65625 301.660156 529.65625 C 297.636719 529.65625 294.371094 526.390625 294.371094 522.367188 L 294.371094 503.511719 C 294.371094 498.792969 290.535156 494.957031 285.816406 494.957031 L 247.664062 494.957031 C 238.878906 494.957031 231.105469 499.90625 227.382812 507.878906 C 219.539062 524.691406 202.496094 535.574219 183.941406 535.574219 C 157.53125 535.574219 136.050781 514.082031 136.050781 487.683594 C 136.050781 461.285156 157.542969 439.789062 183.941406 439.789062 C 202.496094 439.789062 219.539062 450.660156 227.382812 467.488281 C 231.105469 475.460938 238.867188 480.410156 247.664062 480.410156 L 379.515625 480.410156 C 383.539062 480.410156 386.804688 483.675781 386.804688 487.695312 C 386.804688 491.71875 383.539062 494.984375 379.515625 494.984375 Z M 348.9375 700.996094 L 147.832031 700.996094 C 131.914062 700.996094 118.964844 713.945312 118.964844 729.863281 C 118.964844 745.78125 131.914062 758.730469 147.832031 758.730469 L 348.9375 758.730469 C 364.855469 758.730469 377.804688 745.78125 377.804688 729.863281 C 377.804688 713.945312 364.855469 700.996094 348.9375 700.996094 Z M 348.9375 741.613281 L 147.832031 741.613281 C 141.355469 741.613281 136.078125 736.339844 136.078125 729.863281 C 136.078125 723.386719 141.34375 718.113281 147.832031 718.113281 L 348.9375 718.113281 C 355.414062 718.113281 360.691406 723.386719 360.691406 729.863281 C 360.691406 736.339844 355.425781 741.613281 348.9375 741.613281 Z M 147.476562 581.78125 C 147.476562 577.0625 151.3125 573.226562 156.03125 573.226562 L 340.753906 573.226562 C 345.472656 573.226562 349.308594 577.0625 349.308594 581.78125 C 349.308594 586.503906 345.472656 590.339844 340.753906 590.339844 L 156.03125 590.339844 C 151.3125 590.339844 147.476562 586.503906 147.476562 581.78125 Z M 147.476562 628.003906 C 147.476562 623.285156 151.3125 619.449219 156.03125 619.449219 L 340.753906 619.449219 C 345.472656 619.449219 349.308594 623.285156 349.308594 628.003906 C 349.308594 632.726562 345.472656 636.5625 340.753906 636.5625 L 156.03125 636.5625 C 151.3125 636.5625 147.476562 632.726562 147.476562 628.003906 Z M 147.476562 674.214844 C 147.476562 669.492188 151.3125 665.65625 156.03125 665.65625 L 340.753906 665.65625 C 345.472656 665.65625 349.308594 669.492188 349.308594 674.214844 C 349.308594 678.933594 345.472656 682.769531 340.753906 682.769531 L 156.03125 682.769531 C 151.3125 682.769531 147.476562 678.933594 147.476562 674.214844 Z M 767.097656 813.023438 L 750.980469 810.570312 C 749.683594 806.691406 748.113281 802.898438 746.289062 799.246094 L 755.945312 786.113281 C 758.453125 782.703125 758.097656 777.984375 755.101562 774.988281 L 730.714844 750.601562 C 727.71875 747.605469 723 747.25 719.589844 749.757812 L 717.007812 751.65625 L 717.007812 306.8125 C 717.007812 280.285156 695.429688 258.707031 668.902344 258.707031 L 135.054688 258.707031 C 108.527344 258.707031 86.949219 280.285156 86.949219 306.8125 L 86.949219 761.597656 C 86.949219 788.121094 108.527344 809.699219 135.054688 809.699219 L 583.261719 809.699219 C 583.160156 810 583.046875 810.285156 582.949219 810.585938 L 566.832031 813.039062 C 562.652344 813.679688 559.558594 817.273438 559.558594 821.496094 L 559.558594 855.996094 C 559.558594 860.214844 562.652344 863.8125 566.832031 864.453125 L 582.949219 866.90625 C 584.246094 870.785156 585.8125 874.578125 587.640625 878.242188 L 577.984375 891.378906 C 575.472656 894.789062 575.832031 899.507812 578.824219 902.503906 L 603.214844 926.890625 C 606.195312 929.886719 610.929688 930.242188 614.335938 927.730469 L 627.472656 918.078125 C 631.136719 919.902344 634.917969 921.472656 638.8125 922.769531 L 641.265625 938.886719 C 641.90625 943.0625 645.5 946.160156 649.722656 946.160156 L 684.222656 946.160156 C 688.441406 946.160156 692.035156 943.0625 692.679688 938.886719 L 695.132812 922.769531 C 699.011719 921.472656 702.804688 919.902344 706.46875 918.078125 L 719.605469 927.730469 C 723.011719 930.242188 727.734375 929.886719 730.730469 926.890625 L 755.117188 902.503906 C 758.113281 899.507812 758.46875 894.789062 755.957031 891.378906 L 746.304688 878.242188 C 748.128906 874.578125 749.695312 870.800781 750.996094 866.90625 L 767.109375 864.453125 C 771.289062 863.8125 774.382812 860.214844 774.382812 855.996094 L 774.382812 821.496094 C 774.382812 817.273438 771.289062 813.664062 767.109375 813.039062 Z M 135.054688 275.820312 L 668.917969 275.820312 C 686.003906 275.820312 699.910156 289.726562 699.910156 306.8125 L 699.910156 371.703125 L 104.0625 371.703125 L 104.0625 306.8125 C 104.0625 289.726562 117.96875 275.820312 135.054688 275.820312 Z M 104.0625 761.582031 L 104.0625 388.804688 L 699.910156 388.804688 L 699.910156 756.476562 C 698.339844 755.847656 696.742188 755.25 695.132812 754.707031 L 692.679688 738.589844 C 692.035156 734.414062 688.441406 731.316406 684.222656 731.316406 L 649.722656 731.316406 C 645.5 731.316406 641.90625 734.414062 641.265625 738.589844 L 638.8125 754.707031 C 634.933594 756.003906 631.136719 757.574219 627.472656 759.398438 L 614.335938 749.746094 C 610.929688 747.234375 606.207031 747.589844 603.214844 750.585938 L 578.824219 774.972656 C 575.832031 777.96875 575.472656 782.6875 577.984375 786.097656 L 582.746094 792.574219 L 135.054688 792.574219 C 117.96875 792.574219 104.0625 778.667969 104.0625 761.582031 Z M 757.257812 848.621094 L 743.050781 850.789062 C 739.683594 851.304688 736.933594 853.769531 736.0625 857.066406 C 734.4375 863.210938 731.984375 869.128906 728.773438 874.636719 C 727.0625 877.585938 727.261719 881.265625 729.273438 884.003906 L 737.789062 895.585938 L 723.796875 909.578125 L 712.21875 901.0625 C 709.480469 899.039062 705.785156 898.835938 702.847656 900.5625 C 697.34375 903.773438 691.421875 906.210938 685.277344 907.851562 C 681.980469 908.722656 679.515625 911.472656 679 914.839844 L 676.832031 929.03125 L 657.039062 929.03125 L 654.871094 914.839844 C 654.355469 911.472656 651.890625 908.722656 648.59375 907.851562 C 642.449219 906.226562 636.527344 903.773438 631.023438 900.5625 C 628.070312 898.851562 624.390625 899.050781 621.652344 901.0625 L 610.074219 909.578125 L 596.082031 895.585938 L 604.597656 884.003906 C 606.621094 881.265625 606.808594 877.574219 605.097656 874.636719 C 601.886719 869.128906 599.449219 863.226562 597.808594 857.066406 C 596.9375 853.769531 594.199219 851.304688 590.820312 850.789062 L 576.628906 848.621094 L 576.628906 828.828125 L 590.820312 826.660156 C 594.1875 826.144531 596.9375 823.679688 597.808594 820.382812 C 599.433594 814.238281 601.886719 808.316406 605.097656 802.8125 C 606.808594 799.859375 606.609375 796.179688 604.597656 793.441406 L 596.082031 781.863281 L 610.074219 767.871094 L 621.652344 776.386719 C 624.40625 778.410156 628.085938 778.597656 631.023438 776.882812 C 636.527344 773.675781 642.433594 771.238281 648.59375 769.597656 C 651.890625 768.726562 654.355469 765.972656 654.871094 762.609375 L 657.039062 748.402344 L 676.832031 748.402344 L 679 762.609375 C 679.515625 765.972656 681.980469 768.726562 685.277344 769.597656 C 691.421875 771.222656 697.328125 773.675781 702.847656 776.882812 C 705.800781 778.597656 709.480469 778.394531 712.21875 776.386719 L 723.796875 767.871094 L 737.789062 781.863281 L 729.273438 793.441406 C 727.25 796.195312 727.0625 799.875 728.773438 802.8125 C 731.984375 808.316406 734.421875 814.222656 736.046875 820.382812 C 736.917969 823.679688 739.671875 826.144531 743.035156 826.660156 L 757.226562 828.828125 L 757.226562 848.621094 Z M 666.964844 778.796875 C 633.917969 778.796875 607.035156 805.679688 607.035156 838.722656 C 607.035156 871.769531 633.917969 898.652344 666.964844 898.652344 C 700.007812 898.652344 726.890625 871.769531 726.890625 838.722656 C 726.890625 805.679688 700.007812 778.796875 666.964844 778.796875 Z M 666.964844 881.550781 C 643.359375 881.550781 624.148438 862.339844 624.148438 838.738281 C 624.148438 815.136719 643.359375 795.925781 666.964844 795.925781 C 690.566406 795.925781 709.777344 815.136719 709.777344 838.738281 C 709.777344 862.339844 690.566406 881.550781 666.964844 881.550781 Z M 666.964844 881.550781 " fill-opacity="1" fill-rule="nonzero"/></g><g clip-path="url(#17210f5875)"><path fill="#1f2937" d="M 158.84375 356.273438 C 176.769531 356.273438 191.34375 341.683594 191.34375 323.769531 C 191.34375 305.859375 176.753906 291.269531 158.84375 291.269531 C 140.929688 291.269531 126.339844 305.859375 126.339844 323.769531 C 126.339844 341.683594 140.929688 356.273438 158.84375 356.273438 Z M 158.84375 308.367188 C 167.328125 308.367188 174.230469 315.269531 174.230469 323.757812 C 174.230469 332.242188 167.328125 339.144531 158.84375 339.144531 C 150.355469 339.144531 143.453125 332.242188 143.453125 323.757812 C 143.453125 315.269531 150.355469 308.367188 158.84375 308.367188 Z M 334.992188 356.273438 L 468.980469 356.273438 C 486.90625 356.273438 501.484375 341.683594 501.484375 323.769531 C 501.484375 305.859375 486.894531 291.269531 468.980469 291.269531 L 334.992188 291.269531 C 317.0625 291.269531 302.488281 305.859375 302.488281 323.769531 C 302.488281 341.683594 317.078125 356.273438 334.992188 356.273438 Z M 334.992188 308.367188 L 468.980469 308.367188 C 477.464844 308.367188 484.371094 315.269531 484.371094 323.757812 C 484.371094 332.242188 477.464844 339.144531 468.980469 339.144531 L 334.992188 339.144531 C 326.503906 339.144531 319.601562 332.242188 319.601562 323.757812 C 319.601562 315.269531 326.503906 308.367188 334.992188 308.367188 Z M 685.003906 686.734375 C 685.003906 679.976562 680.15625 673.699219 671.699219 669.507812 L 634.402344 651.007812 L 675.320312 630.714844 C 681.46875 627.664062 685.003906 622.585938 685.003906 616.765625 C 685.003906 610.007812 680.15625 603.730469 671.699219 599.539062 L 634.402344 581.039062 L 675.320312 560.746094 C 681.46875 557.695312 684.992188 552.617188 684.992188 546.796875 C 684.992188 540.039062 680.140625 533.761719 671.683594 529.570312 L 568.628906 478.453125 C 556.320312 472.351562 539.320312 471.582031 529.082031 476.65625 L 418.765625 531.367188 C 412.617188 534.417969 409.082031 539.496094 409.082031 545.316406 C 409.082031 552.074219 413.929688 558.351562 422.386719 562.542969 L 459.683594 581.039062 L 418.765625 601.335938 C 412.617188 604.386719 409.082031 609.464844 409.082031 615.285156 C 409.082031 622.042969 413.929688 628.320312 422.386719 632.511719 L 459.683594 651.007812 L 418.765625 671.304688 C 412.617188 674.355469 409.082031 679.433594 409.082031 685.253906 C 409.082031 692.011719 413.929688 698.289062 422.386719 702.480469 L 525.457031 753.59375 C 532.316406 756.988281 540.632812 758.742188 548.417969 758.742188 C 554.609375 758.742188 560.46875 757.644531 564.992188 755.390625 L 675.308594 700.683594 C 681.453125 697.632812 684.992188 692.554688 684.992188 686.734375 Z M 427.847656 546 L 536.695312 492.019531 C 541.589844 489.59375 553.027344 489.851562 561.027344 493.816406 L 664.082031 544.929688 C 664.96875 545.371094 665.667969 545.785156 666.238281 546.171875 L 557.390625 600.136719 C 552.5 602.5625 541.058594 602.304688 533.058594 598.339844 L 430.003906 547.226562 C 429.117188 546.785156 428.421875 546.371094 427.847656 545.984375 Z M 427.847656 615.953125 L 478.949219 590.609375 L 525.457031 613.671875 C 532.316406 617.082031 540.632812 618.820312 548.417969 618.820312 C 554.609375 618.820312 560.46875 617.722656 564.992188 615.46875 L 615.121094 590.609375 L 664.082031 614.882812 C 664.96875 615.3125 665.667969 615.738281 666.238281 616.125 L 557.40625 670.089844 C 552.511719 672.515625 541.058594 672.257812 533.058594 668.292969 L 430.003906 617.179688 C 429.117188 616.738281 428.417969 616.324219 427.847656 615.9375 Z M 557.40625 740.058594 C 552.511719 742.484375 541.074219 742.226562 533.074219 738.261719 L 430.015625 687.148438 C 429.132812 686.707031 428.433594 686.292969 427.863281 685.90625 L 478.964844 660.566406 L 525.472656 683.625 C 532.332031 687.035156 540.648438 688.773438 548.433594 688.773438 C 554.625 688.773438 560.484375 687.675781 565.007812 685.421875 L 615.136719 660.566406 L 664.082031 684.839844 C 664.96875 685.28125 665.667969 685.695312 666.238281 686.078125 L 557.390625 740.046875 Z M 183.984375 452.3125 C 164.488281 452.3125 148.617188 468.171875 148.617188 487.683594 C 148.617188 507.191406 164.476562 523.050781 183.984375 523.050781 C 203.496094 523.050781 219.355469 507.191406 219.355469 487.683594 C 219.355469 468.171875 203.496094 452.3125 183.984375 452.3125 Z M 183.984375 505.921875 C 173.917969 505.921875 165.730469 497.738281 165.730469 487.667969 C 165.730469 477.597656 173.917969 469.414062 183.984375 469.414062 C 194.054688 469.414062 202.242188 477.597656 202.242188 487.667969 C 202.242188 497.738281 194.054688 505.921875 183.984375 505.921875 Z M 379.542969 463.28125 L 247.695312 463.28125 C 245.539062 463.28125 243.84375 462.195312 242.929688 460.242188 C 232.289062 437.410156 209.15625 422.664062 183.972656 422.664062 C 148.132812 422.664062 118.964844 451.828125 118.964844 487.667969 C 118.964844 523.507812 148.132812 552.671875 183.972656 552.671875 C 209.144531 552.671875 232.289062 537.925781 242.914062 515.09375 C 243.828125 513.140625 245.527344 512.054688 247.679688 512.054688 L 277.273438 512.054688 L 277.273438 522.351562 C 277.273438 535.800781 288.210938 546.753906 301.675781 546.753906 C 315.136719 546.753906 326.078125 535.816406 326.078125 522.351562 L 326.078125 512.054688 L 336.101562 512.054688 L 336.101562 522.351562 C 336.101562 535.800781 347.042969 546.753906 360.503906 546.753906 C 373.96875 546.753906 384.90625 535.816406 384.90625 522.351562 L 384.90625 511.472656 C 395.789062 509.03125 403.960938 499.277344 403.960938 487.667969 C 403.960938 474.21875 393.023438 463.265625 379.558594 463.265625 Z M 379.542969 494.957031 L 376.335938 494.957031 C 371.613281 494.957031 367.777344 498.792969 367.777344 503.511719 L 367.777344 522.367188 C 367.777344 526.390625 364.511719 529.65625 360.492188 529.65625 C 356.46875 529.65625 353.203125 526.390625 353.203125 522.367188 L 353.203125 503.511719 C 353.203125 498.792969 349.367188 494.957031 344.644531 494.957031 L 317.503906 494.957031 C 312.785156 494.957031 308.949219 498.792969 308.949219 503.511719 L 308.949219 522.367188 C 308.949219 526.390625 305.683594 529.65625 301.660156 529.65625 C 297.636719 529.65625 294.371094 526.390625 294.371094 522.367188 L 294.371094 503.511719 C 294.371094 498.792969 290.535156 494.957031 285.816406 494.957031 L 247.664062 494.957031 C 238.878906 494.957031 231.105469 499.90625 227.382812 507.878906 C 219.539062 524.691406 202.496094 535.574219 183.941406 535.574219 C 157.53125 535.574219 136.050781 514.082031 136.050781 487.683594 C 136.050781 461.285156 157.542969 439.789062 183.941406 439.789062 C 202.496094 439.789062 219.539062 450.660156 227.382812 467.488281 C 231.105469 475.460938 238.867188 480.410156 247.664062 480.410156 L 379.515625 480.410156 C 383.539062 480.410156 386.804688 483.675781 386.804688 487.695312 C 386.804688 491.71875 383.539062 494.984375 379.515625 494.984375 Z M 348.9375 700.996094 L 147.832031 700.996094 C 131.914062 700.996094 118.964844 713.945312 118.964844 729.863281 C 118.964844 745.78125 131.914062 758.730469 147.832031 758.730469 L 348.9375 758.730469 C 364.855469 758.730469 377.804688 745.78125 377.804688 729.863281 C 377.804688 713.945312 364.855469 700.996094 348.9375 700.996094 Z M 348.9375 741.613281 L 147.832031 741.613281 C 141.355469 741.613281 136.082031 736.339844 136.082031 729.863281 C 136.082031 723.386719 141.34375 718.113281 147.832031 718.113281 L 348.9375 718.113281 C 355.414062 718.113281 360.691406 723.386719 360.691406 729.863281 C 360.691406 736.339844 355.425781 741.613281 348.9375 741.613281 Z M 147.476562 581.78125 C 147.476562 577.0625 151.3125 573.226562 156.03125 573.226562 L 340.753906 573.226562 C 345.472656 573.226562 349.308594 577.0625 349.308594 581.78125 C 349.308594 586.503906 345.472656 590.339844 340.753906 590.339844 L 156.03125 590.339844 C 151.3125 590.339844 147.476562 586.503906 147.476562 581.78125 Z M 147.476562 628.003906 C 147.476562 623.285156 151.3125 619.449219 156.03125 619.449219 L 340.753906 619.449219 C 345.472656 619.449219 349.308594 623.285156 349.308594 628.003906 C 349.308594 632.726562 345.472656 636.5625 340.753906 636.5625 L 156.03125 636.5625 C 151.3125 636.5625 147.476562 632.726562 147.476562 628.003906 Z M 147.476562 674.214844 C 147.476562 669.492188 151.3125 665.65625 156.03125 665.65625 L 340.753906 665.65625 C 345.472656 665.65625 349.308594 669.492188 349.308594 674.214844 C 349.308594 678.933594 345.472656 682.769531 340.753906 682.769531 L 156.03125 682.769531 C 151.3125 682.769531 147.476562 678.933594 147.476562 674.214844 Z M 767.097656 813.023438 L 750.980469 810.570312 C 749.683594 806.691406 748.113281 802.898438 746.289062 799.246094 L 755.945312 786.113281 C 758.453125 782.703125 758.097656 777.984375 755.101562 774.988281 L 730.714844 750.601562 C 727.71875 747.605469 723 747.25 719.589844 749.757812 L 717.007812 751.65625 L 717.007812 306.8125 C 717.007812 280.285156 695.429688 258.707031 668.902344 258.707031 L 135.054688 258.707031 C 108.527344 258.707031 86.949219 280.285156 86.949219 306.8125 L 86.949219 761.597656 C 86.949219 788.121094 108.527344 809.699219 135.054688 809.699219 L 583.261719 809.699219 C 583.160156 810 583.046875 810.285156 582.949219 810.585938 L 566.832031 813.039062 C 562.652344 813.679688 559.558594 817.273438 559.558594 821.496094 L 559.558594 855.996094 C 559.558594 860.214844 562.652344 863.8125 566.832031 864.453125 L 582.949219 866.90625 C 584.246094 870.785156 585.8125 874.578125 587.640625 878.242188 L 577.984375 891.378906 C 575.472656 894.789062 575.832031 899.507812 578.824219 902.503906 L 603.214844 926.890625 C 606.195312 929.886719 610.929688 930.242188 614.335938 927.730469 L 627.472656 918.078125 C 631.136719 919.902344 634.917969 921.472656 638.8125 922.769531 L 641.265625 938.886719 C 641.90625 943.0625 645.5 946.160156 649.722656 946.160156 L 684.222656 946.160156 C 688.441406 946.160156 692.035156 943.0625 692.679688 938.886719 L 695.132812 922.769531 C 699.011719 921.472656 702.804688 919.902344 706.46875 918.078125 L 719.605469 927.730469 C 723.011719 930.242188 727.734375 929.886719 730.730469 926.890625 L 755.117188 902.503906 C 758.113281 899.507812 758.46875 894.789062 755.957031 891.378906 L 746.304688 878.242188 C 748.128906 874.578125 749.695312 870.800781 750.996094 866.90625 L 767.109375 864.453125 C 771.289062 863.8125 774.382812 860.214844 774.382812 855.996094 L 774.382812 821.496094 C 774.382812 817.273438 771.289062 813.664062 767.109375 813.039062 Z M 135.054688 275.820312 L 668.917969 275.820312 C 686.003906 275.820312 699.910156 289.726562 699.910156 306.8125 L 699.910156 371.703125 L 104.0625 371.703125 L 104.0625 306.8125 C 104.0625 289.726562 117.96875 275.820312 135.054688 275.820312 Z M 104.0625 761.582031 L 104.0625 388.804688 L 699.910156 388.804688 L 699.910156 756.476562 C 698.339844 755.847656 696.742188 755.25 695.132812 754.707031 L 692.679688 738.589844 C 692.035156 734.414062 688.441406 731.316406 684.222656 731.316406 L 649.722656 731.316406 C 645.5 731.316406 641.90625 734.414062 641.265625 738.589844 L 638.8125 754.707031 C 634.933594 756.003906 631.136719 757.574219 627.472656 759.398438 L 614.335938 749.746094 C 610.929688 747.234375 606.207031 747.589844 603.214844 750.585938 L 578.824219 774.972656 C 575.832031 777.96875 575.472656 782.6875 577.984375 786.097656 L 582.746094 792.574219 L 135.054688 792.574219 C 117.96875 792.574219 104.0625 778.667969 104.0625 761.582031 Z M 757.257812 848.621094 L 743.050781 850.789062 C 739.683594 851.304688 736.933594 853.769531 736.0625 857.066406 C 734.4375 863.210938 731.984375 869.128906 728.773438 874.636719 C 727.0625 877.585938 727.261719 881.265625 729.273438 884.003906 L 737.789062 895.585938 L 723.796875 909.578125 L 712.21875 901.0625 C 709.480469 899.039062 705.785156 898.835938 702.847656 900.5625 C 697.34375 903.773438 691.421875 906.210938 685.277344 907.851562 C 681.980469 908.722656 679.515625 911.472656 679 914.839844 L 676.832031 929.03125 L 657.039062 929.03125 L 654.871094 914.839844 C 654.355469 911.472656 651.890625 908.722656 648.59375 907.851562 C 642.449219 906.226562 636.527344 903.773438 631.023438 900.5625 C 628.070312 898.851562 624.390625 899.050781 621.652344 901.0625 L 610.074219 909.578125 L 596.082031 895.585938 L 604.597656 884.003906 C 606.621094 881.265625 606.808594 877.574219 605.097656 874.636719 C 601.886719 869.128906 599.449219 863.226562 597.808594 857.066406 C 596.9375 853.769531 594.199219 851.304688 590.820312 850.789062 L 576.628906 848.621094 L 576.628906 828.828125 L 590.820312 826.660156 C 594.1875 826.144531 596.9375 823.679688 597.808594 820.382812 C 599.433594 814.238281 601.886719 808.316406 605.097656 802.8125 C 606.808594 799.859375 606.609375 796.179688 604.597656 793.441406 L 596.082031 781.863281 L 610.074219 767.871094 L 621.652344 776.386719 C 624.40625 778.410156 628.085938 778.597656 631.023438 776.882812 C 636.527344 773.675781 642.433594 771.238281 648.59375 769.597656 C 651.890625 768.726562 654.355469 765.972656 654.871094 762.609375 L 657.039062 748.402344 L 676.832031 748.402344 L 679 762.609375 C 679.515625 765.972656 681.980469 768.726562 685.277344 769.597656 C 691.421875 771.222656 697.328125 773.675781 702.847656 776.882812 C 705.800781 778.597656 709.480469 778.394531 712.21875 776.386719 L 723.796875 767.871094 L 737.789062 781.863281 L 729.273438 793.441406 C 727.25 796.195312 727.0625 799.875 728.773438 802.8125 C 731.984375 808.316406 734.421875 814.222656 736.046875 820.382812 C 736.917969 823.679688 739.671875 826.144531 743.035156 826.660156 L 757.226562 828.828125 L 757.226562 848.621094 Z M 666.964844 778.796875 C 633.917969 778.796875 607.035156 805.679688 607.035156 838.722656 C 607.035156 871.769531 633.917969 898.652344 666.964844 898.652344 C 700.007812 898.652344 726.890625 871.769531 726.890625 838.722656 C 726.890625 805.679688 700.007812 778.796875 666.964844 778.796875 Z M 666.964844 881.550781 C 643.359375 881.550781 624.148438 862.339844 624.148438 838.738281 C 624.148438 815.136719 643.359375 795.925781 666.964844 795.925781 C 690.566406 795.925781 709.777344 815.136719 709.777344 838.738281 C 709.777344 862.339844 690.566406 881.550781 666.964844 881.550781 Z M 666.964844 881.550781 " fill-opacity="1" fill-rule="nonzero"/></g><g clip-path="url(#b908eed284)"><path fill="#1f2937" d="M 158.84375 356.273438 C 176.769531 356.273438 191.34375 341.683594 191.34375 323.769531 C 191.34375 305.859375 176.753906 291.269531 158.84375 291.269531 C 140.929688 291.269531 126.339844 305.859375 126.339844 323.769531 C 126.339844 341.683594 140.929688 356.273438 158.84375 356.273438 Z M 158.84375 308.367188 C 167.328125 308.367188 174.230469 315.269531 174.230469 323.757812 C 174.230469 332.242188 167.328125 339.144531 158.84375 339.144531 C 150.355469 339.144531 143.453125 332.242188 143.453125 323.757812 C 143.453125 315.269531 150.355469 308.367188 158.84375 308.367188 Z M 334.992188 356.273438 L 468.980469 356.273438 C 486.90625 356.273438 501.484375 341.683594 501.484375 323.769531 C 501.484375 305.859375 486.894531 291.269531 468.980469 291.269531 L 334.992188 291.269531 C 317.0625 291.269531 302.488281 305.859375 302.488281 323.769531 C 302.488281 341.683594 317.078125 356.273438 334.992188 356.273438 Z M 334.992188 308.367188 L 468.980469 308.367188 C 477.464844 308.367188 484.371094 315.269531 484.371094 323.757812 C 484.371094 332.242188 477.464844 339.144531 468.980469 339.144531 L 334.992188 339.144531 C 326.503906 339.144531 319.601562 332.242188 319.601562 323.757812 C 319.601562 315.269531 326.503906 308.367188 334.992188 308.367188 Z M 685.003906 686.734375 C 685.003906 679.976562 680.15625 673.699219 671.699219 669.507812 L 634.402344 651.007812 L 675.320312 630.714844 C 681.46875 627.664062 685.003906 622.585938 685.003906 616.765625 C 685.003906 610.007812 680.15625 603.730469 671.699219 599.539062 L 634.402344 581.039062 L 675.320312 560.746094 C 681.46875 557.695312 684.992188 552.617188 684.992188 546.796875 C 684.992188 540.039062 680.140625 533.761719 671.683594 529.570312 L 568.628906 478.453125 C 556.320312 472.351562 539.320312 471.582031 529.082031 476.65625 L 418.765625 531.367188 C 412.617188 534.417969 409.082031 539.496094 409.082031 545.316406 C 409.082031 552.074219 413.929688 558.351562 422.386719 562.542969 L 459.683594 581.039062 L 418.765625 601.335938 C 412.617188 604.386719 409.082031 609.464844 409.082031 615.285156 C 409.082031 622.042969 413.929688 628.320312 422.386719 632.511719 L 459.683594 651.007812 L 418.765625 671.304688 C 412.617188 674.355469 409.082031 679.433594 409.082031 685.253906 C 409.082031 692.011719 413.929688 698.289062 422.386719 702.480469 L 525.457031 753.59375 C 532.316406 756.988281 540.632812 758.742188 548.417969 758.742188 C 554.609375 758.742188 560.46875 757.644531 564.992188 755.390625 L 675.308594 700.683594 C 681.453125 697.632812 684.992188 692.554688 684.992188 686.734375 Z M 427.847656 546 L 536.695312 492.019531 C 541.585938 489.59375 553.027344 489.851562 561.027344 493.816406 L 664.082031 544.929688 C 664.96875 545.371094 665.667969 545.785156 666.238281 546.171875 L 557.390625 600.136719 C 552.5 602.5625 541.058594 602.304688 533.058594 598.339844 L 430.003906 547.226562 C 429.117188 546.785156 428.421875 546.371094 427.847656 545.984375 Z M 427.847656 615.953125 L 478.949219 590.609375 L 525.457031 613.671875 C 532.316406 617.082031 540.632812 618.820312 548.417969 618.820312 C 554.609375 618.820312 560.46875 617.722656 564.992188 615.46875 L 615.121094 590.609375 L 664.082031 614.882812 C 664.96875 615.3125 665.667969 615.738281 666.238281 616.125 L 557.402344 670.089844 C 552.511719 672.515625 541.058594 672.257812 533.058594 668.292969 L 430.003906 617.179688 C 429.117188 616.738281 428.417969 616.324219 427.847656 615.9375 Z M 557.402344 740.058594 C 552.511719 742.484375 541.074219 742.226562 533.074219 738.261719 L 430.015625 687.148438 C 429.132812 686.707031 428.433594 686.292969 427.863281 685.90625 L 478.964844 660.566406 L 525.472656 683.625 C 532.332031 687.035156 540.648438 688.773438 548.433594 688.773438 C 554.625 688.773438 560.484375 687.675781 565.003906 685.421875 L 615.136719 660.566406 L 664.082031 684.839844 C 664.96875 685.28125 665.667969 685.695312 666.238281 686.078125 L 557.390625 740.046875 Z M 183.984375 452.3125 C 164.488281 452.3125 148.617188 468.171875 148.617188 487.683594 C 148.617188 507.191406 164.476562 523.050781 183.984375 523.050781 C 203.496094 523.050781 219.355469 507.191406 219.355469 487.683594 C 219.355469 468.171875 203.496094 452.3125 183.984375 452.3125 Z M 183.984375 505.921875 C 173.917969 505.921875 165.730469 497.738281 165.730469 487.667969 C 165.730469 477.597656 173.917969 469.414062 183.984375 469.414062 C 194.054688 469.414062 202.242188 477.597656 202.242188 487.667969 C 202.242188 497.738281 194.054688 505.921875 183.984375 505.921875 Z M 379.542969 463.28125 L 247.695312 463.28125 C 245.539062 463.28125 243.84375 462.195312 242.929688 460.242188 C 232.289062 437.410156 209.15625 422.664062 183.972656 422.664062 C 148.132812 422.664062 118.964844 451.828125 118.964844 487.667969 C 118.964844 523.507812 148.132812 552.671875 183.972656 552.671875 C 209.144531 552.671875 232.289062 537.925781 242.914062 515.09375 C 243.828125 513.140625 245.527344 512.054688 247.679688 512.054688 L 277.273438 512.054688 L 277.273438 522.351562 C 277.273438 535.800781 288.210938 546.753906 301.675781 546.753906 C 315.136719 546.753906 326.078125 535.816406 326.078125 522.351562 L 326.078125 512.054688 L 336.101562 512.054688 L 336.101562 522.351562 C 336.101562 535.800781 347.042969 546.753906 360.503906 546.753906 C 373.96875 546.753906 384.90625 535.816406 384.90625 522.351562 L 384.90625 511.472656 C 395.789062 509.03125 403.960938 499.277344 403.960938 487.667969 C 403.960938 474.21875 393.023438 463.265625 379.558594 463.265625 Z M 379.542969 494.957031 L 376.335938 494.957031 C 371.613281 494.957031 367.777344 498.792969 367.777344 503.511719 L 367.777344 522.367188 C 367.777344 526.390625 364.511719 529.65625 360.492188 529.65625 C 356.46875 529.65625 353.203125 526.390625 353.203125 522.367188 L 353.203125 503.511719 C 353.203125 498.792969 349.367188 494.957031 344.644531 494.957031 L 317.503906 494.957031 C 312.785156 494.957031 308.949219 498.792969 308.949219 503.511719 L 308.949219 522.367188 C 308.949219 526.390625 305.683594 529.65625 301.660156 529.65625 C 297.636719 529.65625 294.371094 526.390625 294.371094 522.367188 L 294.371094 503.511719 C 294.371094 498.792969 290.535156 494.957031 285.816406 494.957031 L 247.664062 494.957031 C 238.878906 494.957031 231.105469 499.90625 227.382812 507.878906 C 219.539062 524.691406 202.496094 535.574219 183.941406 535.574219 C 157.53125 535.574219 136.050781 514.082031 136.050781 487.683594 C 136.050781 461.285156 157.542969 439.789062 183.941406 439.789062 C 202.496094 439.789062 219.539062 450.660156 227.382812 467.488281 C 231.105469 475.460938 238.867188 480.410156 247.664062 480.410156 L 379.515625 480.410156 C 383.539062 480.410156 386.804688 483.675781 386.804688 487.695312 C 386.804688 491.71875 383.539062 494.984375 379.515625 494.984375 Z M 348.9375 700.996094 L 147.832031 700.996094 C 131.914062 700.996094 118.964844 713.945312 118.964844 729.863281 C 118.964844 745.78125 131.914062 758.730469 147.832031 758.730469 L 348.9375 758.730469 C 364.855469 758.730469 377.804688 745.78125 377.804688 729.863281 C 377.804688 713.945312 364.855469 700.996094 348.9375 700.996094 Z M 348.9375 741.613281 L 147.832031 741.613281 C 141.355469 741.613281 136.078125 736.339844 136.078125 729.863281 C 136.078125 723.386719 141.34375 718.113281 147.832031 718.113281 L 348.9375 718.113281 C 355.414062 718.113281 360.691406 723.386719 360.691406 729.863281 C 360.691406 736.339844 355.425781 741.613281 348.9375 741.613281 Z M 147.476562 581.78125 C 147.476562 577.0625 151.3125 573.226562 156.03125 573.226562 L 340.753906 573.226562 C 345.472656 573.226562 349.308594 577.0625 349.308594 581.78125 C 349.308594 586.503906 345.472656 590.339844 340.753906 590.339844 L 156.03125 590.339844 C 151.3125 590.339844 147.476562 586.503906 147.476562 581.78125 Z M 147.476562 628.003906 C 147.476562 623.285156 151.3125 619.449219 156.03125 619.449219 L 340.753906 619.449219 C 345.472656 619.449219 349.308594 623.285156 349.308594 628.003906 C 349.308594 632.726562 345.472656 636.5625 340.753906 636.5625 L 156.03125 636.5625 C 151.3125 636.5625 147.476562 632.726562 147.476562 628.003906 Z M 147.476562 674.214844 C 147.476562 669.492188 151.3125 665.65625 156.03125 665.65625 L 340.753906 665.65625 C 345.472656 665.65625 349.308594 669.492188 349.308594 674.214844 C 349.308594 678.933594 345.472656 682.769531 340.753906 682.769531 L 156.03125 682.769531 C 151.3125 682.769531 147.476562 678.933594 147.476562 674.214844 Z M 767.097656 813.023438 L 750.980469 810.570312 C 749.683594 806.691406 748.113281 802.898438 746.289062 799.246094 L 755.945312 786.113281 C 758.453125 782.703125 758.097656 777.984375 755.101562 774.988281 L 730.714844 750.601562 C 727.71875 747.605469 723 747.25 719.589844 749.757812 L 717.007812 751.65625 L 717.007812 306.8125 C 717.007812 280.285156 695.429688 258.707031 668.902344 258.707031 L 135.054688 258.707031 C 108.527344 258.707031 86.949219 280.285156 86.949219 306.8125 L 86.949219 761.597656 C 86.949219 788.121094 108.527344 809.699219 135.054688 809.699219 L 583.261719 809.699219 C 583.160156 810 583.046875 810.285156 582.949219 810.585938 L 566.832031 813.039062 C 562.652344 813.679688 559.558594 817.273438 559.558594 821.496094 L 559.558594 855.996094 C 559.558594 860.214844 562.652344 863.8125 566.832031 864.453125 L 582.949219 866.90625 C 584.246094 870.785156 585.8125 874.578125 587.640625 878.242188 L 577.984375 891.378906 C 575.472656 894.789062 575.832031 899.507812 578.824219 902.503906 L 603.214844 926.890625 C 606.195312 929.886719 610.929688 930.242188 614.335938 927.730469 L 627.472656 918.078125 C 631.136719 919.902344 634.917969 921.472656 638.8125 922.769531 L 641.265625 938.886719 C 641.90625 943.0625 645.5 946.160156 649.722656 946.160156 L 684.222656 946.160156 C 688.441406 946.160156 692.035156 943.0625 692.679688 938.886719 L 695.132812 922.769531 C 699.011719 921.472656 702.804688 919.902344 706.46875 918.078125 L 719.605469 927.730469 C 723.011719 930.242188 727.734375 929.886719 730.730469 926.890625 L 755.117188 902.503906 C 758.113281 899.507812 758.46875 894.789062 755.957031 891.378906 L 746.304688 878.242188 C 748.128906 874.578125 749.695312 870.800781 750.996094 866.90625 L 767.109375 864.453125 C 771.289062 863.8125 774.382812 860.214844 774.382812 855.996094 L 774.382812 821.496094 C 774.382812 817.273438 771.289062 813.664062 767.109375 813.039062 Z M 135.054688 275.820312 L 668.917969 275.820312 C 686.003906 275.820312 699.910156 289.726562 699.910156 306.8125 L 699.910156 371.703125 L 104.0625 371.703125 L 104.0625 306.8125 C 104.0625 289.726562 117.96875 275.820312 135.054688 275.820312 Z M 104.0625 761.582031 L 104.0625 388.804688 L 699.910156 388.804688 L 699.910156 756.476562 C 698.339844 755.847656 696.742188 755.25 695.132812 754.707031 L 692.679688 738.589844 C 692.035156 734.414062 688.441406 731.316406 684.222656 731.316406 L 649.722656 731.316406 C 645.5 731.316406 641.90625 734.414062 641.265625 738.589844 L 638.8125 754.707031 C 634.933594 756.003906 631.136719 757.574219 627.472656 759.398438 L 614.335938 749.746094 C 610.929688 747.234375 606.207031 747.589844 603.214844 750.585938 L 578.824219 774.972656 C 575.832031 777.96875 575.472656 782.6875 577.984375 786.097656 L 582.746094 792.574219 L 135.054688 792.574219 C 117.96875 792.574219 104.0625 778.667969 104.0625 761.582031 Z M 757.257812 848.621094 L 743.050781 850.789062 C 739.683594 851.304688 736.933594 853.769531 736.0625 857.066406 C 734.4375 863.210938 731.984375 869.128906 728.773438 874.636719 C 727.0625 877.585938 727.261719 881.265625 729.273438 884.003906 L 737.789062 895.585938 L 723.796875 909.578125 L 712.21875 901.0625 C 709.480469 899.039062 705.785156 898.835938 702.847656 900.5625 C 697.34375 903.773438 691.421875 906.210938 685.277344 907.851562 C 681.980469 908.722656 679.515625 911.472656 679 914.839844 L 676.832031 929.03125 L 657.039062 929.03125 L 654.871094 914.839844 C 654.355469 911.472656 651.890625 908.722656 648.59375 907.851562 C 642.449219 906.226562 636.527344 903.773438 631.023438 900.5625 C 628.070312 898.851562 624.390625 899.050781 621.652344 901.0625 L 610.074219 909.578125 L 596.082031 895.585938 L 604.597656 884.003906 C 606.621094 881.265625 606.808594 877.574219 605.097656 874.636719 C 601.886719 869.128906 599.449219 863.226562 597.808594 857.066406 C 596.9375 853.769531 594.199219 851.304688 590.820312 850.789062 L 576.628906 848.621094 L 576.628906 828.828125 L 590.820312 826.660156 C 594.1875 826.144531 596.9375 823.679688 597.808594 820.382812 C 599.433594 814.238281 601.886719 808.316406 605.097656 802.8125 C 606.808594 799.859375 606.609375 796.179688 604.597656 793.441406 L 596.082031 781.863281 L 610.074219 767.871094 L 621.652344 776.386719 C 624.40625 778.410156 628.085938 778.597656 631.023438 776.882812 C 636.527344 773.675781 642.433594 771.238281 648.59375 769.597656 C 651.890625 768.726562 654.355469 765.972656 654.871094 762.609375 L 657.039062 748.402344 L 676.832031 748.402344 L 679 762.609375 C 679.515625 765.972656 681.980469 768.726562 685.277344 769.597656 C 691.421875 771.222656 697.328125 773.675781 702.847656 776.882812 C 705.800781 778.597656 709.480469 778.394531 712.21875 776.386719 L 723.796875 767.871094 L 737.789062 781.863281 L 729.273438 793.441406 C 727.25 796.195312 727.0625 799.875 728.773438 802.8125 C 731.984375 808.316406 734.421875 814.222656 736.046875 820.382812 C 736.917969 823.679688 739.671875 826.144531 743.035156 826.660156 L 757.226562 828.828125 L 757.226562 848.621094 Z M 666.964844 778.796875 C 633.917969 778.796875 607.035156 805.679688 607.035156 838.722656 C 607.035156 871.769531 633.917969 898.652344 666.964844 898.652344 C 700.007812 898.652344 726.890625 871.769531 726.890625 838.722656 C 726.890625 805.679688 700.007812 778.796875 666.964844 778.796875 Z M 666.964844 881.550781 C 643.359375 881.550781 624.148438 862.339844 624.148438 838.738281 C 624.148438 815.136719 643.359375 795.925781 666.964844 795.925781 C 690.566406 795.925781 709.777344 815.136719 709.777344 838.738281 C 709.777344 862.339844 690.566406 881.550781 666.964844 881.550781 Z M 666.964844 881.550781 " fill-opacity="1" fill-rule="nonzero"/></g></svg>