<svg xmlns="http://www.w3.org/2000/svg" xmlns:xlink="http://www.w3.org/1999/xlink" width="1080" zoomAndPan="magnify" viewBox="0 0 810 1012.49997" height="1350" preserveAspectRatio="xMidYMid meet" version="1.0"><defs><clipPath id="dd606da1c2"><path d="M 27.636719 317 L 782.515625 317 L 782.515625 377.515625 L 27.636719 377.515625 Z M 27.636719 317 " clip-rule="nonzero"/></clipPath><clipPath id="ed49fbe785"><path d="M 27.636719 128.636719 L 782.515625 128.636719 L 782.515625 335 L 27.636719 335 Z M 27.636719 128.636719 " clip-rule="nonzero"/></clipPath><clipPath id="7d8a04ef39"><path d="M 27.636719 317 L 103.351562 317 L 103.351562 883.515625 L 27.636719 883.515625 Z M 27.636719 317 " clip-rule="nonzero"/></clipPath><clipPath id="0f2cfa8ba3"><path d="M 27.636719 128.636719 L 103.351562 128.636719 L 103.351562 335 L 27.636719 335 Z M 27.636719 128.636719 " clip-rule="nonzero"/></clipPath><clipPath id="441e9a88f3"><path d="M 80 168 L 103.351562 168 L 103.351562 294 L 80 294 Z M 80 168 " clip-rule="nonzero"/></clipPath><clipPath id="758880d76d"><path d="M 708.847656 317 L 782.308594 317 L 782.308594 883.515625 L 708.847656 883.515625 Z M 708.847656 317 " clip-rule="nonzero"/></clipPath><clipPath id="904fe44576"><path d="M 708.847656 128.636719 L 782.308594 128.636719 L 782.308594 335 L 708.847656 335 Z M 708.847656 128.636719 " clip-rule="nonzero"/></clipPath><clipPath id="a86e82b46a"><path d="M 43.738281 839.671875 L 782.121094 839.671875 L 782.121094 883.152344 L 43.738281 883.152344 Z M 43.738281 839.671875 " clip-rule="nonzero"/></clipPath><clipPath id="3bf60dc141"><path d="M 98.519531 361.03125 L 711.714844 361.03125 L 711.714844 834.796875 L 98.519531 834.796875 Z M 98.519531 361.03125 " clip-rule="nonzero"/></clipPath></defs><g clip-path="url(#dd606da1c2)"><path fill="#1f2937" d="M 705.683594 883.351562 L 104.304688 883.351562 C 61.761719 883.351562 27.636719 848.785156 27.636719 806.683594 L 27.636719 325.847656 C 27.636719 320.972656 31.625 317.425781 36.5 317.425781 L 773.488281 317.425781 C 778.363281 317.425781 782.351562 320.972656 782.351562 325.847656 L 782.351562 806.683594 C 782.351562 848.785156 747.785156 883.351562 705.683594 883.351562 Z M 45.363281 334.710938 L 45.363281 806.683594 C 45.363281 839.476562 71.511719 865.625 104.304688 865.625 L 705.683594 865.625 C 738.476562 865.625 764.625 839.476562 764.625 806.683594 L 764.625 334.710938 Z M 45.363281 334.710938 " fill-opacity="1" fill-rule="evenodd"/></g><g clip-path="url(#ed49fbe785)"><path fill="#1f2937" d="M 773.488281 334.710938 L 36.5 334.710938 C 31.625 334.710938 27.636719 330.722656 27.636719 325.847656 L 27.636719 203.53125 C 27.636719 161.433594 61.320312 128.636719 104.304688 128.636719 L 705.683594 128.636719 C 748.671875 128.636719 782.351562 161.433594 782.351562 203.53125 L 782.351562 325.847656 C 782.351562 330.722656 778.363281 334.710938 773.488281 334.710938 Z M 45.363281 317.425781 L 764.625 317.425781 L 764.625 203.53125 C 764.625 171.183594 738.921875 146.363281 705.683594 146.363281 L 104.304688 146.363281 C 71.066406 146.363281 45.363281 171.183594 45.363281 203.53125 Z M 45.363281 317.425781 " fill-opacity="1" fill-rule="evenodd"/></g><path fill="#1f2937" d="M 143.746094 293.496094 C 109.179688 293.496094 80.375 266.019531 80.375 231.894531 C 80.375 197.328125 109.625 168.078125 143.746094 168.078125 C 178.316406 168.078125 205.789062 196.886719 205.789062 231.894531 C 205.789062 266.019531 178.316406 293.496094 143.746094 293.496094 Z M 289.992188 293.496094 C 255.867188 293.496094 227.949219 266.019531 227.949219 231.894531 C 227.949219 196.886719 255.867188 168.078125 289.992188 168.078125 C 324.117188 168.078125 352.035156 196.886719 352.035156 231.894531 C 352.035156 266.019531 324.117188 293.496094 289.992188 293.496094 Z M 435.792969 293.496094 C 401.671875 293.496094 373.75 266.019531 373.75 231.894531 C 373.75 196.886719 401.671875 168.078125 435.792969 168.078125 C 470.804688 168.078125 499.167969 196.886719 499.167969 231.894531 C 499.167969 266.460938 471.246094 293.496094 435.792969 293.496094 Z M 435.792969 293.496094 " fill-opacity="1" fill-rule="evenodd"/><g clip-path="url(#7d8a04ef39)"><path fill="#1f2937" d="M 705.683594 883.351562 L 104.304688 883.351562 C 61.761719 883.351562 27.636719 848.785156 27.636719 806.683594 L 27.636719 325.847656 C 27.636719 320.972656 31.625 317.425781 36.5 317.425781 L 773.488281 317.425781 C 778.363281 317.425781 782.351562 320.972656 782.351562 325.847656 L 782.351562 806.683594 C 782.351562 848.785156 747.785156 883.351562 705.683594 883.351562 Z M 45.363281 334.710938 L 45.363281 806.683594 C 45.363281 839.476562 71.511719 865.625 104.304688 865.625 L 705.683594 865.625 C 738.476562 865.625 764.625 839.476562 764.625 806.683594 L 764.625 334.710938 Z M 45.363281 334.710938 " fill-opacity="1" fill-rule="evenodd"/></g><g clip-path="url(#0f2cfa8ba3)"><path fill="#1f2937" d="M 773.488281 334.710938 L 36.5 334.710938 C 31.625 334.710938 27.636719 330.722656 27.636719 325.847656 L 27.636719 203.53125 C 27.636719 161.433594 61.320312 128.636719 104.304688 128.636719 L 705.683594 128.636719 C 748.671875 128.636719 782.351562 161.433594 782.351562 203.53125 L 782.351562 325.847656 C 782.351562 330.722656 778.363281 334.710938 773.488281 334.710938 Z M 45.363281 317.425781 L 764.625 317.425781 L 764.625 203.53125 C 764.625 171.183594 738.921875 146.363281 705.683594 146.363281 L 104.304688 146.363281 C 71.066406 146.363281 45.363281 171.183594 45.363281 203.53125 Z M 45.363281 317.425781 " fill-opacity="1" fill-rule="evenodd"/></g><g clip-path="url(#441e9a88f3)"><path fill="#1f2937" d="M 143.746094 293.496094 C 109.179688 293.496094 80.375 266.019531 80.375 231.894531 C 80.375 197.328125 109.625 168.078125 143.746094 168.078125 C 178.316406 168.078125 205.789062 196.886719 205.789062 231.894531 C 205.789062 266.019531 178.316406 293.496094 143.746094 293.496094 Z M 289.992188 293.496094 C 255.867188 293.496094 227.949219 266.019531 227.949219 231.894531 C 227.949219 196.886719 255.867188 168.078125 289.992188 168.078125 C 324.117188 168.078125 352.035156 196.886719 352.035156 231.894531 C 352.035156 266.019531 324.117188 293.496094 289.992188 293.496094 Z M 435.792969 293.496094 C 401.671875 293.496094 373.75 266.019531 373.75 231.894531 C 373.75 196.886719 401.671875 168.078125 435.792969 168.078125 C 470.804688 168.078125 499.167969 196.886719 499.167969 231.894531 C 499.167969 266.460938 471.246094 293.496094 435.792969 293.496094 Z M 435.792969 293.496094 " fill-opacity="1" fill-rule="evenodd"/></g><g clip-path="url(#758880d76d)"><path fill="#1f2937" d="M 705.683594 883.351562 L 104.304688 883.351562 C 61.761719 883.351562 27.636719 848.785156 27.636719 806.683594 L 27.636719 325.847656 C 27.636719 320.972656 31.625 317.425781 36.5 317.425781 L 773.488281 317.425781 C 778.363281 317.425781 782.351562 320.972656 782.351562 325.847656 L 782.351562 806.683594 C 782.351562 848.785156 747.785156 883.351562 705.683594 883.351562 Z M 45.363281 334.710938 L 45.363281 806.683594 C 45.363281 839.476562 71.511719 865.625 104.304688 865.625 L 705.683594 865.625 C 738.476562 865.625 764.625 839.476562 764.625 806.683594 L 764.625 334.710938 Z M 45.363281 334.710938 " fill-opacity="1" fill-rule="evenodd"/></g><g clip-path="url(#904fe44576)"><path fill="#1f2937" d="M 773.488281 334.710938 L 36.5 334.710938 C 31.625 334.710938 27.636719 330.722656 27.636719 325.847656 L 27.636719 203.53125 C 27.636719 161.433594 61.320312 128.636719 104.304688 128.636719 L 705.683594 128.636719 C 748.671875 128.636719 782.351562 161.433594 782.351562 203.53125 L 782.351562 325.847656 C 782.351562 330.722656 778.363281 334.710938 773.488281 334.710938 Z M 45.363281 317.425781 L 764.625 317.425781 L 764.625 203.53125 C 764.625 171.183594 738.921875 146.363281 705.683594 146.363281 L 104.304688 146.363281 C 71.066406 146.363281 45.363281 171.183594 45.363281 203.53125 Z M 45.363281 317.425781 " fill-opacity="1" fill-rule="evenodd"/></g><g clip-path="url(#a86e82b46a)"><path fill="#1f2937" d="M 705.683594 883.351562 L 104.304688 883.351562 C 61.761719 883.351562 27.636719 848.785156 27.636719 806.683594 L 27.636719 325.847656 C 27.636719 320.972656 31.625 317.425781 36.5 317.425781 L 773.488281 317.425781 C 778.363281 317.425781 782.351562 320.972656 782.351562 325.847656 L 782.351562 806.683594 C 782.351562 848.785156 747.785156 883.351562 705.683594 883.351562 Z M 45.363281 334.710938 L 45.363281 806.683594 C 45.363281 839.476562 71.511719 865.625 104.304688 865.625 L 705.683594 865.625 C 738.476562 865.625 764.625 839.476562 764.625 806.683594 L 764.625 334.710938 Z M 45.363281 334.710938 " fill-opacity="1" fill-rule="evenodd"/></g><g clip-path="url(#3bf60dc141)"><path fill="#1f2937" d="M 676.515625 720.429688 L 676.515625 660.359375 L 702.597656 660.359375 C 707.390625 660.359375 711.28125 656.472656 711.28125 651.675781 C 711.28125 646.882812 707.390625 642.996094 702.597656 642.996094 L 676.515625 642.996094 L 676.515625 521.203125 L 702.597656 521.203125 C 707.390625 521.203125 711.28125 517.316406 711.28125 512.519531 C 711.28125 507.726562 707.390625 503.839844 702.597656 503.839844 L 676.515625 503.839844 L 676.515625 413.789062 C 676.515625 396.671875 662.59375 382.75 645.480469 382.75 L 187.625 382.75 C 181.089844 382.75 174.859375 384.824219 169.703125 388.480469 L 159.371094 370.585938 C 156.839844 366.183594 152.738281 363.027344 147.820312 361.707031 C 142.898438 360.382812 137.765625 361.058594 133.378906 363.59375 L 108.234375 378.082031 C 103.847656 380.621094 100.707031 384.726562 99.382812 389.652344 C 98.058594 394.585938 98.730469 399.71875 101.265625 404.105469 L 156.585938 499.90625 L 156.585938 720.429688 C 156.585938 737.542969 170.511719 751.464844 187.625 751.464844 L 384.734375 751.464844 C 383.058594 768.855469 378.292969 771.316406 364.296875 772.78125 C 348.4375 774.4375 336.480469 787.714844 336.480469 803.664062 L 336.480469 825.84375 C 336.480469 830.636719 340.367188 834.523438 345.164062 834.523438 L 487.941406 834.523438 C 492.734375 834.523438 496.621094 830.636719 496.621094 825.84375 L 496.621094 803.664062 C 496.621094 787.714844 484.664062 774.4375 468.808594 772.777344 C 454.8125 771.316406 450.046875 768.855469 448.367188 751.464844 L 645.480469 751.464844 C 662.59375 751.464844 676.515625 737.542969 676.515625 720.429688 Z M 235.78125 547.332031 L 238.332031 574.402344 L 216.160156 558.65625 Z M 203.28125 546.039062 L 131.320312 421.429688 L 159.332031 405.242188 L 231.300781 529.871094 Z M 116.152344 394.152344 C 116.226562 393.890625 116.417969 393.40625 116.914062 393.121094 L 142.058594 378.628906 C 142.539062 378.355469 143.003906 378.390625 143.3125 378.476562 C 143.617188 378.558594 144.039062 378.753906 144.324219 379.253906 L 150.648438 390.203125 L 122.636719 406.390625 L 116.300781 395.414062 C 116.011719 394.917969 116.085938 394.410156 116.152344 394.152344 Z M 467.003906 790.046875 C 473.988281 790.78125 479.257812 796.632812 479.257812 803.664062 L 479.257812 817.160156 L 353.847656 817.160156 L 353.847656 803.664062 C 353.847656 796.632812 359.113281 790.78125 366.101562 790.050781 C 392.5625 787.285156 400.066406 774.78125 402.140625 751.464844 L 430.960938 751.464844 C 433.039062 774.78125 440.539062 787.285156 467.003906 790.046875 Z M 645.480469 734.101562 L 187.625 734.101562 C 180.085938 734.101562 173.953125 727.96875 173.953125 720.429688 L 173.953125 529.976562 L 192.585938 562.242188 C 192.621094 562.304688 192.667969 562.359375 192.707031 562.421875 C 192.816406 562.601562 192.9375 562.777344 193.058594 562.949219 C 193.160156 563.089844 193.261719 563.230469 193.367188 563.363281 C 193.488281 563.511719 193.617188 563.648438 193.746094 563.789062 C 193.875 563.929688 194 564.070312 194.136719 564.199219 C 194.257812 564.3125 194.390625 564.417969 194.523438 564.527344 C 194.679688 564.660156 194.832031 564.796875 195 564.914062 C 195.027344 564.933594 195.046875 564.957031 195.074219 564.976562 L 243.722656 599.527344 C 245.222656 600.59375 246.984375 601.132812 248.75 601.132812 C 250.242188 601.132812 251.742188 600.746094 253.089844 599.96875 C 256.03125 598.273438 257.710938 595.019531 257.394531 591.636719 L 251.804688 532.234375 C 251.800781 532.207031 251.792969 532.183594 251.792969 532.15625 C 251.722656 531.488281 251.578125 530.824219 251.347656 530.175781 C 251.320312 530.097656 251.289062 530.019531 251.257812 529.945312 C 251.167969 529.714844 251.074219 529.488281 250.964844 529.261719 C 250.914062 529.160156 250.863281 529.0625 250.808594 528.964844 C 250.765625 528.878906 250.726562 528.789062 250.679688 528.707031 L 178.484375 403.6875 C 180.957031 401.4375 184.1875 400.113281 187.625 400.113281 L 645.480469 400.113281 C 653.019531 400.113281 659.152344 406.246094 659.152344 413.789062 L 659.152344 503.839844 L 552.789062 503.839844 C 547.996094 503.839844 544.109375 507.726562 544.109375 512.519531 C 544.109375 517.316406 547.996094 521.203125 552.789062 521.203125 L 659.152344 521.203125 L 659.152344 642.996094 L 561.683594 642.996094 C 556.886719 642.996094 553 646.882812 553 651.675781 C 553 656.472656 556.886719 660.359375 561.683594 660.359375 L 659.152344 660.359375 L 659.152344 720.429688 C 659.152344 727.96875 653.019531 734.101562 645.480469 734.101562 Z M 349.113281 580.78125 C 366.460938 597.933594 390.289062 608.550781 416.550781 608.550781 C 442.8125 608.550781 466.640625 597.9375 483.988281 580.78125 C 484.582031 580.316406 485.105469 579.773438 485.558594 579.171875 C 502.246094 561.886719 512.546875 538.390625 512.546875 512.519531 C 512.546875 459.589844 469.484375 416.527344 416.550781 416.527344 C 363.621094 416.527344 320.558594 459.589844 320.558594 512.519531 C 320.558594 538.394531 330.859375 561.890625 347.546875 579.175781 C 348 579.773438 348.523438 580.316406 349.113281 580.78125 Z M 363.160156 570.199219 L 363.160156 569.21875 C 363.160156 551.269531 377.761719 536.667969 395.710938 536.667969 L 437.394531 536.667969 C 455.34375 536.667969 469.945312 551.269531 469.945312 569.21875 L 469.945312 570.199219 C 455.910156 583.210938 437.148438 591.1875 416.550781 591.1875 C 395.957031 591.1875 377.191406 583.210938 363.160156 570.199219 Z M 399.433594 488.164062 C 399.433594 478.722656 407.113281 471.046875 416.550781 471.046875 C 425.992188 471.046875 433.667969 478.722656 433.667969 488.164062 C 433.667969 497.601562 425.992188 505.28125 416.550781 505.28125 C 407.113281 505.28125 399.433594 497.601562 399.433594 488.164062 Z M 416.550781 433.890625 C 459.90625 433.890625 495.179688 469.164062 495.179688 512.519531 C 495.179688 527.023438 491.21875 540.613281 484.347656 552.292969 C 477.402344 533.078125 458.976562 519.304688 437.394531 519.304688 L 431.34375 519.304688 C 442.976562 513.757812 451.035156 501.886719 451.035156 488.164062 C 451.035156 469.148438 435.566406 453.683594 416.550781 453.683594 C 397.539062 453.683594 382.070312 469.148438 382.070312 488.164062 C 382.070312 501.886719 390.128906 513.757812 401.761719 519.304688 L 395.710938 519.304688 C 374.125 519.304688 355.703125 533.078125 348.753906 552.292969 C 341.882812 540.613281 337.921875 527.027344 337.921875 512.519531 C 337.921875 469.164062 373.195312 433.890625 416.550781 433.890625 Z M 513.140625 626.230469 L 319.960938 626.230469 C 315.167969 626.230469 311.28125 630.117188 311.28125 634.910156 L 311.28125 668.410156 C 311.28125 673.203125 315.167969 677.089844 319.960938 677.089844 L 513.140625 677.089844 C 517.9375 677.089844 521.824219 673.203125 521.824219 668.410156 L 521.824219 634.910156 C 521.824219 630.117188 517.9375 626.230469 513.140625 626.230469 Z M 504.460938 659.726562 L 328.644531 659.726562 L 328.644531 643.59375 L 504.460938 643.59375 Z M 511.667969 702.75 C 511.667969 707.542969 507.777344 711.429688 502.984375 711.429688 L 281.4375 711.429688 C 277.507812 711.429688 274.070312 708.792969 273.050781 704.996094 L 249.675781 617.71875 C 248.4375 613.089844 251.1875 608.328125 255.816406 607.085938 C 260.445312 605.847656 265.210938 608.597656 266.449219 613.226562 L 288.101562 694.066406 L 502.984375 694.066406 C 507.777344 694.066406 511.667969 697.957031 511.667969 702.75 Z M 511.667969 702.75 " fill-opacity="1" fill-rule="nonzero"/></g></svg>