<svg xmlns="http://www.w3.org/2000/svg" xmlns:xlink="http://www.w3.org/1999/xlink" width="1080" zoomAndPan="magnify" viewBox="0 0 810 1012.49997" height="1350" preserveAspectRatio="xMidYMid meet" version="1.0"><defs><clipPath id="d007e1e17c"><path d="M 27.636719 317 L 782.515625 317 L 782.515625 377.515625 L 27.636719 377.515625 Z M 27.636719 317 " clip-rule="nonzero"/></clipPath><clipPath id="baf7df6409"><path d="M 27.636719 128.636719 L 782.515625 128.636719 L 782.515625 335 L 27.636719 335 Z M 27.636719 128.636719 " clip-rule="nonzero"/></clipPath><clipPath id="38c8bdfefc"><path d="M 27.636719 317 L 103.351562 317 L 103.351562 883.515625 L 27.636719 883.515625 Z M 27.636719 317 " clip-rule="nonzero"/></clipPath><clipPath id="3e73afe5c6"><path d="M 27.636719 128.636719 L 103.351562 128.636719 L 103.351562 335 L 27.636719 335 Z M 27.636719 128.636719 " clip-rule="nonzero"/></clipPath><clipPath id="b95a80ae11"><path d="M 80 168 L 103.351562 168 L 103.351562 294 L 80 294 Z M 80 168 " clip-rule="nonzero"/></clipPath><clipPath id="7df0a303c8"><path d="M 708.847656 317 L 782.308594 317 L 782.308594 883.515625 L 708.847656 883.515625 Z M 708.847656 317 " clip-rule="nonzero"/></clipPath><clipPath id="5389940857"><path d="M 708.847656 128.636719 L 782.308594 128.636719 L 782.308594 335 L 708.847656 335 Z M 708.847656 128.636719 " clip-rule="nonzero"/></clipPath><clipPath id="1a4c754e04"><path d="M 43.738281 839.671875 L 782.121094 839.671875 L 782.121094 883.152344 L 43.738281 883.152344 Z M 43.738281 839.671875 " clip-rule="nonzero"/></clipPath><clipPath id="885e793276"><path d="M 363 736 L 447 736 L 447 808.851562 L 363 808.851562 Z M 363 736 " clip-rule="nonzero"/></clipPath><clipPath id="b01a25a0b7"><path d="M 200.300781 460 L 609.597656 460 L 609.597656 746 L 200.300781 746 Z M 200.300781 460 " clip-rule="nonzero"/></clipPath><clipPath id="6d4d4f4432"><path d="M 200.300781 685 L 609.597656 685 L 609.597656 696 L 200.300781 696 Z M 200.300781 685 " clip-rule="nonzero"/></clipPath><clipPath id="0163ebe8aa"><path d="M 238 380.0625 L 572 380.0625 L 572 654 L 238 654 Z M 238 380.0625 " clip-rule="nonzero"/></clipPath><clipPath id="ae82b4274d"><path d="M 327 799 L 483 799 L 483 808.851562 L 327 808.851562 Z M 327 799 " clip-rule="nonzero"/></clipPath></defs><g clip-path="url(#d007e1e17c)"><path fill="#1f2937" d="M 705.683594 883.351562 L 104.304688 883.351562 C 61.761719 883.351562 27.636719 848.785156 27.636719 806.683594 L 27.636719 325.847656 C 27.636719 320.972656 31.625 317.425781 36.5 317.425781 L 773.488281 317.425781 C 778.363281 317.425781 782.351562 320.972656 782.351562 325.847656 L 782.351562 806.683594 C 782.351562 848.785156 747.785156 883.351562 705.683594 883.351562 Z M 45.363281 334.710938 L 45.363281 806.683594 C 45.363281 839.476562 71.511719 865.625 104.304688 865.625 L 705.683594 865.625 C 738.476562 865.625 764.625 839.476562 764.625 806.683594 L 764.625 334.710938 Z M 45.363281 334.710938 " fill-opacity="1" fill-rule="evenodd"/></g><g clip-path="url(#baf7df6409)"><path fill="#1f2937" d="M 773.488281 334.710938 L 36.5 334.710938 C 31.625 334.710938 27.636719 330.722656 27.636719 325.847656 L 27.636719 203.53125 C 27.636719 161.433594 61.320312 128.636719 104.304688 128.636719 L 705.683594 128.636719 C 748.671875 128.636719 782.351562 161.433594 782.351562 203.53125 L 782.351562 325.847656 C 782.351562 330.722656 778.363281 334.710938 773.488281 334.710938 Z M 45.363281 317.425781 L 764.625 317.425781 L 764.625 203.53125 C 764.625 171.183594 738.921875 146.363281 705.683594 146.363281 L 104.304688 146.363281 C 71.066406 146.363281 45.363281 171.183594 45.363281 203.53125 Z M 45.363281 317.425781 " fill-opacity="1" fill-rule="evenodd"/></g><path fill="#1f2937" d="M 143.746094 293.496094 C 109.179688 293.496094 80.375 266.019531 80.375 231.894531 C 80.375 197.328125 109.625 168.078125 143.746094 168.078125 C 178.316406 168.078125 205.789062 196.886719 205.789062 231.894531 C 205.789062 266.019531 178.316406 293.496094 143.746094 293.496094 Z M 289.992188 293.496094 C 255.867188 293.496094 227.949219 266.019531 227.949219 231.894531 C 227.949219 196.886719 255.867188 168.078125 289.992188 168.078125 C 324.117188 168.078125 352.035156 196.886719 352.035156 231.894531 C 352.035156 266.019531 324.117188 293.496094 289.992188 293.496094 Z M 435.792969 293.496094 C 401.671875 293.496094 373.75 266.019531 373.75 231.894531 C 373.75 196.886719 401.671875 168.078125 435.792969 168.078125 C 470.804688 168.078125 499.167969 196.886719 499.167969 231.894531 C 499.167969 266.460938 471.246094 293.496094 435.792969 293.496094 Z M 435.792969 293.496094 " fill-opacity="1" fill-rule="evenodd"/><g clip-path="url(#38c8bdfefc)"><path fill="#1f2937" d="M 705.683594 883.351562 L 104.304688 883.351562 C 61.761719 883.351562 27.636719 848.785156 27.636719 806.683594 L 27.636719 325.847656 C 27.636719 320.972656 31.625 317.425781 36.5 317.425781 L 773.488281 317.425781 C 778.363281 317.425781 782.351562 320.972656 782.351562 325.847656 L 782.351562 806.683594 C 782.351562 848.785156 747.785156 883.351562 705.683594 883.351562 Z M 45.363281 334.710938 L 45.363281 806.683594 C 45.363281 839.476562 71.511719 865.625 104.304688 865.625 L 705.683594 865.625 C 738.476562 865.625 764.625 839.476562 764.625 806.683594 L 764.625 334.710938 Z M 45.363281 334.710938 " fill-opacity="1" fill-rule="evenodd"/></g><g clip-path="url(#3e73afe5c6)"><path fill="#1f2937" d="M 773.488281 334.710938 L 36.5 334.710938 C 31.625 334.710938 27.636719 330.722656 27.636719 325.847656 L 27.636719 203.53125 C 27.636719 161.433594 61.320312 128.636719 104.304688 128.636719 L 705.683594 128.636719 C 748.671875 128.636719 782.351562 161.433594 782.351562 203.53125 L 782.351562 325.847656 C 782.351562 330.722656 778.363281 334.710938 773.488281 334.710938 Z M 45.363281 317.425781 L 764.625 317.425781 L 764.625 203.53125 C 764.625 171.183594 738.921875 146.363281 705.683594 146.363281 L 104.304688 146.363281 C 71.066406 146.363281 45.363281 171.183594 45.363281 203.53125 Z M 45.363281 317.425781 " fill-opacity="1" fill-rule="evenodd"/></g><g clip-path="url(#b95a80ae11)"><path fill="#1f2937" d="M 143.746094 293.496094 C 109.179688 293.496094 80.375 266.019531 80.375 231.894531 C 80.375 197.328125 109.625 168.078125 143.746094 168.078125 C 178.316406 168.078125 205.789062 196.886719 205.789062 231.894531 C 205.789062 266.019531 178.316406 293.496094 143.746094 293.496094 Z M 289.992188 293.496094 C 255.867188 293.496094 227.949219 266.019531 227.949219 231.894531 C 227.949219 196.886719 255.867188 168.078125 289.992188 168.078125 C 324.117188 168.078125 352.035156 196.886719 352.035156 231.894531 C 352.035156 266.019531 324.117188 293.496094 289.992188 293.496094 Z M 435.792969 293.496094 C 401.671875 293.496094 373.75 266.019531 373.75 231.894531 C 373.75 196.886719 401.671875 168.078125 435.792969 168.078125 C 470.804688 168.078125 499.167969 196.886719 499.167969 231.894531 C 499.167969 266.460938 471.246094 293.496094 435.792969 293.496094 Z M 435.792969 293.496094 " fill-opacity="1" fill-rule="evenodd"/></g><g clip-path="url(#7df0a303c8)"><path fill="#1f2937" d="M 705.683594 883.351562 L 104.304688 883.351562 C 61.761719 883.351562 27.636719 848.785156 27.636719 806.683594 L 27.636719 325.847656 C 27.636719 320.972656 31.625 317.425781 36.5 317.425781 L 773.488281 317.425781 C 778.363281 317.425781 782.351562 320.972656 782.351562 325.847656 L 782.351562 806.683594 C 782.351562 848.785156 747.785156 883.351562 705.683594 883.351562 Z M 45.363281 334.710938 L 45.363281 806.683594 C 45.363281 839.476562 71.511719 865.625 104.304688 865.625 L 705.683594 865.625 C 738.476562 865.625 764.625 839.476562 764.625 806.683594 L 764.625 334.710938 Z M 45.363281 334.710938 " fill-opacity="1" fill-rule="evenodd"/></g><g clip-path="url(#5389940857)"><path fill="#1f2937" d="M 773.488281 334.710938 L 36.5 334.710938 C 31.625 334.710938 27.636719 330.722656 27.636719 325.847656 L 27.636719 203.53125 C 27.636719 161.433594 61.320312 128.636719 104.304688 128.636719 L 705.683594 128.636719 C 748.671875 128.636719 782.351562 161.433594 782.351562 203.53125 L 782.351562 325.847656 C 782.351562 330.722656 778.363281 334.710938 773.488281 334.710938 Z M 45.363281 317.425781 L 764.625 317.425781 L 764.625 203.53125 C 764.625 171.183594 738.921875 146.363281 705.683594 146.363281 L 104.304688 146.363281 C 71.066406 146.363281 45.363281 171.183594 45.363281 203.53125 Z M 45.363281 317.425781 " fill-opacity="1" fill-rule="evenodd"/></g><g clip-path="url(#1a4c754e04)"><path fill="#1f2937" d="M 705.683594 883.351562 L 104.304688 883.351562 C 61.761719 883.351562 27.636719 848.785156 27.636719 806.683594 L 27.636719 325.847656 C 27.636719 320.972656 31.625 317.425781 36.5 317.425781 L 773.488281 317.425781 C 778.363281 317.425781 782.351562 320.972656 782.351562 325.847656 L 782.351562 806.683594 C 782.351562 848.785156 747.785156 883.351562 705.683594 883.351562 Z M 45.363281 334.710938 L 45.363281 806.683594 C 45.363281 839.476562 71.511719 865.625 104.304688 865.625 L 705.683594 865.625 C 738.476562 865.625 764.625 839.476562 764.625 806.683594 L 764.625 334.710938 Z M 45.363281 334.710938 " fill-opacity="1" fill-rule="evenodd"/></g><path fill="#1f2937" d="M 297.230469 515.953125 C 296.121094 515.953125 295.011719 515.5625 294.117188 514.773438 L 271.757812 494.855469 C 270.757812 493.96875 270.191406 492.699219 270.191406 491.367188 C 270.191406 490.03125 270.757812 488.753906 271.753906 487.867188 L 294.117188 467.957031 C 296.046875 466.230469 299.003906 466.40625 300.722656 468.335938 C 302.441406 470.265625 302.269531 473.21875 300.339844 474.945312 L 281.902344 491.363281 L 300.339844 507.785156 C 302.269531 509.5 302.441406 512.453125 300.722656 514.382812 C 299.796875 515.425781 298.515625 515.953125 297.230469 515.953125 Z M 297.230469 515.953125 " fill-opacity="1" fill-rule="evenodd"/><path fill="#1f2937" d="M 343.78125 515.953125 C 342.496094 515.953125 341.210938 515.425781 340.289062 514.382812 C 338.570312 512.453125 338.742188 509.5 340.671875 507.785156 L 359.109375 491.363281 L 340.671875 474.945312 C 338.742188 473.21875 338.570312 470.265625 340.289062 468.335938 C 342.007812 466.40625 344.964844 466.234375 346.890625 467.957031 L 369.253906 487.867188 C 370.25 488.753906 370.820312 490.03125 370.820312 491.367188 C 370.820312 492.699219 370.25 493.96875 369.253906 494.855469 L 346.890625 514.773438 C 346 515.5625 344.890625 515.953125 343.78125 515.953125 Z M 343.78125 515.953125 " fill-opacity="1" fill-rule="evenodd"/><path fill="#1f2937" d="M 309.546875 529.515625 C 309.175781 529.515625 308.796875 529.480469 308.421875 529.382812 C 305.914062 528.757812 304.382812 526.222656 305.003906 523.71875 L 320.617188 460.617188 C 321.238281 458.113281 323.773438 456.585938 326.28125 457.199219 C 328.789062 457.820312 330.320312 460.355469 329.699219 462.859375 L 314.085938 525.96875 C 313.558594 528.09375 311.648438 529.519531 309.546875 529.515625 Z M 309.546875 529.515625 " fill-opacity="1" fill-rule="evenodd"/><path fill="#1f2937" d="M 424.492188 469.039062 L 401.464844 469.039062 C 398.882812 469.039062 396.789062 466.945312 396.789062 464.363281 C 396.789062 461.777344 398.882812 459.683594 401.464844 459.683594 L 424.492188 459.683594 C 427.074219 459.683594 429.167969 461.777344 429.167969 464.363281 C 429.167969 466.945312 427.074219 469.039062 424.492188 469.039062 Z M 424.492188 469.039062 " fill-opacity="1" fill-rule="evenodd"/><path fill="#1f2937" d="M 473.546875 469.039062 L 450.523438 469.039062 C 447.9375 469.039062 445.84375 466.945312 445.84375 464.363281 C 445.84375 461.777344 447.9375 459.683594 450.523438 459.683594 L 473.546875 459.683594 C 476.128906 459.683594 478.226562 461.777344 478.226562 464.363281 C 478.226562 466.945312 476.128906 469.039062 473.546875 469.039062 Z M 473.546875 469.039062 " fill-opacity="1" fill-rule="evenodd"/><path fill="#1f2937" d="M 535.117188 469.039062 L 499.578125 469.039062 C 496.992188 469.039062 494.898438 466.945312 494.898438 464.363281 C 494.898438 461.777344 496.992188 459.683594 499.578125 459.683594 L 535.117188 459.683594 C 537.699219 459.683594 539.792969 461.777344 539.792969 464.363281 C 539.792969 466.945312 537.699219 469.039062 535.117188 469.039062 Z M 535.117188 469.039062 " fill-opacity="1" fill-rule="evenodd"/><path fill="#1f2937" d="M 424.492188 497.972656 L 401.464844 497.972656 C 398.882812 497.972656 396.789062 495.878906 396.789062 493.292969 C 396.789062 490.710938 398.882812 488.617188 401.464844 488.617188 L 424.492188 488.617188 C 427.074219 488.617188 429.167969 490.710938 429.167969 493.292969 C 429.167969 495.875 427.074219 497.972656 424.492188 497.972656 Z M 424.492188 497.972656 " fill-opacity="1" fill-rule="evenodd"/><path fill="#1f2937" d="M 535.117188 497.972656 L 450.519531 497.972656 C 447.9375 497.972656 445.84375 495.878906 445.84375 493.292969 C 445.84375 490.710938 447.9375 488.617188 450.519531 488.617188 L 535.117188 488.617188 C 537.699219 488.617188 539.792969 490.710938 539.792969 493.292969 C 539.792969 495.875 537.699219 497.972656 535.117188 497.972656 Z M 535.117188 497.972656 " fill-opacity="1" fill-rule="evenodd"/><path fill="#1f2937" d="M 473.546875 526.90625 L 401.464844 526.90625 C 398.882812 526.90625 396.789062 524.8125 396.789062 522.230469 C 396.789062 519.644531 398.882812 517.550781 401.464844 517.550781 L 473.546875 517.550781 C 476.128906 517.550781 478.226562 519.644531 478.226562 522.230469 C 478.226562 524.8125 476.128906 526.90625 473.546875 526.90625 Z M 473.546875 526.90625 " fill-opacity="1" fill-rule="evenodd"/><path fill="#1f2937" d="M 535.117188 526.90625 L 499.578125 526.90625 C 496.992188 526.90625 494.898438 524.8125 494.898438 522.230469 C 494.898438 519.644531 496.992188 517.550781 499.578125 517.550781 L 535.117188 517.550781 C 537.699219 517.550781 539.792969 519.644531 539.792969 522.230469 C 539.792969 524.8125 537.699219 526.90625 535.117188 526.90625 Z M 535.117188 526.90625 " fill-opacity="1" fill-rule="evenodd"/><path fill="#1f2937" d="M 291.171875 624.054688 L 284.023438 624.054688 C 277.507812 624.054688 272.203125 618.492188 272.203125 611.640625 L 272.203125 596.566406 L 264.160156 587.707031 C 262.539062 585.921875 262.539062 583.203125 264.160156 581.421875 L 272.203125 572.5625 L 272.203125 557.484375 C 272.203125 550.636719 277.507812 545.070312 284.023438 545.070312 L 291.171875 545.070312 C 293.753906 545.070312 295.847656 547.167969 295.847656 549.75 C 295.847656 552.332031 293.753906 554.425781 291.171875 554.425781 L 284.023438 554.425781 C 282.6875 554.425781 281.558594 555.820312 281.558594 557.488281 L 281.558594 574.367188 C 281.558594 575.535156 281.125 576.65625 280.34375 577.511719 L 273.941406 584.558594 L 280.34375 591.613281 C 281.125 592.472656 281.558594 593.59375 281.558594 594.761719 L 281.558594 611.640625 C 281.558594 613.296875 282.6875 614.699219 284.023438 614.699219 L 291.171875 614.699219 C 293.753906 614.699219 295.847656 616.796875 295.847656 619.378906 C 295.847656 621.960938 293.753906 624.054688 291.171875 624.054688 Z M 291.171875 624.054688 " fill-opacity="1" fill-rule="evenodd"/><path fill="#1f2937" d="M 525.957031 624.054688 L 518.8125 624.054688 C 516.230469 624.054688 514.136719 621.960938 514.136719 619.378906 C 514.136719 616.796875 516.230469 614.699219 518.8125 614.699219 L 525.957031 614.699219 C 527.296875 614.699219 528.425781 613.296875 528.425781 611.640625 L 528.425781 594.761719 C 528.425781 593.59375 528.859375 592.472656 529.640625 591.613281 L 536.042969 584.558594 L 529.640625 577.511719 C 528.859375 576.65625 528.425781 575.535156 528.425781 574.367188 L 528.425781 557.484375 C 528.425781 555.820312 527.296875 554.425781 525.957031 554.425781 L 518.8125 554.425781 C 516.230469 554.425781 514.136719 552.332031 514.136719 549.75 C 514.136719 547.167969 516.230469 545.070312 518.8125 545.070312 L 525.957031 545.070312 C 532.476562 545.070312 537.78125 550.636719 537.78125 557.488281 L 537.78125 572.5625 L 545.824219 581.421875 C 547.445312 583.203125 547.445312 585.921875 545.824219 587.707031 L 537.78125 596.566406 L 537.78125 611.640625 C 537.78125 618.492188 532.476562 624.054688 525.957031 624.054688 Z M 525.957031 624.054688 " fill-opacity="1" fill-rule="evenodd"/><path fill="#1f2937" d="M 374.304688 575.503906 L 310.480469 575.503906 C 307.894531 575.503906 305.800781 573.421875 305.800781 570.828125 C 305.800781 568.246094 307.894531 566.148438 310.480469 566.148438 L 374.304688 566.148438 C 376.890625 566.148438 378.984375 568.246094 378.984375 570.828125 C 378.984375 573.417969 376.890625 575.503906 374.304688 575.503906 Z M 374.304688 575.503906 " fill-opacity="1" fill-rule="evenodd"/><path fill="#1f2937" d="M 416.039062 575.503906 L 393.945312 575.503906 C 391.363281 575.503906 389.265625 573.421875 389.265625 570.828125 C 389.265625 568.246094 391.363281 566.148438 393.945312 566.148438 L 416.039062 566.148438 C 418.621094 566.148438 420.714844 568.246094 420.714844 570.828125 C 420.714844 573.417969 418.621094 575.503906 416.039062 575.503906 Z M 416.039062 575.503906 " fill-opacity="1" fill-rule="evenodd"/><path fill="#1f2937" d="M 499.503906 575.503906 L 435.675781 575.503906 C 433.09375 575.503906 431 573.421875 431 570.828125 C 431 568.246094 433.09375 566.148438 435.675781 566.148438 L 499.503906 566.148438 C 502.085938 566.148438 504.179688 568.246094 504.179688 570.828125 C 504.179688 573.417969 502.085938 575.503906 499.503906 575.503906 Z M 499.503906 575.503906 " fill-opacity="1" fill-rule="evenodd"/><path fill="#1f2937" d="M 374.304688 602.976562 L 310.480469 602.976562 C 307.894531 602.976562 305.800781 600.882812 305.800781 598.300781 C 305.800781 595.707031 307.894531 593.621094 310.480469 593.621094 L 374.304688 593.621094 C 376.890625 593.621094 378.984375 595.707031 378.984375 598.300781 C 378.984375 600.882812 376.890625 602.976562 374.304688 602.976562 Z M 374.304688 602.976562 " fill-opacity="1" fill-rule="evenodd"/><path fill="#1f2937" d="M 416.039062 602.976562 L 393.945312 602.976562 C 391.363281 602.976562 389.265625 600.882812 389.265625 598.300781 C 389.265625 595.707031 391.363281 593.621094 393.945312 593.621094 L 416.039062 593.621094 C 418.621094 593.621094 420.714844 595.707031 420.714844 598.300781 C 420.714844 600.882812 418.621094 602.976562 416.039062 602.976562 Z M 416.039062 602.976562 " fill-opacity="1" fill-rule="evenodd"/><path fill="#1f2937" d="M 499.503906 602.976562 L 435.675781 602.976562 C 433.09375 602.976562 431 600.882812 431 598.300781 C 431 595.707031 433.09375 593.621094 435.675781 593.621094 L 499.503906 593.621094 C 502.085938 593.621094 504.179688 595.707031 504.179688 598.300781 C 504.179688 600.882812 502.085938 602.976562 499.503906 602.976562 Z M 499.503906 602.976562 " fill-opacity="1" fill-rule="evenodd"/><g clip-path="url(#885e793276)"><path fill="#1f2937" d="M 368.429688 808.789062 C 365.847656 808.789062 363.753906 806.703125 363.753906 804.109375 L 363.753906 740.8125 C 363.753906 738.230469 365.847656 736.136719 368.429688 736.136719 C 371.015625 736.136719 373.109375 738.230469 373.109375 740.816406 L 373.109375 804.109375 C 373.109375 806.703125 371.015625 808.789062 368.429688 808.789062 Z M 441.550781 808.789062 C 438.96875 808.789062 436.871094 806.703125 436.871094 804.109375 L 436.871094 740.8125 C 436.871094 738.230469 438.96875 736.136719 441.550781 736.136719 C 444.132812 736.136719 446.226562 738.230469 446.226562 740.816406 L 446.226562 804.109375 C 446.226562 806.703125 444.132812 808.789062 441.550781 808.789062 Z M 441.550781 808.789062 " fill-opacity="1" fill-rule="evenodd"/></g><g clip-path="url(#b01a25a0b7)"><path fill="#1f2937" d="M 581.863281 745.492188 L 228.121094 745.492188 C 212.75 745.492188 200.246094 733.222656 200.246094 718.136719 L 200.246094 487.496094 C 200.246094 472.421875 212.75 460.152344 228.121094 460.152344 L 243.351562 460.152344 C 245.933594 460.152344 248.027344 462.238281 248.027344 464.828125 C 248.027344 467.410156 245.933594 469.507812 243.351562 469.507812 L 228.121094 469.507812 C 217.910156 469.507812 209.601562 477.578125 209.601562 487.496094 L 209.601562 718.136719 C 209.601562 728.066406 217.910156 736.136719 228.121094 736.136719 L 581.863281 736.136719 C 592.078125 736.136719 600.382812 728.066406 600.382812 718.136719 L 600.382812 487.496094 C 600.382812 477.578125 592.078125 469.507812 581.863281 469.507812 L 566.632812 469.507812 C 564.050781 469.507812 561.957031 467.410156 561.957031 464.828125 C 561.957031 462.238281 564.050781 460.152344 566.632812 460.152344 L 581.863281 460.152344 C 597.234375 460.152344 609.738281 472.421875 609.738281 487.496094 L 609.738281 718.136719 C 609.738281 733.222656 597.234375 745.492188 581.863281 745.492188 Z M 581.863281 745.492188 " fill-opacity="1" fill-rule="evenodd"/></g><g clip-path="url(#6d4d4f4432)"><path fill="#1f2937" d="M 605.0625 695.285156 L 204.921875 695.285156 C 202.335938 695.285156 200.242188 693.199219 200.242188 690.609375 C 200.242188 688.023438 202.335938 685.941406 204.921875 685.941406 L 605.0625 685.9375 C 607.644531 685.9375 609.738281 688.023438 609.738281 690.609375 C 609.738281 693.199219 607.644531 695.285156 605.0625 695.285156 Z M 605.0625 695.285156 " fill-opacity="1" fill-rule="evenodd"/></g><g clip-path="url(#0163ebe8aa)"><path fill="#1f2937" d="M 257.46875 389.644531 C 252.261719 389.644531 248.027344 393.882812 248.027344 399.085938 L 248.027344 634.738281 C 248.027344 639.949219 252.261719 644.179688 257.46875 644.179688 L 552.511719 644.179688 C 557.71875 644.179688 561.953125 639.949219 561.953125 634.738281 L 561.953125 406.804688 C 561.953125 401.601562 557.71875 397.363281 552.511719 397.363281 L 390.546875 397.363281 L 390.546875 432.261719 C 390.546875 434.84375 388.453125 436.9375 385.871094 436.9375 C 383.289062 436.9375 381.191406 434.84375 381.191406 432.261719 L 381.191406 392.683594 C 381.191406 391.007812 379.832031 389.644531 378.15625 389.644531 Z M 552.511719 653.535156 L 257.46875 653.535156 C 247.105469 653.535156 238.671875 645.105469 238.671875 634.738281 L 238.671875 399.085938 C 238.671875 388.71875 247.105469 380.289062 257.46875 380.289062 L 378.15625 380.289062 C 383.335938 380.289062 387.78125 383.484375 389.632812 388.007812 L 552.511719 388.007812 C 562.878906 388.007812 571.3125 396.4375 571.3125 406.804688 L 571.3125 634.738281 C 571.3125 645.105469 562.878906 653.535156 552.511719 653.535156 Z M 552.511719 653.535156 " fill-opacity="1" fill-rule="evenodd"/></g><path fill="#1f2937" d="M 566.632812 436.9375 L 243.347656 436.9375 C 240.765625 436.9375 238.671875 434.84375 238.671875 432.261719 C 238.671875 429.679688 240.765625 427.582031 243.347656 427.582031 L 566.632812 427.582031 C 569.214844 427.582031 571.308594 429.679688 571.308594 432.261719 C 571.308594 434.84375 569.214844 436.9375 566.632812 436.9375 Z M 566.632812 436.9375 " fill-opacity="1" fill-rule="evenodd"/><path fill="#1f2937" d="M 321.722656 413.296875 L 307.5 413.296875 C 304.914062 413.296875 302.820312 411.199219 302.820312 408.617188 C 302.820312 406.035156 304.914062 403.941406 307.5 403.941406 L 321.722656 403.941406 C 324.304688 403.941406 326.402344 406.035156 326.402344 408.617188 C 326.402344 411.199219 324.304688 413.296875 321.722656 413.296875 Z M 321.722656 413.296875 " fill-opacity="1" fill-rule="evenodd"/><path fill="#1f2937" d="M 283.671875 413.296875 L 269.449219 413.296875 C 266.867188 413.296875 264.773438 411.199219 264.773438 408.617188 C 264.773438 406.035156 266.867188 403.941406 269.449219 403.941406 L 283.671875 403.941406 C 286.257812 403.941406 288.351562 406.035156 288.351562 408.617188 C 288.351562 411.199219 286.257812 413.296875 283.671875 413.296875 Z M 283.671875 413.296875 " fill-opacity="1" fill-rule="evenodd"/><path fill="#1f2937" d="M 359.773438 413.296875 L 345.546875 413.296875 C 342.964844 413.296875 340.871094 411.199219 340.871094 408.617188 C 340.871094 406.035156 342.964844 403.941406 345.546875 403.941406 L 359.773438 403.941406 C 362.355469 403.941406 364.449219 406.035156 364.449219 408.617188 C 364.449219 411.199219 362.355469 413.296875 359.773438 413.296875 Z M 359.773438 413.296875 " fill-opacity="1" fill-rule="evenodd"/><g clip-path="url(#ae82b4274d)"><path fill="#1f2937" d="M 477.648438 808.789062 L 332.332031 808.789062 C 329.75 808.789062 327.65625 806.691406 327.65625 804.109375 C 327.65625 801.527344 329.75 799.433594 332.332031 799.433594 L 477.648438 799.429688 C 480.234375 799.429688 482.328125 801.527344 482.328125 804.109375 C 482.328125 806.691406 480.234375 808.789062 477.648438 808.789062 Z M 477.648438 808.789062 " fill-opacity="1" fill-rule="evenodd"/></g></svg>