<svg xmlns="http://www.w3.org/2000/svg" xmlns:xlink="http://www.w3.org/1999/xlink" width="500" zoomAndPan="magnify" viewBox="0 0 375 374.999991" height="500" preserveAspectRatio="xMidYMid meet" version="1.0"><defs><g/><clipPath id="a19b0286ed"><path d="M 247 94 L 287.75 94 L 287.75 121 L 247 121 Z M 247 94 " clip-rule="nonzero"/></clipPath><clipPath id="d8fd031ef2"><path d="M 236 74.339844 L 256 74.339844 L 256 110 L 236 110 Z M 236 74.339844 " clip-rule="nonzero"/></clipPath><clipPath id="7a15049a4d"><path d="M 87.5 94 L 128 94 L 128 121 L 87.5 121 Z M 87.5 94 " clip-rule="nonzero"/></clipPath><clipPath id="299fe6b9ba"><path d="M 119 74.339844 L 138 74.339844 L 138 110 L 119 110 Z M 119 74.339844 " clip-rule="nonzero"/></clipPath></defs><path fill="#f6f6f6" d="M 198.90625 227.085938 C 196.394531 229.597656 192.3125 229.601562 189.792969 227.09375 C 189.792969 227.09375 189.785156 227.089844 189.78125 227.085938 L 186.074219 223.375 L 188.3125 221.136719 C 191.660156 217.785156 191.660156 212.339844 188.3125 208.992188 C 186.6875 207.371094 184.53125 206.472656 182.242188 206.472656 L 182.238281 206.472656 C 181.914062 206.472656 181.597656 206.5 181.277344 206.535156 C 182.195312 205.007812 182.601562 203.265625 182.484375 201.542969 L 198.949219 218.003906 C 201.421875 220.523438 201.410156 224.585938 198.90625 227.085938 Z M 198.90625 227.085938 " fill-opacity="1" fill-rule="nonzero"/><path fill="#f6f6f6" d="M 186.804688 219.628906 L 183.804688 222.621094 L 180.8125 225.617188 C 178.296875 228.132812 174.203125 228.132812 171.6875 225.617188 C 170.46875 224.398438 169.800781 222.78125 169.800781 221.054688 C 169.800781 219.332031 170.46875 217.714844 171.6875 216.492188 L 174.683594 213.496094 C 174.683594 213.496094 174.683594 213.496094 174.6875 213.496094 L 177.003906 211.171875 L 177.128906 211.054688 L 177.679688 210.503906 C 178.898438 209.285156 180.515625 208.609375 182.238281 208.609375 L 182.242188 208.609375 C 183.964844 208.609375 185.582031 209.28125 186.804688 210.503906 C 189.316406 213.019531 189.316406 217.113281 186.804688 219.628906 Z M 186.804688 219.628906 " fill-opacity="1" fill-rule="nonzero"/><path fill="#f6f6f6" d="M 178.492188 206.667969 L 176.167969 208.992188 L 173.171875 211.984375 C 173.171875 211.984375 173.171875 211.984375 173.171875 211.988281 L 170.179688 214.984375 C 167.664062 217.5 163.570312 217.5 161.054688 214.984375 C 158.542969 212.472656 158.539062 208.382812 161.046875 205.867188 C 161.050781 205.863281 161.050781 205.863281 161.054688 205.859375 L 168.203125 198.710938 C 168.207031 198.707031 168.207031 198.707031 168.207031 198.707031 L 169.378906 197.535156 C 171.886719 195.035156 175.964844 195.035156 178.480469 197.53125 C 178.484375 197.539062 178.488281 197.542969 178.492188 197.546875 L 178.539062 197.59375 C 181.003906 200.113281 180.992188 204.167969 178.492188 206.667969 Z M 178.492188 206.667969 " fill-opacity="1" fill-rule="nonzero"/><path fill="#f6f6f6" d="M 169.691406 194.203125 L 167.867188 196.027344 C 167.867188 196.03125 167.863281 196.03125 167.859375 196.035156 L 162.546875 201.347656 C 162.542969 201.351562 162.542969 201.351562 162.542969 201.351562 L 159.539062 204.355469 C 157.023438 206.863281 152.933594 206.863281 150.421875 204.351562 C 147.90625 201.835938 147.90625 197.742188 150.421875 195.226562 L 157.570312 188.078125 L 157.574219 188.078125 L 160.566406 185.078125 C 163.082031 182.5625 167.175781 182.5625 169.691406 185.078125 C 172.207031 187.59375 172.207031 191.6875 169.691406 194.203125 Z M 169.691406 194.203125 " fill-opacity="1" fill-rule="nonzero"/><path fill="#f6f6f6" d="M 160.949219 179.007812 C 160.949219 180.726562 160.277344 182.347656 159.058594 183.570312 L 148.910156 193.714844 C 146.394531 196.230469 142.300781 196.230469 139.785156 193.714844 C 137.273438 191.203125 137.273438 187.105469 139.785156 184.59375 L 142.769531 181.609375 C 142.777344 181.605469 142.78125 181.605469 142.785156 181.601562 C 142.789062 181.59375 142.789062 181.589844 142.792969 181.582031 L 149.933594 174.445312 C 151.152344 173.226562 152.773438 172.554688 154.496094 172.550781 C 155.355469 172.550781 156.191406 172.722656 156.964844 173.042969 C 157.738281 173.363281 158.449219 173.832031 159.058594 174.445312 C 160.277344 175.660156 160.949219 177.28125 160.949219 179.007812 Z M 160.949219 179.007812 " fill-opacity="1" fill-rule="nonzero"/><path fill="#f6f6f6" d="M 263.316406 143.644531 C 263.316406 145.039062 262.78125 146.347656 261.800781 147.328125 L 256.769531 152.355469 C 255.789062 153.332031 254.484375 153.871094 253.085938 153.871094 C 251.691406 153.871094 250.382812 153.332031 249.40625 152.355469 L 228.65625 131.609375 L 215.3125 118.261719 C 215.308594 118.257812 215.300781 118.253906 215.296875 118.25 L 210.25 113.203125 C 208.21875 111.171875 208.21875 107.867188 210.25 105.835938 L 215.28125 100.808594 C 216.261719 99.828125 217.566406 99.289062 218.964844 99.289062 C 220.359375 99.289062 221.667969 99.828125 222.644531 100.808594 L 261.800781 139.957031 C 262.78125 140.941406 263.316406 142.246094 263.316406 143.644531 Z M 263.316406 143.644531 " fill-opacity="1" fill-rule="nonzero"/><path fill="#f6f6f6" d="M 164.976562 112.453125 L 159.914062 117.519531 C 159.871094 117.554688 159.84375 117.582031 159.832031 117.59375 L 131.507812 145.921875 L 125.824219 151.605469 C 124.847656 152.585938 123.535156 153.125 122.136719 153.125 C 120.742188 153.125 119.433594 152.585938 118.457031 151.605469 L 113.429688 146.574219 C 111.394531 144.546875 111.394531 141.238281 113.429688 139.207031 L 152.578125 100.054688 C 153.558594 99.078125 154.867188 98.539062 156.261719 98.539062 C 157.660156 98.539062 158.964844 99.078125 159.949219 100.054688 L 164.976562 105.085938 C 167.003906 107.117188 167.003906 110.421875 164.976562 112.453125 Z M 164.976562 112.453125 " fill-opacity="1" fill-rule="nonzero"/><path fill="#f6f6f6" d="M 232.679688 197.042969 C 230.164062 199.554688 226.070312 199.558594 223.554688 197.042969 C 223.554688 197.039062 223.550781 197.039062 223.550781 197.039062 L 199.074219 172.558594 C 198.660156 172.144531 197.984375 172.144531 197.566406 172.558594 C 197.148438 172.980469 197.148438 173.652344 197.566406 174.074219 L 225.5 202.007812 C 228.015625 204.523438 228.015625 208.613281 225.5 211.128906 C 224.28125 212.351562 222.660156 213.023438 220.9375 213.023438 C 219.210938 213.023438 217.59375 212.351562 216.375 211.128906 L 188.441406 183.195312 C 188.023438 182.78125 187.347656 182.78125 186.929688 183.195312 C 186.511719 183.613281 186.511719 184.289062 186.929688 184.710938 L 212.191406 209.972656 C 212.199219 209.976562 212.203125 209.980469 212.207031 209.984375 C 213.421875 211.203125 214.09375 212.820312 214.09375 214.546875 C 214.09375 216.269531 213.421875 217.894531 212.207031 219.109375 C 209.683594 221.625 205.59375 221.625 203.078125 219.113281 L 200.457031 216.492188 C 200.445312 216.480469 200.433594 216.464844 200.417969 216.449219 C 200.410156 216.445312 200.402344 216.4375 200.394531 216.433594 L 180.050781 196.085938 C 180.035156 196.066406 180.019531 196.050781 180.003906 196.035156 C 178.027344 194.054688 175.316406 193.257812 172.742188 193.617188 C 174.429688 190.378906 173.917969 186.28125 171.203125 183.570312 C 168.914062 181.277344 165.652344 180.554688 162.742188 181.394531 C 162.964844 180.628906 163.082031 179.824219 163.082031 179.007812 C 163.082031 176.710938 162.191406 174.554688 160.566406 172.929688 C 158.945312 171.3125 156.789062 170.414062 154.496094 170.414062 C 154.496094 170.414062 154.496094 170.414062 154.492188 170.414062 C 152.203125 170.417969 150.046875 171.3125 148.421875 172.929688 L 142.058594 179.300781 C 127.796875 164.191406 128.246094 153.789062 128.457031 151.996094 L 144.125 136.320312 L 161.375 119.070312 C 161.699219 118.761719 166.777344 114.003906 178.542969 113.589844 C 182.617188 113.449219 186.679688 113.433594 190.285156 113.480469 C 183.140625 116.574219 178.125 121.984375 177.675781 122.480469 L 152.613281 147.539062 C 150.988281 149.164062 150.097656 151.320312 150.097656 153.613281 C 150.097656 155.90625 150.988281 158.0625 152.613281 159.683594 C 155.960938 163.035156 161.414062 163.039062 164.761719 159.6875 C 164.765625 159.679688 164.769531 159.675781 164.777344 159.667969 L 180.042969 144.402344 C 182.558594 141.886719 186.652344 141.886719 189.171875 144.402344 L 232.679688 187.914062 C 235.195312 190.429688 235.195312 194.527344 232.679688 197.042969 Z M 232.679688 197.042969 " fill-opacity="1" fill-rule="nonzero"/><path fill="#f6f6f6" d="M 229.8125 182.027344 L 190.679688 142.894531 C 189.003906 141.21875 186.804688 140.382812 184.609375 140.382812 C 182.410156 140.382812 180.210938 141.21875 178.535156 142.894531 L 163.25 158.175781 C 163.246094 158.179688 163.242188 158.1875 163.238281 158.191406 C 160.722656 160.691406 156.636719 160.6875 154.125 158.171875 C 152.90625 156.957031 152.234375 155.335938 152.234375 153.613281 C 152.234375 151.890625 152.90625 150.269531 154.125 149.050781 L 179.203125 123.972656 C 179.21875 123.960938 179.230469 123.941406 179.238281 123.929688 C 179.328125 123.835938 187.414062 114.988281 197.421875 113.648438 C 200.65625 113.753906 202.976562 113.882812 203.742188 113.929688 L 203.863281 113.933594 C 207.394531 114.757812 210.722656 116.703125 213.785156 119.757812 L 233.554688 139.53125 L 247.199219 153.175781 C 247.429688 154.265625 248.113281 161.847656 229.8125 182.027344 Z M 229.8125 182.027344 " fill-opacity="1" fill-rule="nonzero"/><path fill="#f6f6f6" d="M 282.394531 123.058594 C 282.394531 125.554688 280.367188 127.585938 277.867188 127.585938 C 275.367188 127.585938 273.335938 125.554688 273.335938 123.058594 C 273.335938 122.191406 273.582031 121.382812 274.007812 120.695312 L 271.164062 117.855469 L 265.210938 111.902344 L 253.816406 123.289062 C 253.816406 123.292969 253.8125 123.292969 253.808594 123.296875 C 253.804688 123.296875 253.804688 123.300781 253.804688 123.300781 L 253.21875 123.886719 C 253.011719 124.097656 252.738281 124.199219 252.464844 124.199219 C 252.191406 124.199219 251.917969 124.097656 251.707031 123.886719 C 251.292969 123.46875 251.292969 122.792969 251.707031 122.378906 L 252.304688 121.78125 C 252.3125 121.773438 252.316406 121.769531 252.324219 121.761719 L 264.449219 109.636719 C 264.660156 109.425781 264.933594 109.320312 265.207031 109.320312 C 265.480469 109.320312 265.757812 109.425781 265.964844 109.636719 L 271.828125 115.496094 L 275.523438 119.1875 C 276.207031 118.769531 277.007812 118.527344 277.867188 118.527344 C 280.367188 118.527344 282.394531 120.558594 282.394531 123.058594 Z M 282.394531 123.058594 " fill-opacity="1" fill-rule="nonzero"/><path fill="#f6f6f6" d="M 241.722656 98.351562 L 235.304688 104.769531 C 235.304688 104.773438 235.300781 104.773438 235.300781 104.773438 L 234.695312 105.375 C 234.488281 105.578125 234.21875 105.679688 233.945312 105.679688 C 233.671875 105.679688 233.398438 105.578125 233.1875 105.363281 C 232.769531 104.945312 232.773438 104.269531 233.191406 103.855469 L 233.742188 103.308594 C 233.757812 103.292969 233.773438 103.277344 233.796875 103.253906 L 239.460938 97.59375 L 236.925781 95.0625 L 232.164062 90.296875 C 231.460938 90.730469 230.652344 90.964844 229.808594 90.964844 C 228.597656 90.964844 227.460938 90.496094 226.605469 89.640625 C 224.835938 87.871094 224.835938 84.996094 226.601562 83.230469 C 227.460938 82.378906 228.597656 81.90625 229.804688 81.90625 C 231.019531 81.90625 232.15625 82.378906 233.007812 83.230469 C 234.511719 84.734375 234.730469 87.042969 233.671875 88.785156 L 237.9375 93.050781 L 241.722656 96.832031 C 241.824219 96.9375 241.902344 97.054688 241.953125 97.183594 C 242.011719 97.3125 242.039062 97.453125 242.039062 97.59375 C 242.039062 97.875 241.925781 98.148438 241.722656 98.351562 Z M 241.722656 98.351562 " fill-opacity="1" fill-rule="nonzero"/><g clip-path="url(#a19b0286ed)"><path fill="#f6f6f6" d="M 287.296875 99.382812 C 287.296875 101.882812 285.261719 103.917969 282.761719 103.917969 C 280.589844 103.917969 278.769531 102.375 278.332031 100.328125 L 269.105469 100.324219 L 249.386719 120.046875 C 249.179688 120.261719 248.90625 120.363281 248.628906 120.363281 C 248.359375 120.363281 248.085938 120.261719 247.875 120.054688 C 247.457031 119.636719 247.457031 118.960938 247.871094 118.542969 L 248.46875 117.941406 L 267.910156 98.503906 C 268.105469 98.304688 268.378906 98.1875 268.660156 98.1875 L 278.398438 98.191406 C 278.921875 96.273438 280.679688 94.855469 282.761719 94.855469 C 285.261719 94.855469 287.296875 96.890625 287.296875 99.382812 Z M 287.296875 99.382812 " fill-opacity="1" fill-rule="nonzero"/></g><g clip-path="url(#d8fd031ef2)"><path fill="#f6f6f6" d="M 251.898438 96.164062 L 238.703125 109.363281 C 238.496094 109.578125 238.222656 109.679688 237.941406 109.679688 C 237.675781 109.679688 237.402344 109.578125 237.191406 109.371094 C 236.773438 108.953125 236.773438 108.277344 237.1875 107.859375 L 237.785156 107.257812 L 250.074219 94.96875 L 250.066406 83.316406 C 248.003906 82.894531 246.445312 81.066406 246.445312 78.878906 C 246.445312 76.378906 248.476562 74.347656 250.972656 74.347656 C 253.472656 74.347656 255.503906 76.378906 255.503906 78.878906 C 255.503906 80.953125 254.105469 82.695312 252.203125 83.230469 L 252.210938 95.40625 C 252.210938 95.691406 252.101562 95.960938 251.898438 96.164062 Z M 251.898438 96.164062 " fill-opacity="1" fill-rule="nonzero"/></g><path fill="#f6f6f6" d="M 250.046875 108.339844 L 244.457031 113.925781 C 244.449219 113.933594 244.441406 113.9375 244.4375 113.941406 C 244.433594 113.945312 244.421875 113.957031 244.417969 113.960938 L 243.855469 114.523438 C 243.648438 114.734375 243.371094 114.835938 243.097656 114.835938 C 242.824219 114.835938 242.550781 114.734375 242.34375 114.523438 C 241.929688 114.105469 241.929688 113.429688 242.34375 113.011719 L 242.921875 112.433594 C 242.933594 112.425781 242.941406 112.417969 242.945312 112.410156 L 248.707031 106.65625 C 248.289062 105.96875 248.042969 105.164062 248.042969 104.300781 C 248.042969 101.804688 250.074219 99.773438 252.570312 99.773438 C 255.070312 99.773438 257.101562 101.804688 257.101562 104.300781 C 257.101562 106.800781 255.066406 108.832031 252.570312 108.832031 C 251.707031 108.832031 250.902344 108.585938 250.214844 108.167969 Z M 250.046875 108.339844 " fill-opacity="1" fill-rule="nonzero"/><path fill="#f6f6f6" d="M 132.390625 112.757812 C 132.808594 113.171875 132.808594 113.851562 132.390625 114.265625 C 132.179688 114.476562 131.90625 114.578125 131.632812 114.578125 C 131.359375 114.578125 131.085938 114.476562 130.878906 114.265625 L 130.550781 113.933594 C 130.546875 113.929688 130.539062 113.929688 130.535156 113.925781 L 124.777344 108.167969 C 124.089844 108.585938 123.289062 108.832031 122.425781 108.832031 C 119.925781 108.832031 117.890625 106.800781 117.890625 104.300781 C 117.890625 101.804688 119.925781 99.773438 122.425781 99.773438 C 124.917969 99.773438 126.953125 101.804688 126.953125 104.300781 C 126.953125 105.164062 126.703125 105.96875 126.285156 106.65625 L 132.050781 112.410156 C 132.070312 112.429688 132.085938 112.453125 132.105469 112.472656 Z M 132.390625 112.757812 " fill-opacity="1" fill-rule="nonzero"/><path fill="#f6f6f6" d="M 148.386719 89.640625 C 147.535156 90.496094 146.394531 90.964844 145.183594 90.964844 C 144.339844 90.964844 143.53125 90.730469 142.832031 90.296875 L 135.539062 97.589844 L 141.203125 103.257812 L 141.539062 103.59375 C 141.960938 104.007812 141.964844 104.683594 141.550781 105.105469 C 141.339844 105.3125 141.066406 105.421875 140.789062 105.421875 C 140.519531 105.421875 140.246094 105.316406 140.042969 105.113281 L 139.707031 104.785156 C 139.699219 104.78125 139.695312 104.773438 139.691406 104.769531 L 133.265625 98.351562 C 133.070312 98.148438 132.953125 97.875 132.953125 97.59375 C 132.953125 97.3125 133.070312 97.039062 133.265625 96.839844 L 141.320312 88.789062 C 140.890625 88.085938 140.65625 87.277344 140.65625 86.4375 C 140.65625 85.226562 141.125 84.085938 141.984375 83.230469 C 142.839844 82.378906 143.976562 81.90625 145.1875 81.90625 C 146.398438 81.90625 147.535156 82.378906 148.386719 83.230469 C 150.15625 84.996094 150.15625 87.871094 148.386719 89.640625 Z M 148.386719 89.640625 " fill-opacity="1" fill-rule="nonzero"/><g clip-path="url(#7a15049a4d)"><path fill="#f6f6f6" d="M 126.863281 119.789062 C 126.652344 120 126.378906 120.101562 126.105469 120.101562 C 125.832031 120.101562 125.558594 120 125.351562 119.789062 L 105.890625 100.324219 L 96.65625 100.328125 C 96.226562 102.375 94.40625 103.917969 92.230469 103.917969 C 89.730469 103.917969 87.699219 101.882812 87.699219 99.382812 C 87.699219 96.890625 89.730469 94.855469 92.230469 94.855469 C 94.316406 94.855469 96.066406 96.273438 96.59375 98.191406 L 106.332031 98.1875 C 106.617188 98.1875 106.886719 98.304688 107.089844 98.503906 L 126.863281 118.28125 C 127.28125 118.695312 127.28125 119.371094 126.863281 119.789062 Z M 126.863281 119.789062 " fill-opacity="1" fill-rule="nonzero"/></g><g clip-path="url(#299fe6b9ba)"><path fill="#f6f6f6" d="M 137.546875 107.597656 C 137.964844 108.011719 137.964844 108.6875 137.546875 109.105469 C 137.335938 109.316406 137.0625 109.417969 136.789062 109.417969 C 136.515625 109.417969 136.242188 109.316406 136.035156 109.105469 L 123.089844 96.164062 C 122.890625 95.960938 122.777344 95.6875 122.777344 95.40625 L 122.792969 83.230469 C 120.890625 82.699219 119.488281 80.953125 119.488281 78.878906 C 119.488281 76.378906 121.523438 74.347656 124.019531 74.347656 C 126.515625 74.347656 128.550781 76.378906 128.550781 78.878906 C 128.550781 81.066406 126.992188 82.894531 124.925781 83.316406 L 124.914062 94.96875 Z M 137.546875 107.597656 " fill-opacity="1" fill-rule="nonzero"/></g><path fill="#f6f6f6" d="M 123.027344 122.125 C 123.445312 122.539062 123.445312 123.210938 123.027344 123.632812 C 122.816406 123.839844 122.542969 123.941406 122.269531 123.941406 C 121.996094 123.941406 121.722656 123.839844 121.515625 123.632812 L 121.175781 123.289062 L 109.785156 111.902344 L 100.988281 120.695312 C 101.40625 121.382812 101.65625 122.191406 101.65625 123.058594 C 101.65625 125.554688 99.625 127.585938 97.125 127.585938 C 94.628906 127.585938 92.597656 125.554688 92.597656 123.058594 C 92.597656 120.558594 94.628906 118.527344 97.125 118.527344 C 97.984375 118.527344 98.789062 118.773438 99.472656 119.1875 L 109.027344 109.636719 C 109.082031 109.582031 109.140625 109.539062 109.199219 109.496094 C 109.257812 109.457031 109.320312 109.425781 109.382812 109.402344 C 109.699219 109.273438 110.0625 109.304688 110.355469 109.488281 C 110.359375 109.492188 110.363281 109.496094 110.375 109.496094 C 110.378906 109.503906 110.386719 109.507812 110.390625 109.511719 C 110.441406 109.550781 110.492188 109.589844 110.539062 109.632812 L 122.683594 121.777344 C 122.703125 121.792969 122.722656 121.8125 122.742188 121.832031 Z M 123.027344 122.125 " fill-opacity="1" fill-rule="nonzero"/><g fill="#f6f6f6" fill-opacity="1"><g transform="translate(61.733518, 263.243728)"><g><path d="M 9.828125 -19.953125 C 11.296875 -19.953125 12.644531 -19.703125 13.875 -19.203125 C 15.113281 -18.710938 16.179688 -18.019531 17.078125 -17.125 C 17.984375 -16.226562 18.6875 -15.175781 19.1875 -13.96875 C 19.695312 -12.769531 19.953125 -11.445312 19.953125 -10 C 19.953125 -8.5625 19.695312 -7.234375 19.1875 -6.015625 C 18.6875 -4.796875 17.984375 -3.734375 17.078125 -2.828125 C 16.179688 -1.929688 15.113281 -1.234375 13.875 -0.734375 C 12.644531 -0.242188 11.296875 0 9.828125 0 L 2.28125 0 L 2.28125 -19.953125 Z M 9.71875 -4.015625 C 10.851562 -4.015625 11.859375 -4.269531 12.734375 -4.78125 C 13.609375 -5.300781 14.289062 -6.007812 14.78125 -6.90625 C 15.28125 -7.8125 15.53125 -8.84375 15.53125 -10 C 15.53125 -11.15625 15.28125 -12.179688 14.78125 -13.078125 C 14.289062 -13.972656 13.609375 -14.671875 12.734375 -15.171875 C 11.859375 -15.679688 10.851562 -15.9375 9.71875 -15.9375 L 6.609375 -15.9375 L 6.609375 -4.015625 Z M 9.71875 -4.015625 "/></g></g></g><g fill="#f6f6f6" fill-opacity="1"><g transform="translate(82.843334, 263.243728)"><g><path d="M 2 -17.4375 L 2 -21.3125 L 6.15625 -21.3125 L 6.15625 -17.4375 Z M 2 0 L 2 -15.390625 L 6.15625 -15.390625 L 6.15625 0 Z M 2 0 "/></g></g></g><g fill="#f6f6f6" fill-opacity="1"><g transform="translate(90.990977, 263.243728)"><g><path d="M 14.421875 -15.390625 L 17.125 -15.390625 L 17.125 -1.796875 C 17.125 -0.179688 16.804688 1.203125 16.171875 2.359375 C 15.535156 3.523438 14.628906 4.421875 13.453125 5.046875 C 12.273438 5.671875 10.878906 5.984375 9.265625 5.984375 C 7.171875 5.984375 5.425781 5.476562 4.03125 4.46875 C 2.632812 3.46875 1.765625 2.09375 1.421875 0.34375 L 5.5625 0.34375 C 5.789062 1.03125 6.257812 1.546875 6.96875 1.890625 C 7.675781 2.242188 8.410156 2.421875 9.171875 2.421875 C 10.234375 2.421875 11.140625 2.101562 11.890625 1.46875 C 12.648438 0.832031 13.03125 -0.0546875 13.03125 -1.203125 L 13.03125 -1.765625 C 12.414062 -1.328125 11.738281 -0.988281 11 -0.75 C 10.257812 -0.519531 9.472656 -0.40625 8.640625 -0.40625 C 7.210938 -0.40625 5.914062 -0.742188 4.75 -1.421875 C 3.59375 -2.109375 2.675781 -3.03125 2 -4.1875 C 1.332031 -5.34375 1 -6.644531 1 -8.09375 C 1 -9.539062 1.332031 -10.847656 2 -12.015625 C 2.675781 -13.179688 3.59375 -14.101562 4.75 -14.78125 C 5.914062 -15.46875 7.210938 -15.8125 8.640625 -15.8125 C 9.640625 -15.8125 10.578125 -15.640625 11.453125 -15.296875 C 12.328125 -14.960938 13.097656 -14.476562 13.765625 -13.84375 Z M 9.125 -4.109375 C 10.257812 -4.109375 11.195312 -4.484375 11.9375 -5.234375 C 12.675781 -5.984375 13.046875 -6.9375 13.046875 -8.09375 C 13.046875 -9.226562 12.679688 -10.171875 11.953125 -10.921875 C 11.222656 -11.679688 10.28125 -12.0625 9.125 -12.0625 C 8 -12.0625 7.066406 -11.679688 6.328125 -10.921875 C 5.585938 -10.171875 5.21875 -9.226562 5.21875 -8.09375 C 5.21875 -6.9375 5.582031 -5.984375 6.3125 -5.234375 C 7.039062 -4.484375 7.976562 -4.109375 9.125 -4.109375 Z M 9.125 -4.109375 "/></g></g></g><g fill="#f6f6f6" fill-opacity="1"><g transform="translate(110.106615, 263.243728)"><g><path d="M 2 -17.4375 L 2 -21.3125 L 6.15625 -21.3125 L 6.15625 -17.4375 Z M 2 0 L 2 -15.390625 L 6.15625 -15.390625 L 6.15625 0 Z M 2 0 "/></g></g></g><g fill="#f6f6f6" fill-opacity="1"><g transform="translate(118.254258, 263.243728)"><g><path d="M 9.515625 -3.703125 L 11.40625 -3.703125 L 11.40625 0 L 8.46875 0 C 6.769531 0 5.429688 -0.488281 4.453125 -1.46875 C 3.484375 -2.445312 3 -3.789062 3 -5.5 L 3 -12.0625 L 0.203125 -12.0625 L 0.203125 -12.9375 L 6.296875 -19.40625 L 7.0625 -19.40625 L 7.0625 -15.390625 L 11.3125 -15.390625 L 11.3125 -12.0625 L 7.15625 -12.0625 L 7.15625 -6.046875 C 7.15625 -5.304688 7.359375 -4.726562 7.765625 -4.3125 C 8.171875 -3.90625 8.753906 -3.703125 9.515625 -3.703125 Z M 9.515625 -3.703125 "/></g></g></g><g fill="#f6f6f6" fill-opacity="1"><g transform="translate(130.504219, 263.243728)"><g><path d="M 14.5625 -15.421875 L 17.671875 -15.421875 L 17.671875 -0.03125 L 14.390625 -0.03125 L 14.046875 -1.390625 C 13.378906 -0.828125 12.625 -0.382812 11.78125 -0.0625 C 10.9375 0.257812 10.03125 0.421875 9.0625 0.421875 C 7.519531 0.421875 6.140625 0.0664062 4.921875 -0.640625 C 3.710938 -1.347656 2.753906 -2.316406 2.046875 -3.546875 C 1.347656 -4.773438 1 -6.164062 1 -7.71875 C 1 -9.257812 1.347656 -10.640625 2.046875 -11.859375 C 2.753906 -13.085938 3.710938 -14.050781 4.921875 -14.75 C 6.140625 -15.457031 7.519531 -15.8125 9.0625 -15.8125 C 10.050781 -15.8125 10.972656 -15.644531 11.828125 -15.3125 C 12.679688 -14.976562 13.441406 -14.519531 14.109375 -13.9375 Z M 9.40625 -3.5 C 10.207031 -3.5 10.925781 -3.679688 11.5625 -4.046875 C 12.195312 -4.410156 12.691406 -4.910156 13.046875 -5.546875 C 13.410156 -6.179688 13.59375 -6.90625 13.59375 -7.71875 C 13.59375 -8.519531 13.410156 -9.238281 13.046875 -9.875 C 12.691406 -10.507812 12.195312 -11.007812 11.5625 -11.375 C 10.925781 -11.75 10.207031 -11.9375 9.40625 -11.9375 C 8.582031 -11.9375 7.859375 -11.75 7.234375 -11.375 C 6.609375 -11.007812 6.113281 -10.507812 5.75 -9.875 C 5.394531 -9.238281 5.21875 -8.519531 5.21875 -7.71875 C 5.21875 -6.90625 5.394531 -6.179688 5.75 -5.546875 C 6.113281 -4.921875 6.609375 -4.421875 7.234375 -4.046875 C 7.859375 -3.679688 8.582031 -3.5 9.40625 -3.5 Z M 9.40625 -3.5 "/></g></g></g><g fill="#f6f6f6" fill-opacity="1"><g transform="translate(150.161128, 263.243728)"><g><path d="M 2 0 L 2 -20.953125 L 6.15625 -20.953125 L 6.15625 0 Z M 2 0 "/></g></g></g><g fill="#f6f6f6" fill-opacity="1"><g transform="translate(158.308771, 263.243728)"><g/></g></g><g fill="#f6f6f6" fill-opacity="1"><g transform="translate(165.117468, 263.243728)"><g><path d="M 13.25 0 L 9.375 -6.8125 L 6.609375 -6.8125 L 6.609375 0 L 2.28125 0 L 2.28125 -19.953125 L 10.34375 -19.953125 C 11.675781 -19.953125 12.863281 -19.664062 13.90625 -19.09375 C 14.945312 -18.519531 15.769531 -17.738281 16.375 -16.75 C 16.988281 -15.769531 17.296875 -14.632812 17.296875 -13.34375 C 17.296875 -12.050781 16.96875 -10.894531 16.3125 -9.875 C 15.65625 -8.851562 14.78125 -8.078125 13.6875 -7.546875 L 18.09375 0 Z M 6.609375 -15.953125 L 6.609375 -10.796875 L 10.0625 -10.796875 C 10.957031 -10.796875 11.660156 -11.035156 12.171875 -11.515625 C 12.679688 -12.003906 12.9375 -12.617188 12.9375 -13.359375 C 12.9375 -14.117188 12.679688 -14.738281 12.171875 -15.21875 C 11.660156 -15.707031 10.957031 -15.953125 10.0625 -15.953125 Z M 6.609375 -15.953125 "/></g></g></g><g fill="#f6f6f6" fill-opacity="1"><g transform="translate(183.948216, 263.243728)"><g><path d="M 9.3125 0.421875 C 7.71875 0.421875 6.289062 0.0664062 5.03125 -0.640625 C 3.78125 -1.347656 2.796875 -2.316406 2.078125 -3.546875 C 1.359375 -4.773438 1 -6.15625 1 -7.6875 C 1 -9.25 1.359375 -10.640625 2.078125 -11.859375 C 2.796875 -13.085938 3.78125 -14.050781 5.03125 -14.75 C 6.289062 -15.457031 7.71875 -15.8125 9.3125 -15.8125 C 10.894531 -15.8125 12.3125 -15.457031 13.5625 -14.75 C 14.820312 -14.050781 15.8125 -13.085938 16.53125 -11.859375 C 17.25 -10.640625 17.609375 -9.25 17.609375 -7.6875 C 17.609375 -6.15625 17.25 -4.773438 16.53125 -3.546875 C 15.8125 -2.316406 14.820312 -1.347656 13.5625 -0.640625 C 12.3125 0.0664062 10.894531 0.421875 9.3125 0.421875 Z M 9.3125 -3.484375 C 10.507812 -3.484375 11.488281 -3.867188 12.25 -4.640625 C 13.007812 -5.421875 13.390625 -6.4375 13.390625 -7.6875 C 13.390625 -8.945312 13.007812 -9.960938 12.25 -10.734375 C 11.488281 -11.515625 10.507812 -11.90625 9.3125 -11.90625 C 8.101562 -11.90625 7.117188 -11.515625 6.359375 -10.734375 C 5.597656 -9.960938 5.21875 -8.945312 5.21875 -7.6875 C 5.21875 -6.4375 5.597656 -5.421875 6.359375 -4.640625 C 7.117188 -3.867188 8.101562 -3.484375 9.3125 -3.484375 Z M 9.3125 -3.484375 "/></g></g></g><g fill="#f6f6f6" fill-opacity="1"><g transform="translate(202.551055, 263.243728)"><g><path d="M 19.5 -15.765625 C 20.5625 -15.765625 21.5 -15.5 22.3125 -14.96875 C 23.132812 -14.445312 23.773438 -13.726562 24.234375 -12.8125 C 24.703125 -11.90625 24.9375 -10.851562 24.9375 -9.65625 L 24.9375 0 L 20.78125 0 L 20.78125 -8.984375 C 20.78125 -11.066406 20 -12.109375 18.4375 -12.109375 C 17.53125 -12.109375 16.8125 -11.773438 16.28125 -11.109375 C 15.757812 -10.453125 15.5 -9.523438 15.5 -8.328125 L 15.5 0 L 11.421875 0 L 11.421875 -8.984375 C 11.421875 -11.066406 10.671875 -12.109375 9.171875 -12.109375 C 8.222656 -12.109375 7.484375 -11.773438 6.953125 -11.109375 C 6.421875 -10.453125 6.15625 -9.523438 6.15625 -8.328125 L 6.15625 0 L 2 0 L 2 -15.390625 L 4.90625 -15.390625 L 5.671875 -13.484375 C 6.222656 -14.160156 6.898438 -14.707031 7.703125 -15.125 C 8.515625 -15.550781 9.375 -15.765625 10.28125 -15.765625 C 11.25 -15.765625 12.125 -15.546875 12.90625 -15.109375 C 13.6875 -14.671875 14.296875 -14.0625 14.734375 -13.28125 C 15.265625 -14.039062 15.945312 -14.644531 16.78125 -15.09375 C 17.625 -15.539062 18.53125 -15.765625 19.5 -15.765625 Z M 19.5 -15.765625 "/></g></g></g><g fill="#f6f6f6" fill-opacity="1"><g transform="translate(229.273053, 263.243728)"><g><path d="M 14.5625 -15.421875 L 17.671875 -15.421875 L 17.671875 -0.03125 L 14.390625 -0.03125 L 14.046875 -1.390625 C 13.378906 -0.828125 12.625 -0.382812 11.78125 -0.0625 C 10.9375 0.257812 10.03125 0.421875 9.0625 0.421875 C 7.519531 0.421875 6.140625 0.0664062 4.921875 -0.640625 C 3.710938 -1.347656 2.753906 -2.316406 2.046875 -3.546875 C 1.347656 -4.773438 1 -6.164062 1 -7.71875 C 1 -9.257812 1.347656 -10.640625 2.046875 -11.859375 C 2.753906 -13.085938 3.710938 -14.050781 4.921875 -14.75 C 6.140625 -15.457031 7.519531 -15.8125 9.0625 -15.8125 C 10.050781 -15.8125 10.972656 -15.644531 11.828125 -15.3125 C 12.679688 -14.976562 13.441406 -14.519531 14.109375 -13.9375 Z M 9.40625 -3.5 C 10.207031 -3.5 10.925781 -3.679688 11.5625 -4.046875 C 12.195312 -4.410156 12.691406 -4.910156 13.046875 -5.546875 C 13.410156 -6.179688 13.59375 -6.90625 13.59375 -7.71875 C 13.59375 -8.519531 13.410156 -9.238281 13.046875 -9.875 C 12.691406 -10.507812 12.195312 -11.007812 11.5625 -11.375 C 10.925781 -11.75 10.207031 -11.9375 9.40625 -11.9375 C 8.582031 -11.9375 7.859375 -11.75 7.234375 -11.375 C 6.609375 -11.007812 6.113281 -10.507812 5.75 -9.875 C 5.394531 -9.238281 5.21875 -8.519531 5.21875 -7.71875 C 5.21875 -6.90625 5.394531 -6.179688 5.75 -5.546875 C 6.113281 -4.921875 6.609375 -4.421875 7.234375 -4.046875 C 7.859375 -3.679688 8.582031 -3.5 9.40625 -3.5 Z M 9.40625 -3.5 "/></g></g></g><g fill="#f6f6f6" fill-opacity="1"><g transform="translate(248.929961, 263.243728)"><g><path d="M 10.765625 -15.765625 C 12.515625 -15.765625 13.894531 -15.175781 14.90625 -14 C 15.925781 -12.832031 16.4375 -11.269531 16.4375 -9.3125 L 16.4375 0 L 12.28125 0 L 12.28125 -8.65625 C 12.28125 -10.957031 11.390625 -12.109375 9.609375 -12.109375 C 8.546875 -12.109375 7.703125 -11.75 7.078125 -11.03125 C 6.460938 -10.3125 6.15625 -9.332031 6.15625 -8.09375 L 6.15625 0 L 2 0 L 2 -15.390625 L 4.84375 -15.390625 L 5.671875 -13.484375 C 6.242188 -14.179688 6.972656 -14.734375 7.859375 -15.140625 C 8.753906 -15.554688 9.722656 -15.765625 10.765625 -15.765625 Z M 10.765625 -15.765625 "/></g></g></g><g fill="#f6f6f6" fill-opacity="1"><g transform="translate(267.190931, 263.243728)"><g><path d="M 2 -17.4375 L 2 -21.3125 L 6.15625 -21.3125 L 6.15625 -17.4375 Z M 2 0 L 2 -15.390625 L 6.15625 -15.390625 L 6.15625 0 Z M 2 0 "/></g></g></g><g fill="#f6f6f6" fill-opacity="1"><g transform="translate(275.338574, 263.243728)"><g><path d="M 14.5625 -15.421875 L 17.671875 -15.421875 L 17.671875 -0.03125 L 14.390625 -0.03125 L 14.046875 -1.390625 C 13.378906 -0.828125 12.625 -0.382812 11.78125 -0.0625 C 10.9375 0.257812 10.03125 0.421875 9.0625 0.421875 C 7.519531 0.421875 6.140625 0.0664062 4.921875 -0.640625 C 3.710938 -1.347656 2.753906 -2.316406 2.046875 -3.546875 C 1.347656 -4.773438 1 -6.164062 1 -7.71875 C 1 -9.257812 1.347656 -10.640625 2.046875 -11.859375 C 2.753906 -13.085938 3.710938 -14.050781 4.921875 -14.75 C 6.140625 -15.457031 7.519531 -15.8125 9.0625 -15.8125 C 10.050781 -15.8125 10.972656 -15.644531 11.828125 -15.3125 C 12.679688 -14.976562 13.441406 -14.519531 14.109375 -13.9375 Z M 9.40625 -3.5 C 10.207031 -3.5 10.925781 -3.679688 11.5625 -4.046875 C 12.195312 -4.410156 12.691406 -4.910156 13.046875 -5.546875 C 13.410156 -6.179688 13.59375 -6.90625 13.59375 -7.71875 C 13.59375 -8.519531 13.410156 -9.238281 13.046875 -9.875 C 12.691406 -10.507812 12.195312 -11.007812 11.5625 -11.375 C 10.925781 -11.75 10.207031 -11.9375 9.40625 -11.9375 C 8.582031 -11.9375 7.859375 -11.75 7.234375 -11.375 C 6.609375 -11.007812 6.113281 -10.507812 5.75 -9.875 C 5.394531 -9.238281 5.21875 -8.519531 5.21875 -7.71875 C 5.21875 -6.90625 5.394531 -6.179688 5.75 -5.546875 C 6.113281 -4.921875 6.609375 -4.421875 7.234375 -4.046875 C 7.859375 -3.679688 8.582031 -3.5 9.40625 -3.5 Z M 9.40625 -3.5 "/></g></g></g><g fill="#f6f6f6" fill-opacity="1"><g transform="translate(294.995495, 263.243728)"><g><path d="M 10.765625 -15.765625 C 12.515625 -15.765625 13.894531 -15.175781 14.90625 -14 C 15.925781 -12.832031 16.4375 -11.269531 16.4375 -9.3125 L 16.4375 0 L 12.28125 0 L 12.28125 -8.65625 C 12.28125 -10.957031 11.390625 -12.109375 9.609375 -12.109375 C 8.546875 -12.109375 7.703125 -11.75 7.078125 -11.03125 C 6.460938 -10.3125 6.15625 -9.332031 6.15625 -8.09375 L 6.15625 0 L 2 0 L 2 -15.390625 L 4.84375 -15.390625 L 5.671875 -13.484375 C 6.242188 -14.179688 6.972656 -14.734375 7.859375 -15.140625 C 8.753906 -15.554688 9.722656 -15.765625 10.765625 -15.765625 Z M 10.765625 -15.765625 "/></g></g></g><g fill="#f6f6f6" fill-opacity="1"><g transform="translate(65.504609, 280.344123)"><g><path d="M 4.203125 0.15625 C 3.671875 0.15625 3.171875 0.0625 2.703125 -0.125 C 2.242188 -0.320312 1.84375 -0.59375 1.5 -0.9375 C 1.15625 -1.28125 0.890625 -1.6875 0.703125 -2.15625 C 0.515625 -2.625 0.421875 -3.128906 0.421875 -3.671875 C 0.421875 -4.210938 0.515625 -4.71875 0.703125 -5.1875 C 0.890625 -5.65625 1.15625 -6.0625 1.5 -6.40625 C 1.84375 -6.757812 2.242188 -7.03125 2.703125 -7.21875 C 3.171875 -7.40625 3.671875 -7.5 4.203125 -7.5 C 4.804688 -7.5 5.351562 -7.375 5.84375 -7.125 C 6.34375 -6.882812 6.757812 -6.546875 7.09375 -6.109375 C 7.4375 -5.671875 7.660156 -5.160156 7.765625 -4.578125 L 6.171875 -4.578125 C 6.023438 -5.015625 5.773438 -5.359375 5.421875 -5.609375 C 5.078125 -5.867188 4.671875 -6 4.203125 -6 C 3.796875 -6 3.425781 -5.894531 3.09375 -5.6875 C 2.769531 -5.476562 2.507812 -5.195312 2.3125 -4.84375 C 2.125 -4.5 2.03125 -4.109375 2.03125 -3.671875 C 2.03125 -3.222656 2.125 -2.828125 2.3125 -2.484375 C 2.507812 -2.140625 2.769531 -1.863281 3.09375 -1.65625 C 3.425781 -1.457031 3.796875 -1.359375 4.203125 -1.359375 C 4.691406 -1.359375 5.109375 -1.492188 5.453125 -1.765625 C 5.804688 -2.035156 6.050781 -2.40625 6.1875 -2.875 L 7.796875 -2.875 C 7.679688 -2.269531 7.457031 -1.738281 7.125 -1.28125 C 6.789062 -0.820312 6.375 -0.46875 5.875 -0.21875 C 5.375 0.03125 4.816406 0.15625 4.203125 0.15625 Z M 4.203125 0.15625 "/></g></g></g><g fill="#f6f6f6" fill-opacity="1"><g transform="translate(74.650074, 280.344123)"><g><path d="M 3.4375 0.15625 C 2.84375 0.15625 2.316406 0.0234375 1.859375 -0.234375 C 1.398438 -0.492188 1.035156 -0.847656 0.765625 -1.296875 C 0.503906 -1.753906 0.375 -2.265625 0.375 -2.828125 C 0.375 -3.410156 0.503906 -3.925781 0.765625 -4.375 C 1.035156 -4.820312 1.398438 -5.175781 1.859375 -5.4375 C 2.316406 -5.695312 2.84375 -5.828125 3.4375 -5.828125 C 4.019531 -5.828125 4.539062 -5.695312 5 -5.4375 C 5.457031 -5.175781 5.816406 -4.820312 6.078125 -4.375 C 6.347656 -3.925781 6.484375 -3.410156 6.484375 -2.828125 C 6.484375 -2.265625 6.347656 -1.753906 6.078125 -1.296875 C 5.816406 -0.847656 5.457031 -0.492188 5 -0.234375 C 4.539062 0.0234375 4.019531 0.15625 3.4375 0.15625 Z M 3.4375 -1.28125 C 3.875 -1.28125 4.234375 -1.421875 4.515625 -1.703125 C 4.796875 -1.992188 4.9375 -2.367188 4.9375 -2.828125 C 4.9375 -3.296875 4.796875 -3.671875 4.515625 -3.953125 C 4.234375 -4.242188 3.875 -4.390625 3.4375 -4.390625 C 2.988281 -4.390625 2.625 -4.242188 2.34375 -3.953125 C 2.0625 -3.671875 1.921875 -3.296875 1.921875 -2.828125 C 1.921875 -2.367188 2.0625 -1.992188 2.34375 -1.703125 C 2.625 -1.421875 2.988281 -1.28125 3.4375 -1.28125 Z M 3.4375 -1.28125 "/></g></g></g><g fill="#f6f6f6" fill-opacity="1"><g transform="translate(82.556545, 280.344123)"><g><path d="M 3.96875 -5.8125 C 4.613281 -5.8125 5.125 -5.59375 5.5 -5.15625 C 5.875 -4.726562 6.0625 -4.15625 6.0625 -3.4375 L 6.0625 0 L 4.53125 0 L 4.53125 -3.1875 C 4.53125 -4.039062 4.195312 -4.46875 3.53125 -4.46875 C 3.144531 -4.46875 2.835938 -4.332031 2.609375 -4.0625 C 2.378906 -3.800781 2.265625 -3.441406 2.265625 -2.984375 L 2.265625 0 L 0.734375 0 L 0.734375 -5.671875 L 1.78125 -5.671875 L 2.09375 -4.96875 C 2.300781 -5.226562 2.566406 -5.429688 2.890625 -5.578125 C 3.222656 -5.734375 3.582031 -5.8125 3.96875 -5.8125 Z M 3.96875 -5.8125 "/></g></g></g><g fill="#f6f6f6" fill-opacity="1"><g transform="translate(90.337016, 280.344123)"><g><path d="M 2.75 0.15625 C 2.269531 0.15625 1.851562 0.0703125 1.5 -0.09375 C 1.144531 -0.257812 0.867188 -0.492188 0.671875 -0.796875 C 0.472656 -1.109375 0.375 -1.46875 0.375 -1.875 L 1.859375 -1.875 C 1.867188 -1.613281 1.957031 -1.421875 2.125 -1.296875 C 2.300781 -1.171875 2.523438 -1.109375 2.796875 -1.109375 C 3.015625 -1.109375 3.203125 -1.15625 3.359375 -1.25 C 3.523438 -1.34375 3.609375 -1.488281 3.609375 -1.6875 C 3.609375 -1.875 3.5 -2.007812 3.28125 -2.09375 C 3.070312 -2.175781 2.816406 -2.238281 2.515625 -2.28125 C 2.296875 -2.320312 2.0625 -2.375 1.8125 -2.4375 C 1.570312 -2.5 1.347656 -2.585938 1.140625 -2.703125 C 0.941406 -2.828125 0.78125 -2.992188 0.65625 -3.203125 C 0.53125 -3.410156 0.46875 -3.679688 0.46875 -4.015625 C 0.46875 -4.378906 0.5625 -4.695312 0.75 -4.96875 C 0.945312 -5.238281 1.210938 -5.445312 1.546875 -5.59375 C 1.890625 -5.75 2.289062 -5.828125 2.75 -5.828125 C 3.207031 -5.828125 3.601562 -5.75 3.9375 -5.59375 C 4.28125 -5.4375 4.546875 -5.210938 4.734375 -4.921875 C 4.921875 -4.640625 5.015625 -4.3125 5.015625 -3.9375 L 3.5625 -3.9375 C 3.5625 -4.164062 3.484375 -4.332031 3.328125 -4.4375 C 3.179688 -4.550781 2.972656 -4.609375 2.703125 -4.609375 C 2.472656 -4.609375 2.289062 -4.554688 2.15625 -4.453125 C 2.019531 -4.359375 1.953125 -4.226562 1.953125 -4.0625 C 1.953125 -3.875 2.054688 -3.742188 2.265625 -3.671875 C 2.472656 -3.597656 2.726562 -3.539062 3.03125 -3.5 C 3.257812 -3.457031 3.492188 -3.40625 3.734375 -3.34375 C 3.984375 -3.28125 4.210938 -3.1875 4.421875 -3.0625 C 4.628906 -2.945312 4.796875 -2.785156 4.921875 -2.578125 C 5.054688 -2.367188 5.125 -2.09375 5.125 -1.75 C 5.125 -1.363281 5.023438 -1.023438 4.828125 -0.734375 C 4.628906 -0.453125 4.351562 -0.234375 4 -0.078125 C 3.644531 0.078125 3.226562 0.15625 2.75 0.15625 Z M 2.75 0.15625 "/></g></g></g><g fill="#f6f6f6" fill-opacity="1"><g transform="translate(96.899493, 280.344123)"><g><path d="M 3.328125 0.15625 C 2.796875 0.15625 2.328125 0.0507812 1.921875 -0.15625 C 1.523438 -0.375 1.210938 -0.671875 0.984375 -1.046875 C 0.765625 -1.429688 0.65625 -1.878906 0.65625 -2.390625 L 0.65625 -5.671875 L 2.1875 -5.671875 L 2.1875 -2.578125 C 2.1875 -2.171875 2.285156 -1.851562 2.484375 -1.625 C 2.691406 -1.394531 2.972656 -1.28125 3.328125 -1.28125 C 3.679688 -1.28125 3.957031 -1.394531 4.15625 -1.625 C 4.351562 -1.851562 4.453125 -2.171875 4.453125 -2.578125 L 4.453125 -5.671875 L 5.984375 -5.671875 L 5.984375 -2.390625 C 5.984375 -1.878906 5.875 -1.429688 5.65625 -1.046875 C 5.4375 -0.671875 5.125 -0.375 4.71875 -0.15625 C 4.320312 0.0507812 3.859375 0.15625 3.328125 0.15625 Z M 3.328125 0.15625 "/></g></g></g><g fill="#f6f6f6" fill-opacity="1"><g transform="translate(104.595965, 280.344123)"><g><path d="M 0.734375 0 L 0.734375 -7.71875 L 2.265625 -7.71875 L 2.265625 0 Z M 0.734375 0 "/></g></g></g><g fill="#f6f6f6" fill-opacity="1"><g transform="translate(108.648947, 280.344123)"><g><path d="M 3.5 -1.359375 L 4.203125 -1.359375 L 4.203125 0 L 3.125 0 C 2.5 0 2.003906 -0.175781 1.640625 -0.53125 C 1.285156 -0.894531 1.109375 -1.394531 1.109375 -2.03125 L 1.109375 -4.4375 L 0.078125 -4.4375 L 0.078125 -4.765625 L 2.328125 -7.15625 L 2.609375 -7.15625 L 2.609375 -5.671875 L 4.171875 -5.671875 L 4.171875 -4.4375 L 2.640625 -4.4375 L 2.640625 -2.21875 C 2.640625 -1.945312 2.710938 -1.734375 2.859375 -1.578125 C 3.015625 -1.429688 3.226562 -1.359375 3.5 -1.359375 Z M 3.5 -1.359375 "/></g></g></g><g fill="#f6f6f6" fill-opacity="1"><g transform="translate(114.213922, 280.344123)"><g><path d="M 5.359375 -5.6875 L 6.515625 -5.6875 L 6.515625 -0.015625 L 5.296875 -0.015625 L 5.171875 -0.515625 C 4.929688 -0.304688 4.65625 -0.140625 4.34375 -0.015625 C 4.03125 0.0976562 3.695312 0.15625 3.34375 0.15625 C 2.769531 0.15625 2.257812 0.0234375 1.8125 -0.234375 C 1.363281 -0.492188 1.007812 -0.847656 0.75 -1.296875 C 0.5 -1.753906 0.375 -2.269531 0.375 -2.84375 C 0.375 -3.414062 0.5 -3.925781 0.75 -4.375 C 1.007812 -4.820312 1.363281 -5.175781 1.8125 -5.4375 C 2.257812 -5.695312 2.769531 -5.828125 3.34375 -5.828125 C 3.707031 -5.828125 4.046875 -5.765625 4.359375 -5.640625 C 4.671875 -5.515625 4.953125 -5.347656 5.203125 -5.140625 Z M 3.46875 -1.296875 C 3.757812 -1.296875 4.019531 -1.359375 4.25 -1.484375 C 4.488281 -1.617188 4.675781 -1.800781 4.8125 -2.03125 C 4.945312 -2.269531 5.015625 -2.539062 5.015625 -2.84375 C 5.015625 -3.132812 4.945312 -3.394531 4.8125 -3.625 C 4.675781 -3.863281 4.488281 -4.050781 4.25 -4.1875 C 4.019531 -4.332031 3.757812 -4.40625 3.46875 -4.40625 C 3.164062 -4.40625 2.898438 -4.332031 2.671875 -4.1875 C 2.441406 -4.050781 2.257812 -3.863281 2.125 -3.625 C 1.988281 -3.394531 1.921875 -3.132812 1.921875 -2.84375 C 1.921875 -2.539062 1.988281 -2.273438 2.125 -2.046875 C 2.257812 -1.816406 2.441406 -1.632812 2.671875 -1.5 C 2.898438 -1.363281 3.164062 -1.296875 3.46875 -1.296875 Z M 3.46875 -1.296875 "/></g></g></g><g fill="#f6f6f6" fill-opacity="1"><g transform="translate(122.508886, 280.344123)"><g><path d="M 3.96875 -5.8125 C 4.613281 -5.8125 5.125 -5.59375 5.5 -5.15625 C 5.875 -4.726562 6.0625 -4.15625 6.0625 -3.4375 L 6.0625 0 L 4.53125 0 L 4.53125 -3.1875 C 4.53125 -4.039062 4.195312 -4.46875 3.53125 -4.46875 C 3.144531 -4.46875 2.835938 -4.332031 2.609375 -4.0625 C 2.378906 -3.800781 2.265625 -3.441406 2.265625 -2.984375 L 2.265625 0 L 0.734375 0 L 0.734375 -5.671875 L 1.78125 -5.671875 L 2.09375 -4.96875 C 2.300781 -5.226562 2.566406 -5.429688 2.890625 -5.578125 C 3.222656 -5.734375 3.582031 -5.8125 3.96875 -5.8125 Z M 3.96875 -5.8125 "/></g></g></g><g fill="#f6f6f6" fill-opacity="1"><g transform="translate(130.289357, 280.344123)"><g><path d="M 3.375 0.15625 C 2.800781 0.15625 2.285156 0.0234375 1.828125 -0.234375 C 1.378906 -0.503906 1.023438 -0.863281 0.765625 -1.3125 C 0.503906 -1.769531 0.375 -2.285156 0.375 -2.859375 C 0.375 -3.421875 0.503906 -3.925781 0.765625 -4.375 C 1.023438 -4.820312 1.378906 -5.175781 1.828125 -5.4375 C 2.285156 -5.695312 2.800781 -5.828125 3.375 -5.828125 C 3.863281 -5.828125 4.3125 -5.726562 4.71875 -5.53125 C 5.125 -5.34375 5.457031 -5.070312 5.71875 -4.71875 C 5.988281 -4.375 6.171875 -3.96875 6.265625 -3.5 L 4.75 -3.5 C 4.625 -3.78125 4.4375 -4 4.1875 -4.15625 C 3.945312 -4.3125 3.675781 -4.390625 3.375 -4.390625 C 3.101562 -4.390625 2.851562 -4.320312 2.625 -4.1875 C 2.40625 -4.050781 2.234375 -3.863281 2.109375 -3.625 C 1.984375 -3.394531 1.921875 -3.132812 1.921875 -2.84375 C 1.921875 -2.550781 1.984375 -2.285156 2.109375 -2.046875 C 2.234375 -1.816406 2.40625 -1.628906 2.625 -1.484375 C 2.851562 -1.347656 3.101562 -1.28125 3.375 -1.28125 C 3.6875 -1.28125 3.957031 -1.363281 4.1875 -1.53125 C 4.425781 -1.695312 4.613281 -1.929688 4.75 -2.234375 L 6.296875 -2.234375 C 6.203125 -1.753906 6.015625 -1.332031 5.734375 -0.96875 C 5.460938 -0.613281 5.125 -0.335938 4.71875 -0.140625 C 4.3125 0.0546875 3.863281 0.15625 3.375 0.15625 Z M 3.375 0.15625 "/></g></g></g><g fill="#f6f6f6" fill-opacity="1"><g transform="translate(137.901829, 280.344123)"><g><path d="M 4.65625 -5.671875 L 6.296875 -5.671875 L 3.8125 -0.078125 C 3.582031 0.429688 3.351562 0.84375 3.125 1.15625 C 2.894531 1.46875 2.632812 1.691406 2.34375 1.828125 C 2.050781 1.972656 1.691406 2.046875 1.265625 2.046875 L 0.625 2.046875 L 0.625 0.65625 L 1.171875 0.65625 C 1.410156 0.65625 1.601562 0.628906 1.75 0.578125 C 1.894531 0.523438 2.015625 0.421875 2.109375 0.265625 C 2.210938 0.117188 2.328125 -0.0976562 2.453125 -0.390625 L 2.46875 -0.4375 L 0.0625 -5.671875 L 1.734375 -5.671875 L 3.25 -2.1875 Z M 4.65625 -5.671875 "/></g></g></g><g fill="#f6f6f6" fill-opacity="1"><g transform="translate(145.272796, 280.344123)"><g><path d="M 0.703125 1.65625 L 0.703125 0.90625 C 0.992188 0.863281 1.203125 0.753906 1.328125 0.578125 C 1.453125 0.410156 1.515625 0.21875 1.515625 0 L 0.625 0 L 0.625 -1.640625 L 2.28125 -1.640625 L 2.28125 -0.125 C 2.28125 0.40625 2.132812 0.820312 1.84375 1.125 C 1.550781 1.425781 1.171875 1.601562 0.703125 1.65625 Z M 0.703125 1.65625 "/></g></g></g><g fill="#f6f6f6" fill-opacity="1"><g transform="translate(149.231285, 280.344123)"><g/></g></g><g fill="#f6f6f6" fill-opacity="1"><g transform="translate(152.790774, 280.344123)"><g><path d="M 3.625 -7.34375 C 4.164062 -7.34375 4.660156 -7.25 5.109375 -7.0625 C 5.566406 -6.882812 5.960938 -6.628906 6.296875 -6.296875 C 6.628906 -5.972656 6.882812 -5.585938 7.0625 -5.140625 C 7.25 -4.703125 7.34375 -4.21875 7.34375 -3.6875 C 7.34375 -3.15625 7.25 -2.664062 7.0625 -2.21875 C 6.882812 -1.769531 6.628906 -1.378906 6.296875 -1.046875 C 5.960938 -0.710938 5.566406 -0.453125 5.109375 -0.265625 C 4.660156 -0.0859375 4.164062 0 3.625 0 L 0.84375 0 L 0.84375 -7.34375 Z M 3.578125 -1.484375 C 3.992188 -1.484375 4.363281 -1.578125 4.6875 -1.765625 C 5.007812 -1.953125 5.257812 -2.210938 5.4375 -2.546875 C 5.625 -2.878906 5.71875 -3.257812 5.71875 -3.6875 C 5.71875 -4.113281 5.625 -4.488281 5.4375 -4.8125 C 5.257812 -5.144531 5.007812 -5.40625 4.6875 -5.59375 C 4.363281 -5.78125 3.992188 -5.875 3.578125 -5.875 L 2.4375 -5.875 L 2.4375 -1.484375 Z M 3.578125 -1.484375 "/></g></g></g><g fill="#f6f6f6" fill-opacity="1"><g transform="translate(161.621241, 280.344123)"><g><path d="M 6.234375 -2.859375 C 6.234375 -2.710938 6.222656 -2.5625 6.203125 -2.40625 L 1.921875 -2.40625 C 1.984375 -2.019531 2.132812 -1.722656 2.375 -1.515625 C 2.625 -1.304688 2.9375 -1.203125 3.3125 -1.203125 C 3.570312 -1.203125 3.804688 -1.257812 4.015625 -1.375 C 4.234375 -1.488281 4.394531 -1.648438 4.5 -1.859375 L 6.125 -1.859375 C 5.914062 -1.242188 5.554688 -0.753906 5.046875 -0.390625 C 4.546875 -0.0234375 3.96875 0.15625 3.3125 0.15625 C 2.75 0.15625 2.242188 0.0234375 1.796875 -0.234375 C 1.359375 -0.492188 1.007812 -0.847656 0.75 -1.296875 C 0.5 -1.753906 0.375 -2.265625 0.375 -2.828125 C 0.375 -3.398438 0.5 -3.910156 0.75 -4.359375 C 1.007812 -4.816406 1.359375 -5.175781 1.796875 -5.4375 C 2.242188 -5.695312 2.75 -5.828125 3.3125 -5.828125 C 3.882812 -5.828125 4.390625 -5.691406 4.828125 -5.421875 C 5.273438 -5.148438 5.617188 -4.789062 5.859375 -4.34375 C 6.109375 -3.894531 6.234375 -3.398438 6.234375 -2.859375 Z M 3.3125 -4.53125 C 2.96875 -4.53125 2.675781 -4.429688 2.4375 -4.234375 C 2.207031 -4.046875 2.050781 -3.785156 1.96875 -3.453125 L 4.703125 -3.453125 C 4.484375 -4.171875 4.019531 -4.53125 3.3125 -4.53125 Z M 3.3125 -4.53125 "/></g></g></g><g fill="#f6f6f6" fill-opacity="1"><g transform="translate(169.265207, 280.344123)"><g><path d="M 4.453125 -5.671875 L 6.046875 -5.671875 L 3.796875 0 L 2.375 0 L 0.078125 -5.671875 L 1.703125 -5.671875 L 3.09375 -1.875 Z M 4.453125 -5.671875 "/></g></g></g><g fill="#f6f6f6" fill-opacity="1"><g transform="translate(176.447176, 280.344123)"><g><path d="M 6.234375 -2.859375 C 6.234375 -2.710938 6.222656 -2.5625 6.203125 -2.40625 L 1.921875 -2.40625 C 1.984375 -2.019531 2.132812 -1.722656 2.375 -1.515625 C 2.625 -1.304688 2.9375 -1.203125 3.3125 -1.203125 C 3.570312 -1.203125 3.804688 -1.257812 4.015625 -1.375 C 4.234375 -1.488281 4.394531 -1.648438 4.5 -1.859375 L 6.125 -1.859375 C 5.914062 -1.242188 5.554688 -0.753906 5.046875 -0.390625 C 4.546875 -0.0234375 3.96875 0.15625 3.3125 0.15625 C 2.75 0.15625 2.242188 0.0234375 1.796875 -0.234375 C 1.359375 -0.492188 1.007812 -0.847656 0.75 -1.296875 C 0.5 -1.753906 0.375 -2.265625 0.375 -2.828125 C 0.375 -3.398438 0.5 -3.910156 0.75 -4.359375 C 1.007812 -4.816406 1.359375 -5.175781 1.796875 -5.4375 C 2.242188 -5.695312 2.75 -5.828125 3.3125 -5.828125 C 3.882812 -5.828125 4.390625 -5.691406 4.828125 -5.421875 C 5.273438 -5.148438 5.617188 -4.789062 5.859375 -4.34375 C 6.109375 -3.894531 6.234375 -3.398438 6.234375 -2.859375 Z M 3.3125 -4.53125 C 2.96875 -4.53125 2.675781 -4.429688 2.4375 -4.234375 C 2.207031 -4.046875 2.050781 -3.785156 1.96875 -3.453125 L 4.703125 -3.453125 C 4.484375 -4.171875 4.019531 -4.53125 3.3125 -4.53125 Z M 3.3125 -4.53125 "/></g></g></g><g fill="#f6f6f6" fill-opacity="1"><g transform="translate(184.091142, 280.344123)"><g><path d="M 0.734375 0 L 0.734375 -7.71875 L 2.265625 -7.71875 L 2.265625 0 Z M 0.734375 0 "/></g></g></g><g fill="#f6f6f6" fill-opacity="1"><g transform="translate(188.144124, 280.344123)"><g><path d="M 3.4375 0.15625 C 2.84375 0.15625 2.316406 0.0234375 1.859375 -0.234375 C 1.398438 -0.492188 1.035156 -0.847656 0.765625 -1.296875 C 0.503906 -1.753906 0.375 -2.265625 0.375 -2.828125 C 0.375 -3.410156 0.503906 -3.925781 0.765625 -4.375 C 1.035156 -4.820312 1.398438 -5.175781 1.859375 -5.4375 C 2.316406 -5.695312 2.84375 -5.828125 3.4375 -5.828125 C 4.019531 -5.828125 4.539062 -5.695312 5 -5.4375 C 5.457031 -5.175781 5.816406 -4.820312 6.078125 -4.375 C 6.347656 -3.925781 6.484375 -3.410156 6.484375 -2.828125 C 6.484375 -2.265625 6.347656 -1.753906 6.078125 -1.296875 C 5.816406 -0.847656 5.457031 -0.492188 5 -0.234375 C 4.539062 0.0234375 4.019531 0.15625 3.4375 0.15625 Z M 3.4375 -1.28125 C 3.875 -1.28125 4.234375 -1.421875 4.515625 -1.703125 C 4.796875 -1.992188 4.9375 -2.367188 4.9375 -2.828125 C 4.9375 -3.296875 4.796875 -3.671875 4.515625 -3.953125 C 4.234375 -4.242188 3.875 -4.390625 3.4375 -4.390625 C 2.988281 -4.390625 2.625 -4.242188 2.34375 -3.953125 C 2.0625 -3.671875 1.921875 -3.296875 1.921875 -2.828125 C 1.921875 -2.367188 2.0625 -1.992188 2.34375 -1.703125 C 2.625 -1.421875 2.988281 -1.28125 3.4375 -1.28125 Z M 3.4375 -1.28125 "/></g></g></g><g fill="#f6f6f6" fill-opacity="1"><g transform="translate(196.050595, 280.344123)"><g><path d="M 3.828125 -5.828125 C 4.398438 -5.828125 4.910156 -5.695312 5.359375 -5.4375 C 5.804688 -5.175781 6.15625 -4.820312 6.40625 -4.375 C 6.664062 -3.925781 6.796875 -3.410156 6.796875 -2.828125 C 6.796875 -2.253906 6.664062 -1.742188 6.40625 -1.296875 C 6.15625 -0.847656 5.804688 -0.488281 5.359375 -0.21875 C 4.910156 0.0390625 4.398438 0.171875 3.828125 0.171875 C 3.535156 0.171875 3.253906 0.128906 2.984375 0.046875 C 2.722656 -0.0351562 2.484375 -0.148438 2.265625 -0.296875 L 2.265625 2.046875 L 0.734375 2.046875 L 0.734375 -5.671875 L 1.75 -5.671875 L 2.015625 -5.15625 C 2.253906 -5.363281 2.523438 -5.523438 2.828125 -5.640625 C 3.140625 -5.765625 3.472656 -5.828125 3.828125 -5.828125 Z M 3.703125 -1.28125 C 3.992188 -1.28125 4.253906 -1.347656 4.484375 -1.484375 C 4.722656 -1.617188 4.910156 -1.800781 5.046875 -2.03125 C 5.179688 -2.269531 5.25 -2.535156 5.25 -2.828125 C 5.25 -3.128906 5.179688 -3.394531 5.046875 -3.625 C 4.910156 -3.863281 4.722656 -4.050781 4.484375 -4.1875 C 4.253906 -4.320312 3.992188 -4.390625 3.703125 -4.390625 C 3.398438 -4.390625 3.132812 -4.320312 2.90625 -4.1875 C 2.675781 -4.050781 2.492188 -3.863281 2.359375 -3.625 C 2.222656 -3.394531 2.15625 -3.128906 2.15625 -2.828125 C 2.15625 -2.535156 2.222656 -2.269531 2.359375 -2.03125 C 2.492188 -1.800781 2.675781 -1.617188 2.90625 -1.484375 C 3.132812 -1.347656 3.398438 -1.28125 3.703125 -1.28125 Z M 3.703125 -1.28125 "/></g></g></g><g fill="#f6f6f6" fill-opacity="1"><g transform="translate(204.261558, 280.344123)"><g><path d="M 7.1875 -5.8125 C 7.570312 -5.8125 7.914062 -5.710938 8.21875 -5.515625 C 8.519531 -5.328125 8.753906 -5.0625 8.921875 -4.71875 C 9.097656 -4.382812 9.1875 -4 9.1875 -3.5625 L 9.1875 0 L 7.65625 0 L 7.65625 -3.3125 C 7.65625 -4.082031 7.367188 -4.46875 6.796875 -4.46875 C 6.460938 -4.46875 6.195312 -4.34375 6 -4.09375 C 5.8125 -3.851562 5.71875 -3.507812 5.71875 -3.0625 L 5.71875 0 L 4.203125 0 L 4.203125 -3.3125 C 4.203125 -4.082031 3.925781 -4.46875 3.375 -4.46875 C 3.03125 -4.46875 2.757812 -4.34375 2.5625 -4.09375 C 2.363281 -3.851562 2.265625 -3.507812 2.265625 -3.0625 L 2.265625 0 L 0.734375 0 L 0.734375 -5.671875 L 1.8125 -5.671875 L 2.09375 -4.96875 C 2.289062 -5.21875 2.535156 -5.421875 2.828125 -5.578125 C 3.128906 -5.734375 3.453125 -5.8125 3.796875 -5.8125 C 4.148438 -5.8125 4.46875 -5.726562 4.75 -5.5625 C 5.039062 -5.40625 5.265625 -5.179688 5.421875 -4.890625 C 5.617188 -5.171875 5.867188 -5.394531 6.171875 -5.5625 C 6.484375 -5.726562 6.820312 -5.8125 7.1875 -5.8125 Z M 7.1875 -5.8125 "/></g></g></g><g fill="#f6f6f6" fill-opacity="1"><g transform="translate(215.16051, 280.344123)"><g><path d="M 6.234375 -2.859375 C 6.234375 -2.710938 6.222656 -2.5625 6.203125 -2.40625 L 1.921875 -2.40625 C 1.984375 -2.019531 2.132812 -1.722656 2.375 -1.515625 C 2.625 -1.304688 2.9375 -1.203125 3.3125 -1.203125 C 3.570312 -1.203125 3.804688 -1.257812 4.015625 -1.375 C 4.234375 -1.488281 4.394531 -1.648438 4.5 -1.859375 L 6.125 -1.859375 C 5.914062 -1.242188 5.554688 -0.753906 5.046875 -0.390625 C 4.546875 -0.0234375 3.96875 0.15625 3.3125 0.15625 C 2.75 0.15625 2.242188 0.0234375 1.796875 -0.234375 C 1.359375 -0.492188 1.007812 -0.847656 0.75 -1.296875 C 0.5 -1.753906 0.375 -2.265625 0.375 -2.828125 C 0.375 -3.398438 0.5 -3.910156 0.75 -4.359375 C 1.007812 -4.816406 1.359375 -5.175781 1.796875 -5.4375 C 2.242188 -5.695312 2.75 -5.828125 3.3125 -5.828125 C 3.882812 -5.828125 4.390625 -5.691406 4.828125 -5.421875 C 5.273438 -5.148438 5.617188 -4.789062 5.859375 -4.34375 C 6.109375 -3.894531 6.234375 -3.398438 6.234375 -2.859375 Z M 3.3125 -4.53125 C 2.96875 -4.53125 2.675781 -4.429688 2.4375 -4.234375 C 2.207031 -4.046875 2.050781 -3.785156 1.96875 -3.453125 L 4.703125 -3.453125 C 4.484375 -4.171875 4.019531 -4.53125 3.3125 -4.53125 Z M 3.3125 -4.53125 "/></g></g></g><g fill="#f6f6f6" fill-opacity="1"><g transform="translate(222.804476, 280.344123)"><g><path d="M 3.96875 -5.8125 C 4.613281 -5.8125 5.125 -5.59375 5.5 -5.15625 C 5.875 -4.726562 6.0625 -4.15625 6.0625 -3.4375 L 6.0625 0 L 4.53125 0 L 4.53125 -3.1875 C 4.53125 -4.039062 4.195312 -4.46875 3.53125 -4.46875 C 3.144531 -4.46875 2.835938 -4.332031 2.609375 -4.0625 C 2.378906 -3.800781 2.265625 -3.441406 2.265625 -2.984375 L 2.265625 0 L 0.734375 0 L 0.734375 -5.671875 L 1.78125 -5.671875 L 2.09375 -4.96875 C 2.300781 -5.226562 2.566406 -5.429688 2.890625 -5.578125 C 3.222656 -5.734375 3.582031 -5.8125 3.96875 -5.8125 Z M 3.96875 -5.8125 "/></g></g></g><g fill="#f6f6f6" fill-opacity="1"><g transform="translate(230.584947, 280.344123)"><g><path d="M 3.5 -1.359375 L 4.203125 -1.359375 L 4.203125 0 L 3.125 0 C 2.5 0 2.003906 -0.175781 1.640625 -0.53125 C 1.285156 -0.894531 1.109375 -1.394531 1.109375 -2.03125 L 1.109375 -4.4375 L 0.078125 -4.4375 L 0.078125 -4.765625 L 2.328125 -7.15625 L 2.609375 -7.15625 L 2.609375 -5.671875 L 4.171875 -5.671875 L 4.171875 -4.4375 L 2.640625 -4.4375 L 2.640625 -2.21875 C 2.640625 -1.945312 2.710938 -1.734375 2.859375 -1.578125 C 3.015625 -1.429688 3.226562 -1.359375 3.5 -1.359375 Z M 3.5 -1.359375 "/></g></g></g><g fill="#f6f6f6" fill-opacity="1"><g transform="translate(236.149923, 280.344123)"><g/></g></g><g fill="#f6f6f6" fill-opacity="1"><g transform="translate(239.709413, 280.344123)"><g><path d="M 5.359375 -5.6875 L 6.515625 -5.6875 L 6.515625 -0.015625 L 5.296875 -0.015625 L 5.171875 -0.515625 C 4.929688 -0.304688 4.65625 -0.140625 4.34375 -0.015625 C 4.03125 0.0976562 3.695312 0.15625 3.34375 0.15625 C 2.769531 0.15625 2.257812 0.0234375 1.8125 -0.234375 C 1.363281 -0.492188 1.007812 -0.847656 0.75 -1.296875 C 0.5 -1.753906 0.375 -2.269531 0.375 -2.84375 C 0.375 -3.414062 0.5 -3.925781 0.75 -4.375 C 1.007812 -4.820312 1.363281 -5.175781 1.8125 -5.4375 C 2.257812 -5.695312 2.769531 -5.828125 3.34375 -5.828125 C 3.707031 -5.828125 4.046875 -5.765625 4.359375 -5.640625 C 4.671875 -5.515625 4.953125 -5.347656 5.203125 -5.140625 Z M 3.46875 -1.296875 C 3.757812 -1.296875 4.019531 -1.359375 4.25 -1.484375 C 4.488281 -1.617188 4.675781 -1.800781 4.8125 -2.03125 C 4.945312 -2.269531 5.015625 -2.539062 5.015625 -2.84375 C 5.015625 -3.132812 4.945312 -3.394531 4.8125 -3.625 C 4.675781 -3.863281 4.488281 -4.050781 4.25 -4.1875 C 4.019531 -4.332031 3.757812 -4.40625 3.46875 -4.40625 C 3.164062 -4.40625 2.898438 -4.332031 2.671875 -4.1875 C 2.441406 -4.050781 2.257812 -3.863281 2.125 -3.625 C 1.988281 -3.394531 1.921875 -3.132812 1.921875 -2.84375 C 1.921875 -2.539062 1.988281 -2.273438 2.125 -2.046875 C 2.257812 -1.816406 2.441406 -1.632812 2.671875 -1.5 C 2.898438 -1.363281 3.164062 -1.296875 3.46875 -1.296875 Z M 3.46875 -1.296875 "/></g></g></g><g fill="#f6f6f6" fill-opacity="1"><g transform="translate(248.004376, 280.344123)"><g><path d="M 3.96875 -5.8125 C 4.613281 -5.8125 5.125 -5.59375 5.5 -5.15625 C 5.875 -4.726562 6.0625 -4.15625 6.0625 -3.4375 L 6.0625 0 L 4.53125 0 L 4.53125 -3.1875 C 4.53125 -4.039062 4.195312 -4.46875 3.53125 -4.46875 C 3.144531 -4.46875 2.835938 -4.332031 2.609375 -4.0625 C 2.378906 -3.800781 2.265625 -3.441406 2.265625 -2.984375 L 2.265625 0 L 0.734375 0 L 0.734375 -5.671875 L 1.78125 -5.671875 L 2.09375 -4.96875 C 2.300781 -5.226562 2.566406 -5.429688 2.890625 -5.578125 C 3.222656 -5.734375 3.582031 -5.8125 3.96875 -5.8125 Z M 3.96875 -5.8125 "/></g></g></g><g fill="#f6f6f6" fill-opacity="1"><g transform="translate(255.784847, 280.344123)"><g><path d="M 4.90625 -7.71875 L 6.4375 -7.71875 L 6.4375 0 L 5.296875 0 L 5.125 -0.46875 C 4.882812 -0.269531 4.613281 -0.113281 4.3125 0 C 4.007812 0.113281 3.6875 0.171875 3.34375 0.171875 C 2.769531 0.171875 2.257812 0.0390625 1.8125 -0.21875 C 1.363281 -0.488281 1.007812 -0.847656 0.75 -1.296875 C 0.5 -1.742188 0.375 -2.253906 0.375 -2.828125 C 0.375 -3.410156 0.5 -3.925781 0.75 -4.375 C 1.007812 -4.820312 1.363281 -5.175781 1.8125 -5.4375 C 2.257812 -5.695312 2.769531 -5.828125 3.34375 -5.828125 C 3.632812 -5.828125 3.910156 -5.785156 4.171875 -5.703125 C 4.429688 -5.628906 4.675781 -5.515625 4.90625 -5.359375 Z M 3.46875 -1.28125 C 3.769531 -1.28125 4.035156 -1.347656 4.265625 -1.484375 C 4.492188 -1.617188 4.675781 -1.800781 4.8125 -2.03125 C 4.945312 -2.269531 5.015625 -2.535156 5.015625 -2.828125 C 5.015625 -3.128906 4.945312 -3.394531 4.8125 -3.625 C 4.675781 -3.863281 4.492188 -4.050781 4.265625 -4.1875 C 4.035156 -4.320312 3.769531 -4.390625 3.46875 -4.390625 C 3.175781 -4.390625 2.910156 -4.320312 2.671875 -4.1875 C 2.441406 -4.050781 2.257812 -3.863281 2.125 -3.625 C 1.988281 -3.394531 1.921875 -3.128906 1.921875 -2.828125 C 1.921875 -2.535156 1.988281 -2.269531 2.125 -2.03125 C 2.257812 -1.800781 2.441406 -1.617188 2.671875 -1.484375 C 2.910156 -1.347656 3.175781 -1.28125 3.46875 -1.28125 Z M 3.46875 -1.28125 "/></g></g></g><g fill="#f6f6f6" fill-opacity="1"><g transform="translate(264.006305, 280.344123)"><g/></g></g><g fill="#f6f6f6" fill-opacity="1"><g transform="translate(267.565807, 280.344123)"><g><path d="M 3.625 -7.34375 C 4.164062 -7.34375 4.660156 -7.25 5.109375 -7.0625 C 5.566406 -6.882812 5.960938 -6.628906 6.296875 -6.296875 C 6.628906 -5.972656 6.882812 -5.585938 7.0625 -5.140625 C 7.25 -4.703125 7.34375 -4.21875 7.34375 -3.6875 C 7.34375 -3.15625 7.25 -2.664062 7.0625 -2.21875 C 6.882812 -1.769531 6.628906 -1.378906 6.296875 -1.046875 C 5.960938 -0.710938 5.566406 -0.453125 5.109375 -0.265625 C 4.660156 -0.0859375 4.164062 0 3.625 0 L 0.84375 0 L 0.84375 -7.34375 Z M 3.578125 -1.484375 C 3.992188 -1.484375 4.363281 -1.578125 4.6875 -1.765625 C 5.007812 -1.953125 5.257812 -2.210938 5.4375 -2.546875 C 5.625 -2.878906 5.71875 -3.257812 5.71875 -3.6875 C 5.71875 -4.113281 5.625 -4.488281 5.4375 -4.8125 C 5.257812 -5.144531 5.007812 -5.40625 4.6875 -5.59375 C 4.363281 -5.78125 3.992188 -5.875 3.578125 -5.875 L 2.4375 -5.875 L 2.4375 -1.484375 Z M 3.578125 -1.484375 "/></g></g></g><g fill="#f6f6f6" fill-opacity="1"><g transform="translate(276.396273, 280.344123)"><g><path d="M 6.234375 -2.859375 C 6.234375 -2.710938 6.222656 -2.5625 6.203125 -2.40625 L 1.921875 -2.40625 C 1.984375 -2.019531 2.132812 -1.722656 2.375 -1.515625 C 2.625 -1.304688 2.9375 -1.203125 3.3125 -1.203125 C 3.570312 -1.203125 3.804688 -1.257812 4.015625 -1.375 C 4.234375 -1.488281 4.394531 -1.648438 4.5 -1.859375 L 6.125 -1.859375 C 5.914062 -1.242188 5.554688 -0.753906 5.046875 -0.390625 C 4.546875 -0.0234375 3.96875 0.15625 3.3125 0.15625 C 2.75 0.15625 2.242188 0.0234375 1.796875 -0.234375 C 1.359375 -0.492188 1.007812 -0.847656 0.75 -1.296875 C 0.5 -1.753906 0.375 -2.265625 0.375 -2.828125 C 0.375 -3.398438 0.5 -3.910156 0.75 -4.359375 C 1.007812 -4.816406 1.359375 -5.175781 1.796875 -5.4375 C 2.242188 -5.695312 2.75 -5.828125 3.3125 -5.828125 C 3.882812 -5.828125 4.390625 -5.691406 4.828125 -5.421875 C 5.273438 -5.148438 5.617188 -4.789062 5.859375 -4.34375 C 6.109375 -3.894531 6.234375 -3.398438 6.234375 -2.859375 Z M 3.3125 -4.53125 C 2.96875 -4.53125 2.675781 -4.429688 2.4375 -4.234375 C 2.207031 -4.046875 2.050781 -3.785156 1.96875 -3.453125 L 4.703125 -3.453125 C 4.484375 -4.171875 4.019531 -4.53125 3.3125 -4.53125 Z M 3.3125 -4.53125 "/></g></g></g><g fill="#f6f6f6" fill-opacity="1"><g transform="translate(284.04024, 280.344123)"><g><path d="M 2.75 0.15625 C 2.269531 0.15625 1.851562 0.0703125 1.5 -0.09375 C 1.144531 -0.257812 0.867188 -0.492188 0.671875 -0.796875 C 0.472656 -1.109375 0.375 -1.46875 0.375 -1.875 L 1.859375 -1.875 C 1.867188 -1.613281 1.957031 -1.421875 2.125 -1.296875 C 2.300781 -1.171875 2.523438 -1.109375 2.796875 -1.109375 C 3.015625 -1.109375 3.203125 -1.15625 3.359375 -1.25 C 3.523438 -1.34375 3.609375 -1.488281 3.609375 -1.6875 C 3.609375 -1.875 3.5 -2.007812 3.28125 -2.09375 C 3.070312 -2.175781 2.816406 -2.238281 2.515625 -2.28125 C 2.296875 -2.320312 2.0625 -2.375 1.8125 -2.4375 C 1.570312 -2.5 1.347656 -2.585938 1.140625 -2.703125 C 0.941406 -2.828125 0.78125 -2.992188 0.65625 -3.203125 C 0.53125 -3.410156 0.46875 -3.679688 0.46875 -4.015625 C 0.46875 -4.378906 0.5625 -4.695312 0.75 -4.96875 C 0.945312 -5.238281 1.210938 -5.445312 1.546875 -5.59375 C 1.890625 -5.75 2.289062 -5.828125 2.75 -5.828125 C 3.207031 -5.828125 3.601562 -5.75 3.9375 -5.59375 C 4.28125 -5.4375 4.546875 -5.210938 4.734375 -4.921875 C 4.921875 -4.640625 5.015625 -4.3125 5.015625 -3.9375 L 3.5625 -3.9375 C 3.5625 -4.164062 3.484375 -4.332031 3.328125 -4.4375 C 3.179688 -4.550781 2.972656 -4.609375 2.703125 -4.609375 C 2.472656 -4.609375 2.289062 -4.554688 2.15625 -4.453125 C 2.019531 -4.359375 1.953125 -4.226562 1.953125 -4.0625 C 1.953125 -3.875 2.054688 -3.742188 2.265625 -3.671875 C 2.472656 -3.597656 2.726562 -3.539062 3.03125 -3.5 C 3.257812 -3.457031 3.492188 -3.40625 3.734375 -3.34375 C 3.984375 -3.28125 4.210938 -3.1875 4.421875 -3.0625 C 4.628906 -2.945312 4.796875 -2.785156 4.921875 -2.578125 C 5.054688 -2.367188 5.125 -2.09375 5.125 -1.75 C 5.125 -1.363281 5.023438 -1.023438 4.828125 -0.734375 C 4.628906 -0.453125 4.351562 -0.234375 4 -0.078125 C 3.644531 0.078125 3.226562 0.15625 2.75 0.15625 Z M 2.75 0.15625 "/></g></g></g><g fill="#f6f6f6" fill-opacity="1"><g transform="translate(290.602716, 280.344123)"><g><path d="M 0.734375 -6.421875 L 0.734375 -7.859375 L 2.265625 -7.859375 L 2.265625 -6.421875 Z M 0.734375 0 L 0.734375 -5.671875 L 2.265625 -5.671875 L 2.265625 0 Z M 0.734375 0 "/></g></g></g><g fill="#f6f6f6" fill-opacity="1"><g transform="translate(294.655687, 280.344123)"><g><path d="M 5.3125 -5.671875 L 6.3125 -5.671875 L 6.3125 -0.65625 C 6.3125 -0.0625 6.191406 0.445312 5.953125 0.875 C 5.722656 1.300781 5.390625 1.628906 4.953125 1.859375 C 4.523438 2.085938 4.007812 2.203125 3.40625 2.203125 C 2.632812 2.203125 1.992188 2.015625 1.484375 1.640625 C 0.972656 1.273438 0.65625 0.769531 0.53125 0.125 L 2.046875 0.125 C 2.128906 0.375 2.300781 0.5625 2.5625 0.6875 C 2.832031 0.820312 3.101562 0.890625 3.375 0.890625 C 3.769531 0.890625 4.101562 0.769531 4.375 0.53125 C 4.65625 0.300781 4.796875 -0.0195312 4.796875 -0.4375 L 4.796875 -0.65625 C 4.578125 -0.488281 4.328125 -0.359375 4.046875 -0.265625 C 3.773438 -0.179688 3.488281 -0.140625 3.1875 -0.140625 C 2.65625 -0.140625 2.175781 -0.265625 1.75 -0.515625 C 1.320312 -0.773438 0.984375 -1.117188 0.734375 -1.546875 C 0.492188 -1.972656 0.375 -2.453125 0.375 -2.984375 C 0.375 -3.515625 0.492188 -3.992188 0.734375 -4.421875 C 0.984375 -4.859375 1.320312 -5.203125 1.75 -5.453125 C 2.175781 -5.703125 2.65625 -5.828125 3.1875 -5.828125 C 3.550781 -5.828125 3.894531 -5.765625 4.21875 -5.640625 C 4.539062 -5.515625 4.828125 -5.335938 5.078125 -5.109375 Z M 3.359375 -1.515625 C 3.773438 -1.515625 4.117188 -1.648438 4.390625 -1.921875 C 4.671875 -2.203125 4.8125 -2.554688 4.8125 -2.984375 C 4.8125 -3.398438 4.675781 -3.742188 4.40625 -4.015625 C 4.132812 -4.296875 3.785156 -4.4375 3.359375 -4.4375 C 2.941406 -4.4375 2.597656 -4.296875 2.328125 -4.015625 C 2.054688 -3.742188 1.921875 -3.398438 1.921875 -2.984375 C 1.921875 -2.554688 2.054688 -2.203125 2.328125 -1.921875 C 2.597656 -1.648438 2.941406 -1.515625 3.359375 -1.515625 Z M 3.359375 -1.515625 "/></g></g></g><g fill="#f6f6f6" fill-opacity="1"><g transform="translate(302.751168, 280.344123)"><g><path d="M 3.96875 -5.8125 C 4.613281 -5.8125 5.125 -5.59375 5.5 -5.15625 C 5.875 -4.726562 6.0625 -4.15625 6.0625 -3.4375 L 6.0625 0 L 4.53125 0 L 4.53125 -3.1875 C 4.53125 -4.039062 4.195312 -4.46875 3.53125 -4.46875 C 3.144531 -4.46875 2.835938 -4.332031 2.609375 -4.0625 C 2.378906 -3.800781 2.265625 -3.441406 2.265625 -2.984375 L 2.265625 0 L 0.734375 0 L 0.734375 -5.671875 L 1.78125 -5.671875 L 2.09375 -4.96875 C 2.300781 -5.226562 2.566406 -5.429688 2.890625 -5.578125 C 3.222656 -5.734375 3.582031 -5.8125 3.96875 -5.8125 Z M 3.96875 -5.8125 "/></g></g></g></svg>